G04*
G04 #@! TF.GenerationSoftware,Altium Limited,Altium Designer,25.8.1 (18)*
G04*
G04 Layer_Physical_Order=1*
G04 Layer_Color=255*
%FSLAX25Y25*%
%MOIN*%
G70*
G04*
G04 #@! TF.SameCoordinates,A180FE61-D380-4EF4-9951-898071ACECC8*
G04*
G04*
G04 #@! TF.FilePolarity,Positive*
G04*
G01*
G75*
%ADD10C,0.02000*%
%ADD27R,0.07100X0.04400*%
%ADD28R,0.13386X0.02362*%
%ADD29C,0.00800*%
%ADD30C,0.06378*%
%ADD31C,0.07000*%
%ADD32O,0.07087X0.12992*%
%ADD33O,0.14961X0.07874*%
%ADD34C,0.02800*%
D10*
X45500Y79500D02*
X49000Y76000D01*
X58000D02*
X62000Y72000D01*
X45500Y79500D02*
Y93500D01*
X62000Y61500D02*
Y72000D01*
X49000Y76000D02*
X58000D01*
X338500Y7000D02*
Y14100D01*
X233500Y7500D02*
Y14100D01*
X303500Y7000D02*
Y14100D01*
X268500Y7500D02*
Y14100D01*
X207784Y87500D02*
X208000D01*
X206383Y88900D02*
X207784Y87500D01*
X198000Y88900D02*
X206383D01*
X171760Y49500D02*
X184500D01*
X129500Y31000D02*
Y37600D01*
X78000Y19000D02*
Y25600D01*
X62000Y42500D02*
Y49700D01*
Y61500D02*
X78000D01*
X98500D01*
X233500Y55900D02*
Y66500D01*
X239000Y72000D01*
X338500Y55900D02*
Y64500D01*
X331000Y72000D02*
X338500Y64500D01*
X312000Y72000D02*
X331000D01*
X303500Y63500D02*
X312000Y72000D01*
X303500Y55900D02*
Y63500D01*
X295000Y72000D02*
X303500Y63500D01*
X276000Y72000D02*
X295000D01*
X268500Y64500D02*
X276000Y72000D01*
X268500Y55900D02*
Y64500D01*
X261997Y71003D02*
X268500Y64500D01*
X261000Y72000D02*
X261997Y71003D01*
X239000Y72000D02*
X261000D01*
X234000Y77000D02*
X239000Y72000D01*
X234000Y77000D02*
Y93000D01*
X233500Y93500D02*
X234000Y93000D01*
X223500Y93500D02*
Y102500D01*
X217500Y108500D02*
X223500Y102500D01*
X182000Y108500D02*
X217500D01*
X129500Y49400D02*
Y68000D01*
X134000Y72500D01*
X158500D01*
X160500Y70500D01*
Y67000D02*
Y70500D01*
Y67000D02*
X163000Y64500D01*
X171760D01*
X150450Y30550D02*
Y49450D01*
Y30550D02*
X159800Y21200D01*
X129550Y49450D02*
X150450D01*
X159800Y21200D02*
X198000D01*
X176000Y102500D02*
X182000Y108500D01*
X176000Y92000D02*
Y102500D01*
Y82500D02*
Y92000D01*
Y82500D02*
X184500Y74000D01*
Y61500D02*
Y74000D01*
X182500Y59500D02*
X184500Y61500D01*
X171760Y59500D02*
X182500D01*
X150450Y49450D02*
X150500Y49500D01*
X129500Y49400D02*
X129550Y49450D01*
X129450D02*
X129500Y49400D01*
X112050Y49450D02*
X129450D01*
X112000Y49500D02*
X112050Y49450D01*
X98500Y61500D02*
X100000Y60000D01*
X101374Y50126D02*
Y58626D01*
X100000Y60000D02*
Y60000D01*
Y60000D02*
X101374Y58626D01*
Y50126D02*
X102000Y49500D01*
X34000Y76000D02*
X42000D01*
X45500Y79500D01*
X29500Y61122D02*
Y71500D01*
X34000Y76000D01*
D27*
X129500Y49400D02*
D03*
Y37600D02*
D03*
X78000Y49700D02*
D03*
Y61500D02*
D03*
X62000D02*
D03*
Y49700D02*
D03*
X338500Y44100D02*
D03*
Y55900D02*
D03*
X303500Y44100D02*
D03*
Y55900D02*
D03*
X268500Y44100D02*
D03*
Y55900D02*
D03*
X233500Y44100D02*
D03*
Y55900D02*
D03*
X78000Y37400D02*
D03*
Y25600D02*
D03*
X233500Y25900D02*
D03*
Y14100D02*
D03*
X268500Y25900D02*
D03*
Y14100D02*
D03*
X303500Y25900D02*
D03*
Y14100D02*
D03*
X338500Y25900D02*
D03*
Y14100D02*
D03*
X198000Y88900D02*
D03*
Y77100D02*
D03*
Y21200D02*
D03*
Y33000D02*
D03*
Y49200D02*
D03*
Y61000D02*
D03*
D28*
X171760Y49500D02*
D03*
X150500D02*
D03*
Y54500D02*
D03*
Y59500D02*
D03*
Y64500D02*
D03*
X171760D02*
D03*
Y59500D02*
D03*
Y54500D02*
D03*
D29*
X78000Y37400D02*
Y49700D01*
X338500Y25900D02*
Y44100D01*
X323500Y48000D02*
X329200D01*
X333100Y44100D01*
X338500D01*
X303500Y25900D02*
Y44100D01*
X288500Y48000D02*
X294000D01*
X297900Y44100D01*
X303500D01*
X268500Y25900D02*
Y44100D01*
X253500Y48000D02*
X260000D01*
X263900Y44100D01*
X268500D01*
X233500Y25900D02*
Y44100D01*
X218500Y48000D02*
X225000D01*
X228900Y44100D01*
X233500D01*
X171760Y54500D02*
X184500D01*
X191000Y61000D01*
X198000D01*
X160000Y44000D02*
X163000Y41000D01*
X196000D01*
X163500Y54500D02*
X171760D01*
X198000Y61000D02*
Y77100D01*
Y33000D02*
Y39000D01*
X196000Y41000D02*
X198000Y39000D01*
Y43000D02*
Y49200D01*
X196000Y41000D02*
X198000Y43000D01*
X150500Y54500D02*
X158500D01*
X160000Y44000D02*
Y53000D01*
X158500Y54500D02*
X160000Y53000D01*
X158500Y59500D02*
X163500Y54500D01*
X150500Y59500D02*
X158500D01*
D30*
X223500Y93500D02*
D03*
X233500D02*
D03*
X102000Y49500D02*
D03*
X112000D02*
D03*
D31*
X218500Y38000D02*
D03*
Y48000D02*
D03*
Y18000D02*
D03*
Y28000D02*
D03*
X253500Y38000D02*
D03*
Y48000D02*
D03*
Y18000D02*
D03*
Y28000D02*
D03*
X288500Y38000D02*
D03*
Y48000D02*
D03*
Y18000D02*
D03*
Y28000D02*
D03*
X323500Y38000D02*
D03*
Y48000D02*
D03*
Y18000D02*
D03*
Y28000D02*
D03*
X166000Y92000D02*
D03*
X146000D02*
D03*
X156000D02*
D03*
X35500Y93500D02*
D03*
X15500D02*
D03*
X25500D02*
D03*
X176000Y92000D02*
D03*
X45500Y93500D02*
D03*
D32*
X47807Y51279D02*
D03*
D33*
X29500Y37500D02*
D03*
Y61122D02*
D03*
D34*
X338500Y7000D02*
D03*
X268500Y7500D02*
D03*
X233500D02*
D03*
X303500Y7000D02*
D03*
X208000Y87500D02*
D03*
X184500Y49500D02*
D03*
X129500Y31000D02*
D03*
X78000Y19000D02*
D03*
X62000Y42500D02*
D03*
M02*
