M48
;Layer_Color=9474304
;FILE_FORMAT=2:5
INCH,LZ
;TYPE=PLATED
T01F00S00C0.01400
T03F00S00C0.04000
T04F00S00C0.04016
%
T01
X0078Y0019
X0062Y00425
X01295Y0031
X01845Y00495
X02335Y00075
X02685
X03035Y0007
X03385
X0208Y00875
T03
X02185Y0018
Y0028
Y0038
Y0048
X02535
Y0038
Y0028
Y0018
X02885
Y0028
Y0038
Y0048
X03235
Y0038
Y0028
Y0018
X0176Y0092
X0166
X0156
X0146
X00455Y00935
X00355
X00255
X00155
T04
X0102Y00495
X0112
X02235Y00935
X02335
M30
