G04*
G04 #@! TF.GenerationSoftware,Altium Limited,Altium Designer,25.8.1 (18)*
G04*
G04 Layer_Color=65535*
%FSLAX25Y25*%
%MOIN*%
G70*
G04*
G04 #@! TF.SameCoordinates,A180FE61-D380-4EF4-9951-898071ACECC8*
G04*
G04*
G04 #@! TF.FilePolarity,Positive*
G04*
G01*
G75*
%ADD10C,0.02000*%
%ADD11C,0.01181*%
%ADD12C,0.01575*%
%ADD13C,0.00600*%
%ADD14C,0.01000*%
%ADD15C,0.00787*%
%ADD16C,0.01500*%
%ADD17C,0.00787*%
%ADD18C,0.00500*%
D10*
X212589Y93656D02*
G03*
X212589Y93656I-500J0D01*
G01*
X91089Y49656D02*
G03*
X91089Y49656I-500J0D01*
G01*
X172350Y45500D02*
G03*
X172350Y45500I-492J0D01*
G01*
D11*
X163124Y49700D02*
G03*
X163124Y49700I-394J0D01*
G01*
D12*
X30387Y71322D02*
G03*
X30387Y71322I-787J0D01*
G01*
D13*
X126000Y41600D02*
Y45400D01*
X133000Y41600D02*
Y45400D01*
X83118Y50000D02*
Y61000D01*
X72882Y49900D02*
Y60900D01*
X58500Y53700D02*
Y57500D01*
X65500Y53700D02*
Y57500D01*
X343618Y44400D02*
Y55400D01*
X333382Y44300D02*
Y55300D01*
X308618Y44400D02*
Y55400D01*
X298382Y44300D02*
Y55300D01*
X273618Y44400D02*
Y55400D01*
X263382Y44300D02*
Y55300D01*
X238618Y44400D02*
Y55400D01*
X228382Y44300D02*
Y55300D01*
X82488Y29600D02*
Y33400D01*
X73512Y29600D02*
Y33400D01*
X229012Y18100D02*
Y21900D01*
X237988Y18100D02*
Y21900D01*
X264012Y18100D02*
Y21900D01*
X272988Y18100D02*
Y21900D01*
X299012Y18100D02*
Y21900D01*
X307988Y18100D02*
Y21900D01*
X334012Y18100D02*
Y21900D01*
X342988Y18100D02*
Y21900D01*
X194500Y81100D02*
Y84900D01*
X201500Y81100D02*
Y84900D01*
X202488Y25200D02*
Y29000D01*
X193512Y25200D02*
Y29000D01*
X202488Y53200D02*
Y57000D01*
X193512Y53200D02*
Y57000D01*
D14*
X75400Y45700D02*
X81000D01*
X98500Y81000D02*
Y108000D01*
X335900Y40100D02*
X341500D01*
X300900D02*
X306500D01*
X265900D02*
X271500D01*
X230900D02*
X236500D01*
X209000Y17750D02*
Y18477D01*
X210500Y16750D02*
Y19250D01*
X212000Y18000D02*
X213027D01*
X212000Y15750D02*
Y20250D01*
X209000Y27750D02*
Y28477D01*
X210500Y26750D02*
Y29250D01*
X212000Y28000D02*
X213027D01*
X212000Y25750D02*
Y30250D01*
X209000Y37750D02*
Y38477D01*
X210500Y36750D02*
Y39250D01*
X212000Y38000D02*
X213027D01*
X212000Y35750D02*
Y40250D01*
X244000Y17750D02*
Y18477D01*
X245500Y16750D02*
Y19250D01*
X247000Y18000D02*
X248027D01*
X247000Y15750D02*
Y20250D01*
X244000Y27750D02*
Y28477D01*
X245500Y26750D02*
Y29250D01*
X247000Y28000D02*
X248027D01*
X247000Y25750D02*
Y30250D01*
X244000Y37750D02*
Y38477D01*
X245500Y36750D02*
Y39250D01*
X247000Y38000D02*
X248027D01*
X247000Y35750D02*
Y40250D01*
X279000Y17750D02*
Y18477D01*
X280500Y16750D02*
Y19250D01*
X282000Y18000D02*
X283027D01*
X282000Y15750D02*
Y20250D01*
X279000Y27750D02*
Y28477D01*
X280500Y26750D02*
Y29250D01*
X282000Y28000D02*
X283027D01*
X282000Y25750D02*
Y30250D01*
X279000Y37750D02*
Y38477D01*
X280500Y36750D02*
Y39250D01*
X282000Y38000D02*
X283027D01*
X282000Y35750D02*
Y40250D01*
X314000Y17750D02*
Y18477D01*
X315500Y16750D02*
Y19250D01*
X317000Y18000D02*
X318027D01*
X317000Y15750D02*
Y20250D01*
X314000Y27750D02*
Y28477D01*
X315500Y26750D02*
Y29250D01*
X317000Y28000D02*
X318027D01*
X317000Y25750D02*
Y30250D01*
X314000Y37750D02*
Y38477D01*
X315500Y36750D02*
Y39250D01*
X317000Y38000D02*
X318027D01*
X317000Y35750D02*
Y40250D01*
X145750Y101500D02*
X146477D01*
X144750Y100000D02*
X147250D01*
X146000Y97473D02*
Y98500D01*
X143750D02*
X148250D01*
X155750Y101500D02*
X156477D01*
X154750Y100000D02*
X157250D01*
X156000Y97473D02*
Y98500D01*
X153750D02*
X158250D01*
X165750Y101500D02*
X166477D01*
X164750Y100000D02*
X167250D01*
X166000Y97473D02*
Y98500D01*
X163750D02*
X168250D01*
X15250Y103000D02*
X15977D01*
X14250Y101500D02*
X16750D01*
X15500Y98973D02*
Y100000D01*
X13250D02*
X17750D01*
X25250Y103000D02*
X25977D01*
X24250Y101500D02*
X26750D01*
X25500Y98973D02*
Y100000D01*
X23250D02*
X27750D01*
X35250Y103000D02*
X35977D01*
X34250Y101500D02*
X36750D01*
X35500Y98973D02*
Y100000D01*
X33250D02*
X37750D01*
X29500Y37591D02*
Y37622D01*
X108856Y95499D02*
X106476D01*
X106238Y93357D01*
X106476Y93595D01*
X107190Y93833D01*
X107904D01*
X108618Y93595D01*
X109095Y93119D01*
X109333Y92404D01*
Y91928D01*
X109095Y91214D01*
X108618Y90738D01*
X107904Y90500D01*
X107190D01*
X106476Y90738D01*
X106238Y90976D01*
X106000Y91452D01*
X113308Y95499D02*
X110927D01*
X110689Y93357D01*
X110927Y93595D01*
X111642Y93833D01*
X112356D01*
X113070Y93595D01*
X113546Y93119D01*
X113784Y92404D01*
Y91928D01*
X113546Y91214D01*
X113070Y90738D01*
X112356Y90500D01*
X111642D01*
X110927Y90738D01*
X110689Y90976D01*
X110451Y91452D01*
X117759Y95499D02*
X115379D01*
X115141Y93357D01*
X115379Y93595D01*
X116093Y93833D01*
X116807D01*
X117521Y93595D01*
X117997Y93119D01*
X118236Y92404D01*
Y91928D01*
X117997Y91214D01*
X117521Y90738D01*
X116807Y90500D01*
X116093D01*
X115379Y90738D01*
X115141Y90976D01*
X114903Y91452D01*
X119354Y92642D02*
X123639D01*
X126543Y95499D02*
X126067Y95261D01*
X125591Y94785D01*
X125353Y94309D01*
X125115Y93595D01*
Y92404D01*
X125353Y91690D01*
X125591Y91214D01*
X126067Y90738D01*
X126543Y90500D01*
X127495D01*
X127971Y90738D01*
X128448Y91214D01*
X128686Y91690D01*
X128924Y92404D01*
Y93595D01*
X128686Y94309D01*
X128448Y94785D01*
X127971Y95261D01*
X127495Y95499D01*
X126543D01*
X130090Y93833D02*
Y91452D01*
X130328Y90738D01*
X130804Y90500D01*
X131518D01*
X131994Y90738D01*
X132709Y91452D01*
Y93833D02*
Y90500D01*
X134732Y95499D02*
Y91452D01*
X134970Y90738D01*
X135446Y90500D01*
X135922D01*
X134018Y93833D02*
X135684D01*
X57857Y95499D02*
X55476D01*
X55238Y93357D01*
X55476Y93595D01*
X56190Y93833D01*
X56904D01*
X57618Y93595D01*
X58095Y93119D01*
X58333Y92404D01*
Y91928D01*
X58095Y91214D01*
X57618Y90738D01*
X56904Y90500D01*
X56190D01*
X55476Y90738D01*
X55238Y90976D01*
X55000Y91452D01*
X59451Y95499D02*
X61356Y90500D01*
X63260Y95499D02*
X61356Y90500D01*
X63903Y92642D02*
X68188D01*
X72996Y94785D02*
X72520Y95261D01*
X71806Y95499D01*
X70854D01*
X70140Y95261D01*
X69664Y94785D01*
Y94309D01*
X69902Y93833D01*
X70140Y93595D01*
X70616Y93357D01*
X72044Y92880D01*
X72520Y92642D01*
X72758Y92404D01*
X72996Y91928D01*
Y91214D01*
X72520Y90738D01*
X71806Y90500D01*
X70854D01*
X70140Y90738D01*
X69664Y91214D01*
X75305Y93833D02*
X74829Y93595D01*
X74353Y93119D01*
X74115Y92404D01*
Y91928D01*
X74353Y91214D01*
X74829Y90738D01*
X75305Y90500D01*
X76019D01*
X76495Y90738D01*
X76972Y91214D01*
X77210Y91928D01*
Y92404D01*
X76972Y93119D01*
X76495Y93595D01*
X76019Y93833D01*
X75305D01*
X78304D02*
Y91452D01*
X78543Y90738D01*
X79019Y90500D01*
X79733D01*
X80209Y90738D01*
X80923Y91452D01*
Y93833D02*
Y90500D01*
X82232Y93833D02*
Y90500D01*
Y92404D02*
X82470Y93119D01*
X82946Y93595D01*
X83422Y93833D01*
X84137D01*
X87445Y93119D02*
X86969Y93595D01*
X86493Y93833D01*
X85779D01*
X85303Y93595D01*
X84827Y93119D01*
X84589Y92404D01*
Y91928D01*
X84827Y91214D01*
X85303Y90738D01*
X85779Y90500D01*
X86493D01*
X86969Y90738D01*
X87445Y91214D01*
X88517Y92404D02*
X91373D01*
Y92880D01*
X91135Y93357D01*
X90897Y93595D01*
X90421Y93833D01*
X89707D01*
X89231Y93595D01*
X88755Y93119D01*
X88517Y92404D01*
Y91928D01*
X88755Y91214D01*
X89231Y90738D01*
X89707Y90500D01*
X90421D01*
X90897Y90738D01*
X91373Y91214D01*
X321999Y57000D02*
Y60999D01*
X320000Y58999D01*
X322666D01*
X323999Y60999D02*
X326664D01*
Y60332D01*
X323999Y57666D01*
Y57000D01*
X283000Y60332D02*
X283666Y60999D01*
X284999D01*
X285666Y60332D01*
Y59666D01*
X284999Y58999D01*
X284333D01*
X284999D01*
X285666Y58333D01*
Y57666D01*
X284999Y57000D01*
X283666D01*
X283000Y57666D01*
X286999Y60332D02*
X287665Y60999D01*
X288998D01*
X289665Y60332D01*
Y57666D01*
X288998Y57000D01*
X287665D01*
X286999Y57666D01*
Y60332D01*
X290997D02*
X291664Y60999D01*
X292997D01*
X293663Y60332D01*
Y57666D01*
X292997Y57000D01*
X291664D01*
X290997Y57666D01*
Y60332D01*
X250000Y57000D02*
X251333D01*
X250666D01*
Y60999D01*
X250000Y60332D01*
X253332Y60999D02*
Y57000D01*
Y58333D01*
X255998Y60999D01*
X253999Y58999D01*
X255998Y57000D01*
X213000D02*
X214333D01*
X213666D01*
Y60999D01*
X213000Y60332D01*
X216332D02*
X216999Y60999D01*
X218332D01*
X218998Y60332D01*
Y57666D01*
X218332Y57000D01*
X216999D01*
X216332Y57666D01*
Y60332D01*
X220331Y60999D02*
Y57000D01*
Y58333D01*
X222997Y60999D01*
X220997Y58999D01*
X222997Y57000D01*
X256528Y89913D02*
X256052Y89675D01*
X255576Y89199D01*
X255338Y88723D01*
X255100Y88009D01*
Y86818D01*
X255338Y86104D01*
X255576Y85628D01*
X256052Y85152D01*
X256528Y84914D01*
X257480D01*
X257957Y85152D01*
X258433Y85628D01*
X258671Y86104D01*
X258909Y86818D01*
Y88009D01*
X258671Y88723D01*
X258433Y89199D01*
X257957Y89675D01*
X257480Y89913D01*
X256528D01*
X260075Y88247D02*
Y84914D01*
Y87295D02*
X260789Y88009D01*
X261265Y88247D01*
X261980D01*
X262456Y88009D01*
X262694Y87295D01*
Y84914D01*
X264003Y84200D02*
X267336Y89913D01*
X269097D02*
X268621Y89675D01*
X268145Y89199D01*
X267907Y88723D01*
X267669Y88009D01*
Y86818D01*
X267907Y86104D01*
X268145Y85628D01*
X268621Y85152D01*
X269097Y84914D01*
X270049D01*
X270525Y85152D01*
X271001Y85628D01*
X271239Y86104D01*
X271477Y86818D01*
Y88009D01*
X271239Y88723D01*
X271001Y89199D01*
X270525Y89675D01*
X270049Y89913D01*
X269097D01*
X274548D02*
X274072D01*
X273596Y89675D01*
X273358Y88961D01*
Y84914D01*
X272644Y88247D02*
X274310D01*
X277167Y89913D02*
X276691D01*
X276215Y89675D01*
X275976Y88961D01*
Y84914D01*
X275262Y88247D02*
X276929D01*
X249693Y98792D02*
Y93793D01*
X252549D01*
X256191Y98792D02*
X253097D01*
Y93793D01*
X256191D01*
X253097Y96412D02*
X255001D01*
X257025Y98792D02*
Y93793D01*
Y98792D02*
X258691D01*
X259405Y98554D01*
X259881Y98078D01*
X260119Y97602D01*
X260357Y96888D01*
Y95698D01*
X260119Y94984D01*
X259881Y94508D01*
X259405Y94032D01*
X258691Y93793D01*
X257025D01*
X268736Y98078D02*
X268260Y98554D01*
X267546Y98792D01*
X266594D01*
X265880Y98554D01*
X265404Y98078D01*
Y97602D01*
X265642Y97126D01*
X265880Y96888D01*
X266356Y96650D01*
X267784Y96174D01*
X268260Y95936D01*
X268498Y95698D01*
X268736Y95222D01*
Y94508D01*
X268260Y94032D01*
X267546Y93793D01*
X266594D01*
X265880Y94032D01*
X265404Y94508D01*
X269855Y95698D02*
X272712D01*
Y96174D01*
X272474Y96650D01*
X272236Y96888D01*
X271760Y97126D01*
X271045D01*
X270569Y96888D01*
X270093Y96412D01*
X269855Y95698D01*
Y95222D01*
X270093Y94508D01*
X270569Y94032D01*
X271045Y93793D01*
X271760D01*
X272236Y94032D01*
X272712Y94508D01*
X276639Y96412D02*
X276163Y96888D01*
X275687Y97126D01*
X274973D01*
X274497Y96888D01*
X274021Y96412D01*
X273783Y95698D01*
Y95222D01*
X274021Y94508D01*
X274497Y94032D01*
X274973Y93793D01*
X275687D01*
X276163Y94032D01*
X276639Y94508D01*
X278425Y98792D02*
Y94746D01*
X278663Y94032D01*
X279139Y93793D01*
X279615D01*
X277711Y97126D02*
X279377D01*
X280805Y98792D02*
X281043Y98554D01*
X281281Y98792D01*
X281043Y99031D01*
X280805Y98792D01*
X281043Y97126D02*
Y93793D01*
X283352Y97126D02*
X282876Y96888D01*
X282400Y96412D01*
X282162Y95698D01*
Y95222D01*
X282400Y94508D01*
X282876Y94032D01*
X283352Y93793D01*
X284066D01*
X284542Y94032D01*
X285018Y94508D01*
X285257Y95222D01*
Y95698D01*
X285018Y96412D01*
X284542Y96888D01*
X284066Y97126D01*
X283352D01*
X286352D02*
Y93793D01*
Y96174D02*
X287066Y96888D01*
X287542Y97126D01*
X288256D01*
X288732Y96888D01*
X288970Y96174D01*
Y93793D01*
X95728Y32913D02*
X95252Y32675D01*
X94776Y32199D01*
X94538Y31723D01*
X94300Y31009D01*
Y29818D01*
X94538Y29104D01*
X94776Y28628D01*
X95252Y28152D01*
X95728Y27914D01*
X96680D01*
X97157Y28152D01*
X97633Y28628D01*
X97871Y29104D01*
X98109Y29818D01*
Y31009D01*
X97871Y31723D01*
X97633Y32199D01*
X97157Y32675D01*
X96680Y32913D01*
X95728D01*
X99275Y31247D02*
Y27914D01*
Y30295D02*
X99989Y31009D01*
X100465Y31247D01*
X101180D01*
X101656Y31009D01*
X101894Y30295D01*
Y27914D01*
X103203Y27200D02*
X106535Y32913D01*
X108297D02*
X107821Y32675D01*
X107345Y32199D01*
X107107Y31723D01*
X106869Y31009D01*
Y29818D01*
X107107Y29104D01*
X107345Y28628D01*
X107821Y28152D01*
X108297Y27914D01*
X109249D01*
X109725Y28152D01*
X110201Y28628D01*
X110439Y29104D01*
X110677Y29818D01*
Y31009D01*
X110439Y31723D01*
X110201Y32199D01*
X109725Y32675D01*
X109249Y32913D01*
X108297D01*
X113748D02*
X113272D01*
X112796Y32675D01*
X112558Y31961D01*
Y27914D01*
X111844Y31247D02*
X113510D01*
X116367Y32913D02*
X115891D01*
X115415Y32675D01*
X115176Y31961D01*
Y27914D01*
X114462Y31247D02*
X116129D01*
X90549Y41092D02*
X88169D01*
X87931Y38950D01*
X88169Y39188D01*
X88883Y39426D01*
X89597D01*
X90311Y39188D01*
X90787Y38712D01*
X91025Y37998D01*
Y37522D01*
X90787Y36808D01*
X90311Y36331D01*
X89597Y36094D01*
X88883D01*
X88169Y36331D01*
X87931Y36570D01*
X87693Y37046D01*
X95001Y41092D02*
X92620D01*
X92382Y38950D01*
X92620Y39188D01*
X93334Y39426D01*
X94049D01*
X94763Y39188D01*
X95239Y38712D01*
X95477Y37998D01*
Y37522D01*
X95239Y36808D01*
X94763Y36331D01*
X94049Y36094D01*
X93334D01*
X92620Y36331D01*
X92382Y36570D01*
X92144Y37046D01*
X99452Y41092D02*
X97072D01*
X96834Y38950D01*
X97072Y39188D01*
X97786Y39426D01*
X98500D01*
X99214Y39188D01*
X99690Y38712D01*
X99928Y37998D01*
Y37522D01*
X99690Y36808D01*
X99214Y36331D01*
X98500Y36094D01*
X97786D01*
X97072Y36331D01*
X96834Y36570D01*
X96596Y37046D01*
X106641Y41092D02*
Y36094D01*
X104975Y41092D02*
X108307D01*
X109379D02*
X109617Y40854D01*
X109855Y41092D01*
X109617Y41331D01*
X109379Y41092D01*
X109617Y39426D02*
Y36094D01*
X110735Y39426D02*
Y36094D01*
Y38474D02*
X111450Y39188D01*
X111926Y39426D01*
X112640D01*
X113116Y39188D01*
X113354Y38474D01*
Y36094D01*
Y38474D02*
X114068Y39188D01*
X114544Y39426D01*
X115258D01*
X115734Y39188D01*
X115972Y38474D01*
Y36094D01*
X117543Y37998D02*
X120400D01*
Y38474D01*
X120162Y38950D01*
X119924Y39188D01*
X119448Y39426D01*
X118734D01*
X118258Y39188D01*
X117782Y38712D01*
X117543Y37998D01*
Y37522D01*
X117782Y36808D01*
X118258Y36331D01*
X118734Y36094D01*
X119448D01*
X119924Y36331D01*
X120400Y36808D01*
X121471Y39426D02*
Y36094D01*
Y37998D02*
X121709Y38712D01*
X122185Y39188D01*
X122661Y39426D01*
X123376D01*
X130599Y59998D02*
X129599Y60998D01*
X127600D01*
X126600Y59998D01*
Y56000D01*
X127600Y55000D01*
X129599D01*
X130599Y56000D01*
X132598Y55000D02*
X134597D01*
X133598D01*
Y60998D01*
X132598Y59998D01*
X73600Y73098D02*
Y67100D01*
X77599D01*
X83597Y73098D02*
X79598D01*
Y67100D01*
X83597D01*
X79598Y70099D02*
X81597D01*
X85596Y73098D02*
Y67100D01*
X88595D01*
X89595Y68100D01*
Y72098D01*
X88595Y73098D01*
X85596D01*
X91594Y67100D02*
X93594D01*
X92594D01*
Y73098D01*
X91594Y72098D01*
X329669Y67999D02*
Y64001D01*
X332335D01*
X336334Y67999D02*
X333668D01*
Y64001D01*
X336334D01*
X333668Y66000D02*
X335001D01*
X337667Y67999D02*
Y64001D01*
X339666D01*
X340332Y64667D01*
Y67333D01*
X339666Y67999D01*
X337667D01*
X344331D02*
X341665D01*
Y66000D01*
X342998Y66666D01*
X343665D01*
X344331Y66000D01*
Y64667D01*
X343665Y64001D01*
X342332D01*
X341665Y64667D01*
X297669Y67999D02*
Y64001D01*
X300335D01*
X304334Y67999D02*
X301668D01*
Y64001D01*
X304334D01*
X301668Y66000D02*
X303001D01*
X305666Y67999D02*
Y64001D01*
X307666D01*
X308332Y64667D01*
Y67333D01*
X307666Y67999D01*
X305666D01*
X311665Y64001D02*
Y67999D01*
X309665Y66000D01*
X312331D01*
X262669Y67999D02*
Y64001D01*
X265335D01*
X269334Y67999D02*
X266668D01*
Y64001D01*
X269334D01*
X266668Y66000D02*
X268001D01*
X270667Y67999D02*
Y64001D01*
X272666D01*
X273332Y64667D01*
Y67333D01*
X272666Y67999D01*
X270667D01*
X274665Y67333D02*
X275332Y67999D01*
X276664D01*
X277331Y67333D01*
Y66666D01*
X276664Y66000D01*
X275998D01*
X276664D01*
X277331Y65334D01*
Y64667D01*
X276664Y64001D01*
X275332D01*
X274665Y64667D01*
X226669Y67999D02*
Y64001D01*
X229335D01*
X233334Y67999D02*
X230668D01*
Y64001D01*
X233334D01*
X230668Y66000D02*
X232001D01*
X234666Y67999D02*
Y64001D01*
X236666D01*
X237332Y64667D01*
Y67333D01*
X236666Y67999D01*
X234666D01*
X241331Y64001D02*
X238665D01*
X241331Y66666D01*
Y67333D01*
X240665Y67999D01*
X239332D01*
X238665Y67333D01*
X157131Y75999D02*
Y71001D01*
X158131Y70001D01*
X160130D01*
X161130Y71001D01*
Y75999D01*
X163129Y70001D02*
X165129D01*
X164129D01*
Y75999D01*
X163129Y74999D01*
X317668Y9499D02*
X320334D01*
X319001D01*
Y5501D01*
X321667D02*
Y9499D01*
X323666D01*
X324333Y8833D01*
Y7500D01*
X323666Y6833D01*
X321667D01*
X328332Y9499D02*
X326999Y8833D01*
X325666Y7500D01*
Y6167D01*
X326332Y5501D01*
X327665D01*
X328332Y6167D01*
Y6833D01*
X327665Y7500D01*
X325666D01*
X283168Y9499D02*
X285834D01*
X284501D01*
Y5501D01*
X287167D02*
Y9499D01*
X289166D01*
X289833Y8833D01*
Y7500D01*
X289166Y6833D01*
X287167D01*
X293832Y9499D02*
X291166D01*
Y7500D01*
X292499Y8167D01*
X293165D01*
X293832Y7500D01*
Y6167D01*
X293165Y5501D01*
X291832D01*
X291166Y6167D01*
X248168Y9499D02*
X250834D01*
X249501D01*
Y5501D01*
X252167D02*
Y9499D01*
X254166D01*
X254833Y8833D01*
Y7500D01*
X254166Y6833D01*
X252167D01*
X258165Y5501D02*
Y9499D01*
X256166Y7500D01*
X258832D01*
X213668Y9499D02*
X216334D01*
X215001D01*
Y5501D01*
X217667D02*
Y9499D01*
X219666D01*
X220333Y8833D01*
Y7500D01*
X219666Y6833D01*
X217667D01*
X221666Y8833D02*
X222332Y9499D01*
X223665D01*
X224332Y8833D01*
Y8167D01*
X223665Y7500D01*
X222999D01*
X223665D01*
X224332Y6833D01*
Y6167D01*
X223665Y5501D01*
X222332D01*
X221666Y6167D01*
X140200Y110998D02*
X144199D01*
X142199D01*
Y105000D01*
X146198D02*
Y110998D01*
X149197D01*
X150197Y109998D01*
Y107999D01*
X149197Y106999D01*
X146198D01*
X156195Y105000D02*
X152196D01*
X156195Y108999D01*
Y109998D01*
X155195Y110998D01*
X153196D01*
X152196Y109998D01*
X9800Y112498D02*
X13799D01*
X11799D01*
Y106500D01*
X15798D02*
Y112498D01*
X18797D01*
X19797Y111498D01*
Y109499D01*
X18797Y108499D01*
X15798D01*
X21796Y106500D02*
X23796D01*
X22796D01*
Y112498D01*
X21796Y111498D01*
X232301Y106499D02*
X231302Y107499D01*
X229302D01*
X228303Y106499D01*
Y105500D01*
X229302Y104500D01*
X231302D01*
X232301Y103500D01*
Y102501D01*
X231302Y101501D01*
X229302D01*
X228303Y102501D01*
X234301Y107499D02*
Y101501D01*
X236300Y103500D01*
X238299Y101501D01*
Y107499D01*
X244297Y101501D02*
X240299D01*
X244297Y105500D01*
Y106499D01*
X243298Y107499D01*
X241298D01*
X240299Y106499D01*
X108001Y61999D02*
X107001Y62999D01*
X105002D01*
X104002Y61999D01*
Y61000D01*
X105002Y60000D01*
X107001D01*
X108001Y59000D01*
Y58001D01*
X107001Y57001D01*
X105002D01*
X104002Y58001D01*
X110000Y62999D02*
Y57001D01*
X112000Y59000D01*
X113999Y57001D01*
Y62999D01*
X115998Y57001D02*
X117998D01*
X116998D01*
Y62999D01*
X115998Y61999D01*
X334700Y31500D02*
Y37498D01*
X337699D01*
X338699Y36498D01*
Y34499D01*
X337699Y33499D01*
X334700D01*
X336699D02*
X338699Y31500D01*
X340698Y37498D02*
X344697D01*
Y36498D01*
X340698Y32500D01*
Y31500D01*
X299700D02*
Y37498D01*
X302699D01*
X303699Y36498D01*
Y34499D01*
X302699Y33499D01*
X299700D01*
X301699D02*
X303699Y31500D01*
X309697Y37498D02*
X307697Y36498D01*
X305698Y34499D01*
Y32500D01*
X306698Y31500D01*
X308697D01*
X309697Y32500D01*
Y33499D01*
X308697Y34499D01*
X305698D01*
X264700Y31500D02*
Y37498D01*
X267699D01*
X268699Y36498D01*
Y34499D01*
X267699Y33499D01*
X264700D01*
X266699D02*
X268699Y31500D01*
X274697Y37498D02*
X270698D01*
Y34499D01*
X272697Y35499D01*
X273697D01*
X274697Y34499D01*
Y32500D01*
X273697Y31500D01*
X271698D01*
X270698Y32500D01*
X229700Y31500D02*
Y37498D01*
X232699D01*
X233699Y36498D01*
Y34499D01*
X232699Y33499D01*
X229700D01*
X231699D02*
X233699Y31500D01*
X238697D02*
Y37498D01*
X235698Y34499D01*
X239697D01*
X194200Y66600D02*
Y72598D01*
X197199D01*
X198199Y71598D01*
Y69599D01*
X197199Y68599D01*
X194200D01*
X196199D02*
X198199Y66600D01*
X200198Y71598D02*
X201198Y72598D01*
X203197D01*
X204197Y71598D01*
Y70599D01*
X203197Y69599D01*
X202197D01*
X203197D01*
X204197Y68599D01*
Y67600D01*
X203197Y66600D01*
X201198D01*
X200198Y67600D01*
X61102Y26701D02*
Y32699D01*
X64101D01*
X65100Y31699D01*
Y29700D01*
X64101Y28700D01*
X61102D01*
X63101D02*
X65100Y26701D01*
X71098D02*
X67100D01*
X71098Y30700D01*
Y31699D01*
X70099Y32699D01*
X68099D01*
X67100Y31699D01*
X194200Y38600D02*
Y44598D01*
X197199D01*
X198199Y43598D01*
Y41599D01*
X197199Y40599D01*
X194200D01*
X196199D02*
X198199Y38600D01*
X200198D02*
X202197D01*
X201198D01*
Y44598D01*
X200198Y43598D01*
X12500Y75900D02*
Y81898D01*
X15499D01*
X16499Y80898D01*
Y78899D01*
X15499Y77899D01*
X12500D01*
X18498Y75900D02*
X20497D01*
X19498D01*
Y81898D01*
X18498Y80898D01*
X198999Y99498D02*
X197999Y100498D01*
X196000D01*
X195000Y99498D01*
Y95500D01*
X196000Y94500D01*
X197999D01*
X198999Y95500D01*
X200998Y99498D02*
X201998Y100498D01*
X203997D01*
X204997Y99498D01*
Y98499D01*
X203997Y97499D01*
X202997D01*
X203997D01*
X204997Y96499D01*
Y95500D01*
X203997Y94500D01*
X201998D01*
X200998Y95500D01*
X61000Y71999D02*
X60001Y72999D01*
X58001D01*
X57002Y71999D01*
Y68001D01*
X58001Y67001D01*
X60001D01*
X61000Y68001D01*
X66998Y67001D02*
X63000D01*
X66998Y71000D01*
Y71999D01*
X65999Y72999D01*
X63999D01*
X63000Y71999D01*
D15*
X216728Y88500D02*
X240272D01*
X216728D02*
Y98465D01*
X240272D01*
Y88500D02*
Y98465D01*
X118772Y44500D02*
Y54465D01*
X95228D02*
X118772D01*
X95228Y44500D02*
Y54465D01*
Y44500D02*
X118772D01*
D16*
X224000Y12000D02*
Y54000D01*
X213000Y12000D02*
X224000D01*
X213000D02*
Y13500D01*
Y54000D02*
X224000D01*
X213000Y43500D02*
Y54000D01*
X259000Y12000D02*
Y54000D01*
X248000Y12000D02*
X259000D01*
X248000D02*
Y13500D01*
Y54000D02*
X259000D01*
X248000Y43500D02*
Y54000D01*
X294000Y12000D02*
Y54000D01*
X283000Y12000D02*
X294000D01*
X283000D02*
Y13500D01*
Y54000D02*
X294000D01*
X283000Y43500D02*
Y54000D01*
X329000Y12000D02*
Y54000D01*
X318000Y12000D02*
X329000D01*
X318000D02*
Y13500D01*
Y54000D02*
X329000D01*
X318000Y43500D02*
Y54000D01*
X140000Y86500D02*
X182000D01*
X140000D02*
Y97500D01*
X141500D01*
X182000Y86500D02*
Y97500D01*
X171500D02*
X182000D01*
X9500Y88000D02*
X51500D01*
X9500D02*
Y99000D01*
X11000D01*
X51500Y88000D02*
Y99000D01*
X41000D02*
X51500D01*
D17*
X154830Y46100D02*
X167428D01*
X154832Y67900D02*
X167430D01*
D18*
X47216Y7276D02*
Y42512D01*
X11784Y63968D02*
X20000D01*
X11784Y7276D02*
Y63968D01*
Y7276D02*
X47216D01*
X38200Y63968D02*
X47216D01*
Y59222D02*
Y63968D01*
M02*
