G04*
G04 #@! TF.GenerationSoftware,Altium Limited,Altium Designer,25.8.1 (18)*
G04*
G04 Layer_Color=65535*
%FSLAX25Y25*%
%MOIN*%
G70*
G04*
G04 #@! TF.SameCoordinates,A180FE61-D380-4EF4-9951-898071ACECC8*
G04*
G04*
G04 #@! TF.FilePolarity,Positive*
G04*
G01*
G75*
%ADD14C,0.01000*%
D14*
X330811Y120998D02*
X337000D01*
Y111000D01*
X330811D01*
X337000Y116237D02*
X333191D01*
X322003Y118617D02*
X322479Y119570D01*
X323431Y120522D01*
X324384Y120998D01*
X326288D01*
X327240Y120522D01*
X328192Y119570D01*
X328668Y118617D01*
X329145Y117189D01*
Y114809D01*
X328668Y113380D01*
X328192Y112428D01*
X327240Y111476D01*
X326288Y111000D01*
X324384D01*
X323431Y111476D01*
X322479Y112428D01*
X322003Y113380D01*
X313005Y120998D02*
X319194D01*
Y111000D01*
X313005D01*
X319194Y116237D02*
X315386D01*
X311339Y120998D02*
Y111000D01*
Y120998D02*
X304674Y111000D01*
Y120998D02*
Y111000D01*
X296199Y120998D02*
X300960D01*
X301436Y116713D01*
X300960Y117189D01*
X299532Y117665D01*
X298104D01*
X296675Y117189D01*
X295723Y116237D01*
X295247Y114809D01*
Y113856D01*
X295723Y112428D01*
X296675Y111476D01*
X298104Y111000D01*
X299532D01*
X300960Y111476D01*
X301436Y111952D01*
X301912Y112904D01*
X286344Y120998D02*
X291105Y111000D01*
X293009Y120998D02*
X286344D01*
X283154D02*
X277917D01*
X280774Y117189D01*
X279346D01*
X278394Y116713D01*
X277917Y116237D01*
X277441Y114809D01*
Y113856D01*
X277917Y112428D01*
X278870Y111476D01*
X280298Y111000D01*
X281726D01*
X283154Y111476D01*
X283630Y111952D01*
X284107Y112904D01*
X272347Y120998D02*
X273776Y120522D01*
X274728Y119094D01*
X275204Y116713D01*
Y115285D01*
X274728Y112904D01*
X273776Y111476D01*
X272347Y111000D01*
X271395D01*
X269967Y111476D01*
X269015Y112904D01*
X268538Y115285D01*
Y116713D01*
X269015Y119094D01*
X269967Y120522D01*
X271395Y120998D01*
X272347D01*
X255113D02*
Y111000D01*
X258445Y120998D02*
X251780D01*
X250590D02*
Y111000D01*
X248495Y120998D02*
Y111000D01*
Y120998D02*
X244687Y111000D01*
X240878Y120998D02*
X244687Y111000D01*
X240878Y120998D02*
Y111000D01*
X231832Y120998D02*
X238021D01*
Y111000D01*
X231832D01*
X238021Y116237D02*
X234212D01*
X230166Y120998D02*
Y111000D01*
Y120998D02*
X225881D01*
X224453Y120522D01*
X223977Y120046D01*
X223500Y119094D01*
Y118141D01*
X223977Y117189D01*
X224453Y116713D01*
X225881Y116237D01*
X230166D01*
X226833D02*
X223500Y111000D01*
X213407Y120998D02*
Y111000D01*
Y120998D02*
X209123D01*
X207694Y120522D01*
X207218Y120046D01*
X206742Y119094D01*
Y118141D01*
X207218Y117189D01*
X207694Y116713D01*
X209123Y116237D01*
X213407D02*
X209123D01*
X207694Y115761D01*
X207218Y115285D01*
X206742Y114333D01*
Y112904D01*
X207218Y111952D01*
X207694Y111476D01*
X209123Y111000D01*
X213407D01*
X201648Y120998D02*
X202600Y120522D01*
X203552Y119570D01*
X204029Y118617D01*
X204505Y117189D01*
Y114809D01*
X204029Y113380D01*
X203552Y112428D01*
X202600Y111476D01*
X201648Y111000D01*
X199744D01*
X198792Y111476D01*
X197839Y112428D01*
X197363Y113380D01*
X196887Y114809D01*
Y117189D01*
X197363Y118617D01*
X197839Y119570D01*
X198792Y120522D01*
X199744Y120998D01*
X201648D01*
X186937Y111000D02*
X190746Y120998D01*
X194554Y111000D01*
X193126Y114333D02*
X188365D01*
X184604Y120998D02*
Y111000D01*
Y120998D02*
X180319D01*
X178891Y120522D01*
X178415Y120046D01*
X177939Y119094D01*
Y118141D01*
X178415Y117189D01*
X178891Y116713D01*
X180319Y116237D01*
X184604D01*
X181272D02*
X177939Y111000D01*
X175701Y120998D02*
Y111000D01*
Y120998D02*
X172369D01*
X170940Y120522D01*
X169988Y119570D01*
X169512Y118617D01*
X169036Y117189D01*
Y114809D01*
X169512Y113380D01*
X169988Y112428D01*
X170940Y111476D01*
X172369Y111000D01*
X175701D01*
X137287Y16617D02*
X137668Y17379D01*
X138429Y18141D01*
X139191Y18522D01*
X140715D01*
X141477Y18141D01*
X142238Y17379D01*
X142619Y16617D01*
X143000Y15475D01*
Y13570D01*
X142619Y12428D01*
X142238Y11666D01*
X141477Y10904D01*
X140715Y10524D01*
X139191D01*
X138429Y10904D01*
X137668Y11666D01*
X137287Y12428D01*
X135040Y18522D02*
Y12809D01*
X134659Y11666D01*
X133897Y10904D01*
X132755Y10524D01*
X131993D01*
X130850Y10904D01*
X130088Y11666D01*
X129708Y12809D01*
Y18522D01*
X126737Y10904D02*
X127118Y10524D01*
X127499Y10904D01*
X127118Y11285D01*
X126737Y10904D01*
Y10143D01*
X127118Y9381D01*
X127499Y9000D01*
X118700Y18522D02*
Y10524D01*
Y18522D02*
X115273D01*
X114130Y18141D01*
X113749Y17760D01*
X113368Y16998D01*
Y16237D01*
X113749Y15475D01*
X114130Y15094D01*
X115273Y14713D01*
X118700D02*
X115273D01*
X114130Y14332D01*
X113749Y13951D01*
X113368Y13190D01*
Y12047D01*
X113749Y11285D01*
X114130Y10904D01*
X115273Y10524D01*
X118700D01*
X109674Y15856D02*
X110435Y15475D01*
X111197Y14713D01*
X111578Y13570D01*
Y12809D01*
X111197Y11666D01*
X110435Y10904D01*
X109674Y10524D01*
X108531D01*
X107770Y10904D01*
X107008Y11666D01*
X106627Y12809D01*
Y13570D01*
X107008Y14713D01*
X107770Y15475D01*
X108531Y15856D01*
X109674D01*
X104875D02*
Y12047D01*
X104494Y10904D01*
X103732Y10524D01*
X102590D01*
X101828Y10904D01*
X100685Y12047D01*
Y15856D02*
Y10524D01*
X98590Y18522D02*
Y10524D01*
X92344Y18522D02*
Y10524D01*
Y14713D02*
X93106Y15475D01*
X93868Y15856D01*
X95010D01*
X95772Y15475D01*
X96534Y14713D01*
X96915Y13570D01*
Y12809D01*
X96534Y11666D01*
X95772Y10904D01*
X95010Y10524D01*
X93868D01*
X93106Y10904D01*
X92344Y11666D01*
X90211Y13570D02*
X85641D01*
Y14332D01*
X86022Y15094D01*
X86403Y15475D01*
X87164Y15856D01*
X88307D01*
X89069Y15475D01*
X89830Y14713D01*
X90211Y13570D01*
Y12809D01*
X89830Y11666D01*
X89069Y10904D01*
X88307Y10524D01*
X87164D01*
X86403Y10904D01*
X85641Y11666D01*
X83927Y15856D02*
Y10524D01*
Y13570D02*
X83546Y14713D01*
X82784Y15475D01*
X82023Y15856D01*
X80880D01*
X79395Y10904D02*
X79775Y10524D01*
X80156Y10904D01*
X79775Y11285D01*
X79395Y10904D01*
Y10143D01*
X79775Y9381D01*
X80156Y9000D01*
X66407Y18522D02*
X71358D01*
Y10524D01*
X66407D01*
X71358Y14713D02*
X68311D01*
X59361Y16617D02*
X59742Y17379D01*
X60503Y18141D01*
X61265Y18522D01*
X62789D01*
X63550Y18141D01*
X64312Y17379D01*
X64693Y16617D01*
X65074Y15475D01*
Y13570D01*
X64693Y12428D01*
X64312Y11666D01*
X63550Y10904D01*
X62789Y10524D01*
X61265D01*
X60503Y10904D01*
X59742Y11666D01*
X59361Y12428D01*
X52162Y18522D02*
X57114D01*
Y10524D01*
X52162D01*
X57114Y14713D02*
X54067D01*
X45878Y18522D02*
X50829D01*
Y10524D01*
X45878D01*
X50829Y14713D02*
X47782D01*
X335286Y74998D02*
X339000D01*
Y69000D01*
X335286D01*
X339000Y72142D02*
X336715D01*
X330002Y73570D02*
X330288Y74141D01*
X330859Y74713D01*
X331430Y74998D01*
X332573D01*
X333144Y74713D01*
X333715Y74141D01*
X334001Y73570D01*
X334287Y72713D01*
Y71285D01*
X334001Y70428D01*
X333715Y69857D01*
X333144Y69285D01*
X332573Y69000D01*
X331430D01*
X330859Y69285D01*
X330288Y69857D01*
X330002Y70428D01*
X324603Y74998D02*
X328317D01*
Y69000D01*
X324603D01*
X328317Y72142D02*
X326031D01*
X323603Y74998D02*
Y69000D01*
Y74998D02*
X319604Y69000D01*
Y74998D02*
Y69000D01*
X314520Y74998D02*
X317376D01*
X317662Y72427D01*
X317376Y72713D01*
X316519Y72999D01*
X315662D01*
X314805Y72713D01*
X314234Y72142D01*
X313948Y71285D01*
Y70714D01*
X314234Y69857D01*
X314805Y69285D01*
X315662Y69000D01*
X316519D01*
X317376Y69285D01*
X317662Y69571D01*
X317947Y70142D01*
X308607Y74998D02*
X311463Y69000D01*
X312606Y74998D02*
X308607D01*
X306693D02*
X303551D01*
X305264Y72713D01*
X304407D01*
X303836Y72427D01*
X303551Y72142D01*
X303265Y71285D01*
Y70714D01*
X303551Y69857D01*
X304122Y69285D01*
X304979Y69000D01*
X305836D01*
X306693Y69285D01*
X306978Y69571D01*
X307264Y70142D01*
X300208Y74998D02*
X301065Y74713D01*
X301637Y73856D01*
X301922Y72427D01*
Y71570D01*
X301637Y70142D01*
X301065Y69285D01*
X300208Y69000D01*
X299637D01*
X298780Y69285D01*
X298209Y70142D01*
X297923Y71570D01*
Y72427D01*
X298209Y73856D01*
X298780Y74713D01*
X299637Y74998D01*
X300208D01*
X296581Y67000D02*
X292010D01*
X291239Y74998D02*
Y69000D01*
Y72142D02*
X290668Y72713D01*
X290096Y72999D01*
X289239D01*
X288668Y72713D01*
X288097Y72142D01*
X287811Y71285D01*
Y70714D01*
X288097Y69857D01*
X288668Y69285D01*
X289239Y69000D01*
X290096D01*
X290668Y69285D01*
X291239Y69857D01*
X286526Y72999D02*
Y69000D01*
Y71285D02*
X286240Y72142D01*
X285669Y72713D01*
X285097Y72999D01*
X284240D01*
X280270Y74998D02*
Y69000D01*
Y72142D02*
X280841Y72713D01*
X281412Y72999D01*
X282269D01*
X282841Y72713D01*
X283412Y72142D01*
X283698Y71285D01*
Y70714D01*
X283412Y69857D01*
X282841Y69285D01*
X282269Y69000D01*
X281412D01*
X280841Y69285D01*
X280270Y69857D01*
X278670Y73856D02*
X278099Y74141D01*
X277242Y74998D01*
Y69000D01*
X270843Y72999D02*
Y69000D01*
Y72142D02*
X271414Y72713D01*
X271986Y72999D01*
X272843D01*
X273414Y72713D01*
X273985Y72142D01*
X274271Y71285D01*
Y70714D01*
X273985Y69857D01*
X273414Y69285D01*
X272843Y69000D01*
X271986D01*
X271414Y69285D01*
X270843Y69857D01*
X263959Y69285D02*
X264245Y69000D01*
X264530Y69285D01*
X264245Y69571D01*
X263959Y69285D01*
Y68714D01*
X264245Y68143D01*
X264530Y67857D01*
X256218Y74998D02*
X257075Y74713D01*
X257646Y73856D01*
X257932Y72427D01*
Y71570D01*
X257646Y70142D01*
X257075Y69285D01*
X256218Y69000D01*
X255646D01*
X254789Y69285D01*
X254218Y70142D01*
X253932Y71570D01*
Y72427D01*
X254218Y73856D01*
X254789Y74713D01*
X255646Y74998D01*
X256218D01*
X248877Y72999D02*
X249162Y72142D01*
X249733Y71570D01*
X250590Y71285D01*
X250876D01*
X251733Y71570D01*
X252304Y72142D01*
X252590Y72999D01*
Y73284D01*
X252304Y74141D01*
X251733Y74713D01*
X250876Y74998D01*
X250590D01*
X249733Y74713D01*
X249162Y74141D01*
X248877Y72999D01*
Y71570D01*
X249162Y70142D01*
X249733Y69285D01*
X250590Y69000D01*
X251162D01*
X252019Y69285D01*
X252304Y69857D01*
X247248Y71570D02*
X242107D01*
X238621Y74998D02*
X239478Y74713D01*
X240050Y73856D01*
X240335Y72427D01*
Y71570D01*
X240050Y70142D01*
X239478Y69285D01*
X238621Y69000D01*
X238050D01*
X237193Y69285D01*
X236622Y70142D01*
X236336Y71570D01*
Y72427D01*
X236622Y73856D01*
X237193Y74713D01*
X238050Y74998D01*
X238621D01*
X234422D02*
X231280D01*
X232994Y72713D01*
X232137D01*
X231566Y72427D01*
X231280Y72142D01*
X230995Y71285D01*
Y70714D01*
X231280Y69857D01*
X231852Y69285D01*
X232709Y69000D01*
X233565D01*
X234422Y69285D01*
X234708Y69571D01*
X234994Y70142D01*
X229652Y71570D02*
X224510D01*
X222454Y73570D02*
Y73856D01*
X222168Y74427D01*
X221882Y74713D01*
X221311Y74998D01*
X220168D01*
X219597Y74713D01*
X219311Y74427D01*
X219026Y73856D01*
Y73284D01*
X219311Y72713D01*
X219883Y71856D01*
X222739Y69000D01*
X218740D01*
X215684Y74998D02*
X216541Y74713D01*
X217112Y73856D01*
X217397Y72427D01*
Y71570D01*
X217112Y70142D01*
X216541Y69285D01*
X215684Y69000D01*
X215112D01*
X214255Y69285D01*
X213684Y70142D01*
X213398Y71570D01*
Y72427D01*
X213684Y73856D01*
X214255Y74713D01*
X215112Y74998D01*
X215684D01*
X211770Y73570D02*
Y73856D01*
X211485Y74427D01*
X211199Y74713D01*
X210628Y74998D01*
X209485D01*
X208914Y74713D01*
X208628Y74427D01*
X208342Y73856D01*
Y73284D01*
X208628Y72713D01*
X209199Y71856D01*
X212056Y69000D01*
X208057D01*
X203286Y74998D02*
X206143D01*
X206428Y72427D01*
X206143Y72713D01*
X205286Y72999D01*
X204429D01*
X203572Y72713D01*
X203001Y72142D01*
X202715Y71285D01*
Y70714D01*
X203001Y69857D01*
X203572Y69285D01*
X204429Y69000D01*
X205286D01*
X206143Y69285D01*
X206428Y69571D01*
X206714Y70142D01*
X339000Y86141D02*
Y80143D01*
Y86141D02*
X336429D01*
X335572Y85856D01*
X335286Y85570D01*
X335001Y84999D01*
Y84427D01*
X335286Y83856D01*
X335572Y83570D01*
X336429Y83285D01*
X339000D01*
X337000D02*
X335001Y80143D01*
X333658Y84142D02*
Y81285D01*
X333373Y80428D01*
X332801Y80143D01*
X331944D01*
X331373Y80428D01*
X330516Y81285D01*
Y84142D02*
Y80143D01*
X328945Y86141D02*
Y80143D01*
Y83285D02*
X328374Y83856D01*
X327802Y84142D01*
X326945D01*
X326374Y83856D01*
X325803Y83285D01*
X325517Y82428D01*
Y81857D01*
X325803Y81000D01*
X326374Y80428D01*
X326945Y80143D01*
X327802D01*
X328374Y80428D01*
X328945Y81000D01*
X320804Y84142D02*
Y80143D01*
Y83285D02*
X321375Y83856D01*
X321947Y84142D01*
X322803D01*
X323375Y83856D01*
X323946Y83285D01*
X324232Y82428D01*
Y81857D01*
X323946Y81000D01*
X323375Y80428D01*
X322803Y80143D01*
X321947D01*
X321375Y80428D01*
X320804Y81000D01*
X319204Y84142D02*
Y80143D01*
Y82999D02*
X318347Y83856D01*
X317776Y84142D01*
X316919D01*
X316348Y83856D01*
X316062Y82999D01*
Y80143D01*
X307492Y86141D02*
X308064D01*
X308635Y85856D01*
X308921Y84999D01*
Y80143D01*
X309778Y84142D02*
X307778D01*
X305207D02*
X305779Y83856D01*
X306350Y83285D01*
X306635Y82428D01*
Y81857D01*
X306350Y81000D01*
X305779Y80428D01*
X305207Y80143D01*
X304350D01*
X303779Y80428D01*
X303208Y81000D01*
X302922Y81857D01*
Y82428D01*
X303208Y83285D01*
X303779Y83856D01*
X304350Y84142D01*
X305207D01*
X301608D02*
Y80143D01*
Y82428D02*
X301322Y83285D01*
X300751Y83856D01*
X300180Y84142D01*
X299323D01*
X295352Y86141D02*
Y80143D01*
Y83285D02*
X295923Y83856D01*
X296495Y84142D01*
X297352D01*
X297923Y83856D01*
X298494Y83285D01*
X298780Y82428D01*
Y81857D01*
X298494Y81000D01*
X297923Y80428D01*
X297352Y80143D01*
X296495D01*
X295923Y80428D01*
X295352Y81000D01*
X288468Y80428D02*
X288754Y80143D01*
X289039Y80428D01*
X288754Y80714D01*
X288468Y80428D01*
Y79857D01*
X288754Y79286D01*
X289039Y79000D01*
X280727Y86141D02*
X281584Y85856D01*
X282155Y84999D01*
X282441Y83570D01*
Y82714D01*
X282155Y81285D01*
X281584Y80428D01*
X280727Y80143D01*
X280155D01*
X279298Y80428D01*
X278727Y81285D01*
X278442Y82714D01*
Y83570D01*
X278727Y84999D01*
X279298Y85856D01*
X280155Y86141D01*
X280727D01*
X273386Y84142D02*
X273671Y83285D01*
X274242Y82714D01*
X275099Y82428D01*
X275385D01*
X276242Y82714D01*
X276813Y83285D01*
X277099Y84142D01*
Y84427D01*
X276813Y85284D01*
X276242Y85856D01*
X275385Y86141D01*
X275099D01*
X274242Y85856D01*
X273671Y85284D01*
X273386Y84142D01*
Y82714D01*
X273671Y81285D01*
X274242Y80428D01*
X275099Y80143D01*
X275671D01*
X276528Y80428D01*
X276813Y81000D01*
X271757Y82714D02*
X266616D01*
X263130Y86141D02*
X263987Y85856D01*
X264559Y84999D01*
X264844Y83570D01*
Y82714D01*
X264559Y81285D01*
X263987Y80428D01*
X263130Y80143D01*
X262559D01*
X261702Y80428D01*
X261131Y81285D01*
X260845Y82714D01*
Y83570D01*
X261131Y84999D01*
X261702Y85856D01*
X262559Y86141D01*
X263130D01*
X258931D02*
X255789D01*
X257503Y83856D01*
X256646D01*
X256075Y83570D01*
X255789Y83285D01*
X255504Y82428D01*
Y81857D01*
X255789Y81000D01*
X256361Y80428D01*
X257218Y80143D01*
X258074D01*
X258931Y80428D01*
X259217Y80714D01*
X259503Y81285D01*
X254161Y82714D02*
X249019D01*
X246963Y84713D02*
Y84999D01*
X246677Y85570D01*
X246391Y85856D01*
X245820Y86141D01*
X244677D01*
X244106Y85856D01*
X243820Y85570D01*
X243535Y84999D01*
Y84427D01*
X243820Y83856D01*
X244392Y82999D01*
X247248Y80143D01*
X243249D01*
X240193Y86141D02*
X241050Y85856D01*
X241621Y84999D01*
X241906Y83570D01*
Y82714D01*
X241621Y81285D01*
X241050Y80428D01*
X240193Y80143D01*
X239621D01*
X238764Y80428D01*
X238193Y81285D01*
X237907Y82714D01*
Y83570D01*
X238193Y84999D01*
X238764Y85856D01*
X239621Y86141D01*
X240193D01*
X236279Y84713D02*
Y84999D01*
X235994Y85570D01*
X235708Y85856D01*
X235137Y86141D01*
X233994D01*
X233423Y85856D01*
X233137Y85570D01*
X232851Y84999D01*
Y84427D01*
X233137Y83856D01*
X233708Y82999D01*
X236565Y80143D01*
X232566D01*
X227795Y86141D02*
X230652D01*
X230938Y83570D01*
X230652Y83856D01*
X229795Y84142D01*
X228938D01*
X228081Y83856D01*
X227510Y83285D01*
X227224Y82428D01*
Y81857D01*
X227510Y81000D01*
X228081Y80428D01*
X228938Y80143D01*
X229795D01*
X230652Y80428D01*
X230938Y80714D01*
X231223Y81285D01*
M02*
