G04*
G04 #@! TF.GenerationSoftware,Altium Limited,Altium Designer,25.8.1 (18)*
G04*
G04 Layer_Color=8388736*
%FSLAX25Y25*%
%MOIN*%
G70*
G04*
G04 #@! TF.SameCoordinates,A180FE61-D380-4EF4-9951-898071ACECC8*
G04*
G04*
G04 #@! TF.FilePolarity,Negative*
G04*
G01*
G75*
%ADD19C,0.00000*%
%ADD20R,0.07900X0.05200*%
%ADD21R,0.14186X0.03162*%
%ADD22C,0.07178*%
%ADD23C,0.07800*%
%ADD24O,0.07887X0.13792*%
%ADD25O,0.15761X0.08674*%
%ADD26C,0.03600*%
D19*
X236890Y93500D02*
G03*
X236890Y93500I-3390J0D01*
G01*
X226890D02*
G03*
X226890Y93500I-3390J0D01*
G01*
X105390Y49500D02*
G03*
X105390Y49500I-3390J0D01*
G01*
X115390D02*
G03*
X115390Y49500I-3390J0D01*
G01*
D20*
X129500Y49400D02*
D03*
Y37600D02*
D03*
X78000Y49700D02*
D03*
Y61500D02*
D03*
X62000D02*
D03*
Y49700D02*
D03*
X338500Y44100D02*
D03*
Y55900D02*
D03*
X303500Y44100D02*
D03*
Y55900D02*
D03*
X268500Y44100D02*
D03*
Y55900D02*
D03*
X233500Y44100D02*
D03*
Y55900D02*
D03*
X78000Y37400D02*
D03*
Y25600D02*
D03*
X233500Y25900D02*
D03*
Y14100D02*
D03*
X268500Y25900D02*
D03*
Y14100D02*
D03*
X303500Y25900D02*
D03*
Y14100D02*
D03*
X338500Y25900D02*
D03*
Y14100D02*
D03*
X198000Y88900D02*
D03*
Y77100D02*
D03*
Y21200D02*
D03*
Y33000D02*
D03*
Y49200D02*
D03*
Y61000D02*
D03*
D21*
X171760Y49500D02*
D03*
X150500D02*
D03*
Y54500D02*
D03*
Y59500D02*
D03*
Y64500D02*
D03*
X171760D02*
D03*
Y59500D02*
D03*
Y54500D02*
D03*
D22*
X223500Y93500D02*
D03*
X233500D02*
D03*
X102000Y49500D02*
D03*
X112000D02*
D03*
D23*
X218500Y38000D02*
D03*
Y48000D02*
D03*
Y18000D02*
D03*
Y28000D02*
D03*
X253500Y38000D02*
D03*
Y48000D02*
D03*
Y18000D02*
D03*
Y28000D02*
D03*
X288500Y38000D02*
D03*
Y48000D02*
D03*
Y18000D02*
D03*
Y28000D02*
D03*
X323500Y38000D02*
D03*
Y48000D02*
D03*
Y18000D02*
D03*
Y28000D02*
D03*
X166000Y92000D02*
D03*
X146000D02*
D03*
X156000D02*
D03*
X35500Y93500D02*
D03*
X15500D02*
D03*
X25500D02*
D03*
X176000Y92000D02*
D03*
X45500Y93500D02*
D03*
D24*
X47807Y51279D02*
D03*
D25*
X29500Y37500D02*
D03*
Y61122D02*
D03*
D26*
X338500Y7000D02*
D03*
X268500Y7500D02*
D03*
X233500D02*
D03*
X303500Y7000D02*
D03*
X208000Y87500D02*
D03*
X184500Y49500D02*
D03*
X129500Y31000D02*
D03*
X78000Y19000D02*
D03*
X62000Y42500D02*
D03*
M02*
