M48
;Layer_Color=9474304
;FILE_FORMAT=2:5
INCH,LZ
;TYPE=PLATED
T04F00S00C0.03150
T07F00S00C0.03937
T11F00S00C0.04724
%
G90
G05
T04
G00X0201355Y001394
M15
G01Y0009609
M16
G00X0201355Y0032641
M15
G01Y002831
M16
G00X0230645Y0032641
M15
G01Y002831
M16
G00X0230645Y001394
M15
G01Y0009609
M16
T07
G00X0143207Y0023227
M15
G01Y0029132
M16
G00X0091493Y0193395
M15
G01Y018749
M16
T11
G00X0121357Y00124
M15
G01X0128443
M16
G00X0121357Y0036022
M15
G01X0128443
M16
G00X0113343Y01806
M15
G01X0106257
M16
G00X0113343Y0204222
M15
G01X0106257
M16
M17
M30
