M48
;Layer_Color=9474304
;FILE_FORMAT=2:5
INCH,LZ
;TYPE=PLATED
T01F00S00C0.01400
T02F00S00C0.01600
T03F00S00C0.03150
T05F00S00C0.03543
T06F00S00C0.03937
T08F00S00C0.04000
T09F00S00C0.04016
T10F00S00C0.04331
%
T01
X00605Y0029
X00686Y00471
X0172355Y0008888
X02449Y00136
X02679Y00159
X02758Y00359
X026Y00449
X0254737Y0044908
X02301Y004815
Y005165
X03299Y00505
X03367Y00503
X0333153Y0046609
X03379Y00767
X0344Y00768
X03493
X02628Y00766
X0256Y00583
X02352Y00659
X02353Y00706
X025Y01026
X0254686Y0102426
X02633Y01068
X02469Y01087
X02317Y01149
Y01205
X02132Y01263
X02552Y01335
X0252Y01476
X0251Y01561
X02507Y01684
X02936Y0174
X02874Y01814
X02855Y01408
X01994Y01346
X01999Y01204
X02042Y01207
X01999Y01133
X01745Y01148
X01748Y01237
X01661Y0123
X01659Y01181
X01662Y01061
X01685Y01326
X01741Y01325
X01581Y01443
X01406Y0152
X01354
X01297
X01217Y0145
X0108323Y0143823
X009779Y0145027
X00795Y01475
X00742Y01286
X00895Y01265
X0116
X01169Y01333
X01309Y01033
X01393Y01032
X0067Y01095
X00621Y01654
X00617Y01857
X00991Y01718
X00485Y01504
X00268Y01486
X00411Y01076
T02
X02301Y00436
X02759Y00414
X02676Y00767
X02632Y01125
X02553Y01105
X02444Y01001
X02301Y00563
X0246Y01684
X02985Y01741
X028Y01407
X01742Y01396
X01745Y0109
X01407Y01574
X01355
X01298
X01127Y01474
X00894Y01325
X00924Y01719
X00621Y016
X00555Y01857
X00685Y00534
X0014Y011
X00334Y01699
T03
X0212929Y0029286
X0219228
X0216078Y0034025
X0222377
X020978
T05
X03342Y0116505
Y0142095
T06
X02265Y0196
X024028
T08
X00216Y00474
X00316
X00416
X00516
X02873Y00454
Y00354
Y00254
X03131Y00382
Y00482
Y00582
Y00682
X03195Y00875
X03295
X03395
X03495
X02997Y01169
Y01269
Y01369
Y01469
X0315Y01715
X0325
X0335
X0345
X0294Y01915
X0284
X0274
X0264
X02609Y00889
X02509
X02409
X02309
X02153Y0089
X02873Y00554
X01982Y0054
X01882
X01782
X01682
X01684Y00889
X01584
X01484
X01384
X0127Y0054
X0117
X0107
X0097
X00726Y00659
Y00759
Y00859
Y00959
X00513Y00802
X01853Y0089
X01953
X02053
X01975Y01555
X01875
X01775
X01675
X00413Y00802
X00313
X00213
T09
X01484Y00495
Y00595
X01675Y0179
X01775
X01875
X01975
T10
X01617Y00099
Y00199
Y00299
X02769Y01004
X02869
X02969
X0118Y00915
X0108
Y00815
X0098
Y00915
X0118Y00815
X01715Y02
X01815
X01915
M30
