G04*
G04 #@! TF.GenerationSoftware,Altium Limited,Altium Designer,25.8.1 (18)*
G04*
G04 Layer_Color=16711935*
%FSLAX25Y25*%
%MOIN*%
G70*
G04*
G04 #@! TF.SameCoordinates,D0629C6B-3734-46AF-A861-07DBD6719D25*
G04*
G04*
G04 #@! TF.FilePolarity,Positive*
G04*
G01*
G75*
%ADD18C,0.02000*%
D18*
X184858Y212120D02*
X258346Y212056D01*
X98500Y211877D02*
X184858Y212120D01*
X92780Y211127D02*
X98500Y211877D01*
X87582Y209773D02*
X92780Y211127D01*
X274358Y211247D02*
X278675Y210258D01*
X269827Y211781D02*
X274358Y211247D01*
X258346Y212056D02*
X269827Y211781D01*
X184858Y212120D02*
X258346Y212056D01*
X98500Y211877D02*
X184858Y212120D01*
X92780Y211127D02*
X98500Y211877D01*
X87582Y209773D02*
X92780Y211127D01*
X90279Y8515D02*
X95622Y7177D01*
X101542Y5987D01*
X108288Y4889D01*
X90279Y8515D02*
X95622Y7177D01*
X101542Y5987D01*
X108288Y4889D01*
X306949Y19669D02*
X313488Y21513D01*
X326358Y25104D01*
X337075Y28318D01*
X352741Y34499D02*
X355214Y36238D01*
X337075Y28318D02*
X345146Y31001D01*
X350079Y32998D01*
X352741Y34499D01*
X262191Y5576D02*
X268923Y6840D01*
X274960Y8251D01*
X296417Y16060D02*
X301499Y17934D01*
X306949Y19669D01*
X313488Y21513D01*
X326358Y25104D01*
X337075Y28318D01*
X345146Y31001D01*
X350079Y32998D01*
X352741Y34499D01*
X355214Y36238D01*
X361424Y42786D02*
X363064Y45383D01*
X355214Y36238D02*
X357491Y38205D01*
X359563Y40391D01*
X361424Y42786D01*
X355214Y36238D02*
X357491Y38205D01*
X359563Y40391D01*
X361424Y42786D01*
X363064Y45383D01*
X366789Y55447D02*
X367356Y60946D01*
X363064Y45383D02*
X364476Y48171D01*
X365652Y51141D01*
X366789Y55447D01*
X367356Y60946D02*
X367417Y69056D01*
X367039Y81200D02*
X367417Y69056D01*
X363064Y45383D02*
X364476Y48171D01*
X365652Y51141D01*
X366789Y55447D01*
X367356Y60946D01*
X367417Y69056D01*
X367039Y81200D02*
X367417Y69056D01*
X365829Y103781D02*
X367039Y81200D01*
X363991Y125487D02*
X365829Y103781D01*
X361482Y146752D02*
X363991Y125487D01*
X358258Y168009D02*
X361482Y146752D01*
X365829Y103781D02*
X367039Y81200D01*
X363991Y125487D02*
X365829Y103781D01*
X361482Y146752D02*
X363991Y125487D01*
X358258Y168009D02*
X361482Y146752D01*
X357119Y174381D02*
X358258Y168009D01*
X356147Y178335D02*
X357119Y174381D01*
X355019Y180868D02*
X356147Y178335D01*
X353413Y182973D02*
X355019Y180868D01*
X357119Y174381D02*
X358258Y168009D01*
X356147Y178335D02*
X357119Y174381D01*
X355019Y180868D02*
X356147Y178335D01*
X353413Y182973D02*
X355019Y180868D01*
X351518Y184728D02*
X353413Y182973D01*
X349085Y186004D02*
X351518Y184728D01*
X345551Y187017D02*
X349085Y186004D01*
X340354Y187984D02*
X345551Y187017D01*
X351518Y184728D02*
X353413Y182973D01*
X349085Y186004D02*
X351518Y184728D01*
X345551Y187017D02*
X349085Y186004D01*
X340354Y187984D02*
X345551Y187017D01*
X316191Y193995D02*
X322111Y192116D01*
X334163Y189121D02*
X340354Y187984D01*
X328092Y190495D02*
X334163Y189121D01*
X322111Y192116D02*
X328092Y190495D01*
X334163Y189121D02*
X340354Y187984D01*
X328092Y190495D02*
X334163Y189121D01*
X322111Y192116D02*
X328092Y190495D01*
X316191Y193995D02*
X322111Y192116D01*
X292524Y204285D02*
X298499Y201276D01*
X310302Y196141D02*
X316191Y193995D01*
X304415Y198565D02*
X310302Y196141D01*
X298499Y201276D02*
X304415Y198565D01*
X310302Y196141D02*
X316191Y193995D01*
X304415Y198565D02*
X310302Y196141D01*
X298499Y201276D02*
X304415Y198565D01*
X292524Y204285D02*
X298499Y201276D01*
X287066Y207042D02*
X292524Y204285D01*
X282680Y208945D02*
X287066Y207042D01*
X278675Y210258D02*
X282680Y208945D01*
X59000Y196723D02*
X65013Y199394D01*
X53750Y194633D02*
X59000Y196723D01*
X49228Y193052D02*
X53750Y194633D01*
X43750Y191425D02*
X49228Y193052D01*
X37625Y189788D02*
X43750Y191425D01*
X34000Y188988D02*
X37625Y189788D01*
X32866Y188744D02*
X34000Y188988D01*
X26241Y187504D02*
X32866Y188744D01*
X19616Y186475D02*
X26241Y187504D01*
X17730Y185828D02*
X19616Y186475D01*
X16000Y33066D02*
X19958Y31321D01*
X26360Y29099D01*
X35208Y26399D01*
X46500Y23221D01*
X64258Y18089D01*
X19958Y31321D02*
X26360Y29099D01*
X35208Y26399D01*
X46500Y23221D01*
X64258Y18089D01*
X301499Y17934D02*
X306949Y19669D01*
X296417Y16060D02*
X301499Y17934D01*
X164714Y78D02*
X182500Y-33D01*
X199510Y28D01*
X274358Y211247D02*
X278675Y210258D01*
X287066Y207042D02*
X292524Y204285D01*
X282680Y208945D02*
X287066Y207042D01*
X278675Y210258D02*
X282680Y208945D01*
X269827Y211781D02*
X274358Y211247D01*
X258346Y212056D02*
X269827Y211781D01*
X81594Y207373D02*
X87582Y209773D01*
X73500Y203487D02*
X81594Y207373D01*
X65013Y199394D02*
X73500Y203487D01*
X12532Y181129D02*
X14076Y183071D01*
X81594Y207373D02*
X87582Y209773D01*
X73500Y203487D02*
X81594Y207373D01*
X65013Y199394D02*
X73500Y203487D01*
X12532Y181129D02*
X14076Y183071D01*
X11067Y178311D02*
X12532Y181129D01*
X9824Y173949D02*
X11067Y178311D01*
X8493Y166632D02*
X9824Y173949D01*
X11067Y178311D02*
X12532Y181129D01*
X9824Y173949D02*
X11067Y178311D01*
X8493Y166632D02*
X9824Y173949D01*
X3806Y131704D02*
X6762Y154950D01*
X1695Y109587D02*
X3806Y131704D01*
X6762Y154950D01*
X1695Y109587D02*
X3806Y131704D01*
X949Y52250D02*
X1544Y50310D01*
X6762Y154950D02*
X8493Y166632D01*
X949Y52250D02*
X1544Y50310D01*
X6762Y154950D02*
X8493Y166632D01*
X1544Y50310D02*
X3376Y46200D01*
X5689Y42514D01*
X125250Y2746D02*
X139135Y1319D01*
X108288Y4889D02*
X125250Y2746D01*
X5689Y42514D02*
X8829Y38820D01*
X12399Y35532D01*
X16000Y33066D01*
X108288Y4889D02*
X125250Y2746D01*
X139135Y1319D01*
X5689Y42514D02*
X8829Y38820D01*
X12399Y35532D01*
X16000Y33066D01*
X268923Y6840D02*
X274960Y8251D01*
X235750Y2230D02*
X254557Y4415D01*
X262191Y5576D01*
X268923Y6840D01*
X235750Y2230D02*
X254557Y4415D01*
X262191Y5576D01*
X139135Y1319D02*
X151274Y479D01*
X182500Y-33D02*
X199510Y28D01*
X151274Y479D02*
X164714Y78D01*
X182500Y-33D01*
X199510Y28D02*
X211826Y330D01*
X222792Y1017D01*
X235750Y2230D01*
X139135Y1319D02*
X151274Y479D01*
X164714Y78D01*
X199510Y28D02*
X211826Y330D01*
X222792Y1017D01*
X235750Y2230D01*
X16000Y33066D02*
X19958Y31321D01*
X1544Y50310D02*
X3376Y46200D01*
X5689Y42514D01*
X85266Y10057D02*
X90279Y8515D01*
X64258Y18089D02*
X70084Y16068D01*
X75236Y13972D01*
X80334Y11857D01*
X85266Y10057D01*
X64258Y18089D02*
X70084Y16068D01*
X75236Y13972D01*
X80334Y11857D01*
X85266Y10057D01*
X90279Y8515D01*
X290981Y13800D02*
X296417Y16060D01*
X274960Y8251D02*
X280510Y9852D01*
X285781Y11688D01*
X290981Y13800D01*
X274960Y8251D02*
X280510Y9852D01*
X285781Y11688D01*
X290981Y13800D01*
X296417Y16060D01*
X32866Y188744D02*
X34000Y188988D01*
X59000Y196723D02*
X65013Y199394D01*
X53750Y194633D02*
X59000Y196723D01*
X49228Y193052D02*
X53750Y194633D01*
X43750Y191425D02*
X49228Y193052D01*
X37625Y189788D02*
X43750Y191425D01*
X34000Y188988D02*
X37625Y189788D01*
X14076Y183071D02*
X15846Y184665D01*
X26241Y187504D02*
X32866Y188744D01*
X19616Y186475D02*
X26241Y187504D01*
X17730Y185828D02*
X19616Y186475D01*
X15846Y184665D02*
X17730Y185828D01*
X14076Y183071D02*
X15846Y184665D01*
X17730Y185828D01*
X427Y88585D02*
X1695Y109587D01*
X2Y68680D02*
X427Y88585D01*
X2Y68680D02*
X94Y59976D01*
X529Y54377D01*
X949Y52250D01*
X2Y68680D02*
X94Y59976D01*
X529Y54377D02*
X949Y52250D01*
X94Y59976D02*
X529Y54377D01*
X2Y68680D02*
X427Y88585D01*
X1695Y109587D01*
M02*
