G04*
G04 #@! TF.GenerationSoftware,Altium Limited,Altium Designer,25.8.1 (18)*
G04*
G04 Layer_Color=8388736*
%FSLAX25Y25*%
%MOIN*%
G70*
G04*
G04 #@! TF.SameCoordinates,D0629C6B-3734-46AF-A861-07DBD6719D25*
G04*
G04*
G04 #@! TF.FilePolarity,Negative*
G04*
G01*
G75*
%ADD32C,0.00000*%
%ADD33R,0.05200X0.07900*%
%ADD34R,0.06706X0.05524*%
%ADD35R,0.05550X0.08280*%
%ADD36R,0.07887X0.06312*%
%ADD37R,0.06696X0.02200*%
%ADD38R,0.03162X0.06902*%
%ADD39R,0.01381X0.05909*%
%ADD40R,0.01381X0.05987*%
%ADD41R,0.02200X0.06696*%
%ADD42R,0.07900X0.05200*%
G04:AMPARAMS|DCode=43|XSize=61.15mil|YSize=31.23mil|CornerRadius=9.81mil|HoleSize=0mil|Usage=FLASHONLY|Rotation=90.000|XOffset=0mil|YOffset=0mil|HoleType=Round|Shape=RoundedRectangle|*
%AMROUNDEDRECTD43*
21,1,0.06115,0.01161,0,0,90.0*
21,1,0.04154,0.03123,0,0,90.0*
1,1,0.01961,0.00581,0.02077*
1,1,0.01961,0.00581,-0.02077*
1,1,0.01961,-0.00581,-0.02077*
1,1,0.01961,-0.00581,0.02077*
%
%ADD43ROUNDEDRECTD43*%
%ADD44C,0.07178*%
%ADD45C,0.08674*%
%ADD46O,0.15761X0.08674*%
%ADD47O,0.07887X0.13792*%
%ADD48C,0.07296*%
%ADD49C,0.07800*%
%ADD50C,0.07099*%
%ADD51O,0.05524X0.10249*%
%ADD52C,0.05524*%
%ADD53C,0.03600*%
%ADD54C,0.03800*%
D32*
X200890Y179000D02*
G03*
X200890Y179000I-3390J0D01*
G01*
X190890D02*
G03*
X190890Y179000I-3390J0D01*
G01*
X180890D02*
G03*
X180890Y179000I-3390J0D01*
G01*
X170890D02*
G03*
X170890Y179000I-3390J0D01*
G01*
X151790Y59500D02*
G03*
X151790Y59500I-3390J0D01*
G01*
Y49500D02*
G03*
X151790Y49500I-3390J0D01*
G01*
D33*
X53500Y177600D02*
D03*
X41700D02*
D03*
X243738Y76394D02*
D03*
X255900Y65900D02*
D03*
X262900Y35200D02*
D03*
X251100Y21300D02*
D03*
X122600Y69300D02*
D03*
X181800Y123600D02*
D03*
X287400Y174000D02*
D03*
X276200Y77000D02*
D03*
X181800Y134600D02*
D03*
X255538Y76394D02*
D03*
X244100Y65900D02*
D03*
X251100Y35200D02*
D03*
X262900Y21300D02*
D03*
X190400Y30600D02*
D03*
X178600D02*
D03*
X134400Y69300D02*
D03*
X97100Y115000D02*
D03*
X108900D02*
D03*
X193600Y123600D02*
D03*
Y113100D02*
D03*
X181800D02*
D03*
X193600Y134600D02*
D03*
X275600Y174000D02*
D03*
X287400Y156000D02*
D03*
X275600D02*
D03*
X81000Y165600D02*
D03*
X69200D02*
D03*
X80900Y185900D02*
D03*
X69100D02*
D03*
X288000Y77000D02*
D03*
X179300Y8950D02*
D03*
X191100D02*
D03*
D34*
X355884Y69811D02*
D03*
X329900D02*
D03*
X355884Y58000D02*
D03*
X329900D02*
D03*
D35*
X79500Y139370D02*
D03*
X53350Y160630D02*
D03*
X14150Y118110D02*
D03*
X40850Y96870D02*
D03*
X66800Y139370D02*
D03*
X79500Y118110D02*
D03*
X66800D02*
D03*
X40650Y160630D02*
D03*
X53350Y139370D02*
D03*
X40650D02*
D03*
X26850Y118110D02*
D03*
X14150Y139370D02*
D03*
X26850D02*
D03*
X53550Y96870D02*
D03*
X40850Y118130D02*
D03*
X53550D02*
D03*
D36*
X108147Y126684D02*
D03*
X97753Y134322D02*
D03*
Y126684D02*
D03*
X108147Y134322D02*
D03*
D37*
X124343Y125250D02*
D03*
X158043Y128450D02*
D03*
Y125250D02*
D03*
X124343Y137850D02*
D03*
Y134750D02*
D03*
Y131550D02*
D03*
Y118950D02*
D03*
Y115850D02*
D03*
X158043D02*
D03*
Y118950D02*
D03*
Y122150D02*
D03*
Y131550D02*
D03*
Y134750D02*
D03*
Y137850D02*
D03*
X124343Y128450D02*
D03*
Y122150D02*
D03*
D38*
X211500Y135130D02*
D03*
Y113870D02*
D03*
X216500D02*
D03*
X221500D02*
D03*
Y135130D02*
D03*
X226500D02*
D03*
Y113870D02*
D03*
X216500Y135130D02*
D03*
D39*
X250837Y133323D02*
D03*
D40*
X246900D02*
D03*
X250837Y116000D02*
D03*
X248868Y133323D02*
D03*
X242963Y116000D02*
D03*
X244932Y133323D02*
D03*
X242963D02*
D03*
X244932Y116000D02*
D03*
X246900D02*
D03*
X248868D02*
D03*
D41*
X142600Y143701D02*
D03*
Y110000D02*
D03*
X130000D02*
D03*
X133100D02*
D03*
X136300D02*
D03*
X139400D02*
D03*
X145700D02*
D03*
X148900D02*
D03*
X152000D02*
D03*
Y143701D02*
D03*
X148900D02*
D03*
X139400D02*
D03*
X136300D02*
D03*
X133100D02*
D03*
X130000D02*
D03*
X145700D02*
D03*
D42*
X227500Y77700D02*
D03*
Y65900D02*
D03*
X68550Y29000D02*
D03*
Y40800D02*
D03*
X259500Y167900D02*
D03*
Y156100D02*
D03*
X285500Y132600D02*
D03*
Y120800D02*
D03*
D43*
X271140Y121264D02*
D03*
X263660D02*
D03*
X267400Y131736D02*
D03*
D44*
X167500Y179000D02*
D03*
X197500D02*
D03*
X177500D02*
D03*
X187500D02*
D03*
X148400Y59500D02*
D03*
Y49500D02*
D03*
D45*
X226500Y196000D02*
D03*
X240280D02*
D03*
D46*
X109800Y180600D02*
D03*
Y204222D02*
D03*
X124900Y12400D02*
D03*
Y36022D02*
D03*
D47*
X91493Y190443D02*
D03*
X143207Y26180D02*
D03*
D48*
X171500Y200000D02*
D03*
X161700Y29900D02*
D03*
Y19900D02*
D03*
Y9900D02*
D03*
X276900Y100400D02*
D03*
X296900D02*
D03*
X286900D02*
D03*
X191500Y200000D02*
D03*
X181500D02*
D03*
D49*
X313100Y58200D02*
D03*
Y68200D02*
D03*
Y48200D02*
D03*
X72600Y85900D02*
D03*
Y95900D02*
D03*
Y75900D02*
D03*
X31600Y47400D02*
D03*
X21600D02*
D03*
X41600D02*
D03*
X31300Y80200D02*
D03*
X21300D02*
D03*
X41300D02*
D03*
X118000Y91500D02*
D03*
X148400Y88900D02*
D03*
X138400D02*
D03*
X158400D02*
D03*
X195300Y89000D02*
D03*
X185300D02*
D03*
X205300D02*
D03*
X177500Y155500D02*
D03*
X167500D02*
D03*
X187500D02*
D03*
X299700Y136900D02*
D03*
Y146900D02*
D03*
Y126900D02*
D03*
X325000Y171500D02*
D03*
X335000D02*
D03*
X345000D02*
D03*
X287300Y35400D02*
D03*
Y55400D02*
D03*
Y45400D02*
D03*
X168200Y54000D02*
D03*
X178200D02*
D03*
X188200D02*
D03*
X117000D02*
D03*
X97000D02*
D03*
X107000D02*
D03*
X240900Y88900D02*
D03*
X230900D02*
D03*
X250900D02*
D03*
X260900D02*
D03*
X349500Y87500D02*
D03*
X339500D02*
D03*
X319500D02*
D03*
X329500D02*
D03*
X315000Y171500D02*
D03*
X284000Y191500D02*
D03*
X264000D02*
D03*
X274000D02*
D03*
X294000D02*
D03*
X127000Y54000D02*
D03*
X313100Y38200D02*
D03*
X72600Y65900D02*
D03*
X51600Y47400D02*
D03*
X51300Y80200D02*
D03*
X98000Y81500D02*
D03*
X108000D02*
D03*
Y91500D02*
D03*
X118000Y81500D02*
D03*
X98000Y91500D02*
D03*
X168400Y88900D02*
D03*
X215300Y89000D02*
D03*
X197500Y155500D02*
D03*
X299700Y116900D02*
D03*
X287300Y25400D02*
D03*
X198200Y54000D02*
D03*
D50*
X334200Y116505D02*
D03*
Y142095D02*
D03*
D51*
X230645Y11775D02*
D03*
X201355Y30475D02*
D03*
X230645D02*
D03*
X201355Y11775D02*
D03*
D52*
X222377Y34025D02*
D03*
X212929Y29286D02*
D03*
X216078Y34025D02*
D03*
X209780D02*
D03*
X219228Y29286D02*
D03*
D53*
X48500Y150400D02*
D03*
X235300Y70600D02*
D03*
X256000Y58300D02*
D03*
X204200Y120700D02*
D03*
X287400Y181400D02*
D03*
X251000Y156100D02*
D03*
X255200Y133500D02*
D03*
X349300Y76800D02*
D03*
X231700Y120500D02*
D03*
X213200Y126300D02*
D03*
X337900Y76700D02*
D03*
X333153Y46609D02*
D03*
X260000Y44900D02*
D03*
X244900Y13600D02*
D03*
X168500Y132600D02*
D03*
X121700Y145000D02*
D03*
X116000Y126500D02*
D03*
X79500Y147500D02*
D03*
X97790Y145027D02*
D03*
X74200Y128600D02*
D03*
X174800Y123700D02*
D03*
X166200Y106100D02*
D03*
X130900Y103300D02*
D03*
X41100Y107600D02*
D03*
X60500Y29000D02*
D03*
X158100Y144300D02*
D03*
X199900Y113300D02*
D03*
X174100Y132500D02*
D03*
X254686Y102426D02*
D03*
X166100Y123000D02*
D03*
X344000Y76800D02*
D03*
X140600Y152000D02*
D03*
X129700D02*
D03*
X135400D02*
D03*
X199400Y134600D02*
D03*
X199900Y120400D02*
D03*
X250000Y102600D02*
D03*
X139300Y103200D02*
D03*
X263300Y106800D02*
D03*
X246900Y108700D02*
D03*
X329900Y50500D02*
D03*
X99100Y171800D02*
D03*
X262800Y76600D02*
D03*
X275800Y35900D02*
D03*
X252000Y147600D02*
D03*
X336700Y50300D02*
D03*
X235200Y65900D02*
D03*
X267900Y15900D02*
D03*
X62100Y165400D02*
D03*
X61700Y185700D02*
D03*
X254737Y44908D02*
D03*
X230100Y48150D02*
D03*
Y51650D02*
D03*
X68600Y47100D02*
D03*
X172355Y8888D02*
D03*
X285500Y140800D02*
D03*
X293600Y174000D02*
D03*
X250700Y168400D02*
D03*
X231700Y114900D02*
D03*
X116900Y133300D02*
D03*
X165900Y118100D02*
D03*
X89500Y126500D02*
D03*
X108323Y143823D02*
D03*
X174500Y114800D02*
D03*
X26800Y148600D02*
D03*
X67000Y109500D02*
D03*
D54*
X275900Y41400D02*
D03*
X267600Y76700D02*
D03*
X255300Y110500D02*
D03*
X244400Y100100D02*
D03*
X263200Y112500D02*
D03*
X280000Y140700D02*
D03*
X298500Y174100D02*
D03*
X246000Y168400D02*
D03*
X174200Y139600D02*
D03*
X174500Y109000D02*
D03*
X135500Y157400D02*
D03*
X129800D02*
D03*
X140700D02*
D03*
X92400Y171900D02*
D03*
X112700Y147400D02*
D03*
X89400Y132500D02*
D03*
X68500Y53400D02*
D03*
X33400Y169900D02*
D03*
X62100Y160000D02*
D03*
X55500Y185700D02*
D03*
X230100Y43600D02*
D03*
Y56300D02*
D03*
X14000Y110000D02*
D03*
M02*
