G04*
G04 #@! TF.GenerationSoftware,Altium Limited,Altium Designer,25.8.1 (18)*
G04*
G04 Layer_Color=8421504*
%FSLAX25Y25*%
%MOIN*%
G70*
G04*
G04 #@! TF.SameCoordinates,D0629C6B-3734-46AF-A861-07DBD6719D25*
G04*
G04*
G04 #@! TF.FilePolarity,Positive*
G04*
G01*
G75*
%ADD21R,0.04400X0.07100*%
%ADD22R,0.05906X0.04724*%
%ADD23R,0.04750X0.07480*%
%ADD24R,0.07087X0.05512*%
%ADD25R,0.06496X0.02000*%
%ADD26R,0.02362X0.06102*%
%ADD27R,0.01181X0.05709*%
%ADD28R,0.01181X0.05787*%
%ADD29R,0.02000X0.06496*%
%ADD30R,0.07100X0.04400*%
G04:AMPARAMS|DCode=31|XSize=53.15mil|YSize=23.23mil|CornerRadius=5.81mil|HoleSize=0mil|Usage=FLASHONLY|Rotation=90.000|XOffset=0mil|YOffset=0mil|HoleType=Round|Shape=RoundedRectangle|*
%AMROUNDEDRECTD31*
21,1,0.05315,0.01161,0,0,90.0*
21,1,0.04154,0.02323,0,0,90.0*
1,1,0.01161,0.00581,0.02077*
1,1,0.01161,0.00581,-0.02077*
1,1,0.01161,-0.00581,-0.02077*
1,1,0.01161,-0.00581,0.02077*
%
%ADD31ROUNDEDRECTD31*%
D21*
X53500Y177600D02*
D03*
X41700D02*
D03*
X243738Y76394D02*
D03*
X255900Y65900D02*
D03*
X262900Y35200D02*
D03*
X251100Y21300D02*
D03*
X122600Y69300D02*
D03*
X181800Y123600D02*
D03*
X287400Y174000D02*
D03*
X276200Y77000D02*
D03*
X181800Y134600D02*
D03*
X255538Y76394D02*
D03*
X244100Y65900D02*
D03*
X251100Y35200D02*
D03*
X262900Y21300D02*
D03*
X190400Y30600D02*
D03*
X178600D02*
D03*
X134400Y69300D02*
D03*
X97100Y115000D02*
D03*
X108900D02*
D03*
X193600Y123600D02*
D03*
Y113100D02*
D03*
X181800D02*
D03*
X193600Y134600D02*
D03*
X275600Y174000D02*
D03*
X287400Y156000D02*
D03*
X275600D02*
D03*
X81000Y165600D02*
D03*
X69200D02*
D03*
X80900Y185900D02*
D03*
X69100D02*
D03*
X288000Y77000D02*
D03*
X179300Y8950D02*
D03*
X191100D02*
D03*
D22*
X355884Y69811D02*
D03*
X329900D02*
D03*
X355884Y58000D02*
D03*
X329900D02*
D03*
D23*
X79500Y139370D02*
D03*
X53350Y160630D02*
D03*
X14150Y118110D02*
D03*
X40850Y96870D02*
D03*
X66800Y139370D02*
D03*
X79500Y118110D02*
D03*
X66800D02*
D03*
X40650Y160630D02*
D03*
X53350Y139370D02*
D03*
X40650D02*
D03*
X26850Y118110D02*
D03*
X14150Y139370D02*
D03*
X26850D02*
D03*
X53550Y96870D02*
D03*
X40850Y118130D02*
D03*
X53550D02*
D03*
D24*
X108147Y126684D02*
D03*
X97753Y134322D02*
D03*
Y126684D02*
D03*
X108147Y134322D02*
D03*
D25*
X124343Y125250D02*
D03*
X158043Y128450D02*
D03*
Y125250D02*
D03*
X124343Y137850D02*
D03*
Y134750D02*
D03*
Y131550D02*
D03*
Y118950D02*
D03*
Y115850D02*
D03*
X158043D02*
D03*
Y118950D02*
D03*
Y122150D02*
D03*
Y131550D02*
D03*
Y134750D02*
D03*
Y137850D02*
D03*
X124343Y128450D02*
D03*
Y122150D02*
D03*
D26*
X211500Y135130D02*
D03*
Y113870D02*
D03*
X216500D02*
D03*
X221500D02*
D03*
Y135130D02*
D03*
X226500D02*
D03*
Y113870D02*
D03*
X216500Y135130D02*
D03*
D27*
X250837Y133323D02*
D03*
D28*
X246900D02*
D03*
X250837Y116000D02*
D03*
X248868Y133323D02*
D03*
X242963Y116000D02*
D03*
X244932Y133323D02*
D03*
X242963D02*
D03*
X244932Y116000D02*
D03*
X246900D02*
D03*
X248868D02*
D03*
D29*
X142600Y143701D02*
D03*
Y110000D02*
D03*
X130000D02*
D03*
X133100D02*
D03*
X136300D02*
D03*
X139400D02*
D03*
X145700D02*
D03*
X148900D02*
D03*
X152000D02*
D03*
Y143701D02*
D03*
X148900D02*
D03*
X139400D02*
D03*
X136300D02*
D03*
X133100D02*
D03*
X130000D02*
D03*
X145700D02*
D03*
D30*
X227500Y77700D02*
D03*
Y65900D02*
D03*
X68550Y29000D02*
D03*
Y40800D02*
D03*
X259500Y167900D02*
D03*
Y156100D02*
D03*
X285500Y132600D02*
D03*
Y120800D02*
D03*
D31*
X271140Y121264D02*
D03*
X263660D02*
D03*
X267400Y131736D02*
D03*
M02*
