G04*
G04 #@! TF.GenerationSoftware,Altium Limited,Altium Designer,25.8.1 (18)*
G04*
G04 Layer_Physical_Order=4*
G04 Layer_Color=16711680*
%FSLAX25Y25*%
%MOIN*%
G70*
G04*
G04 #@! TF.SameCoordinates,D0629C6B-3734-46AF-A861-07DBD6719D25*
G04*
G04*
G04 #@! TF.FilePolarity,Positive*
G04*
G01*
G75*
%ADD12C,0.01000*%
%ADD13C,0.00600*%
%ADD18C,0.02000*%
%ADD21R,0.04400X0.07100*%
%ADD30R,0.07100X0.04400*%
%ADD55C,0.06378*%
%ADD56C,0.07874*%
%ADD57O,0.14961X0.07874*%
%ADD58O,0.07087X0.12992*%
%ADD59C,0.06496*%
%ADD60C,0.07000*%
%ADD61C,0.06299*%
%ADD62O,0.04724X0.09449*%
%ADD63C,0.04724*%
%ADD64C,0.02800*%
%ADD65C,0.03000*%
G04:AMPARAMS|DCode=66|XSize=63.39mil|YSize=23.23mil|CornerRadius=2.9mil|HoleSize=0mil|Usage=FLASHONLY|Rotation=180.000|XOffset=0mil|YOffset=0mil|HoleType=Round|Shape=RoundedRectangle|*
%AMROUNDEDRECTD66*
21,1,0.06339,0.01742,0,0,180.0*
21,1,0.05758,0.02323,0,0,180.0*
1,1,0.00581,-0.02879,0.00871*
1,1,0.00581,0.02879,0.00871*
1,1,0.00581,0.02879,-0.00871*
1,1,0.00581,-0.02879,-0.00871*
%
%ADD66ROUNDEDRECTD66*%
%ADD67R,0.02400X0.04300*%
%ADD68O,0.08661X0.02400*%
%ADD69R,0.05512X0.07087*%
%ADD70R,0.05400X0.07300*%
D12*
X254856Y133156D02*
X255200Y133500D01*
X254856Y130806D02*
Y133156D01*
X251950Y127900D02*
X254856Y130806D01*
X246900Y127900D02*
X251950D01*
X195000Y8900D02*
X197875Y11775D01*
X201355D01*
X121700Y145000D02*
X124000Y142700D01*
Y138400D02*
Y142700D01*
X66700Y128700D02*
X74100D01*
X74200Y128600D01*
X191100Y8900D02*
X195000D01*
X192228Y120380D02*
X199200D01*
X287400Y162500D02*
X293600Y168700D01*
Y174000D01*
X287400Y156000D02*
Y162500D01*
X192208Y120360D02*
X192228Y120380D01*
X275600Y156000D02*
Y174000D01*
D13*
X18900Y152500D02*
Y168200D01*
X28100Y177400D02*
X77300D01*
X18900Y168200D02*
X28100Y177400D01*
X20900Y151600D02*
Y166800D01*
X28300Y174200D01*
X176500Y121200D02*
X179400Y124100D01*
X183192D01*
X172300Y126200D02*
X174100Y128000D01*
Y132500D01*
X187000Y124100D02*
X188039Y123061D01*
X183192Y124100D02*
X187000D01*
X188039Y105961D02*
Y123061D01*
Y105961D02*
X188800Y105200D01*
X251900D01*
X251900D02*
X254674Y102426D01*
X254686D01*
X172300Y122100D02*
Y126200D01*
X173200Y121200D02*
X176500D01*
X172300Y122100D02*
X173200Y121200D01*
X164800Y126600D02*
X166100Y125300D01*
Y123000D02*
Y125300D01*
X158150Y126600D02*
X164800D01*
X344000Y76800D02*
X344084Y76716D01*
Y69811D02*
Y76716D01*
X261600Y74600D02*
Y74805D01*
X262800Y76005D01*
X259806Y76394D02*
X261600Y74600D01*
X227719Y97579D02*
X227802Y97496D01*
X141005Y96196D02*
X269943D01*
X144921Y97579D02*
X227719D01*
X139300Y103200D02*
X144921Y97579D01*
X269943Y96196D02*
X298300Y67839D01*
X140404Y94895D02*
X269405D01*
X136000Y101200D02*
X141005Y96196D01*
X134700Y100600D02*
X140404Y94895D01*
X269405D02*
X297000Y67300D01*
X227802Y97496D02*
X260300Y97700D01*
X186700Y102600D02*
X250000D01*
X174500Y114800D02*
X186700Y102600D01*
X260300Y97700D02*
X260476Y97876D01*
X263300Y100700D01*
X135400Y152000D02*
X138100Y154700D01*
Y160900D01*
X133600Y165400D02*
X138100Y160900D01*
X86950Y162900D02*
X115300D01*
X126200Y152000D02*
X129700D01*
X115300Y162900D02*
X126200Y152000D01*
X89900Y165400D02*
X133600D01*
X135400Y147300D02*
Y152000D01*
X140600D02*
X147500D01*
X129700Y148402D02*
X134500Y143602D01*
X129700Y148402D02*
Y152300D01*
X147500Y152000D02*
X152300Y147200D01*
X135400Y147300D02*
X140700Y142000D01*
X134500Y138400D02*
Y143602D01*
X263300Y100700D02*
Y106800D01*
X140000Y125400D02*
X141200Y126600D01*
X140000Y110461D02*
Y125400D01*
X135850Y126600D02*
X138700Y123750D01*
X134700Y107000D02*
X138700Y111000D01*
Y123750D01*
X136000Y106462D02*
X140000Y110461D01*
X134500Y126600D02*
X135850D01*
X134700Y100600D02*
Y107000D01*
X136000Y101200D02*
Y106462D01*
X297000Y28736D02*
Y67300D01*
X298300Y28198D02*
Y67839D01*
X192208Y139131D02*
X197500Y144423D01*
Y155500D01*
X192208Y127840D02*
Y139131D01*
X122400Y150900D02*
X129000Y144300D01*
X91900Y150900D02*
X122400D01*
X85600Y144600D02*
X91900Y150900D01*
X152300Y133300D02*
Y147200D01*
X151400Y132400D02*
X152300Y133300D01*
X131500Y132400D02*
X151400D01*
X129000Y134900D02*
X131500Y132400D01*
X129000Y134900D02*
Y144300D01*
X85600Y77900D02*
Y144600D01*
Y77900D02*
X90600Y72900D01*
X117500D01*
X118000Y73400D01*
Y81500D01*
X192500Y25200D02*
X195800Y21900D01*
X192500Y25200D02*
Y39000D01*
X195800Y21900D02*
X229800D01*
X154700Y54300D02*
X164500Y44500D01*
X118000Y81500D02*
X145200Y54300D01*
X154700D01*
X164500Y44500D02*
X187000D01*
X192500Y39000D01*
X229800Y21900D02*
X241149Y10551D01*
X274007D01*
X279056Y15600D01*
X278518Y16900D02*
X287002D01*
X279056Y15600D02*
X287541D01*
X273469Y11851D02*
X278518Y16900D01*
X272930Y13151D02*
X277979Y18200D01*
X286464D01*
X287541Y15600D02*
X302141Y30200D01*
X315100D01*
X287002Y16900D02*
X298300Y28198D01*
X286464Y18200D02*
X297000Y28736D01*
X315100Y30200D02*
X329900Y45000D01*
X257152Y13151D02*
X272930D01*
X256611Y11851D02*
X273469D01*
X254021Y14441D02*
X256611Y11851D01*
X256800Y13502D02*
X257152Y13151D01*
X256800Y13502D02*
Y27200D01*
X355900Y58189D02*
Y69795D01*
Y49400D02*
Y58189D01*
X355884Y69811D02*
X355900Y69795D01*
X349800Y43300D02*
X355900Y49400D01*
X331600Y43300D02*
X349800D01*
X329900Y45000D02*
Y50500D01*
Y45000D02*
X331600Y43300D01*
X324800Y57900D02*
X324900Y58000D01*
X329600Y50800D02*
X329900Y50500D01*
X325151Y50800D02*
X329600D01*
X324800Y51152D02*
X325151Y50800D01*
X324800Y51152D02*
Y57900D01*
X86200Y169100D02*
Y185100D01*
Y169100D02*
X89900Y165400D01*
X85400Y185900D02*
X86200Y185100D01*
X262800Y76005D02*
Y76600D01*
X268400Y36000D02*
X275700D01*
X275800Y35900D01*
X51300Y72200D02*
Y80200D01*
X46949Y67848D02*
X51300Y72200D01*
X22551Y67848D02*
X46949D01*
X11500Y78900D02*
X22551Y67848D01*
X11500Y78900D02*
Y142200D01*
X20900Y151600D01*
X28300Y174200D02*
X76400D01*
X79100Y171500D01*
Y167500D02*
Y171500D01*
Y167500D02*
X81000Y165600D01*
X9800Y77000D02*
X20900Y65900D01*
X9800Y143400D02*
X18900Y152500D01*
X9800Y77000D02*
Y143400D01*
X20900Y65900D02*
X72600D01*
X77300Y177400D02*
X80900Y181000D01*
Y185900D01*
X85400D01*
X84250Y165600D02*
X86950Y162900D01*
X81000Y165600D02*
X84250D01*
X268300Y36100D02*
X268400Y36000D01*
X244900Y26100D02*
X250131D01*
X254021Y14441D02*
Y22210D01*
X250131Y26100D02*
X254021Y22210D01*
X247800Y65900D02*
X247900Y66000D01*
X235200Y65900D02*
X247800D01*
X253700Y51100D02*
X261600Y59000D01*
Y74600D01*
X255538Y76394D02*
X259806D01*
X245824Y59524D02*
X247900Y61600D01*
X244993Y56100D02*
X245824Y56932D01*
Y59524D01*
X244900Y56100D02*
X244993D01*
X247900Y61600D02*
Y66000D01*
X253198Y30802D02*
X256800Y27200D01*
X141200Y126600D02*
X146500D01*
X252900Y31100D02*
X253198Y30802D01*
X244900Y31100D02*
X252900D01*
X244900Y51100D02*
X253700D01*
X254600Y44770D02*
X254737Y44908D01*
X254600Y39600D02*
Y44770D01*
X251100Y36100D02*
X254600Y39600D01*
X244900Y36100D02*
X251100D01*
X229834Y48150D02*
X230401D01*
X228648Y49335D02*
X229834Y48150D01*
X229513Y51400D02*
X229850D01*
X216700Y49096D02*
X218140Y50535D01*
X217900Y48599D02*
X218637Y49335D01*
X218140Y50535D02*
X228648D01*
X218637Y49335D02*
X228648D01*
Y50535D02*
X229513Y51400D01*
X229850D02*
X230100Y51650D01*
X230401D01*
X236000Y44609D02*
Y47800D01*
X237551Y44754D02*
X238606D01*
X239951Y46100D01*
X237054Y43554D02*
X238046D01*
X236000Y44609D02*
X237054Y43554D01*
X238046D02*
X240250Y41350D01*
X237200Y45106D02*
X237551Y44754D01*
X237200Y45106D02*
Y48297D01*
X239951Y46100D02*
X244900D01*
X240250Y41350D02*
X244650D01*
X244900Y41100D01*
X234997Y50500D02*
X237200Y48297D01*
X234500Y49300D02*
X236000Y47800D01*
X230401Y48150D02*
X231552Y49300D01*
X234500D01*
X231552Y50500D02*
X234997D01*
X230401Y51650D02*
X231552Y50500D01*
X221000Y44600D02*
Y45550D01*
X218251Y47750D02*
X218914D01*
X219500Y47164D01*
Y47050D02*
X221000Y45550D01*
X217900Y48101D02*
Y48599D01*
X219500Y47050D02*
Y47164D01*
X217900Y48101D02*
X218251Y47750D01*
X215100Y47164D02*
X215686Y47750D01*
X216700Y48101D02*
Y49096D01*
X216349Y47750D02*
X216700Y48101D01*
X215686Y47750D02*
X216349D01*
X213600Y45550D02*
X215100Y47050D01*
X213600Y44600D02*
Y45550D01*
X215100Y47050D02*
Y47164D01*
X276900Y100400D02*
Y107748D01*
X277652Y108500D01*
X281700D01*
X285500Y112300D01*
Y120800D01*
X259000Y168400D02*
X259500Y167900D01*
X250700Y168400D02*
X259000D01*
X140700Y142000D02*
X146149D01*
X146500Y141648D01*
Y138400D02*
Y141648D01*
X97569Y126500D02*
X97753Y126684D01*
X89500Y126500D02*
X97569D01*
X108323Y138577D02*
Y143823D01*
Y138577D02*
X108500Y138400D01*
X176800Y119200D02*
X177960Y120360D01*
X176800Y117100D02*
Y119200D01*
X174500Y114800D02*
X176800Y117100D01*
X177960Y120360D02*
X183192D01*
D18*
X174500Y172000D02*
X218728D01*
X219900Y170828D01*
Y154300D02*
Y170828D01*
X167500Y179000D02*
X174500Y172000D01*
X150300Y200000D02*
X171500D01*
X130900Y180600D02*
X150300Y200000D01*
X109800Y180600D02*
X130900D01*
X48283Y150400D02*
X48500D01*
X40700Y149900D02*
X47783D01*
X48283Y150400D01*
X235300Y70600D02*
Y73900D01*
X237794Y76394D02*
X247900D01*
X235300Y73900D02*
X237794Y76394D01*
X255538Y66000D02*
X255847Y65691D01*
Y58453D02*
Y65691D01*
Y58453D02*
X256000Y58300D01*
X192208Y124100D02*
X203028D01*
X204200Y122928D01*
Y120700D02*
Y122928D01*
X130684Y103300D02*
X130900D01*
X124000Y105000D02*
X124664Y104336D01*
X129648D01*
X130684Y103300D01*
X251000Y156100D02*
X259500D01*
X250900Y88100D02*
Y88900D01*
X213150Y126250D02*
X213200Y126300D01*
X213150Y115050D02*
Y126250D01*
X213100Y115000D02*
X213150Y115050D01*
X344100Y47872D02*
Y58189D01*
X342928Y46700D02*
X344100Y47872D01*
X333244Y46700D02*
X342928D01*
X333153Y46609D02*
X333244Y46700D01*
X218472Y39300D02*
X220700D01*
X222100Y37900D01*
X217300Y40472D02*
Y44600D01*
Y40472D02*
X218472Y39300D01*
X244900Y13600D02*
Y21100D01*
X222100Y34303D02*
X222377Y34025D01*
X222100Y34303D02*
Y37900D01*
X183031Y127679D02*
X183192Y127840D01*
X178779Y127679D02*
X183031D01*
X174800Y123700D02*
X178779Y127679D01*
X115950Y126550D02*
X116000Y126500D01*
X97500Y145000D02*
X97527Y145027D01*
X97790D01*
X97500Y145000D02*
X97753Y144747D01*
X108500Y126600D02*
X108550Y126550D01*
X97753Y138484D02*
Y144747D01*
X108550Y126550D02*
X115950D01*
X20000Y128500D02*
X26800D01*
X158500Y106100D02*
X166200D01*
X53550Y107650D02*
X53600Y107700D01*
X41150Y107650D02*
X53550D01*
X41100Y107600D02*
X41150Y107650D01*
X14000Y122500D02*
X20000Y128500D01*
X14000Y110000D02*
Y122500D01*
X60550Y29050D02*
X68450D01*
X68500Y29100D01*
X60500Y29000D02*
X60550Y29050D01*
X158100Y144300D02*
X158150Y144250D01*
Y138400D02*
Y144250D01*
X199900Y113300D02*
Y120400D01*
Y113300D02*
X200000Y113200D01*
X205728D01*
X213400Y145300D02*
Y160300D01*
X202600Y134500D02*
X213400Y145300D01*
X199400Y134600D02*
X199500Y134500D01*
X202600D01*
X207900Y115372D02*
Y129200D01*
X205728Y113200D02*
X207900Y115372D01*
X202600Y134500D02*
X207900Y129200D01*
X263700Y118500D02*
X271600Y110600D01*
Y98600D02*
Y110600D01*
X263700Y118500D02*
Y132600D01*
X271600Y98600D02*
X275300Y94900D01*
X241700Y108700D02*
X246900D01*
Y116100D01*
X235500Y114900D02*
X241700Y108700D01*
X209928Y109000D02*
X220457D01*
X205728Y113200D02*
X209928Y109000D01*
X220457D02*
X223700Y112243D01*
X104500Y110000D02*
X108400D01*
X98000Y91500D02*
Y103500D01*
X104500Y110000D01*
X108400D02*
X128700Y89700D01*
X111900Y116800D02*
X124000D01*
X108400Y110000D02*
Y113300D01*
X111900Y116800D01*
X128700Y82800D02*
Y89700D01*
X90300Y62300D02*
X127400D01*
X140200Y49500D01*
X148400D01*
X80300Y72300D02*
X90300Y62300D01*
X128700Y82800D02*
X147824Y63676D01*
Y60076D02*
Y63676D01*
Y60076D02*
X148400Y59500D01*
X219900Y154300D02*
X235000Y139200D01*
X257100D01*
X263700Y132600D01*
X275300Y94900D02*
X282150D01*
X296450Y80600D01*
X320400D01*
X336700Y64300D01*
Y58000D02*
Y64300D01*
X223700Y112243D02*
Y113800D01*
X224900Y115000D01*
X231700Y114900D02*
X235500D01*
X231600Y115000D02*
X231700Y114900D01*
X208200Y165500D02*
X213400Y160300D01*
X150700Y165500D02*
X208200D01*
X144400Y171800D02*
X150700Y165500D01*
X99100Y171800D02*
X144400D01*
X274000Y184400D02*
X275600Y182800D01*
Y174000D02*
Y182800D01*
X274000Y184400D02*
Y191500D01*
X80300Y72300D02*
Y104800D01*
X67000Y109500D02*
X75600D01*
X80300Y104800D01*
X198300Y71100D02*
X209900Y82700D01*
X267400D02*
X280000Y70100D01*
X209900Y82700D02*
X267400D01*
X280000Y23700D02*
Y70100D01*
X272300Y16000D02*
X280000Y23700D01*
X198200Y54000D02*
X198300Y54100D01*
Y71100D01*
X268000Y16000D02*
X272300D01*
X267900Y15900D02*
X268000Y16000D01*
X26800Y140300D02*
X32672D01*
X34872Y138100D01*
X40700D01*
X231200Y156800D02*
X240400Y147600D01*
X252000D01*
X231200Y156800D02*
Y171700D01*
X213800Y189100D02*
X231200Y171700D01*
X183400Y189100D02*
X213800D01*
X181500Y191000D02*
X183400Y189100D01*
X181500Y191000D02*
Y200000D01*
X207900Y196000D02*
X226500D01*
X203900Y200000D02*
X207900Y196000D01*
X191500Y200000D02*
X203900D01*
X285500Y140800D02*
Y145400D01*
Y132600D02*
Y140800D01*
X294400Y154300D02*
X307300D01*
X285500Y145400D02*
X294400Y154300D01*
X317000Y106100D02*
X325800Y97300D01*
X307300Y154300D02*
X317000Y144600D01*
Y106100D02*
Y144600D01*
X349500Y87500D02*
X349772Y87772D01*
Y92828D01*
X346297Y96303D02*
X349772Y92828D01*
X345300Y97300D02*
X346297Y96303D01*
X325800Y97300D02*
X345300D01*
X336700Y50300D02*
Y58000D01*
X267900Y15900D02*
Y20915D01*
X268085Y21100D02*
X268300D01*
X267900Y20915D02*
X268085Y21100D01*
X69000Y165400D02*
X69200Y165600D01*
X62100Y165400D02*
X69000D01*
X61700Y185700D02*
X68500D01*
X68600Y185600D01*
X209300Y62400D02*
X214700D01*
X206500Y43000D02*
Y59600D01*
X209300Y62400D01*
X217300Y54400D02*
Y59800D01*
X214700Y62400D02*
X217300Y59800D01*
X206500Y43000D02*
X209780Y39720D01*
Y34025D02*
Y39720D01*
X68500Y40900D02*
X68600Y41000D01*
Y47100D01*
X179288Y8888D02*
X179300Y8900D01*
X172355Y8888D02*
X179288D01*
X287400Y174000D02*
X293600D01*
X224900Y115000D02*
X231600D01*
X129400Y117000D02*
X134350D01*
X129200Y116800D02*
X129400Y117000D01*
X124000Y116800D02*
X129200D01*
X117100Y133100D02*
X121700D01*
X124000Y130800D01*
X116900Y133300D02*
X117100Y133100D01*
X124000Y116800D02*
Y126600D01*
Y130800D01*
X152600Y117900D02*
X158500D01*
X151700Y117000D02*
X152600Y117900D01*
X146650Y117000D02*
X151700D01*
X158500Y117900D02*
X158600Y118000D01*
X165800D01*
X165900Y118100D01*
X61404Y117596D02*
X66004D01*
X66700Y116900D01*
X53600Y119500D02*
X59500D01*
X61404Y117596D01*
X66700Y110017D02*
Y116900D01*
X67000Y109500D02*
Y109716D01*
X66700Y110017D02*
X67000Y109716D01*
X26800Y140300D02*
Y148600D01*
D21*
X213100Y115000D02*
D03*
X344100Y58189D02*
D03*
X191100Y8900D02*
D03*
X69100Y185900D02*
D03*
X80900D02*
D03*
X81000Y165600D02*
D03*
X69200D02*
D03*
X179300Y8900D02*
D03*
X287400Y174000D02*
D03*
X275600D02*
D03*
X287400Y156000D02*
D03*
X275600D02*
D03*
X355900Y58189D02*
D03*
X344084Y69811D02*
D03*
X355884D02*
D03*
X336700Y58000D02*
D03*
X324900D02*
D03*
X224900Y115000D02*
D03*
D30*
X259500Y156100D02*
D03*
X246900Y127900D02*
D03*
X66700Y128700D02*
D03*
X53600Y107700D02*
D03*
X158150Y138400D02*
D03*
X158500Y106100D02*
D03*
X124000Y105000D02*
D03*
X97753Y138484D02*
D03*
X108500Y126600D02*
D03*
X124000Y138400D02*
D03*
X26800Y128500D02*
D03*
X40700Y149900D02*
D03*
X68500Y29100D02*
D03*
Y40900D02*
D03*
X40700Y138100D02*
D03*
X26800Y140300D02*
D03*
X124000Y126600D02*
D03*
X108500Y138400D02*
D03*
X97753Y126684D02*
D03*
X124000Y116800D02*
D03*
X158500Y117900D02*
D03*
X158150Y126600D02*
D03*
X285500Y120800D02*
D03*
Y132600D02*
D03*
X246900Y116100D02*
D03*
X146500Y138400D02*
D03*
X134500D02*
D03*
X66700Y116900D02*
D03*
X53600Y119500D02*
D03*
X134500Y126600D02*
D03*
X146500D02*
D03*
X259500Y167900D02*
D03*
D55*
X167500Y179000D02*
D03*
X197500D02*
D03*
X177500D02*
D03*
X187500D02*
D03*
X148400Y59500D02*
D03*
Y49500D02*
D03*
D56*
X226500Y196000D02*
D03*
X240280D02*
D03*
D57*
X109800Y180600D02*
D03*
Y204222D02*
D03*
X124900Y12400D02*
D03*
Y36022D02*
D03*
D58*
X91493Y190443D02*
D03*
X143207Y26180D02*
D03*
D59*
X171500Y200000D02*
D03*
X161700Y29900D02*
D03*
Y19900D02*
D03*
Y9900D02*
D03*
X276900Y100400D02*
D03*
X296900D02*
D03*
X286900D02*
D03*
X191500Y200000D02*
D03*
X181500D02*
D03*
D60*
X313100Y58200D02*
D03*
Y68200D02*
D03*
Y48200D02*
D03*
X72600Y85900D02*
D03*
Y95900D02*
D03*
Y75900D02*
D03*
X31600Y47400D02*
D03*
X21600D02*
D03*
X41600D02*
D03*
X31300Y80200D02*
D03*
X21300D02*
D03*
X41300D02*
D03*
X118000Y91500D02*
D03*
X148400Y88900D02*
D03*
X138400D02*
D03*
X158400D02*
D03*
X195300Y89000D02*
D03*
X185300D02*
D03*
X205300D02*
D03*
X177500Y155500D02*
D03*
X167500D02*
D03*
X187500D02*
D03*
X299700Y136900D02*
D03*
Y146900D02*
D03*
Y126900D02*
D03*
X325000Y171500D02*
D03*
X335000D02*
D03*
X345000D02*
D03*
X287300Y35400D02*
D03*
Y55400D02*
D03*
Y45400D02*
D03*
X168200Y54000D02*
D03*
X178200D02*
D03*
X188200D02*
D03*
X117000D02*
D03*
X97000D02*
D03*
X107000D02*
D03*
X240900Y88900D02*
D03*
X230900D02*
D03*
X250900D02*
D03*
X260900D02*
D03*
X349500Y87500D02*
D03*
X339500D02*
D03*
X319500D02*
D03*
X329500D02*
D03*
X315000Y171500D02*
D03*
X284000Y191500D02*
D03*
X264000D02*
D03*
X274000D02*
D03*
X294000D02*
D03*
X127000Y54000D02*
D03*
X313100Y38200D02*
D03*
X72600Y65900D02*
D03*
X51600Y47400D02*
D03*
X51300Y80200D02*
D03*
X98000Y81500D02*
D03*
X108000D02*
D03*
Y91500D02*
D03*
X118000Y81500D02*
D03*
X98000Y91500D02*
D03*
X168400Y88900D02*
D03*
X215300Y89000D02*
D03*
X197500Y155500D02*
D03*
X299700Y116900D02*
D03*
X287300Y25400D02*
D03*
X198200Y54000D02*
D03*
D61*
X334200Y116505D02*
D03*
Y142095D02*
D03*
D62*
X230645Y11775D02*
D03*
X201355Y30475D02*
D03*
X230645D02*
D03*
X201355Y11775D02*
D03*
D63*
X222377Y34025D02*
D03*
X212929Y29286D02*
D03*
X216078Y34025D02*
D03*
X209780D02*
D03*
X219228Y29286D02*
D03*
D64*
X48500Y150400D02*
D03*
X235300Y70600D02*
D03*
X256000Y58300D02*
D03*
X204200Y120700D02*
D03*
X287400Y181400D02*
D03*
X251000Y156100D02*
D03*
X255200Y133500D02*
D03*
X349300Y76800D02*
D03*
X231700Y120500D02*
D03*
X213200Y126300D02*
D03*
X337900Y76700D02*
D03*
X333153Y46609D02*
D03*
X260000Y44900D02*
D03*
X244900Y13600D02*
D03*
X168500Y132600D02*
D03*
X121700Y145000D02*
D03*
X116000Y126500D02*
D03*
X79500Y147500D02*
D03*
X97790Y145027D02*
D03*
X74200Y128600D02*
D03*
X174800Y123700D02*
D03*
X166200Y106100D02*
D03*
X130900Y103300D02*
D03*
X41100Y107600D02*
D03*
X60500Y29000D02*
D03*
X158100Y144300D02*
D03*
X199900Y113300D02*
D03*
X174100Y132500D02*
D03*
X254686Y102426D02*
D03*
X166100Y123000D02*
D03*
X344000Y76800D02*
D03*
X140600Y152000D02*
D03*
X129700D02*
D03*
X135400D02*
D03*
X199400Y134600D02*
D03*
X199900Y120400D02*
D03*
X250000Y102600D02*
D03*
X139300Y103200D02*
D03*
X263300Y106800D02*
D03*
X246900Y108700D02*
D03*
X329900Y50500D02*
D03*
X99100Y171800D02*
D03*
X262800Y76600D02*
D03*
X275800Y35900D02*
D03*
X252000Y147600D02*
D03*
X336700Y50300D02*
D03*
X235200Y65900D02*
D03*
X267900Y15900D02*
D03*
X62100Y165400D02*
D03*
X61700Y185700D02*
D03*
X254737Y44908D02*
D03*
X230100Y48150D02*
D03*
Y51650D02*
D03*
X68600Y47100D02*
D03*
X172355Y8888D02*
D03*
X285500Y140800D02*
D03*
X293600Y174000D02*
D03*
X250700Y168400D02*
D03*
X231700Y114900D02*
D03*
X116900Y133300D02*
D03*
X165900Y118100D02*
D03*
X89500Y126500D02*
D03*
X108323Y143823D02*
D03*
X174500Y114800D02*
D03*
X26800Y148600D02*
D03*
X67000Y109500D02*
D03*
D65*
X275900Y41400D02*
D03*
X267600Y76700D02*
D03*
X255300Y110500D02*
D03*
X244400Y100100D02*
D03*
X263200Y112500D02*
D03*
X280000Y140700D02*
D03*
X298500Y174100D02*
D03*
X246000Y168400D02*
D03*
X174200Y139600D02*
D03*
X174500Y109000D02*
D03*
X135500Y157400D02*
D03*
X129800D02*
D03*
X140700D02*
D03*
X92400Y171900D02*
D03*
X112700Y147400D02*
D03*
X89400Y132500D02*
D03*
X68500Y53400D02*
D03*
X33400Y169900D02*
D03*
X62100Y160000D02*
D03*
X55500Y185700D02*
D03*
X230100Y43600D02*
D03*
Y56300D02*
D03*
X14000Y110000D02*
D03*
D66*
X192208Y124100D02*
D03*
X183192Y127840D02*
D03*
Y124100D02*
D03*
Y120360D02*
D03*
X192208Y127840D02*
D03*
Y120360D02*
D03*
D67*
X217300Y44600D02*
D03*
X221000Y54400D02*
D03*
X217300D02*
D03*
X213600D02*
D03*
X221000Y44600D02*
D03*
X213600D02*
D03*
D68*
X244900Y21100D02*
D03*
X268300Y26100D02*
D03*
Y31100D02*
D03*
Y36100D02*
D03*
Y41100D02*
D03*
Y46100D02*
D03*
Y51100D02*
D03*
Y56100D02*
D03*
X244900Y46100D02*
D03*
Y41100D02*
D03*
Y36100D02*
D03*
Y31100D02*
D03*
Y26100D02*
D03*
Y51100D02*
D03*
Y56100D02*
D03*
X268300Y21100D02*
D03*
D69*
X255538Y66000D02*
D03*
X247900Y76394D02*
D03*
Y66000D02*
D03*
X255538Y76394D02*
D03*
D70*
X146650Y117000D02*
D03*
X134350D02*
D03*
M02*
