G04*
G04 #@! TF.GenerationSoftware,Altium Limited,Altium Designer,25.8.1 (18)*
G04*
G04 Layer_Physical_Order=1*
G04 Layer_Color=255*
%FSLAX25Y25*%
%MOIN*%
G70*
G04*
G04 #@! TF.SameCoordinates,D0629C6B-3734-46AF-A861-07DBD6719D25*
G04*
G04*
G04 #@! TF.FilePolarity,Positive*
G04*
G01*
G75*
%ADD12C,0.01000*%
%ADD13C,0.00600*%
%ADD18C,0.02000*%
%ADD21R,0.04400X0.07100*%
%ADD22R,0.05906X0.04724*%
%ADD23R,0.04750X0.07480*%
%ADD24R,0.07087X0.05512*%
%ADD25R,0.06496X0.02000*%
%ADD26R,0.02362X0.06102*%
%ADD27R,0.01181X0.05709*%
%ADD28R,0.01181X0.05787*%
%ADD29R,0.02000X0.06496*%
%ADD30R,0.07100X0.04400*%
G04:AMPARAMS|DCode=31|XSize=53.15mil|YSize=23.23mil|CornerRadius=5.81mil|HoleSize=0mil|Usage=FLASHONLY|Rotation=90.000|XOffset=0mil|YOffset=0mil|HoleType=Round|Shape=RoundedRectangle|*
%AMROUNDEDRECTD31*
21,1,0.05315,0.01161,0,0,90.0*
21,1,0.04154,0.02323,0,0,90.0*
1,1,0.01161,0.00581,0.02077*
1,1,0.01161,0.00581,-0.02077*
1,1,0.01161,-0.00581,-0.02077*
1,1,0.01161,-0.00581,0.02077*
%
%ADD31ROUNDEDRECTD31*%
%ADD55C,0.06378*%
%ADD56C,0.07874*%
%ADD57O,0.14961X0.07874*%
%ADD58O,0.07087X0.12992*%
%ADD59C,0.06496*%
%ADD60C,0.07000*%
%ADD61C,0.06299*%
%ADD62O,0.04724X0.09449*%
%ADD63C,0.04724*%
%ADD64C,0.02800*%
%ADD65C,0.03000*%
D12*
X40650Y160630D02*
Y169350D01*
X41700Y170400D01*
Y177600D01*
X246900Y138214D02*
X247486Y138800D01*
X250251D01*
X250837Y138214D01*
Y133323D02*
Y138214D01*
X250928Y133500D02*
X255200D01*
X250837Y133409D02*
X250928Y133500D01*
X250837Y133323D02*
Y133409D01*
X246900Y133323D02*
Y138214D01*
X337900Y70400D02*
Y76700D01*
X329900Y69811D02*
X337311D01*
X337900Y70400D01*
X259800Y102700D02*
Y112218D01*
X251925Y120094D02*
X259800Y112218D01*
Y102700D02*
X262697Y99803D01*
X193600Y123600D02*
X199300D01*
X199900Y120400D02*
Y123000D01*
X199300Y123600D02*
X199900Y123000D01*
X262697Y99803D02*
X267297D01*
X245022Y119303D02*
X245812Y120094D01*
X251925D01*
X245022Y116091D02*
Y119303D01*
X271900Y95200D02*
X286900D01*
X267297Y99803D02*
X271900Y95200D01*
X246900Y108700D02*
Y116000D01*
X286900Y88400D02*
Y95200D01*
Y100400D01*
X251323Y123100D02*
X256411Y118011D01*
X258422Y116000D02*
X269728D01*
X256411Y118011D02*
Y118011D01*
Y118011D02*
X258422Y116000D01*
X244926Y123100D02*
X251323D01*
X244932Y116000D02*
X245022Y116091D01*
X221500Y127621D02*
X223421Y125700D01*
X221500Y127621D02*
Y135130D01*
X223421Y125700D02*
X238400D01*
X286900Y88400D02*
X288000Y87300D01*
Y77000D02*
Y87300D01*
X293589Y171789D02*
Y173989D01*
X291300Y169500D02*
Y169500D01*
X285200Y163400D02*
X291300Y169500D01*
X293589Y173989D02*
X293600Y174000D01*
X291300Y169500D02*
X293589Y171789D01*
X285200Y163400D02*
X287222Y161378D01*
Y156178D02*
Y161378D01*
X244932Y159132D02*
X249200Y163400D01*
X285200D01*
X244932Y133323D02*
Y159132D01*
X287222Y156178D02*
X287400Y156000D01*
X242963Y171263D02*
X245700Y174000D01*
X275600D01*
X242963Y135217D02*
Y171263D01*
X269728Y116000D02*
X271140Y117412D01*
Y121264D01*
X242963Y121137D02*
X244926Y123100D01*
X242963Y116000D02*
Y121137D01*
X238400Y125700D02*
X242963Y121137D01*
D13*
X107883Y86901D02*
G03*
X108000Y86900I117J4598D01*
G01*
X118000D02*
G03*
X118106Y86901I0J4600D01*
G01*
X58100Y158000D02*
Y177100D01*
X55400Y177452D02*
X57749D01*
X58100Y177100D01*
X54118Y178733D02*
X55400Y177452D01*
X54118Y178733D02*
Y179582D01*
X178600Y170100D02*
X187500Y179000D01*
X154000Y170100D02*
X178600D01*
X146700Y162800D02*
X154000Y170100D01*
X146700Y152500D02*
Y162800D01*
X192600Y183900D02*
X197500Y179000D01*
X159700Y183900D02*
X192600D01*
X154800Y179000D02*
X159700Y183900D01*
X146200Y179000D02*
X154800D01*
X174100Y132500D02*
Y132600D01*
X174052Y132548D02*
X174100Y132500D01*
X142600Y143701D02*
Y148400D01*
X146700Y152500D02*
X156580D01*
X142600Y148400D02*
X146700Y152500D01*
X174052Y132548D02*
Y135028D01*
X174100Y132600D02*
X176100Y134600D01*
X181800D01*
X156580Y152500D02*
X174052Y135028D01*
X254700Y95100D02*
X260900Y88900D01*
X254686Y102426D02*
X254700Y102412D01*
Y95100D02*
Y102412D01*
X254706Y102406D02*
X254900Y102600D01*
X250837Y110563D02*
Y116000D01*
X254900Y102600D02*
Y106500D01*
X250837Y110563D02*
X254900Y106500D01*
X158043Y125250D02*
X164650D01*
X166100Y123800D01*
Y123000D02*
Y123800D01*
X95000Y100000D02*
X140900D01*
X142600Y101700D02*
Y110000D01*
X140900Y100000D02*
X142600Y101700D01*
X84200Y110800D02*
X95000Y100000D01*
X84200Y110800D02*
Y149700D01*
X63800Y152300D02*
X81600D01*
X84200Y149700D01*
X58100Y158000D02*
X63800Y152300D01*
X66800Y139370D02*
X66800Y139370D01*
X53350Y139370D02*
X66800D01*
X248868Y110132D02*
X250500Y108500D01*
Y105400D02*
Y108500D01*
X248868Y110132D02*
Y116000D01*
X140600Y149200D02*
Y152000D01*
X139400Y148000D02*
X140600Y149200D01*
X129700Y152000D02*
X130000D01*
X133100Y148900D01*
Y143701D02*
Y148900D01*
X135400Y151405D02*
Y152000D01*
Y151405D02*
X136300Y150505D01*
Y143701D02*
Y150505D01*
X250000Y102600D02*
Y104900D01*
X139300Y109900D02*
X139400Y110000D01*
X139300Y103200D02*
Y109900D01*
X269400Y106800D02*
X278900Y116300D01*
X263300Y106800D02*
X269400D01*
X278900Y116300D02*
Y123100D01*
X282300Y126500D01*
X291600D01*
X293300Y124800D01*
Y119500D02*
Y124800D01*
Y119500D02*
X295300Y117500D01*
X299100D01*
X299700Y116900D01*
X290000Y107400D02*
X295500D01*
X296900Y100400D02*
Y106000D01*
X295500Y107400D02*
X296900Y106000D01*
X250000Y104900D02*
X250500Y105400D01*
X197500Y155500D02*
X201900D01*
X216500Y140900D01*
Y135130D02*
Y140900D01*
X113900Y75600D02*
X151500D01*
X153600Y77700D01*
X158000Y107500D02*
X158043Y107543D01*
Y115850D01*
X158000Y104600D02*
Y107500D01*
X153600Y100200D02*
X158000Y104600D01*
X153600Y77700D02*
Y100200D01*
X108000Y81500D02*
X113900Y75600D01*
X122500Y87000D02*
X132200Y96700D01*
X152000Y103080D02*
Y110000D01*
X145620Y96700D02*
X152000Y103080D01*
X132200Y96700D02*
X145620D01*
X118106Y86901D02*
X122500Y87000D01*
X103997D02*
X107883Y86901D01*
X108000Y86900D02*
X118000D01*
X103500Y87000D02*
X103997D01*
X103324Y86824D02*
X103500Y87000D01*
X98000Y81500D02*
X103324Y86824D01*
X329900Y50500D02*
Y58000D01*
X355884Y49084D02*
Y58000D01*
X350300Y43500D02*
X355884Y49084D01*
X331600Y43500D02*
X350300D01*
X329900Y45200D02*
Y50500D01*
Y45200D02*
X331600Y43500D01*
X139400Y143701D02*
Y148000D01*
X143500Y98200D02*
X148900Y103600D01*
Y110000D01*
X114700Y98200D02*
X143500D01*
X108000Y91500D02*
X114700Y98200D01*
X289520Y19648D02*
X300272Y30400D01*
X313154D02*
X320500Y37746D01*
X300272Y30400D02*
X313154D01*
X281751Y19648D02*
X289520D01*
X329200Y79100D02*
X341700D01*
X344000Y76800D01*
X320500Y70400D02*
X329200Y79100D01*
X255744Y76600D02*
X262800D01*
X275800Y25600D02*
Y35900D01*
X236349Y123400D02*
X238000Y121748D01*
Y111900D02*
Y121748D01*
X225400Y99300D02*
X238000Y111900D01*
X221900Y123400D02*
X236349D01*
X219000Y126300D02*
X221900Y123400D01*
X219000Y126300D02*
Y141648D01*
X219352Y142000D01*
X225700D01*
X226500Y135130D02*
Y141200D01*
X225700Y142000D02*
X226500Y141200D01*
Y130400D02*
Y135130D01*
X225400Y88800D02*
Y99300D01*
X217700Y81100D02*
X225400Y88800D01*
X176200Y81100D02*
X217700D01*
X168400Y88900D02*
X176200Y81100D01*
X124338Y143700D02*
X129339Y138700D01*
X145248D01*
X124338Y143700D02*
Y157139D01*
X145248Y138700D02*
X145600Y139051D01*
Y143601D01*
X145700Y143701D01*
Y149500D01*
X124338Y157139D02*
X146200Y179000D01*
X181800Y113100D02*
X182900Y112000D01*
Y103100D02*
Y112000D01*
Y103100D02*
X185800Y100200D01*
X211600D01*
X215300Y96500D01*
Y89000D02*
Y96500D01*
X299800Y35300D02*
Y61597D01*
Y35300D02*
X302700Y32400D01*
X307300D01*
X313100Y38200D01*
X287300Y25400D02*
X292462Y30562D01*
X294662D01*
X298600Y34500D01*
X281686Y64900D02*
X296497D01*
X299800Y61597D01*
X268386Y51600D02*
X281686Y64900D01*
X242497Y51600D02*
X268386D01*
X238300Y55797D02*
X242497Y51600D01*
X226003Y61400D02*
X235946D01*
X238300Y55797D02*
Y59046D01*
X235946Y61400D02*
X238300Y59046D01*
X223200Y58597D02*
X226003Y61400D01*
X223200Y50354D02*
X224254Y49300D01*
X228648D01*
X223200Y50354D02*
Y58597D01*
X229799Y48150D02*
X230100D01*
X228648Y49300D02*
X229799Y48150D01*
X298600Y34500D02*
Y61100D01*
X296000Y63700D02*
X298600Y61100D01*
X282183Y63700D02*
X296000D01*
X268883Y50400D02*
X282183Y63700D01*
X237100Y55300D02*
X239600Y52800D01*
X239600D01*
X242000Y50400D01*
X268883D01*
X226500Y60200D02*
X235449D01*
X237100Y55300D02*
Y58548D01*
X235449Y60200D02*
X237100Y58548D01*
X224400Y58100D02*
X226500Y60200D01*
X224751Y50500D02*
X228648D01*
X224400Y50852D02*
X224751Y50500D01*
X224400Y50852D02*
Y58100D01*
X229799Y51650D02*
X230100D01*
X228648Y50500D02*
X229799Y51650D01*
X275800Y25600D02*
X281751Y19648D01*
X320500Y37746D02*
Y70400D01*
X232550Y81400D02*
X254841D01*
X255538Y80704D01*
Y76394D02*
Y80704D01*
Y76394D02*
X255744Y76600D01*
X228850Y77700D02*
X232550Y81400D01*
X227500Y77700D02*
X228850D01*
X227500Y65900D02*
X227800Y65600D01*
X234900D01*
X235200Y65900D01*
X244100D01*
X251100Y35200D02*
Y41100D01*
X254737Y44737D01*
Y44908D01*
X229297Y38600D02*
X233497D01*
X236200Y41303D02*
Y49587D01*
X234200Y39303D02*
X235497Y40600D01*
X234200Y39303D02*
Y39303D01*
X235000Y41800D02*
X235000D01*
X233000Y39800D02*
X235000Y41800D01*
X233497Y38600D02*
X234200Y39303D01*
X235497Y40600D02*
X235497D01*
X228800Y39800D02*
X233000D01*
Y39800D01*
X235000Y41800D02*
Y49090D01*
X235497Y40600D02*
X236200Y41303D01*
X228100Y35156D02*
Y37403D01*
X226900Y35653D02*
Y37900D01*
X228100Y37403D02*
X229297Y38600D01*
X226900Y37900D02*
X228800Y39800D01*
X226802Y33858D02*
X228100Y35156D01*
X223770Y37388D02*
X225954Y35204D01*
X225740Y32796D02*
X226802Y33858D01*
X226451Y35204D02*
X226900Y35653D01*
X226802Y33858D02*
Y33858D01*
X225954Y35204D02*
X226451D01*
X216078Y34025D02*
X219441Y37388D01*
X223770D01*
X234790Y49300D02*
X235000Y49090D01*
X231552Y49300D02*
X234790D01*
X230401Y48150D02*
X231552Y49300D01*
X230100Y48150D02*
X230401D01*
X225740Y31044D02*
Y32796D01*
X220620Y25924D02*
X225740Y31044D01*
X216291Y25924D02*
X220620D01*
X212929Y29286D02*
X216291Y25924D01*
X231552Y50500D02*
X235287D01*
X236200Y49587D01*
X230401Y51650D02*
X231552Y50500D01*
X230100Y51650D02*
X230401D01*
X321795Y142095D02*
X334200D01*
X317200Y137500D02*
X321795Y142095D01*
X317200Y122600D02*
Y137500D01*
X311500Y116900D02*
X317200Y122600D01*
X299700Y116900D02*
X311500D01*
X285500Y111900D02*
Y120800D01*
Y111900D02*
X290000Y107400D01*
X250700Y168400D02*
X259000D01*
X259500Y167900D01*
X255836Y121264D02*
X263660D01*
X228200Y128700D02*
X248400D01*
X255836Y121264D01*
X226500Y130400D02*
X228200Y128700D01*
X97569Y126500D02*
X97753Y126684D01*
X89500Y126500D02*
X97569D01*
X97100Y126031D02*
X97753Y126684D01*
X97100Y121600D02*
Y126031D01*
X114755Y118950D02*
X124343D01*
X97100Y117500D02*
Y121600D01*
X112106D02*
X114755Y118950D01*
X97100Y121600D02*
X112106D01*
X108147Y143647D02*
X108323Y143823D01*
X108224Y143923D02*
Y147276D01*
Y143923D02*
X108323Y143823D01*
X108147Y134322D02*
Y143647D01*
X106000Y149500D02*
X108224Y147276D01*
X89500Y149500D02*
X106000D01*
X109750Y115850D02*
X124343D01*
X108900Y115000D02*
X109750Y115850D01*
X108900Y109400D02*
Y115000D01*
X86500Y146500D02*
X89500Y149500D01*
X106000Y106500D02*
X108900Y109400D01*
X93500Y106500D02*
X106000D01*
X86500Y113500D02*
Y146500D01*
Y113500D02*
X93500Y106500D01*
X156000Y151100D02*
X171000Y136100D01*
X71500Y104500D02*
Y104500D01*
X63870Y96870D02*
X71500Y104500D01*
X53550Y96870D02*
X63870D01*
X79500Y112500D02*
Y118110D01*
X71500Y104500D02*
X79500Y112500D01*
X171000Y118300D02*
Y136100D01*
Y118300D02*
X174500Y114800D01*
X176200Y113100D01*
X145700Y149500D02*
X147300Y151100D01*
X156000D01*
X176200Y113100D02*
X181800D01*
X40830Y118110D02*
X40850Y118130D01*
X26850Y118110D02*
X40830D01*
D18*
X48500Y150400D02*
X48653Y150553D01*
X53350Y159265D02*
Y160630D01*
X48653Y154568D02*
X53350Y159265D01*
X48653Y150553D02*
Y154568D01*
X237794Y76394D02*
X243738D01*
X235300Y73900D02*
X237794Y76394D01*
X235300Y70600D02*
Y73900D01*
X267600Y76700D02*
X275900D01*
X276200Y77000D01*
X255900Y65900D02*
X255950Y65850D01*
Y58350D02*
Y65850D01*
Y58350D02*
X256000Y58300D01*
X287400Y174000D02*
Y181400D01*
X349300Y76800D02*
X354600D01*
X250900Y88739D02*
Y88900D01*
X213200Y126300D02*
Y127000D01*
Y121300D02*
Y126300D01*
X211500Y128700D02*
X213200Y127000D01*
X211500Y128700D02*
Y135130D01*
X211681Y119781D02*
X213200Y121300D01*
X218700Y120500D02*
X231700D01*
X216681Y118481D02*
X218700Y120500D01*
X216681Y114051D02*
Y118481D01*
X216500Y113870D02*
X216681Y114051D01*
X211681D02*
Y119781D01*
X211500Y113870D02*
X211681Y114051D01*
X354600Y76800D02*
X355884Y75516D01*
Y69811D02*
Y75516D01*
X260000Y44900D02*
X260500Y44400D01*
X260700D01*
X262900Y42200D01*
Y35200D02*
Y42200D01*
X251100Y14772D02*
Y21300D01*
X249928Y13600D02*
X251100Y14772D01*
X244900Y13600D02*
X249928D01*
X168500Y132400D02*
Y132600D01*
X164550Y128450D02*
X168500Y132400D01*
X158043Y128450D02*
X164550D01*
X174800Y123700D02*
X174900Y123600D01*
X116000Y126500D02*
X116217D01*
X108331D02*
X116000D01*
X117466Y125250D02*
X124343D01*
X116217Y126500D02*
X117466Y125250D01*
X97790Y134359D02*
Y145027D01*
X79500Y139370D02*
Y147500D01*
X97753Y134322D02*
X97790Y134359D01*
X108147Y126684D02*
X108331Y126500D01*
X174900Y123600D02*
X181800D01*
X118172Y69300D02*
X122600D01*
X117000Y68128D02*
X118172Y69300D01*
X117000Y54000D02*
Y68128D01*
X40850Y107350D02*
X41100Y107600D01*
X40850Y96870D02*
Y107350D01*
X14075Y118035D02*
X14150Y118110D01*
X14075Y110075D02*
Y118035D01*
X14000Y110000D02*
X14075Y110075D01*
X41075Y80425D02*
X41300Y80200D01*
X40850Y96870D02*
X41075Y96645D01*
Y80425D02*
Y96645D01*
X193800Y113300D02*
X199900D01*
X193600Y113100D02*
X193800Y113300D01*
X193600Y134600D02*
X199400D01*
X81000Y159600D02*
Y165600D01*
Y159600D02*
X84100Y156500D01*
X111500D01*
X116900Y151100D01*
X81000Y165600D02*
X92900D01*
X99100Y171800D01*
X274000Y191500D02*
X284000D01*
X333900Y63500D02*
X336700Y60700D01*
Y50300D02*
Y60700D01*
X282800Y17100D02*
X289800D01*
X299400Y26700D01*
X281600Y15900D02*
X282800Y17100D01*
X299400Y26700D02*
X313200D01*
X323200Y36700D01*
Y59019D01*
X327681Y63500D01*
X333900D01*
X267900Y15900D02*
X281600D01*
X329500Y87500D02*
X339500D01*
X40650Y131450D02*
Y139370D01*
Y131450D02*
X42600Y129500D01*
X52100D01*
X53550Y128050D01*
Y118130D02*
Y128050D01*
X52200Y35172D02*
Y46800D01*
X66386Y30200D02*
X67586Y29000D01*
X53372Y34000D02*
X65214D01*
X66386Y32828D01*
Y30200D02*
Y32828D01*
X52200Y35172D02*
X53372Y34000D01*
X67586Y29000D02*
X89300D01*
X51600Y47400D02*
X52200Y46800D01*
X80950Y165650D02*
Y185850D01*
X80900Y185900D02*
X80950Y185850D01*
X252000Y147600D02*
X259500D01*
Y148500D02*
Y156100D01*
X305372Y171500D02*
X315000D01*
X300300Y166428D02*
X305372Y171500D01*
X300300Y159100D02*
Y166428D01*
X290700Y149500D02*
X300300Y159100D01*
X284200Y149500D02*
X290700D01*
X281800Y147100D02*
X284200Y149500D01*
X275400Y147100D02*
X281800D01*
X262900Y15372D02*
X264072Y14200D01*
X262900Y15372D02*
Y21300D01*
X264072Y14200D02*
X265984D01*
X267684Y15900D01*
X267900D01*
X62717Y165800D02*
X69000D01*
X62317Y165400D02*
X62717Y165800D01*
X62100Y165400D02*
X62317D01*
X69000Y165800D02*
X69200Y165600D01*
X61700Y185700D02*
X68400D01*
X68600Y185900D01*
Y47100D02*
Y47300D01*
X68550Y47250D02*
X68600Y47300D01*
X68550Y40800D02*
Y47250D01*
X89300Y29000D02*
X96322Y36022D01*
X124900D01*
X134400Y59000D02*
Y69300D01*
Y59000D02*
X139200Y54200D01*
X143700D02*
X148400Y49500D01*
X139200Y54200D02*
X143700D01*
X196200Y43000D02*
X198200Y45000D01*
Y54000D01*
X181700Y43000D02*
X196200D01*
X178600Y39900D02*
X181700Y43000D01*
X172300Y8942D02*
X172355Y8888D01*
X172300Y8942D02*
Y9200D01*
X172550Y8950D01*
X179300D01*
X191100D02*
Y15300D01*
X167100D02*
X191100D01*
Y8950D02*
Y15700D01*
X161700Y9900D02*
X167100Y15300D01*
X191100Y15700D02*
X196400Y21000D01*
X204500D02*
X206800Y23300D01*
X196400Y21000D02*
X204500D01*
X206800Y23300D02*
Y30309D01*
X209780Y33288D01*
Y34025D01*
X127000Y54000D02*
X143800Y37200D01*
X166300D02*
X172700Y30800D01*
X143800Y37200D02*
X166300D01*
X147200Y15400D02*
X161700Y29900D01*
X136600Y15400D02*
X147200D01*
X124900Y27100D02*
X136600Y15400D01*
X124900Y27100D02*
Y36022D01*
X172700Y19900D02*
Y30800D01*
Y19900D02*
X187500D01*
X161700D02*
X172700D01*
X187500D02*
X190400Y22800D01*
Y30600D01*
X178600D02*
Y39900D01*
X175000Y43500D02*
X178600Y39900D01*
X154400Y43500D02*
X175000D01*
X148400Y49500D02*
X154400Y43500D01*
X319500Y87500D02*
X329500D01*
X309500D02*
X319500D01*
X299000Y77000D02*
X309500Y87500D01*
X288000Y77000D02*
X299000D01*
X285500Y132600D02*
Y140800D01*
X275728Y121264D02*
X276900Y122435D01*
Y129600D02*
X279900Y132600D01*
X271140Y121264D02*
X275728D01*
X276900Y122435D02*
Y129600D01*
X279900Y132600D02*
X285500D01*
X264000Y191500D02*
X274000D01*
Y183400D02*
Y191500D01*
Y183400D02*
X275600Y181800D01*
Y174000D02*
Y181800D01*
X293600Y191100D02*
X294000Y191500D01*
X293600Y174000D02*
Y191100D01*
X275400Y155800D02*
X275600Y156000D01*
X275400Y147100D02*
Y155800D01*
X267700Y139400D02*
X275400Y147100D01*
X267400Y139400D02*
X267700D01*
X259500Y147300D02*
Y148500D01*
Y147300D02*
X267400Y139400D01*
Y131736D02*
Y139400D01*
X231484Y114900D02*
X231700D01*
X129738Y128450D02*
X130909Y127279D01*
Y123578D02*
Y127279D01*
X124343Y128450D02*
X129738D01*
X129482Y122150D02*
X130909Y123578D01*
X124343Y122150D02*
X129482D01*
X230454Y113870D02*
X231484Y114900D01*
X226500Y113870D02*
X230454D01*
X116900Y133300D02*
Y151100D01*
X117000Y130700D02*
Y133300D01*
Y130700D02*
X119250Y128450D01*
X124343D01*
X165050Y118950D02*
X165900Y118100D01*
X158043Y118950D02*
X165050D01*
X66800Y110200D02*
X67000Y110000D01*
X66800Y110200D02*
Y118110D01*
X67000Y109500D02*
Y110000D01*
X26850Y139370D02*
X40650D01*
X26800Y148600D02*
X26850Y148550D01*
Y139370D02*
X26850Y139370D01*
X26850Y139370D02*
Y148550D01*
X53570Y118110D02*
X66800D01*
X53550Y118130D02*
X53570Y118110D01*
D21*
X53500Y177600D02*
D03*
X41700D02*
D03*
X243738Y76394D02*
D03*
X255900Y65900D02*
D03*
X262900Y35200D02*
D03*
X251100Y21300D02*
D03*
X122600Y69300D02*
D03*
X181800Y123600D02*
D03*
X287400Y174000D02*
D03*
X276200Y77000D02*
D03*
X181800Y134600D02*
D03*
X255538Y76394D02*
D03*
X244100Y65900D02*
D03*
X251100Y35200D02*
D03*
X262900Y21300D02*
D03*
X190400Y30600D02*
D03*
X178600D02*
D03*
X134400Y69300D02*
D03*
X97100Y115000D02*
D03*
X108900D02*
D03*
X193600Y123600D02*
D03*
Y113100D02*
D03*
X181800D02*
D03*
X193600Y134600D02*
D03*
X275600Y174000D02*
D03*
X287400Y156000D02*
D03*
X275600D02*
D03*
X81000Y165600D02*
D03*
X69200D02*
D03*
X80900Y185900D02*
D03*
X69100D02*
D03*
X288000Y77000D02*
D03*
X179300Y8950D02*
D03*
X191100D02*
D03*
D22*
X355884Y69811D02*
D03*
X329900D02*
D03*
X355884Y58000D02*
D03*
X329900D02*
D03*
D23*
X79500Y139370D02*
D03*
X53350Y160630D02*
D03*
X14150Y118110D02*
D03*
X40850Y96870D02*
D03*
X66800Y139370D02*
D03*
X79500Y118110D02*
D03*
X66800D02*
D03*
X40650Y160630D02*
D03*
X53350Y139370D02*
D03*
X40650D02*
D03*
X26850Y118110D02*
D03*
X14150Y139370D02*
D03*
X26850D02*
D03*
X53550Y96870D02*
D03*
X40850Y118130D02*
D03*
X53550D02*
D03*
D24*
X108147Y126684D02*
D03*
X97753Y134322D02*
D03*
Y126684D02*
D03*
X108147Y134322D02*
D03*
D25*
X124343Y125250D02*
D03*
X158043Y128450D02*
D03*
Y125250D02*
D03*
X124343Y137850D02*
D03*
Y134750D02*
D03*
Y131550D02*
D03*
Y118950D02*
D03*
Y115850D02*
D03*
X158043D02*
D03*
Y118950D02*
D03*
Y122150D02*
D03*
Y131550D02*
D03*
Y134750D02*
D03*
Y137850D02*
D03*
X124343Y128450D02*
D03*
Y122150D02*
D03*
D26*
X211500Y135130D02*
D03*
Y113870D02*
D03*
X216500D02*
D03*
X221500D02*
D03*
Y135130D02*
D03*
X226500D02*
D03*
Y113870D02*
D03*
X216500Y135130D02*
D03*
D27*
X250837Y133323D02*
D03*
D28*
X246900D02*
D03*
X250837Y116000D02*
D03*
X248868Y133323D02*
D03*
X242963Y116000D02*
D03*
X244932Y133323D02*
D03*
X242963D02*
D03*
X244932Y116000D02*
D03*
X246900D02*
D03*
X248868D02*
D03*
D29*
X142600Y143701D02*
D03*
Y110000D02*
D03*
X130000D02*
D03*
X133100D02*
D03*
X136300D02*
D03*
X139400D02*
D03*
X145700D02*
D03*
X148900D02*
D03*
X152000D02*
D03*
Y143701D02*
D03*
X148900D02*
D03*
X139400D02*
D03*
X136300D02*
D03*
X133100D02*
D03*
X130000D02*
D03*
X145700D02*
D03*
D30*
X227500Y77700D02*
D03*
Y65900D02*
D03*
X68550Y29000D02*
D03*
Y40800D02*
D03*
X259500Y167900D02*
D03*
Y156100D02*
D03*
X285500Y132600D02*
D03*
Y120800D02*
D03*
D31*
X271140Y121264D02*
D03*
X263660D02*
D03*
X267400Y131736D02*
D03*
D55*
X167500Y179000D02*
D03*
X197500D02*
D03*
X177500D02*
D03*
X187500D02*
D03*
X148400Y59500D02*
D03*
Y49500D02*
D03*
D56*
X226500Y196000D02*
D03*
X240280D02*
D03*
D57*
X109800Y180600D02*
D03*
Y204222D02*
D03*
X124900Y12400D02*
D03*
Y36022D02*
D03*
D58*
X91493Y190443D02*
D03*
X143207Y26180D02*
D03*
D59*
X171500Y200000D02*
D03*
X161700Y29900D02*
D03*
Y19900D02*
D03*
Y9900D02*
D03*
X276900Y100400D02*
D03*
X296900D02*
D03*
X286900D02*
D03*
X191500Y200000D02*
D03*
X181500D02*
D03*
D60*
X313100Y58200D02*
D03*
Y68200D02*
D03*
Y48200D02*
D03*
X72600Y85900D02*
D03*
Y95900D02*
D03*
Y75900D02*
D03*
X31600Y47400D02*
D03*
X21600D02*
D03*
X41600D02*
D03*
X31300Y80200D02*
D03*
X21300D02*
D03*
X41300D02*
D03*
X118000Y91500D02*
D03*
X148400Y88900D02*
D03*
X138400D02*
D03*
X158400D02*
D03*
X195300Y89000D02*
D03*
X185300D02*
D03*
X205300D02*
D03*
X177500Y155500D02*
D03*
X167500D02*
D03*
X187500D02*
D03*
X299700Y136900D02*
D03*
Y146900D02*
D03*
Y126900D02*
D03*
X325000Y171500D02*
D03*
X335000D02*
D03*
X345000D02*
D03*
X287300Y35400D02*
D03*
Y55400D02*
D03*
Y45400D02*
D03*
X168200Y54000D02*
D03*
X178200D02*
D03*
X188200D02*
D03*
X117000D02*
D03*
X97000D02*
D03*
X107000D02*
D03*
X240900Y88900D02*
D03*
X230900D02*
D03*
X250900D02*
D03*
X260900D02*
D03*
X349500Y87500D02*
D03*
X339500D02*
D03*
X319500D02*
D03*
X329500D02*
D03*
X315000Y171500D02*
D03*
X284000Y191500D02*
D03*
X264000D02*
D03*
X274000D02*
D03*
X294000D02*
D03*
X127000Y54000D02*
D03*
X313100Y38200D02*
D03*
X72600Y65900D02*
D03*
X51600Y47400D02*
D03*
X51300Y80200D02*
D03*
X98000Y81500D02*
D03*
X108000D02*
D03*
Y91500D02*
D03*
X118000Y81500D02*
D03*
X98000Y91500D02*
D03*
X168400Y88900D02*
D03*
X215300Y89000D02*
D03*
X197500Y155500D02*
D03*
X299700Y116900D02*
D03*
X287300Y25400D02*
D03*
X198200Y54000D02*
D03*
D61*
X334200Y116505D02*
D03*
Y142095D02*
D03*
D62*
X230645Y11775D02*
D03*
X201355Y30475D02*
D03*
X230645D02*
D03*
X201355Y11775D02*
D03*
D63*
X222377Y34025D02*
D03*
X212929Y29286D02*
D03*
X216078Y34025D02*
D03*
X209780D02*
D03*
X219228Y29286D02*
D03*
D64*
X48500Y150400D02*
D03*
X235300Y70600D02*
D03*
X256000Y58300D02*
D03*
X204200Y120700D02*
D03*
X287400Y181400D02*
D03*
X251000Y156100D02*
D03*
X255200Y133500D02*
D03*
X349300Y76800D02*
D03*
X231700Y120500D02*
D03*
X213200Y126300D02*
D03*
X337900Y76700D02*
D03*
X333153Y46609D02*
D03*
X260000Y44900D02*
D03*
X244900Y13600D02*
D03*
X168500Y132600D02*
D03*
X121700Y145000D02*
D03*
X116000Y126500D02*
D03*
X79500Y147500D02*
D03*
X97790Y145027D02*
D03*
X74200Y128600D02*
D03*
X174800Y123700D02*
D03*
X166200Y106100D02*
D03*
X130900Y103300D02*
D03*
X41100Y107600D02*
D03*
X60500Y29000D02*
D03*
X158100Y144300D02*
D03*
X199900Y113300D02*
D03*
X174100Y132500D02*
D03*
X254686Y102426D02*
D03*
X166100Y123000D02*
D03*
X344000Y76800D02*
D03*
X140600Y152000D02*
D03*
X129700D02*
D03*
X135400D02*
D03*
X199400Y134600D02*
D03*
X199900Y120400D02*
D03*
X250000Y102600D02*
D03*
X139300Y103200D02*
D03*
X263300Y106800D02*
D03*
X246900Y108700D02*
D03*
X329900Y50500D02*
D03*
X99100Y171800D02*
D03*
X262800Y76600D02*
D03*
X275800Y35900D02*
D03*
X252000Y147600D02*
D03*
X336700Y50300D02*
D03*
X235200Y65900D02*
D03*
X267900Y15900D02*
D03*
X62100Y165400D02*
D03*
X61700Y185700D02*
D03*
X254737Y44908D02*
D03*
X230100Y48150D02*
D03*
Y51650D02*
D03*
X68600Y47100D02*
D03*
X172355Y8888D02*
D03*
X285500Y140800D02*
D03*
X293600Y174000D02*
D03*
X250700Y168400D02*
D03*
X231700Y114900D02*
D03*
X116900Y133300D02*
D03*
X165900Y118100D02*
D03*
X89500Y126500D02*
D03*
X108323Y143823D02*
D03*
X174500Y114800D02*
D03*
X26800Y148600D02*
D03*
X67000Y109500D02*
D03*
D65*
X275900Y41400D02*
D03*
X267600Y76700D02*
D03*
X255300Y110500D02*
D03*
X244400Y100100D02*
D03*
X263200Y112500D02*
D03*
X280000Y140700D02*
D03*
X298500Y174100D02*
D03*
X246000Y168400D02*
D03*
X174200Y139600D02*
D03*
X174500Y109000D02*
D03*
X135500Y157400D02*
D03*
X129800D02*
D03*
X140700D02*
D03*
X92400Y171900D02*
D03*
X112700Y147400D02*
D03*
X89400Y132500D02*
D03*
X68500Y53400D02*
D03*
X33400Y169900D02*
D03*
X62100Y160000D02*
D03*
X55500Y185700D02*
D03*
X230100Y43600D02*
D03*
Y56300D02*
D03*
X14000Y110000D02*
D03*
M02*
