G04*
G04 #@! TF.GenerationSoftware,Altium Limited,Altium Designer,25.8.1 (18)*
G04*
G04 Layer_Color=128*
%FSLAX25Y25*%
%MOIN*%
G70*
G04*
G04 #@! TF.SameCoordinates,D0629C6B-3734-46AF-A861-07DBD6719D25*
G04*
G04*
G04 #@! TF.FilePolarity,Positive*
G04*
G01*
G75*
%ADD21R,0.04400X0.07100*%
%ADD30R,0.07100X0.04400*%
G04:AMPARAMS|DCode=66|XSize=63.39mil|YSize=23.23mil|CornerRadius=2.9mil|HoleSize=0mil|Usage=FLASHONLY|Rotation=180.000|XOffset=0mil|YOffset=0mil|HoleType=Round|Shape=RoundedRectangle|*
%AMROUNDEDRECTD66*
21,1,0.06339,0.01742,0,0,180.0*
21,1,0.05758,0.02323,0,0,180.0*
1,1,0.00581,-0.02879,0.00871*
1,1,0.00581,0.02879,0.00871*
1,1,0.00581,0.02879,-0.00871*
1,1,0.00581,-0.02879,-0.00871*
%
%ADD66ROUNDEDRECTD66*%
%ADD67R,0.02400X0.04300*%
%ADD68O,0.08661X0.02400*%
%ADD69R,0.05512X0.07087*%
%ADD70R,0.05400X0.07300*%
D21*
X213100Y115000D02*
D03*
X344100Y58189D02*
D03*
X191100Y8900D02*
D03*
X69100Y185900D02*
D03*
X80900D02*
D03*
X81000Y165600D02*
D03*
X69200D02*
D03*
X179300Y8900D02*
D03*
X287400Y174000D02*
D03*
X275600D02*
D03*
X287400Y156000D02*
D03*
X275600D02*
D03*
X355900Y58189D02*
D03*
X344084Y69811D02*
D03*
X355884D02*
D03*
X336700Y58000D02*
D03*
X324900D02*
D03*
X224900Y115000D02*
D03*
D30*
X259500Y156100D02*
D03*
X246900Y127900D02*
D03*
X66700Y128700D02*
D03*
X53600Y107700D02*
D03*
X158150Y138400D02*
D03*
X158500Y106100D02*
D03*
X124000Y105000D02*
D03*
X97753Y138484D02*
D03*
X108500Y126600D02*
D03*
X124000Y138400D02*
D03*
X26800Y128500D02*
D03*
X40700Y149900D02*
D03*
X68500Y29100D02*
D03*
Y40900D02*
D03*
X40700Y138100D02*
D03*
X26800Y140300D02*
D03*
X124000Y126600D02*
D03*
X108500Y138400D02*
D03*
X97753Y126684D02*
D03*
X124000Y116800D02*
D03*
X158500Y117900D02*
D03*
X158150Y126600D02*
D03*
X285500Y120800D02*
D03*
Y132600D02*
D03*
X246900Y116100D02*
D03*
X146500Y138400D02*
D03*
X134500D02*
D03*
X66700Y116900D02*
D03*
X53600Y119500D02*
D03*
X134500Y126600D02*
D03*
X146500D02*
D03*
X259500Y167900D02*
D03*
D66*
X192208Y124100D02*
D03*
X183192Y127840D02*
D03*
Y124100D02*
D03*
Y120360D02*
D03*
X192208Y127840D02*
D03*
Y120360D02*
D03*
D67*
X217300Y44600D02*
D03*
X221000Y54400D02*
D03*
X217300D02*
D03*
X213600D02*
D03*
X221000Y44600D02*
D03*
X213600D02*
D03*
D68*
X244900Y21100D02*
D03*
X268300Y26100D02*
D03*
Y31100D02*
D03*
Y36100D02*
D03*
Y41100D02*
D03*
Y46100D02*
D03*
Y51100D02*
D03*
Y56100D02*
D03*
X244900Y46100D02*
D03*
Y41100D02*
D03*
Y36100D02*
D03*
Y31100D02*
D03*
Y26100D02*
D03*
Y51100D02*
D03*
Y56100D02*
D03*
X268300Y21100D02*
D03*
D69*
X255538Y66000D02*
D03*
X247900Y76394D02*
D03*
Y66000D02*
D03*
X255538Y76394D02*
D03*
D70*
X146650Y117000D02*
D03*
X134350D02*
D03*
M02*
