G04*
G04 #@! TF.GenerationSoftware,Altium Limited,Altium Designer,25.8.1 (18)*
G04*
G04 Layer_Color=16711935*
%FSLAX25Y25*%
%MOIN*%
G70*
G04*
G04 #@! TF.SameCoordinates,C2104F37-0586-4E15-A42F-F292DD76917F*
G04*
G04*
G04 #@! TF.FilePolarity,Negative*
G04*
G01*
G75*
%ADD31C,0.00000*%
%ADD42C,0.06800*%
%ADD43C,0.07800*%
%ADD44O,0.08674X0.15761*%
%ADD45O,0.13792X0.07887*%
%ADD46C,0.05524*%
%ADD47O,0.10249X0.05524*%
%ADD48C,0.07296*%
%ADD49C,0.07178*%
%ADD50C,0.03600*%
D31*
X160390Y91500D02*
G03*
X160390Y91500I-3390J0D01*
G01*
X170390D02*
G03*
X170390Y91500I-3390J0D01*
G01*
D42*
X280025Y25025D02*
D03*
X290025D02*
D03*
X260025D02*
D03*
X270025D02*
D03*
X250025D02*
D03*
X240025D02*
D03*
X290025Y55025D02*
D03*
X270025D02*
D03*
X260025D02*
D03*
X250025D02*
D03*
X240025D02*
D03*
X280025D02*
D03*
X204025Y245025D02*
D03*
X194025D02*
D03*
X184025D02*
D03*
X114025D02*
D03*
X134025D02*
D03*
X174025D02*
D03*
X164025D02*
D03*
X124025D02*
D03*
X154025D02*
D03*
X144025D02*
D03*
X150025Y25025D02*
D03*
X160025D02*
D03*
X124025Y275025D02*
D03*
X114025D02*
D03*
X134025D02*
D03*
X154025D02*
D03*
X144025D02*
D03*
X170025Y25025D02*
D03*
X190025D02*
D03*
X180025D02*
D03*
X210025D02*
D03*
X200025D02*
D03*
X220025D02*
D03*
X210025Y55025D02*
D03*
X200025D02*
D03*
X174025Y275025D02*
D03*
X164025D02*
D03*
X194025D02*
D03*
X184025D02*
D03*
X230025D02*
D03*
X220025D02*
D03*
X250025D02*
D03*
X240025D02*
D03*
X204025D02*
D03*
X260025D02*
D03*
X290025D02*
D03*
X270025D02*
D03*
X280025D02*
D03*
X220025Y55025D02*
D03*
X190025D02*
D03*
X160025D02*
D03*
X150025D02*
D03*
X170025D02*
D03*
X180025D02*
D03*
X290025Y245025D02*
D03*
X220025D02*
D03*
X230025D02*
D03*
X240025D02*
D03*
X250025D02*
D03*
X260025D02*
D03*
X270025D02*
D03*
X280025D02*
D03*
D43*
X142500Y213000D02*
D03*
X172500D02*
D03*
X162500D02*
D03*
X152500D02*
D03*
X24100Y103600D02*
D03*
X34100D02*
D03*
X14100D02*
D03*
X44100D02*
D03*
X23900Y168900D02*
D03*
X13900D02*
D03*
X43900D02*
D03*
X33900D02*
D03*
X51500Y21000D02*
D03*
X21500D02*
D03*
X31500D02*
D03*
X41500D02*
D03*
X69500D02*
D03*
X79500D02*
D03*
X89500D02*
D03*
X152500Y153000D02*
D03*
Y123000D02*
D03*
Y183000D02*
D03*
X162500Y123000D02*
D03*
X172500D02*
D03*
X162500Y153000D02*
D03*
X172500D02*
D03*
X264500Y80000D02*
D03*
X244500D02*
D03*
Y110000D02*
D03*
X254500Y80000D02*
D03*
Y110000D02*
D03*
X264500D02*
D03*
X162500Y183000D02*
D03*
X172500D02*
D03*
X189900Y197300D02*
D03*
X209900D02*
D03*
X189900Y207300D02*
D03*
X199900Y197300D02*
D03*
X209900Y207300D02*
D03*
X199900D02*
D03*
X142500Y183000D02*
D03*
X274500Y80000D02*
D03*
Y110000D02*
D03*
X99500Y21000D02*
D03*
X142500Y153000D02*
D03*
Y123000D02*
D03*
D44*
X20000Y70000D02*
D03*
X43622D02*
D03*
D45*
X33779Y51693D02*
D03*
D46*
X25886Y245571D02*
D03*
Y239272D02*
D03*
X30625Y242422D02*
D03*
Y236122D02*
D03*
Y248721D02*
D03*
D47*
X27075Y257146D02*
D03*
X8375D02*
D03*
X27075Y227854D02*
D03*
X8375D02*
D03*
D48*
X38000Y137000D02*
D03*
X28000D02*
D03*
X18000D02*
D03*
D49*
X167000Y91500D02*
D03*
X157000D02*
D03*
D50*
X79400Y149700D02*
D03*
X25000Y184400D02*
D03*
X67500Y189400D02*
D03*
X79800Y144800D02*
D03*
X117100Y87000D02*
D03*
X122100Y50200D02*
D03*
X117200Y102800D02*
D03*
X117500Y122600D02*
D03*
X25000Y212400D02*
D03*
X57000Y210100D02*
D03*
X17000Y290000D02*
D03*
X58400Y290100D02*
D03*
X83800Y212100D02*
D03*
X89300Y236900D02*
D03*
X79700Y269500D02*
D03*
X194000Y146600D02*
D03*
X230400Y158600D02*
D03*
X288900Y149000D02*
D03*
X245900Y161700D02*
D03*
X257700Y173300D02*
D03*
X288500Y159400D02*
D03*
X289400Y171300D02*
D03*
X107700Y178300D02*
D03*
X187600Y167100D02*
D03*
X252000Y198300D02*
D03*
X247200Y155200D02*
D03*
X193600Y178700D02*
D03*
X206400Y131300D02*
D03*
X290025Y41100D02*
D03*
X280025D02*
D03*
X212500Y156800D02*
D03*
X212600Y171900D02*
D03*
M02*
