M48
;Layer_Color=9474304
;FILE_FORMAT=2:5
INCH,LZ
;TYPE=PLATED
T01F00S00C0.01400
T02F00S00C0.03150
T05F00S00C0.04000
T06F00S00C0.04016
T07F00S00C0.04331
%
T01
X01221Y00502
X01171Y0087
X0280025Y00411
X0290025
X02889Y0149
X02885Y01594
X02894Y01713
X02577Y01733
X02459Y01617
X02472Y01552
X02304Y01586
X02125Y01568
X02126Y01719
X01936Y01787
X01876Y01671
X0194Y01466
X02064Y01313
X01175Y01226
X01172Y01028
X01077Y01783
X0252Y01983
X00838Y02121
X0057Y02101
X00675Y01894
X0025Y01844
Y02124
X00893Y02369
X00794Y01497
X00798Y01448
X00797Y02695
X00584Y02901
X0017Y029
T02
X0025886Y0239272
Y0245571
X0030625Y0248721
Y0242422
Y0236122
T05
X00215Y0021
X00315
X00415
X00515
X00695
X00795
X00895
X00995
X02445Y008
X02545
X02645
X02745
Y011
X02645
X02545
X02445
X01725Y0123
X01625
X01525
X01425
Y0153
X01525
X01625
X01725
Y0183
X01625
X01525
X01425
Y0213
X01525
X01625
X01725
X00439Y01689
X00339
X00239
X00139
X00141Y01036
X00241
X00341
X00441
T06
X0157Y00915
X0167
T07
X0150025Y0025025
X0160025
X0170025
X0180025
X0190025
X0200025
X0210025
X0220025
X0240025
X0250025
Y0055025
X0240025
X0220025
X0210025
X0200025
X0190025
X0180025
X0170025
X0160025
X0150025
X0260025
X0270025
X0280025
X0290025
Y0025025
X0280025
X0270025
X0260025
Y0245025
X0270025
X0280025
X0290025
X0250025
X0240025
X0230025
X0220025
X0204025
X0194025
X0184025
X0174025
X0164025
X0154025
X0144025
X0134025
X0124025
X0114025
X01899Y02073
Y01973
X01999
X02099
Y02073
X01999
X0038Y0137
X0028
X0018
X0114025Y0275025
X0124025
X0134025
X0144025
X0154025
X0164025
X0174025
X0184025
X0194025
X0204025
X0220025
X0230025
X0240025
X0250025
X0260025
X0270025
X0280025
X0290025
M30
