G04*
G04 #@! TF.GenerationSoftware,Altium Limited,Altium Designer,25.8.1 (18)*
G04*
G04 Layer_Color=65535*
%FSLAX25Y25*%
%MOIN*%
G70*
G04*
G04 #@! TF.SameCoordinates,C2104F37-0586-4E15-A42F-F292DD76917F*
G04*
G04*
G04 #@! TF.FilePolarity,Positive*
G04*
G01*
G75*
%ADD11C,0.01000*%
D11*
X255001Y43497D02*
X259000D01*
Y37499D01*
X255001D01*
X259000Y40498D02*
X257001D01*
X249003Y42498D02*
X250003Y43497D01*
X252002D01*
X253002Y42498D01*
Y38499D01*
X252002Y37499D01*
X250003D01*
X249003Y38499D01*
X243005Y43497D02*
X247004D01*
Y37499D01*
X243005D01*
X247004Y40498D02*
X245005D01*
X241006Y37499D02*
Y43497D01*
X237007Y37499D01*
Y43497D01*
X231009D02*
X235008D01*
Y40498D01*
X233008Y41498D01*
X232009D01*
X231009Y40498D01*
Y38499D01*
X232009Y37499D01*
X234008D01*
X235008Y38499D01*
X229010Y43497D02*
X225011D01*
Y42498D01*
X229010Y38499D01*
Y37499D01*
X223012Y42498D02*
X222012Y43497D01*
X220013D01*
X219013Y42498D01*
Y41498D01*
X220013Y40498D01*
X221012D01*
X220013D01*
X219013Y39499D01*
Y38499D01*
X220013Y37499D01*
X222012D01*
X223012Y38499D01*
X217014Y42498D02*
X216014Y43497D01*
X214015D01*
X213015Y42498D01*
Y38499D01*
X214015Y37499D01*
X216014D01*
X217014Y38499D01*
Y42498D01*
X211016Y36500D02*
X207017D01*
X205017Y43497D02*
Y37499D01*
X202018D01*
X201019Y38499D01*
Y39499D01*
X202018Y40498D01*
X205017D01*
X202018D01*
X201019Y41498D01*
Y42498D01*
X202018Y43497D01*
X205017D01*
X199019Y37499D02*
Y43497D01*
X196020D01*
X195021Y42498D01*
Y40498D01*
X196020Y39499D01*
X199019D01*
X197020D02*
X195021Y37499D01*
X193021Y43497D02*
Y37499D01*
X190022D01*
X189023Y38499D01*
Y42498D01*
X190022Y43497D01*
X193021D01*
X187023Y42498D02*
X186024Y43497D01*
X184024D01*
X183025Y42498D01*
Y41498D01*
X184024Y40498D01*
X185024D01*
X184024D01*
X183025Y39499D01*
Y38499D01*
X184024Y37499D01*
X186024D01*
X187023Y38499D01*
X181025Y37499D02*
Y41498D01*
X179026Y43497D01*
X177026Y41498D01*
Y37499D01*
Y40498D01*
X181025D01*
X174028Y36500D02*
X173028Y37499D01*
Y38499D01*
X174028D01*
Y37499D01*
X173028D01*
X174028Y36500D01*
X175027Y35500D01*
X163031Y37499D02*
X161032D01*
X162031D01*
Y43497D01*
X163031Y42498D01*
X158033D02*
X157033Y43497D01*
X155034D01*
X154034Y42498D01*
Y38499D01*
X155034Y37499D01*
X157033D01*
X158033Y38499D01*
Y42498D01*
X152035Y40498D02*
X148036D01*
X142038Y37499D02*
X146037D01*
X142038Y41498D01*
Y42498D01*
X143037Y43497D01*
X145037D01*
X146037Y42498D01*
X140039D02*
X139039Y43497D01*
X137039D01*
X136040Y42498D01*
Y38499D01*
X137039Y37499D01*
X139039D01*
X140039Y38499D01*
Y42498D01*
X134040Y40498D02*
X130042D01*
X124044Y37499D02*
X128042D01*
X124044Y41498D01*
Y42498D01*
X125043Y43497D01*
X127043D01*
X128042Y42498D01*
X122044D02*
X121045Y43497D01*
X119045D01*
X118046Y42498D01*
Y38499D01*
X119045Y37499D01*
X121045D01*
X122044Y38499D01*
Y42498D01*
X112048Y37499D02*
X116046D01*
X112048Y41498D01*
Y42498D01*
X113047Y43497D01*
X115047D01*
X116046Y42498D01*
X106050Y43497D02*
X110048D01*
Y40498D01*
X108049Y41498D01*
X107049D01*
X106050Y40498D01*
Y38499D01*
X107049Y37499D01*
X109048D01*
X110048Y38499D01*
X290000Y258499D02*
Y264497D01*
X287001D01*
X286001Y263498D01*
Y261498D01*
X287001Y260499D01*
X290000D01*
X288001D02*
X286001Y258499D01*
X284002Y264497D02*
Y259499D01*
X283002Y258499D01*
X281003D01*
X280003Y259499D01*
Y264497D01*
X278004D02*
Y258499D01*
X275005D01*
X274005Y259499D01*
Y260499D01*
X275005Y261498D01*
X278004D01*
X275005D01*
X274005Y262498D01*
Y263498D01*
X275005Y264497D01*
X278004D01*
X272006Y258499D02*
Y262498D01*
X270006Y264497D01*
X268007Y262498D01*
Y258499D01*
Y261498D01*
X272006D01*
X266008Y258499D02*
Y264497D01*
X262009Y258499D01*
Y264497D01*
X250013D02*
X254012D01*
Y261498D01*
X252012D01*
X254012D01*
Y258499D01*
X245015Y264497D02*
X247014D01*
X248014Y263498D01*
Y259499D01*
X247014Y258499D01*
X245015D01*
X244015Y259499D01*
Y263498D01*
X245015Y264497D01*
X242016Y258499D02*
Y264497D01*
X239017D01*
X238017Y263498D01*
Y261498D01*
X239017Y260499D01*
X242016D01*
X240016D02*
X238017Y258499D01*
X236017Y264497D02*
Y258499D01*
X233018D01*
X232019Y259499D01*
Y263498D01*
X233018Y264497D01*
X236017D01*
X223022Y257500D02*
X222022Y258499D01*
Y259499D01*
X223022D01*
Y258499D01*
X222022D01*
X223022Y257500D01*
X224021Y256500D01*
X212025Y258499D02*
X210026D01*
X211026D01*
Y264497D01*
X212025Y263498D01*
X207027D02*
X206027Y264497D01*
X204028D01*
X203028Y263498D01*
Y259499D01*
X204028Y258499D01*
X206027D01*
X207027Y259499D01*
Y263498D01*
X201029Y261498D02*
X197030D01*
X191032Y258499D02*
X195031D01*
X191032Y262498D01*
Y263498D01*
X192032Y264497D01*
X194031D01*
X195031Y263498D01*
X189033D02*
X188033Y264497D01*
X186034D01*
X185034Y263498D01*
Y259499D01*
X186034Y258499D01*
X188033D01*
X189033Y259499D01*
Y263498D01*
X183035Y261498D02*
X179036D01*
X173038Y258499D02*
X177036D01*
X173038Y262498D01*
Y263498D01*
X174038Y264497D01*
X176037D01*
X177036Y263498D01*
X171038D02*
X170039Y264497D01*
X168040D01*
X167040Y263498D01*
Y259499D01*
X168040Y258499D01*
X170039D01*
X171038Y259499D01*
Y263498D01*
X161042Y258499D02*
X165040D01*
X161042Y262498D01*
Y263498D01*
X162041Y264497D01*
X164041D01*
X165040Y263498D01*
X155044Y264497D02*
X159042D01*
Y261498D01*
X157043Y262498D01*
X156043D01*
X155044Y261498D01*
Y259499D01*
X156043Y258499D01*
X158043D01*
X159042Y259499D01*
X239501Y233498D02*
X240501Y234497D01*
X242500D01*
X243500Y233498D01*
Y229499D01*
X242500Y228499D01*
X240501D01*
X239501Y229499D01*
X237502Y234497D02*
Y229499D01*
X236502Y228499D01*
X234503D01*
X233503Y229499D01*
Y234497D01*
X230504Y227500D02*
X229504Y228499D01*
Y229499D01*
X230504D01*
Y228499D01*
X229504D01*
X230504Y227500D01*
X231504Y226500D01*
X219508Y234497D02*
Y228499D01*
X216509D01*
X215509Y229499D01*
Y230499D01*
X216509Y231498D01*
X219508D01*
X216509D01*
X215509Y232498D01*
Y233498D01*
X216509Y234497D01*
X219508D01*
X210511D02*
X212510D01*
X213510Y233498D01*
Y229499D01*
X212510Y228499D01*
X210511D01*
X209511Y229499D01*
Y233498D01*
X210511Y234497D01*
X207512D02*
Y229499D01*
X206512Y228499D01*
X204513D01*
X203513Y229499D01*
Y234497D01*
X201514D02*
Y228499D01*
X197515D01*
X195516Y234497D02*
Y228499D01*
X192517D01*
X191517Y229499D01*
Y233498D01*
X192517Y234497D01*
X195516D01*
X185519D02*
X189517D01*
Y228499D01*
X185519D01*
X189517Y231498D02*
X187518D01*
X183519Y228499D02*
Y234497D01*
X180520D01*
X179521Y233498D01*
Y231498D01*
X180520Y230499D01*
X183519D01*
X181520D02*
X179521Y228499D01*
X176522Y227500D02*
X175522Y228499D01*
Y229499D01*
X176522D01*
Y228499D01*
X175522D01*
X176522Y227500D01*
X177521Y226500D01*
X161527Y234497D02*
X165525D01*
Y228499D01*
X161527D01*
X165525Y231498D02*
X163526D01*
X155528Y233498D02*
X156528Y234497D01*
X158528D01*
X159527Y233498D01*
Y229499D01*
X158528Y228499D01*
X156528D01*
X155528Y229499D01*
X149530Y234497D02*
X153529D01*
Y228499D01*
X149530D01*
X153529Y231498D02*
X151530D01*
X143532Y234497D02*
X147531D01*
Y228499D01*
X143532D01*
X147531Y231498D02*
X145532D01*
X285501Y291498D02*
X289500D01*
Y285500D01*
X285501D01*
X289500Y288499D02*
X287501D01*
X279503Y290498D02*
X280503Y291498D01*
X282502D01*
X283502Y290498D01*
Y286500D01*
X282502Y285500D01*
X280503D01*
X279503Y286500D01*
X273505Y291498D02*
X277504D01*
Y285500D01*
X273505D01*
X277504Y288499D02*
X275504D01*
X271506Y285500D02*
Y291498D01*
X267507Y285500D01*
Y291498D01*
X261509D02*
X265508D01*
Y288499D01*
X263508Y289499D01*
X262509D01*
X261509Y288499D01*
Y286500D01*
X262509Y285500D01*
X264508D01*
X265508Y286500D01*
X259510Y291498D02*
X255511D01*
Y290498D01*
X259510Y286500D01*
Y285500D01*
X253512Y290498D02*
X252512Y291498D01*
X250513D01*
X249513Y290498D01*
Y289499D01*
X250513Y288499D01*
X251512D01*
X250513D01*
X249513Y287499D01*
Y286500D01*
X250513Y285500D01*
X252512D01*
X253512Y286500D01*
X247514Y290498D02*
X246514Y291498D01*
X244515D01*
X243515Y290498D01*
Y286500D01*
X244515Y285500D01*
X246514D01*
X247514Y286500D01*
Y290498D01*
X225521D02*
X226520Y291498D01*
X228520D01*
X229519Y290498D01*
Y286500D01*
X228520Y285500D01*
X226520D01*
X225521Y286500D01*
Y288499D01*
X227520D01*
X220522Y291498D02*
X222522D01*
X223521Y290498D01*
Y286500D01*
X222522Y285500D01*
X220522D01*
X219523Y286500D01*
Y290498D01*
X220522Y291498D01*
X217523D02*
Y285500D01*
X213525D01*
X211525Y291498D02*
Y285500D01*
X208526D01*
X207526Y286500D01*
Y290498D01*
X208526Y291498D01*
X211525D01*
X201528D02*
X205527D01*
Y285500D01*
X201528D01*
X205527Y288499D02*
X203528D01*
X199529Y285500D02*
Y291498D01*
X195530Y285500D01*
Y291498D01*
X187533Y285500D02*
Y289499D01*
X185534Y291498D01*
X183534Y289499D01*
Y285500D01*
Y288499D01*
X187533D01*
X181535Y285500D02*
Y291498D01*
X178536D01*
X177536Y290498D01*
Y288499D01*
X178536Y287499D01*
X181535D01*
X179536D02*
X177536Y285500D01*
X175537Y291498D02*
Y285500D01*
X172538D01*
X171538Y286500D01*
Y290498D01*
X172538Y291498D01*
X175537D01*
X169539D02*
X167540D01*
X168539D01*
Y285500D01*
X169539D01*
X167540D01*
X164540Y291498D02*
Y286500D01*
X163541Y285500D01*
X161541D01*
X160542Y286500D01*
Y291498D01*
X158542Y285500D02*
Y291498D01*
X154544Y285500D01*
Y291498D01*
X149545D02*
X151545D01*
X152544Y290498D01*
Y286500D01*
X151545Y285500D01*
X149545D01*
X148546Y286500D01*
Y290498D01*
X149545Y291498D01*
M02*
