G04*
G04 #@! TF.GenerationSoftware,Altium Limited,Altium Designer,25.8.1 (18)*
G04*
G04 Layer_Color=65535*
%FSLAX25Y25*%
%MOIN*%
G70*
G04*
G04 #@! TF.SameCoordinates,C2104F37-0586-4E15-A42F-F292DD76917F*
G04*
G04*
G04 #@! TF.FilePolarity,Positive*
G04*
G01*
G75*
%ADD10C,0.01575*%
%ADD11C,0.01000*%
%ADD12C,0.00600*%
%ADD13C,0.00394*%
%ADD14C,0.02000*%
%ADD15C,0.01500*%
%ADD16C,0.00500*%
%ADD17C,0.00800*%
%ADD18C,0.00900*%
%ADD19C,0.00787*%
D10*
X54610Y69900D02*
G03*
X54610Y69900I-787J0D01*
G01*
D11*
X261280Y145908D02*
G03*
X261280Y145908I-1118J0D01*
G01*
X45894Y141496D02*
G03*
X45894Y141496I-394J0D01*
G01*
X104600Y180735D02*
G03*
X104600Y180735I-1000J0D01*
G01*
X88400Y100400D02*
Y106000D01*
X88900Y120400D02*
Y126000D01*
X235025Y25025D02*
Y30025D01*
X245025D01*
Y20025D02*
Y30025D01*
X235025Y20025D02*
X245025D01*
X235025D02*
Y25025D01*
X245025Y30025D02*
X295025D01*
X245025Y20025D02*
X295025D01*
Y30025D01*
X150250Y206500D02*
X154750D01*
X152500D02*
Y207527D01*
X151250Y205000D02*
X153750D01*
X152023Y203500D02*
X152750D01*
X160250Y206500D02*
X164750D01*
X162500D02*
Y207527D01*
X161250Y205000D02*
X163750D01*
X162023Y203500D02*
X162750D01*
X170250Y206500D02*
X174750D01*
X172500D02*
Y207527D01*
X171250Y205000D02*
X173750D01*
X172023Y203500D02*
X172750D01*
X20090Y70000D02*
X20122D01*
X13850Y113100D02*
X14577D01*
X12850Y111600D02*
X15350D01*
X14100Y109073D02*
Y110100D01*
X11850D02*
X16350D01*
X23850Y113100D02*
X24577D01*
X22850Y111600D02*
X25350D01*
X24100Y109073D02*
Y110100D01*
X21850D02*
X26350D01*
X33850Y113100D02*
X34577D01*
X32850Y111600D02*
X35350D01*
X34100Y109073D02*
Y110100D01*
X31850D02*
X36350D01*
X31650Y175400D02*
X36150D01*
X33900Y174373D02*
Y175400D01*
X32650Y176900D02*
X35150D01*
X33650Y178400D02*
X34377D01*
X21650Y175400D02*
X26150D01*
X23900Y174373D02*
Y175400D01*
X22650Y176900D02*
X25150D01*
X23650Y178400D02*
X24377D01*
X11650Y175400D02*
X16150D01*
X13900Y174373D02*
Y175400D01*
X12650Y176900D02*
X15150D01*
X13650Y178400D02*
X14377D01*
X235025Y55025D02*
Y60025D01*
X245025D01*
Y50025D02*
X295025D01*
Y60025D01*
X245025D02*
X295025D01*
X245025Y50025D02*
Y60025D01*
X235025Y50025D02*
X245025D01*
X235025D02*
Y55025D01*
X32492Y251968D02*
Y252548D01*
Y253706D02*
Y254286D01*
X-5786Y227020D02*
Y257825D01*
Y227020D02*
X2200D01*
X14900Y227100D02*
X20300D01*
X-5786Y257825D02*
X2000D01*
X3125Y241372D02*
X6025D01*
X2825D02*
X3125D01*
X2025Y242173D02*
X2825Y241372D01*
X2025Y242173D02*
Y243572D01*
X1625Y243972D02*
X2025Y243572D01*
X-1675Y243972D02*
X1625D01*
X-2075Y243572D02*
X-1675Y243972D01*
X-2075Y241773D02*
Y243572D01*
X-2675Y241173D02*
X-2075Y241773D01*
X-5175Y241173D02*
X-2675D01*
X25Y227020D02*
Y235873D01*
X925Y236772D01*
X4625D01*
X6025Y238173D01*
Y245572D01*
X5125Y246473D02*
X6025Y245572D01*
X725Y246473D02*
X5125D01*
X-275Y247473D02*
X725Y246473D01*
X-275Y247473D02*
Y257673D01*
X14900Y257800D02*
X20700D01*
X32492Y230714D02*
Y232875D01*
Y252548D02*
Y253706D01*
X12000Y132000D02*
X43000D01*
X12000D02*
Y142500D01*
X43000Y132000D02*
Y142500D01*
X12000D02*
X43000D01*
X39250Y27500D02*
X43750D01*
X41500Y26473D02*
Y27500D01*
X40250Y29000D02*
X42750D01*
X41250Y30500D02*
X41977D01*
X29250Y27500D02*
X33750D01*
X31500Y26473D02*
Y27500D01*
X30250Y29000D02*
X32750D01*
X31250Y30500D02*
X31977D01*
X19250Y27500D02*
X23750D01*
X21500Y26473D02*
Y27500D01*
X20250Y29000D02*
X22750D01*
X21250Y30500D02*
X21977D01*
X209025Y240025D02*
Y250025D01*
X119025Y240025D02*
X209025D01*
X119025D02*
Y250025D01*
X109025D02*
X199025D01*
X109025Y240025D02*
Y250025D01*
Y240025D02*
X199025D01*
X119025Y250025D02*
X209025D01*
X184700Y191600D02*
Y212500D01*
Y191600D02*
X215100D01*
X184700Y212500D02*
X212200D01*
X215100Y209600D01*
Y191600D02*
Y209600D01*
X267900Y219400D02*
Y225000D01*
Y203700D02*
Y209300D01*
X155025Y50025D02*
Y60025D01*
X145025D02*
X225025D01*
X145025Y50025D02*
Y60025D01*
Y50025D02*
X225025D01*
Y60025D01*
X262250Y116500D02*
X266750D01*
X264500Y115473D02*
Y116500D01*
X263250Y118000D02*
X265750D01*
X264250Y119500D02*
X264977D01*
X252250Y116500D02*
X256750D01*
X254500Y115473D02*
Y116500D01*
X253250Y118000D02*
X255750D01*
X254250Y119500D02*
X254977D01*
X242250Y116500D02*
X246750D01*
X244500Y115473D02*
Y116500D01*
X243250Y118000D02*
X245750D01*
X244250Y119500D02*
X244977D01*
X72500Y258900D02*
X78100D01*
X225025Y240025D02*
Y250025D01*
X215025D02*
X295025D01*
X215025Y240025D02*
Y250025D01*
Y240025D02*
X295025D01*
Y250025D01*
X69250Y30500D02*
X69977D01*
X68250Y29000D02*
X70750D01*
X69500Y26473D02*
Y27500D01*
X67250D02*
X71750D01*
X79250Y30500D02*
X79977D01*
X78250Y29000D02*
X80750D01*
X79500Y26473D02*
Y27500D01*
X77250D02*
X81750D01*
X89250Y30500D02*
X89977D01*
X88250Y29000D02*
X90750D01*
X89500Y26473D02*
Y27500D01*
X87250D02*
X91750D01*
X172023Y143500D02*
X172750D01*
X171250Y145000D02*
X173750D01*
X172500Y146500D02*
Y147527D01*
X170250Y146500D02*
X174750D01*
X162023Y143500D02*
X162750D01*
X161250Y145000D02*
X163750D01*
X162500Y146500D02*
Y147527D01*
X160250Y146500D02*
X164750D01*
X152023Y143500D02*
X152750D01*
X151250Y145000D02*
X153750D01*
X152500Y146500D02*
Y147527D01*
X150250Y146500D02*
X154750D01*
X172023Y173500D02*
X172750D01*
X171250Y175000D02*
X173750D01*
X172500Y176500D02*
Y177527D01*
X170250Y176500D02*
X174750D01*
X162023Y173500D02*
X162750D01*
X161250Y175000D02*
X163750D01*
X162500Y176500D02*
Y177527D01*
X160250Y176500D02*
X164750D01*
X152023Y173500D02*
X152750D01*
X151250Y175000D02*
X153750D01*
X152500Y176500D02*
Y177527D01*
X150250Y176500D02*
X154750D01*
X172023Y113500D02*
X172750D01*
X171250Y115000D02*
X173750D01*
X172500Y116500D02*
Y117527D01*
X170250Y116500D02*
X174750D01*
X162023Y113500D02*
X162750D01*
X161250Y115000D02*
X163750D01*
X162500Y116500D02*
Y117527D01*
X160250Y116500D02*
X164750D01*
X152023Y113500D02*
X152750D01*
X151250Y115000D02*
X153750D01*
X152500Y116500D02*
Y117527D01*
X150250Y116500D02*
X154750D01*
X244250Y89500D02*
X244977D01*
X243250Y88000D02*
X245750D01*
X244500Y85473D02*
Y86500D01*
X242250D02*
X246750D01*
X254250Y89500D02*
X254977D01*
X253250Y88000D02*
X255750D01*
X254500Y85473D02*
Y86500D01*
X252250D02*
X256750D01*
X264250Y89500D02*
X264977D01*
X263250Y88000D02*
X265750D01*
X264500Y85473D02*
Y86500D01*
X262250D02*
X266750D01*
X225025Y20025D02*
Y30025D01*
X145025Y20025D02*
X225025D01*
X145025D02*
Y30025D01*
X225025D01*
X155025Y20025D02*
Y30025D01*
X119025Y270025D02*
Y280025D01*
X109025D02*
X119025D01*
Y270025D02*
X209025D01*
Y280025D01*
X119025D02*
X209025D01*
X109025Y270025D02*
X119025D01*
X109025D02*
Y280025D01*
X295025Y270025D02*
Y280025D01*
X215025Y270025D02*
X295025D01*
X215025D02*
Y280025D01*
X295025D01*
X225025Y270025D02*
Y280025D01*
X72569Y95499D02*
Y91501D01*
X75235D01*
X79234Y95499D02*
X76568D01*
Y91501D01*
X79234D01*
X76568Y93500D02*
X77901D01*
X80567Y95499D02*
Y91501D01*
X82566D01*
X83232Y92167D01*
Y94833D01*
X82566Y95499D01*
X80567D01*
X84565Y94833D02*
X85232Y95499D01*
X86564D01*
X87231Y94833D01*
Y94166D01*
X86564Y93500D01*
X85898D01*
X86564D01*
X87231Y92834D01*
Y92167D01*
X86564Y91501D01*
X85232D01*
X84565Y92167D01*
X80200Y141933D02*
X79534Y142599D01*
X78201D01*
X77534Y141933D01*
Y139267D01*
X78201Y138601D01*
X79534D01*
X80200Y139267D01*
X81533Y138601D02*
X82866D01*
X82199D01*
Y142599D01*
X81533Y141933D01*
X72569Y115699D02*
Y111701D01*
X75235D01*
X79234Y115699D02*
X76568D01*
Y111701D01*
X79234D01*
X76568Y113700D02*
X77901D01*
X80567Y115699D02*
Y111701D01*
X82566D01*
X83232Y112367D01*
Y115033D01*
X82566Y115699D01*
X80567D01*
X87231Y111701D02*
X84565D01*
X87231Y114366D01*
Y115033D01*
X86564Y115699D01*
X85232D01*
X84565Y115033D01*
X253500Y93000D02*
Y95666D01*
X254833Y96999D01*
X256166Y95666D01*
Y93000D01*
Y94999D01*
X253500D01*
X257499Y96999D02*
Y93000D01*
X259498D01*
X260164Y93666D01*
Y96332D01*
X259498Y96999D01*
X257499D01*
X263497Y93000D02*
Y96999D01*
X261497Y94999D01*
X264163D01*
X265496Y93000D02*
X268162Y95666D01*
X272161Y96332D02*
X271494Y96999D01*
X270161D01*
X269495Y96332D01*
Y95666D01*
X270161Y94999D01*
X271494D01*
X272161Y94333D01*
Y93666D01*
X271494Y93000D01*
X270161D01*
X269495Y93666D01*
X273494Y96999D02*
Y93000D01*
X275493D01*
X276159Y93666D01*
Y96332D01*
X275493Y96999D01*
X273494D01*
X277492Y93000D02*
Y95666D01*
X278825Y96999D01*
X280158Y95666D01*
Y93000D01*
Y94999D01*
X277492D01*
X255000Y123500D02*
Y126166D01*
X256333Y127499D01*
X257666Y126166D01*
Y123500D01*
Y125499D01*
X255000D01*
X258999Y127499D02*
Y123500D01*
X260998D01*
X261665Y124167D01*
Y126832D01*
X260998Y127499D01*
X258999D01*
X265663D02*
X262997D01*
Y125499D01*
X264330Y126166D01*
X264997D01*
X265663Y125499D01*
Y124167D01*
X264997Y123500D01*
X263664D01*
X262997Y124167D01*
X266996Y123500D02*
X269662Y126166D01*
X273661Y126832D02*
X272994Y127499D01*
X271661D01*
X270995Y126832D01*
Y126166D01*
X271661Y125499D01*
X272994D01*
X273661Y124833D01*
Y124167D01*
X272994Y123500D01*
X271661D01*
X270995Y124167D01*
X277659Y126832D02*
X276993Y127499D01*
X275660D01*
X274994Y126832D01*
Y124167D01*
X275660Y123500D01*
X276993D01*
X277659Y124167D01*
X278992Y127499D02*
Y123500D01*
X281658D01*
X161000Y100166D02*
Y102832D01*
X162333Y104165D01*
X163666Y102832D01*
Y100166D01*
Y102166D01*
X161000D01*
X164999Y100166D02*
Y104165D01*
X166998D01*
X167665Y103499D01*
Y102166D01*
X166998Y101499D01*
X164999D01*
X166332D02*
X167665Y100166D01*
X168997Y104165D02*
Y100166D01*
X170997D01*
X171663Y100833D01*
Y103499D01*
X170997Y104165D01*
X168997D01*
X172996Y99500D02*
X175662D01*
X176995Y100166D02*
Y104165D01*
X178994D01*
X179661Y103499D01*
Y102166D01*
X178994Y101499D01*
X176995D01*
X180994Y104165D02*
Y100166D01*
X182326Y101499D01*
X183659Y100166D01*
Y104165D01*
X184992Y100166D02*
Y104165D01*
X186992D01*
X187658Y103499D01*
Y102166D01*
X186992Y101499D01*
X184992D01*
X186325D02*
X187658Y100166D01*
X199500Y219999D02*
X200833D01*
X200167D01*
Y216000D01*
X199500D01*
X200833D01*
X205498Y219332D02*
X204832Y219999D01*
X203499D01*
X202832Y219332D01*
Y216666D01*
X203499Y216000D01*
X204832D01*
X205498Y216666D01*
X209497Y219332D02*
X208830Y219999D01*
X207497D01*
X206831Y219332D01*
Y218666D01*
X207497Y217999D01*
X208830D01*
X209497Y217333D01*
Y216666D01*
X208830Y216000D01*
X207497D01*
X206831Y216666D01*
X210830Y216000D02*
Y219999D01*
X212829D01*
X213495Y219332D01*
Y217999D01*
X212829Y217333D01*
X210830D01*
X171000Y135999D02*
Y132000D01*
X172999D01*
X173666Y132667D01*
Y135332D01*
X172999Y135999D01*
X171000D01*
X174999Y133999D02*
X177664D01*
X170500Y165999D02*
Y162000D01*
X172499D01*
X173166Y162666D01*
Y165332D01*
X172499Y165999D01*
X170500D01*
X174499Y163999D02*
X177164D01*
X175832Y165332D02*
Y162666D01*
X152500Y195999D02*
X153833D01*
X153166D01*
Y192000D01*
X152500D01*
X153833D01*
X157832Y195999D02*
X156499D01*
X155832Y195332D01*
Y192666D01*
X156499Y192000D01*
X157832D01*
X158498Y192666D01*
Y195332D01*
X157832Y195999D01*
X159831Y195332D02*
X160497Y195999D01*
X161830D01*
X162497Y195332D01*
Y192666D01*
X161830Y192000D01*
X160497D01*
X159831Y192666D01*
Y195332D01*
X163830Y192000D02*
X166496Y194666D01*
X167828Y195999D02*
X170494D01*
X169161D01*
Y192000D01*
X171827Y195999D02*
X174493Y192000D01*
Y195999D02*
X171827Y192000D01*
X175826Y195999D02*
Y192000D01*
X177825D01*
X178492Y192666D01*
Y195332D01*
X177825Y195999D01*
X175826D01*
X155000Y224999D02*
X156333D01*
X155666D01*
Y221000D01*
X155000D01*
X156333D01*
X160332Y224999D02*
X158999D01*
X158332Y224332D01*
Y221666D01*
X158999Y221000D01*
X160332D01*
X160998Y221666D01*
Y224332D01*
X160332Y224999D01*
X162331Y221000D02*
X163664D01*
X162997D01*
Y224999D01*
X162331Y224332D01*
X165663Y221000D02*
X168329Y223666D01*
X169662Y221000D02*
Y224999D01*
X171661D01*
X172328Y224332D01*
Y222999D01*
X171661Y222333D01*
X169662D01*
X170995D02*
X172328Y221000D01*
X173661Y224999D02*
X176326Y221000D01*
Y224999D02*
X173661Y221000D01*
X177659Y224999D02*
Y221000D01*
X179659D01*
X180325Y221666D01*
Y224332D01*
X179659Y224999D01*
X177659D01*
X88500Y35999D02*
X91166D01*
X89833Y37332D02*
Y34666D01*
X92499Y37332D02*
X93165Y37999D01*
X94498D01*
X95165Y37332D01*
Y36666D01*
X94498Y35999D01*
X93832D01*
X94498D01*
X95165Y35333D01*
Y34666D01*
X94498Y34000D01*
X93165D01*
X92499Y34666D01*
X96497Y34000D02*
Y37999D01*
X98497D01*
X99163Y37332D01*
Y35999D01*
X98497Y35333D01*
X96497D01*
X100496Y37332D02*
X101163Y37999D01*
X102496D01*
X103162Y37332D01*
Y36666D01*
X102496Y35999D01*
X101829D01*
X102496D01*
X103162Y35333D01*
Y34666D01*
X102496Y34000D01*
X101163D01*
X100496Y34666D01*
X104495Y37999D02*
Y35333D01*
X105828Y34000D01*
X107161Y35333D01*
Y37999D01*
X223500Y201499D02*
X224833D01*
X224166D01*
Y197500D01*
X223500D01*
X224833D01*
X228832Y201499D02*
X227499D01*
X226832Y200832D01*
Y198167D01*
X227499Y197500D01*
X228832D01*
X229498Y198167D01*
Y200832D01*
X228832Y201499D01*
X230831Y197500D02*
X232164D01*
X231497D01*
Y201499D01*
X230831Y200832D01*
X234163Y197500D02*
X236829Y200166D01*
X238162Y197500D02*
Y201499D01*
X240161D01*
X240828Y200832D01*
Y199499D01*
X240161Y198833D01*
X238162D01*
X239495D02*
X240828Y197500D01*
X242161Y201499D02*
X244827Y197500D01*
Y201499D02*
X242161Y197500D01*
X223500Y218499D02*
X224833D01*
X224166D01*
Y214500D01*
X223500D01*
X224833D01*
X228832Y218499D02*
X227499D01*
X226832Y217832D01*
Y215166D01*
X227499Y214500D01*
X228832D01*
X229498Y215166D01*
Y217832D01*
X228832Y218499D01*
X230831Y217832D02*
X231497Y218499D01*
X232830D01*
X233497Y217832D01*
Y215166D01*
X232830Y214500D01*
X231497D01*
X230831Y215166D01*
Y217832D01*
X234830Y214500D02*
X237495Y217166D01*
X238828Y218499D02*
X241494D01*
X240161D01*
Y214500D01*
X242827Y218499D02*
X245493Y214500D01*
Y218499D02*
X242827Y214500D01*
X69800Y237199D02*
Y233866D01*
X70466Y233200D01*
X71799D01*
X72466Y233866D01*
Y237199D01*
X76464Y236532D02*
X75798Y237199D01*
X74465D01*
X73799Y236532D01*
Y235866D01*
X74465Y235199D01*
X75798D01*
X76464Y234533D01*
Y233866D01*
X75798Y233200D01*
X74465D01*
X73799Y233866D01*
X77797Y237199D02*
Y233200D01*
X79797D01*
X80463Y233866D01*
Y234533D01*
X79797Y235199D01*
X77797D01*
X79797D01*
X80463Y235866D01*
Y236532D01*
X79797Y237199D01*
X77797D01*
X43500Y36499D02*
X46166D01*
X44833Y37832D02*
Y35166D01*
X50165Y38499D02*
X47499D01*
Y36499D01*
X48832Y37166D01*
X49498D01*
X50165Y36499D01*
Y35166D01*
X49498Y34500D01*
X48165D01*
X47499Y35166D01*
X51497Y38499D02*
Y35833D01*
X52830Y34500D01*
X54163Y35833D01*
Y38499D01*
X26000Y157999D02*
X28666D01*
X27333Y159332D02*
Y156667D01*
X32664Y159999D02*
X29999D01*
Y157999D01*
X31332Y158666D01*
X31998D01*
X32664Y157999D01*
Y156667D01*
X31998Y156000D01*
X30665D01*
X29999Y156667D01*
X33997Y159999D02*
Y157333D01*
X35330Y156000D01*
X36663Y157333D01*
Y159999D01*
X37996Y156000D02*
X40662Y158666D01*
X41995Y159999D02*
Y156667D01*
X42661Y156000D01*
X43994D01*
X44661Y156667D01*
Y159999D01*
X48659Y159332D02*
X47993Y159999D01*
X46660D01*
X45994Y159332D01*
Y158666D01*
X46660Y157999D01*
X47993D01*
X48659Y157333D01*
Y156667D01*
X47993Y156000D01*
X46660D01*
X45994Y156667D01*
X49992Y159999D02*
Y156000D01*
X51992D01*
X52658Y156667D01*
Y157333D01*
X51992Y157999D01*
X49992D01*
X51992D01*
X52658Y158666D01*
Y159332D01*
X51992Y159999D01*
X49992D01*
X13000Y149999D02*
Y146667D01*
X13667Y146000D01*
X14999D01*
X15666Y146667D01*
Y149999D01*
X19665Y149332D02*
X18998Y149999D01*
X17665D01*
X16999Y149332D01*
Y148666D01*
X17665Y147999D01*
X18998D01*
X19665Y147333D01*
Y146667D01*
X18998Y146000D01*
X17665D01*
X16999Y146667D01*
X20997Y149999D02*
Y146000D01*
X22997D01*
X23663Y146667D01*
Y147333D01*
X22997Y147999D01*
X20997D01*
X22997D01*
X23663Y148666D01*
Y149332D01*
X22997Y149999D01*
X20997D01*
X38166D02*
X35500D01*
Y147999D01*
X36833Y148666D01*
X37499D01*
X38166Y147999D01*
Y146667D01*
X37499Y146000D01*
X36166D01*
X35500Y146667D01*
X39499Y149999D02*
Y147333D01*
X40832Y146000D01*
X42164Y147333D01*
Y149999D01*
X29166Y119332D02*
X28499Y119999D01*
X27166D01*
X26500Y119332D01*
Y118666D01*
X27166Y117999D01*
X28499D01*
X29166Y117333D01*
Y116666D01*
X28499Y116000D01*
X27166D01*
X26500Y116666D01*
X33165Y119999D02*
X30499D01*
Y116000D01*
X33165D01*
X30499Y117999D02*
X31832D01*
X34497Y116000D02*
Y119999D01*
X37163Y116000D01*
Y119999D01*
X41162Y119332D02*
X40495Y119999D01*
X39163D01*
X38496Y119332D01*
Y118666D01*
X39163Y117999D01*
X40495D01*
X41162Y117333D01*
Y116666D01*
X40495Y116000D01*
X39163D01*
X38496Y116666D01*
X45161Y119999D02*
X42495D01*
Y116000D01*
X45161D01*
X42495Y117999D02*
X43828D01*
X20000Y123999D02*
X22666D01*
X21333Y125332D02*
Y122667D01*
X26665Y125999D02*
X23999D01*
Y123999D01*
X25332Y124666D01*
X25998D01*
X26665Y123999D01*
Y122667D01*
X25998Y122000D01*
X24665D01*
X23999Y122667D01*
X27997Y125999D02*
Y123333D01*
X29330Y122000D01*
X30663Y123333D01*
Y125999D01*
X31996Y122000D02*
X34662Y124666D01*
X35995Y125999D02*
Y122667D01*
X36661Y122000D01*
X37994D01*
X38661Y122667D01*
Y125999D01*
X42659Y125332D02*
X41993Y125999D01*
X40660D01*
X39994Y125332D01*
Y124666D01*
X40660Y123999D01*
X41993D01*
X42659Y123333D01*
Y122667D01*
X41993Y122000D01*
X40660D01*
X39994Y122667D01*
X43992Y125999D02*
Y122000D01*
X45992D01*
X46658Y122667D01*
Y123333D01*
X45992Y123999D01*
X43992D01*
X45992D01*
X46658Y124666D01*
Y125332D01*
X45992Y125999D01*
X43992D01*
X53000Y104332D02*
X53666Y104999D01*
X54999D01*
X55666Y104332D01*
Y103666D01*
X54999Y102999D01*
X54333D01*
X54999D01*
X55666Y102333D01*
Y101666D01*
X54999Y101000D01*
X53666D01*
X53000Y101666D01*
X56999Y101000D02*
Y104999D01*
X58998D01*
X59664Y104332D01*
Y102999D01*
X58998Y102333D01*
X56999D01*
X60997Y104332D02*
X61664Y104999D01*
X62997D01*
X63663Y104332D01*
Y103666D01*
X62997Y102999D01*
X62330D01*
X62997D01*
X63663Y102333D01*
Y101666D01*
X62997Y101000D01*
X61664D01*
X60997Y101666D01*
X64996Y104999D02*
Y102333D01*
X66329Y101000D01*
X67662Y102333D01*
Y104999D01*
X63466Y124499D02*
X60800D01*
Y122499D01*
X62133Y123166D01*
X62799D01*
X63466Y122499D01*
Y121167D01*
X62799Y120500D01*
X61466D01*
X60800Y121167D01*
X64799Y124499D02*
Y121833D01*
X66132Y120500D01*
X67465Y121833D01*
Y124499D01*
X6502Y159999D02*
X9168D01*
X7835D01*
Y156001D01*
X10501D02*
Y159999D01*
X12500D01*
X13167Y159333D01*
Y158000D01*
X12500Y157334D01*
X10501D01*
X14500Y156001D02*
X15833D01*
X15166D01*
Y159999D01*
X14500Y159333D01*
X17832D02*
X18498Y159999D01*
X19831D01*
X20498Y159333D01*
Y156667D01*
X19831Y156001D01*
X18498D01*
X17832Y156667D01*
Y159333D01*
X187866Y219999D02*
X186533D01*
X187199D01*
Y216666D01*
X186533Y216000D01*
X185866D01*
X185200Y216666D01*
X189199Y216000D02*
X190532D01*
X189865D01*
Y219999D01*
X189199Y219332D01*
X11834Y266799D02*
X10501D01*
X11167D01*
Y263467D01*
X10501Y262801D01*
X9834D01*
X9168Y263467D01*
X15832Y262801D02*
X13167D01*
X15832Y265466D01*
Y266133D01*
X15166Y266799D01*
X13833D01*
X13167Y266133D01*
X63668Y212999D02*
Y212333D01*
X65001Y211000D01*
X66334Y212333D01*
Y212999D01*
X65001Y211000D02*
Y209001D01*
X70332D02*
X67667D01*
X70332Y211666D01*
Y212333D01*
X69666Y212999D01*
X68333D01*
X67667Y212333D01*
X259834Y166999D02*
Y166333D01*
X261167Y165000D01*
X262500Y166333D01*
Y166999D01*
X261167Y165000D02*
Y163001D01*
X263833D02*
X265166D01*
X264499D01*
Y166999D01*
X263833Y166333D01*
X105168Y170999D02*
Y167667D01*
X105834Y167001D01*
X107167D01*
X107834Y167667D01*
Y170999D01*
X111832Y167001D02*
X109167D01*
X111832Y169667D01*
Y170333D01*
X111166Y170999D01*
X109833D01*
X109167Y170333D01*
X217334Y179499D02*
Y176167D01*
X218001Y175501D01*
X219334D01*
X220000Y176167D01*
Y179499D01*
X221333Y175501D02*
X222666D01*
X221999D01*
Y179499D01*
X221333Y178833D01*
X136800Y136199D02*
X139466D01*
X138133D01*
Y132200D01*
X140799D02*
Y136199D01*
X142798D01*
X143465Y135532D01*
Y134199D01*
X142798Y133533D01*
X140799D01*
X144797Y132867D02*
X145464Y132200D01*
X146797D01*
X147463Y132867D01*
Y135532D01*
X146797Y136199D01*
X145464D01*
X144797Y135532D01*
Y134866D01*
X145464Y134199D01*
X147463D01*
X136668Y224999D02*
X139334D01*
X138001D01*
Y221001D01*
X140667D02*
Y224999D01*
X142666D01*
X143333Y224333D01*
Y223000D01*
X142666Y222334D01*
X140667D01*
X144666Y224333D02*
X145332Y224999D01*
X146665D01*
X147332Y224333D01*
Y223666D01*
X146665Y223000D01*
X147332Y222334D01*
Y221667D01*
X146665Y221001D01*
X145332D01*
X144666Y221667D01*
Y222334D01*
X145332Y223000D01*
X144666Y223666D01*
Y224333D01*
X145332Y223000D02*
X146665D01*
X238700Y96999D02*
X241366D01*
X240033D01*
Y93000D01*
X242699D02*
Y96999D01*
X244698D01*
X245364Y96332D01*
Y94999D01*
X244698Y94333D01*
X242699D01*
X246697Y96999D02*
X249363D01*
Y96332D01*
X246697Y93666D01*
Y93000D01*
X136800Y166199D02*
X139466D01*
X138133D01*
Y162200D01*
X140799D02*
Y166199D01*
X142798D01*
X143465Y165532D01*
Y164199D01*
X142798Y163533D01*
X140799D01*
X147463Y166199D02*
X146130Y165532D01*
X144797Y164199D01*
Y162866D01*
X145464Y162200D01*
X146797D01*
X147463Y162866D01*
Y163533D01*
X146797Y164199D01*
X144797D01*
X136800Y196199D02*
X139466D01*
X138133D01*
Y192200D01*
X140799D02*
Y196199D01*
X142798D01*
X143465Y195532D01*
Y194199D01*
X142798Y193533D01*
X140799D01*
X147463Y196199D02*
X144797D01*
Y194199D01*
X146130Y194866D01*
X146797D01*
X147463Y194199D01*
Y192867D01*
X146797Y192200D01*
X145464D01*
X144797Y192867D01*
X237668Y127499D02*
X240334D01*
X239001D01*
Y123501D01*
X241667D02*
Y127499D01*
X243666D01*
X244333Y126833D01*
Y125500D01*
X243666Y124834D01*
X241667D01*
X247665Y123501D02*
Y127499D01*
X245666Y125500D01*
X248332D01*
X15800Y37999D02*
X18466D01*
X17133D01*
Y34000D01*
X19799D02*
Y37999D01*
X21798D01*
X22465Y37332D01*
Y35999D01*
X21798Y35333D01*
X19799D01*
X23797Y37332D02*
X24464Y37999D01*
X25797D01*
X26463Y37332D01*
Y36666D01*
X25797Y35999D01*
X25130D01*
X25797D01*
X26463Y35333D01*
Y34666D01*
X25797Y34000D01*
X24464D01*
X23797Y34666D01*
X4168Y120499D02*
X6834D01*
X5501D01*
Y116501D01*
X8167D02*
Y120499D01*
X10166D01*
X10833Y119833D01*
Y118500D01*
X10166Y117833D01*
X8167D01*
X14832Y116501D02*
X12166D01*
X14832Y119167D01*
Y119833D01*
X14165Y120499D01*
X12832D01*
X12166Y119833D01*
X63800Y37999D02*
X66466D01*
X65133D01*
Y34000D01*
X67799D02*
Y37999D01*
X69798D01*
X70464Y37332D01*
Y35999D01*
X69798Y35333D01*
X67799D01*
X71797Y34000D02*
X73130D01*
X72464D01*
Y37999D01*
X71797Y37332D01*
X8634Y284333D02*
X7968Y284999D01*
X6635D01*
X5968Y284333D01*
Y283666D01*
X6635Y283000D01*
X7968D01*
X8634Y282334D01*
Y281667D01*
X7968Y281001D01*
X6635D01*
X5968Y281667D01*
X9967Y284999D02*
Y281001D01*
X11300Y282334D01*
X12633Y281001D01*
Y284999D01*
X13966Y284333D02*
X14632Y284999D01*
X15965D01*
X16632Y284333D01*
Y283666D01*
X15965Y283000D01*
X15299D01*
X15965D01*
X16632Y282334D01*
Y281667D01*
X15965Y281001D01*
X14632D01*
X13966Y281667D01*
X147766Y103232D02*
X147099Y103899D01*
X145766D01*
X145100Y103232D01*
Y102566D01*
X145766Y101899D01*
X147099D01*
X147766Y101233D01*
Y100566D01*
X147099Y99900D01*
X145766D01*
X145100Y100566D01*
X149099Y103899D02*
Y99900D01*
X150432Y101233D01*
X151765Y99900D01*
Y103899D01*
X155763Y99900D02*
X153097D01*
X155763Y102566D01*
Y103232D01*
X155097Y103899D01*
X153764D01*
X153097Y103232D01*
X5667Y135501D02*
X5001Y134834D01*
Y133501D01*
X5667Y132835D01*
X6334D01*
X7000Y133501D01*
Y134834D01*
X7666Y135501D01*
X8333D01*
X8999Y134834D01*
Y133501D01*
X8333Y132835D01*
X5001Y136834D02*
X8999D01*
X7666Y138166D01*
X8999Y139499D01*
X5001D01*
X8999Y140832D02*
Y142165D01*
Y141499D01*
X5001D01*
X5667Y140832D01*
X296468Y204501D02*
Y208499D01*
X298467D01*
X299134Y207833D01*
Y206500D01*
X298467Y205834D01*
X296468D01*
X297801D02*
X299134Y204501D01*
X300467D02*
X301800D01*
X301133D01*
Y208499D01*
X300467Y207833D01*
X303799Y204501D02*
X305132D01*
X304466D01*
Y208499D01*
X303799Y207833D01*
X295702Y220001D02*
Y223999D01*
X297701D01*
X298367Y223333D01*
Y222000D01*
X297701Y221334D01*
X295702D01*
X297035D02*
X298367Y220001D01*
X299700D02*
X301033D01*
X300367D01*
Y223999D01*
X299700Y223333D01*
X303033D02*
X303699Y223999D01*
X305032D01*
X305698Y223333D01*
Y220667D01*
X305032Y220001D01*
X303699D01*
X303033Y220667D01*
Y223333D01*
X117668Y204501D02*
Y208499D01*
X119667D01*
X120334Y207833D01*
Y206500D01*
X119667Y205834D01*
X117668D01*
X119001D02*
X120334Y204501D01*
X121667Y205167D02*
X122333Y204501D01*
X123666D01*
X124332Y205167D01*
Y207833D01*
X123666Y208499D01*
X122333D01*
X121667Y207833D01*
Y207166D01*
X122333Y206500D01*
X124332D01*
X117668Y192501D02*
Y196499D01*
X119667D01*
X120334Y195833D01*
Y194500D01*
X119667Y193833D01*
X117668D01*
X119001D02*
X120334Y192501D01*
X121667Y195833D02*
X122333Y196499D01*
X123666D01*
X124332Y195833D01*
Y195167D01*
X123666Y194500D01*
X124332Y193833D01*
Y193167D01*
X123666Y192501D01*
X122333D01*
X121667Y193167D01*
Y193833D01*
X122333Y194500D01*
X121667Y195167D01*
Y195833D01*
X122333Y194500D02*
X123666D01*
X136300Y82500D02*
Y86499D01*
X138299D01*
X138966Y85832D01*
Y84499D01*
X138299Y83833D01*
X136300D01*
X137633D02*
X138966Y82500D01*
X140299Y86499D02*
X142964D01*
Y85832D01*
X140299Y83166D01*
Y82500D01*
X97000Y110800D02*
Y114799D01*
X98999D01*
X99666Y114132D01*
Y112799D01*
X98999Y112133D01*
X97000D01*
X98333D02*
X99666Y110800D01*
X103665Y114799D02*
X102332Y114132D01*
X100999Y112799D01*
Y111467D01*
X101665Y110800D01*
X102998D01*
X103665Y111467D01*
Y112133D01*
X102998Y112799D01*
X100999D01*
X97500Y130800D02*
Y134799D01*
X99499D01*
X100166Y134132D01*
Y132799D01*
X99499Y132133D01*
X97500D01*
X98833D02*
X100166Y130800D01*
X104165Y134799D02*
X101499D01*
Y132799D01*
X102832Y133466D01*
X103498D01*
X104165Y132799D01*
Y131466D01*
X103498Y130800D01*
X102165D01*
X101499Y131466D01*
X85968Y260501D02*
Y264499D01*
X87967D01*
X88634Y263833D01*
Y262500D01*
X87967Y261834D01*
X85968D01*
X87301D02*
X88634Y260501D01*
X91966D02*
Y264499D01*
X89966Y262500D01*
X92632D01*
X53768Y127001D02*
Y130999D01*
X55767D01*
X56434Y130333D01*
Y129000D01*
X55767Y128333D01*
X53768D01*
X55101D02*
X56434Y127001D01*
X57766Y130333D02*
X58433Y130999D01*
X59766D01*
X60432Y130333D01*
Y129666D01*
X59766Y129000D01*
X59099D01*
X59766D01*
X60432Y128333D01*
Y127667D01*
X59766Y127001D01*
X58433D01*
X57766Y127667D01*
X43268Y184501D02*
Y188499D01*
X45267D01*
X45934Y187833D01*
Y186500D01*
X45267Y185834D01*
X43268D01*
X44601D02*
X45934Y184501D01*
X49932D02*
X47267D01*
X49932Y187167D01*
Y187833D01*
X49266Y188499D01*
X47933D01*
X47267Y187833D01*
X271834Y196501D02*
Y200499D01*
X273834D01*
X274500Y199833D01*
Y198500D01*
X273834Y197834D01*
X271834D01*
X273167D02*
X274500Y196501D01*
X275833D02*
X277166D01*
X276499D01*
Y200499D01*
X275833Y199833D01*
X118835Y72001D02*
Y75999D01*
X120834D01*
X121501Y75333D01*
Y74000D01*
X120834Y73334D01*
X118835D01*
X125499Y75333D02*
X124833Y75999D01*
X123500D01*
X122834Y75333D01*
Y74666D01*
X123500Y74000D01*
X124833D01*
X125499Y73334D01*
Y72667D01*
X124833Y72001D01*
X123500D01*
X122834Y72667D01*
X126832Y72001D02*
X128165D01*
X127499D01*
Y75999D01*
X126832Y75333D01*
X17334Y90001D02*
Y93999D01*
X19333D01*
X20000Y93333D01*
Y92000D01*
X19333Y91334D01*
X17334D01*
X21333Y90001D02*
X22666D01*
X21999D01*
Y93999D01*
X21333Y93333D01*
X230469Y208799D02*
Y204801D01*
X233135D01*
X237134Y208799D02*
X234468D01*
Y204801D01*
X237134D01*
X234468Y206800D02*
X235801D01*
X238467Y208799D02*
Y204801D01*
X240466D01*
X241132Y205467D01*
Y208133D01*
X240466Y208799D01*
X238467D01*
X245131D02*
X242465D01*
Y206800D01*
X243798Y207466D01*
X244464D01*
X245131Y206800D01*
Y205467D01*
X244464Y204801D01*
X243132D01*
X242465Y205467D01*
X230569Y224599D02*
Y220601D01*
X233235D01*
X237234Y224599D02*
X234568D01*
Y220601D01*
X237234D01*
X234568Y222600D02*
X235901D01*
X238566Y224599D02*
Y220601D01*
X240566D01*
X241232Y221267D01*
Y223933D01*
X240566Y224599D01*
X238566D01*
X244565Y220601D02*
Y224599D01*
X242565Y222600D01*
X245231D01*
X69436Y265199D02*
Y261201D01*
X72101D01*
X76100Y265199D02*
X73434D01*
Y261201D01*
X76100D01*
X73434Y263200D02*
X74767D01*
X77433Y265199D02*
Y261201D01*
X79432D01*
X80099Y261867D01*
Y264533D01*
X79432Y265199D01*
X77433D01*
X81432Y261201D02*
X82765D01*
X82098D01*
Y265199D01*
X81432Y264533D01*
X192334Y131999D02*
Y128001D01*
X195000D01*
X196333D02*
X197666D01*
X196999D01*
Y131999D01*
X196333Y131333D01*
X287167Y73499D02*
X285835D01*
X286501D01*
Y70167D01*
X285835Y69501D01*
X285168D01*
X284502Y70167D01*
X288500Y69501D02*
X289833D01*
X289167D01*
Y73499D01*
X288500Y72833D01*
X291833D02*
X292499Y73499D01*
X293832D01*
X294498Y72833D01*
Y70167D01*
X293832Y69501D01*
X292499D01*
X291833Y70167D01*
Y72833D01*
X237566Y37499D02*
X236233D01*
X236899D01*
Y34166D01*
X236233Y33500D01*
X235566D01*
X234900Y34166D01*
X238899D02*
X239565Y33500D01*
X240898D01*
X241564Y34166D01*
Y36832D01*
X240898Y37499D01*
X239565D01*
X238899Y36832D01*
Y36166D01*
X239565Y35499D01*
X241564D01*
X217666Y287499D02*
X216333D01*
X216999D01*
Y284166D01*
X216333Y283500D01*
X215666D01*
X215000Y284166D01*
X218999Y286832D02*
X219665Y287499D01*
X220998D01*
X221665Y286832D01*
Y286166D01*
X220998Y285499D01*
X221665Y284833D01*
Y284166D01*
X220998Y283500D01*
X219665D01*
X218999Y284166D01*
Y284833D01*
X219665Y285499D01*
X218999Y286166D01*
Y286832D01*
X219665Y285499D02*
X220998D01*
X217666Y257499D02*
X216333D01*
X216999D01*
Y254166D01*
X216333Y253500D01*
X215666D01*
X215000Y254166D01*
X218999Y257499D02*
X221665D01*
Y256832D01*
X218999Y254166D01*
Y253500D01*
X111566Y287499D02*
X110233D01*
X110899D01*
Y284166D01*
X110233Y283500D01*
X109566D01*
X108900Y284166D01*
X115565Y287499D02*
X114232Y286832D01*
X112899Y285499D01*
Y284166D01*
X113565Y283500D01*
X114898D01*
X115565Y284166D01*
Y284833D01*
X114898Y285499D01*
X112899D01*
X111666Y257499D02*
X110333D01*
X110999D01*
Y254166D01*
X110333Y253500D01*
X109667D01*
X109000Y254166D01*
X115665Y257499D02*
X112999D01*
Y255499D01*
X114332Y256166D01*
X114998D01*
X115665Y255499D01*
Y254166D01*
X114998Y253500D01*
X113665D01*
X112999Y254166D01*
X136834Y56499D02*
X135501D01*
X136167D01*
Y53167D01*
X135501Y52501D01*
X134834D01*
X134168Y53167D01*
X140166Y52501D02*
Y56499D01*
X138166Y54500D01*
X140832D01*
X147666Y37499D02*
X146333D01*
X146999D01*
Y34166D01*
X146333Y33500D01*
X145667D01*
X145000Y34166D01*
X148999Y36832D02*
X149665Y37499D01*
X150998D01*
X151664Y36832D01*
Y36166D01*
X150998Y35499D01*
X150332D01*
X150998D01*
X151664Y34833D01*
Y34166D01*
X150998Y33500D01*
X149665D01*
X148999Y34166D01*
X54434Y256599D02*
Y252601D01*
X56434D01*
X57100Y253267D01*
Y255933D01*
X56434Y256599D01*
X54434D01*
X58433Y252601D02*
X59766D01*
X59099D01*
Y256599D01*
X58433Y255933D01*
X82167Y220333D02*
X81501Y220999D01*
X80168D01*
X79502Y220333D01*
Y217667D01*
X80168Y217001D01*
X81501D01*
X82167Y217667D01*
X83500Y217001D02*
X84833D01*
X84167D01*
Y220999D01*
X83500Y220333D01*
X88832Y217001D02*
Y220999D01*
X86833Y219000D01*
X89498D01*
X106667Y146833D02*
X106001Y147499D01*
X104668D01*
X104002Y146833D01*
Y144167D01*
X104668Y143501D01*
X106001D01*
X106667Y144167D01*
X108000Y143501D02*
X109333D01*
X108667D01*
Y147499D01*
X108000Y146833D01*
X111333D02*
X111999Y147499D01*
X113332D01*
X113998Y146833D01*
Y146167D01*
X113332Y145500D01*
X112665D01*
X113332D01*
X113998Y144834D01*
Y144167D01*
X113332Y143501D01*
X111999D01*
X111333Y144167D01*
X197167Y176333D02*
X196501Y176999D01*
X195168D01*
X194502Y176333D01*
Y173667D01*
X195168Y173001D01*
X196501D01*
X197167Y173667D01*
X198500Y173001D02*
X199833D01*
X199167D01*
Y176999D01*
X198500Y176333D01*
X204498Y173001D02*
X201833D01*
X204498Y175666D01*
Y176333D01*
X203832Y176999D01*
X202499D01*
X201833Y176333D01*
X295834Y150833D02*
X295167Y151499D01*
X293834D01*
X293168Y150833D01*
Y148167D01*
X293834Y147501D01*
X295167D01*
X295834Y148167D01*
X297167Y147501D02*
X298500D01*
X297833D01*
Y151499D01*
X297167Y150833D01*
X300499Y147501D02*
X301832D01*
X301166D01*
Y151499D01*
X300499Y150833D01*
X295667Y160833D02*
X295001Y161499D01*
X293668D01*
X293002Y160833D01*
Y158167D01*
X293668Y157501D01*
X295001D01*
X295667Y158167D01*
X297000Y157501D02*
X298333D01*
X297667D01*
Y161499D01*
X297000Y160833D01*
X300333D02*
X300999Y161499D01*
X302332D01*
X302998Y160833D01*
Y158167D01*
X302332Y157501D01*
X300999D01*
X300333Y158167D01*
Y160833D01*
X184834Y154833D02*
X184167Y155499D01*
X182834D01*
X182168Y154833D01*
Y152167D01*
X182834Y151501D01*
X184167D01*
X184834Y152167D01*
X186167D02*
X186833Y151501D01*
X188166D01*
X188832Y152167D01*
Y154833D01*
X188166Y155499D01*
X186833D01*
X186167Y154833D01*
Y154166D01*
X186833Y153500D01*
X188832D01*
X79266Y295832D02*
X78599Y296499D01*
X77266D01*
X76600Y295832D01*
Y293166D01*
X77266Y292500D01*
X78599D01*
X79266Y293166D01*
X80599Y295832D02*
X81265Y296499D01*
X82598D01*
X83264Y295832D01*
Y295166D01*
X82598Y294499D01*
X83264Y293833D01*
Y293166D01*
X82598Y292500D01*
X81265D01*
X80599Y293166D01*
Y293833D01*
X81265Y294499D01*
X80599Y295166D01*
Y295832D01*
X81265Y294499D02*
X82598D01*
X65866Y295832D02*
X65199Y296499D01*
X63866D01*
X63200Y295832D01*
Y293166D01*
X63866Y292500D01*
X65199D01*
X65866Y293166D01*
X67199Y296499D02*
X69864D01*
Y295832D01*
X67199Y293166D01*
Y292500D01*
X15334Y194333D02*
X14667Y194999D01*
X13334D01*
X12668Y194333D01*
Y191667D01*
X13334Y191001D01*
X14667D01*
X15334Y191667D01*
X19332Y194999D02*
X17999Y194333D01*
X16667Y193000D01*
Y191667D01*
X17333Y191001D01*
X18666D01*
X19332Y191667D01*
Y192333D01*
X18666Y193000D01*
X16667D01*
X246834Y188833D02*
X246167Y189499D01*
X244834D01*
X244168Y188833D01*
Y186167D01*
X244834Y185501D01*
X246167D01*
X246834Y186167D01*
X250832Y189499D02*
X248166D01*
Y187500D01*
X249499Y188166D01*
X250166D01*
X250832Y187500D01*
Y186167D01*
X250166Y185501D01*
X248833D01*
X248166Y186167D01*
X15834Y206333D02*
X15167Y206999D01*
X13834D01*
X13168Y206333D01*
Y203667D01*
X13834Y203001D01*
X15167D01*
X15834Y203667D01*
X19166Y203001D02*
Y206999D01*
X17166Y205000D01*
X19832D01*
X298834Y187833D02*
X298167Y188499D01*
X296834D01*
X296168Y187833D01*
Y185167D01*
X296834Y184501D01*
X298167D01*
X298834Y185167D01*
X300167Y187833D02*
X300833Y188499D01*
X302166D01*
X302832Y187833D01*
Y187167D01*
X302166Y186500D01*
X301499D01*
X302166D01*
X302832Y185834D01*
Y185167D01*
X302166Y184501D01*
X300833D01*
X300167Y185167D01*
X90834Y53833D02*
X90167Y54499D01*
X88834D01*
X88168Y53833D01*
Y51167D01*
X88834Y50501D01*
X90167D01*
X90834Y51167D01*
X94832Y50501D02*
X92167D01*
X94832Y53166D01*
Y53833D01*
X94166Y54499D01*
X92833D01*
X92167Y53833D01*
D12*
X51907Y249300D02*
G03*
X51907Y249300I-707J0D01*
G01*
X51914Y272905D02*
G03*
X51914Y272905I-806J0D01*
G01*
X188450Y140000D02*
G03*
X188450Y140000I-300J0D01*
G01*
X117707Y83606D02*
G03*
X117707Y83606I-707J0D01*
G01*
X73200Y97882D02*
X84200D01*
X73100Y108118D02*
X84100D01*
X75100Y138600D02*
Y142400D01*
X68100Y138600D02*
Y142400D01*
X73700Y117882D02*
X84700D01*
X73600Y128118D02*
X84600D01*
X52012Y138600D02*
Y142400D01*
X60988Y138600D02*
Y142400D01*
X80500Y198100D02*
Y201900D01*
X87500Y198100D02*
Y201900D01*
X222762Y141908D02*
X224762D01*
X222762D02*
Y143908D01*
X252985Y141954D02*
Y143954D01*
X250985Y141954D02*
X252985D01*
X251155Y172010D02*
X253155D01*
Y170010D02*
Y172010D01*
X222262Y172408D02*
X224262D01*
X222262Y170408D02*
Y172408D01*
X272500Y185512D02*
X276300D01*
X272500Y194488D02*
X276300D01*
X254500Y183100D02*
Y186900D01*
X261500Y183100D02*
Y186900D01*
X93488Y247100D02*
Y250900D01*
X84512Y247100D02*
Y250900D01*
X38056Y284247D02*
Y285847D01*
X38006Y281247D02*
Y282647D01*
X31008Y281206D02*
X45008D01*
X31008Y285906D02*
X45008D01*
X28008Y273905D02*
X48008D01*
X28008Y293905D02*
X48008D01*
X39708Y283405D02*
X41308D01*
X39708Y282606D02*
Y284206D01*
X45008Y279805D02*
Y281206D01*
X31008Y279805D02*
Y281206D01*
Y285906D02*
Y287206D01*
X45008Y285906D02*
Y287206D01*
X55508Y280405D02*
Y287405D01*
X20508Y280405D02*
Y287405D01*
X282900Y210788D02*
X286700D01*
X282900Y201812D02*
X286700D01*
X283000Y225988D02*
X286800D01*
X283000Y217012D02*
X286800D01*
X252700Y216882D02*
X263700D01*
X252600Y227118D02*
X263600D01*
X252700Y201182D02*
X263700D01*
X252600Y211418D02*
X263600D01*
X198100Y157000D02*
X201900D01*
X198100Y150000D02*
X201900D01*
X198100Y170500D02*
X201900D01*
X198100Y163500D02*
X201900D01*
X198097Y144050D02*
X202503D01*
X198097Y135950D02*
X202503D01*
X274600Y145500D02*
X278400D01*
X274600Y152500D02*
X278400D01*
X274600Y156000D02*
X278400D01*
X274600Y163000D02*
X278400D01*
X104600Y210988D02*
X108400D01*
X104600Y202012D02*
X108400D01*
X104500Y198988D02*
X108300D01*
X104500Y190012D02*
X108300D01*
X286000Y183100D02*
Y186900D01*
X293000Y183100D02*
Y186900D01*
X41612Y197100D02*
Y200900D01*
X50588Y197100D02*
Y200900D01*
X29200Y195500D02*
X33000D01*
X29200Y188500D02*
X33000D01*
X90700Y148500D02*
X94500D01*
X90700Y141500D02*
X94500D01*
X29200Y208000D02*
X33000D01*
X29200Y201000D02*
X33000D01*
X80618Y243700D02*
Y254700D01*
X70382Y243600D02*
Y254600D01*
X89300Y66700D02*
Y81300D01*
Y66700D02*
X115700D01*
Y81300D01*
X89300D02*
X115700D01*
X107100Y47000D02*
X110900D01*
X107100Y54000D02*
X110900D01*
X103100Y118512D02*
X106900D01*
X103100Y127488D02*
X106900D01*
X102600Y98512D02*
X106400D01*
X102600Y107488D02*
X106400D01*
X141900Y70212D02*
X145700D01*
X141900Y79188D02*
X145700D01*
X62600Y279100D02*
Y282900D01*
X69600Y279100D02*
Y282900D01*
X83000Y279100D02*
Y282900D01*
X76000Y279100D02*
Y282900D01*
D13*
X284664Y181684D02*
G03*
X284664Y181684I-361J0D01*
G01*
X72461Y205700D02*
G03*
X72461Y205700I-361J0D01*
G01*
D14*
X146089Y91655D02*
G03*
X146089Y91655I-500J0D01*
G01*
D15*
X136500Y207500D02*
X147000D01*
X136500D02*
Y218500D01*
X177000Y207500D02*
X178500D01*
Y218500D01*
X136500D02*
X178500D01*
X8100Y98100D02*
X50100D01*
X8100D02*
Y109100D01*
X9600D01*
X50100Y98100D02*
Y109100D01*
X39600D02*
X50100D01*
X39400Y174400D02*
X49900D01*
Y163400D02*
Y174400D01*
X7900D02*
X9400D01*
X7900Y163400D02*
Y174400D01*
Y163400D02*
X49900D01*
X47000Y26500D02*
X57500D01*
Y15500D02*
Y26500D01*
X15500D02*
X17000D01*
X15500Y15500D02*
Y26500D01*
Y15500D02*
X57500D01*
X270000Y115500D02*
X280500D01*
Y104500D02*
Y115500D01*
X238500D02*
X240000D01*
X238500Y104500D02*
Y115500D01*
Y104500D02*
X280500D01*
X63500Y15500D02*
X105500D01*
X63500D02*
Y26500D01*
X65000D01*
X105500Y15500D02*
Y26500D01*
X95000D02*
X105500D01*
X136500Y158500D02*
X178500D01*
Y147500D02*
Y158500D01*
X177000Y147500D02*
X178500D01*
X136500D02*
Y158500D01*
Y147500D02*
X147000D01*
X136500Y188500D02*
X178500D01*
Y177500D02*
Y188500D01*
X177000Y177500D02*
X178500D01*
X136500D02*
Y188500D01*
Y177500D02*
X147000D01*
X136500Y128500D02*
X178500D01*
Y117500D02*
Y128500D01*
X177000Y117500D02*
X178500D01*
X136500D02*
Y128500D01*
Y117500D02*
X147000D01*
X238500Y74500D02*
X280500D01*
X238500D02*
Y85500D01*
X240000D01*
X280500Y74500D02*
Y85500D01*
X270000D02*
X280500D01*
D16*
X41722Y52284D02*
X46468D01*
Y61300D01*
X-10224Y52284D02*
Y87717D01*
X46468D01*
Y79500D02*
Y87717D01*
X-10224Y52284D02*
X25012D01*
X204900Y202300D02*
Y212300D01*
Y202300D02*
X214900D01*
X249825Y62225D02*
X248411Y63639D01*
Y65052D01*
X249825D01*
X251239Y63639D01*
X250178Y64699D01*
X248765Y63285D01*
X251946Y64346D02*
X252653Y65052D01*
X252299Y64699D01*
X250178Y66820D01*
Y66113D01*
X239825Y62225D02*
X238411Y63639D01*
Y65052D01*
X239825D01*
X241239Y63639D01*
X240178Y64699D01*
X238765Y63285D01*
X240178Y66113D02*
Y66820D01*
X240885Y67527D01*
X241592Y67527D01*
X243006Y66113D01*
X243006Y65406D01*
X242299Y64699D01*
X241592D01*
X240178Y66113D01*
X259825Y61932D02*
X258411Y63346D01*
Y64760D01*
X259825D01*
X261239Y63346D01*
X260178Y64406D01*
X258765Y62992D01*
X263359Y65466D02*
X261946Y64053D01*
Y66880D01*
X261592Y67234D01*
X260885Y67234D01*
X260178Y66527D01*
Y65820D01*
X269825Y61932D02*
X268411Y63346D01*
Y64760D01*
X269825D01*
X271239Y63346D01*
X270178Y64406D01*
X268765Y62992D01*
X270178Y65820D02*
Y66527D01*
X270885Y67234D01*
X271592Y67234D01*
X271946Y66880D01*
Y66173D01*
X271592Y65820D01*
X271946Y66173D01*
X272653Y66173D01*
X273006Y65820D01*
X273006Y65113D01*
X272299Y64406D01*
X271592D01*
X279825Y61932D02*
X278411Y63346D01*
Y64760D01*
X279825D01*
X281239Y63346D01*
X280178Y64406D01*
X278765Y62992D01*
X283006Y65113D02*
X280885Y67234D01*
X280885Y65113D01*
X282299Y66527D01*
X289825Y61932D02*
X288411Y63346D01*
Y64760D01*
X289825D01*
X291239Y63346D01*
X290178Y64406D01*
X288765Y62992D01*
X291239Y67587D02*
X289825Y66173D01*
X290885Y65113D01*
X291239Y66173D01*
X291592Y66527D01*
X292299D01*
X293006Y65820D01*
X293006Y65113D01*
X292299Y64406D01*
X291592D01*
X110772Y232527D02*
X110065Y232527D01*
X109358Y231820D01*
Y231113D01*
X109711Y230759D01*
X110418Y230759D01*
X111125Y231466D01*
X111832Y231466D01*
X112185Y231113D01*
X112185Y230406D01*
X111478Y229699D01*
X110772D01*
X112892Y234647D02*
X112185Y234647D01*
X111478Y233940D01*
Y233233D01*
X112892Y231820D01*
X113599D01*
X114306Y232527D01*
X114306Y233233D01*
X113246Y235707D02*
X115366Y233587D01*
X116780Y235001D01*
X119972Y232527D02*
X119265Y232527D01*
X118558Y231820D01*
Y231113D01*
X118911Y230759D01*
X119618Y230759D01*
X120325Y231466D01*
X121032Y231466D01*
X121385Y231113D01*
X121385Y230406D01*
X120678Y229699D01*
X119972D01*
X120325Y233587D02*
X122446Y231466D01*
X123506Y232527D01*
X123506Y233233D01*
X122092Y234647D01*
X121385Y234647D01*
X120325Y233587D01*
X124566D02*
X123152Y235001D01*
Y236414D01*
X124566D01*
X125980Y235001D01*
X124920Y236061D01*
X123506Y234647D01*
X127925Y227225D02*
X126511Y228639D01*
Y230052D01*
X127925D01*
X129339Y228639D01*
X128278Y229699D01*
X126865Y228285D01*
X130046Y229346D02*
X127925Y231466D01*
X128985Y232527D01*
X129692Y232527D01*
X130399Y231820D01*
Y231113D01*
X129339Y230052D01*
X130046Y230759D02*
X131459Y230759D01*
Y235001D02*
X130046Y233587D01*
X132166Y231466D01*
X133580Y232880D01*
X131106Y232527D02*
X131813Y233233D01*
X133580Y237121D02*
X132166Y235707D01*
X133227Y234647D01*
X133933Y235354D01*
X133227Y234647D01*
X134287Y233587D01*
X140272Y232527D02*
X139565Y232527D01*
X138858Y231820D01*
Y231113D01*
X140272Y229699D01*
X140978D01*
X141685Y230406D01*
X141685Y231113D01*
X140978Y231820D01*
X140272Y231113D01*
X142746Y231466D02*
X140625Y233587D01*
X144159Y232880D01*
X142039Y235001D01*
X142746Y235707D02*
X144866Y233587D01*
X145927Y234647D01*
X145927Y235354D01*
X144513Y236768D01*
X143806D01*
X142746Y235707D01*
X149104Y231820D02*
X151225Y229699D01*
X152285Y230759D01*
X152285Y231466D01*
X150872Y232880D01*
X150165Y232880D01*
X149104Y231820D01*
X153346D02*
X154052Y232527D01*
X153699Y232173D01*
X151578Y234294D01*
Y233587D01*
X153346Y235354D02*
Y236061D01*
X154052Y236768D01*
X154759D01*
X155113Y236414D01*
Y235707D01*
X154759Y235354D01*
X155113Y235707D01*
X155820Y235707D01*
X156173Y235354D01*
X156173Y234647D01*
X155466Y233940D01*
X154759D01*
X158204Y231820D02*
X160325Y229699D01*
X161385Y230759D01*
X161385Y231466D01*
X159972Y232880D01*
X159265Y232880D01*
X158204Y231820D01*
X162446D02*
X163153Y232527D01*
X162799Y232173D01*
X160678Y234294D01*
Y233587D01*
X165627Y235001D02*
X164213Y233587D01*
Y236414D01*
X163859Y236768D01*
X163153D01*
X162446Y236061D01*
Y235354D01*
X167504Y229699D02*
X169625Y227578D01*
X170685Y228639D01*
X170685Y229346D01*
X169272Y230759D01*
X168565Y230759D01*
X167504Y229699D01*
X171746D02*
X172452Y230406D01*
X172099Y230052D01*
X169978Y232173D01*
Y231466D01*
X173513D02*
X174220Y232173D01*
X173866Y231820D01*
X171746Y233940D01*
Y233233D01*
X173513Y235001D02*
Y235707D01*
X174220Y236414D01*
X174220Y237121D01*
X177604Y229346D02*
X179725Y227225D01*
X180785Y228285D01*
X180785Y228992D01*
X179372Y230406D01*
X178665Y230406D01*
X177604Y229346D01*
X181846D02*
X182553Y230052D01*
X182199Y229699D01*
X180078Y231820D01*
Y231113D01*
X181846Y232880D02*
Y233587D01*
X182553Y234294D01*
X183259D01*
X184673Y232880D01*
X184673Y232173D01*
X183966Y231466D01*
X183259D01*
X181846Y232880D01*
X183966Y235001D02*
Y235707D01*
X184673Y236414D01*
X184673Y237121D01*
X188504Y231113D02*
X190625Y228992D01*
X191685Y230052D01*
X191685Y230759D01*
X190272Y232173D01*
X189565Y232173D01*
X188504Y231113D01*
X192392Y231466D02*
X193099D01*
X193806Y232173D01*
X193806Y232880D01*
X192392Y234294D01*
X191685Y234294D01*
X190978Y233587D01*
Y232880D01*
X191332Y232527D01*
X192039Y232527D01*
X193099Y233587D01*
Y235001D02*
Y235707D01*
X193806Y236414D01*
X193806Y237121D01*
X200804Y233587D02*
X202925Y231466D01*
X203985Y232527D01*
X203985Y233233D01*
X202572Y234647D01*
X201865Y234647D01*
X200804Y233587D01*
X203278Y235354D02*
Y236061D01*
X203985Y236768D01*
X204692Y236768D01*
X205046Y236414D01*
Y235707D01*
X205752Y235707D01*
X206106Y235354D01*
X206106Y234647D01*
X205399Y233940D01*
X204692D01*
X204339Y234294D01*
Y235001D01*
X203632Y235001D01*
X203278Y235354D01*
X204339Y235001D02*
X205046Y235707D01*
X150025Y63732D02*
X147904Y65853D01*
X151439Y65146D01*
X149318Y67266D01*
X151792Y69034D02*
X151085Y69034D01*
X150378Y68327D01*
Y67620D01*
X151792Y66206D01*
X152499D01*
X153206Y66913D01*
X153206Y67620D01*
X156904Y64984D02*
X157611Y65691D01*
X157258Y65338D01*
X159378Y63217D01*
X159025Y62864D01*
X159732Y63570D01*
Y67812D02*
X159025Y67105D01*
Y66398D01*
X160439Y64984D01*
X161146D01*
X161853Y65691D01*
Y66398D01*
X160439Y67812D01*
X159732Y67812D01*
X162913Y66751D02*
X160792Y68872D01*
X161853Y69932D01*
X162559D01*
X163266Y69226D01*
X163266Y68519D01*
X162206Y67458D01*
X162913Y68165D02*
X164327Y68165D01*
Y72406D02*
X162913Y70993D01*
X165033Y68872D01*
X166447Y70286D01*
X163973Y69932D02*
X164680Y70639D01*
X166447Y74527D02*
X165033Y73113D01*
X166094Y72053D01*
X166801Y72760D01*
X166094Y72053D01*
X167154Y70993D01*
X178258Y65499D02*
Y66206D01*
X178965Y66913D01*
X179672Y66913D01*
X180025Y66560D01*
Y65853D01*
X179672Y65499D01*
X180025Y65853D01*
X180732Y65853D01*
X181085Y65499D01*
X181085Y64792D01*
X180378Y64086D01*
X179672D01*
X180732Y67266D02*
X182852Y66560D01*
X182146Y68680D01*
X182499Y69741D02*
Y70447D01*
X183206Y71154D01*
X183913D01*
X184266Y70801D01*
Y70094D01*
X183913Y69741D01*
X184266Y70094D01*
X184973Y70094D01*
X185327Y69741D01*
X185327Y69034D01*
X184620Y68327D01*
X183913D01*
X189318Y67266D02*
X187904Y65853D01*
X188965Y64792D01*
X189318Y65853D01*
X189672Y66206D01*
X190378D01*
X191085Y65499D01*
X191085Y64792D01*
X190378Y64086D01*
X189672D01*
X190732Y67266D02*
X192852Y66560D01*
X192146Y68680D01*
X199672Y66913D02*
X198965Y66913D01*
X198258Y66206D01*
Y65499D01*
X199672Y64086D01*
X200378D01*
X201085Y64792D01*
X201085Y65499D01*
X200378Y66206D01*
X199672Y65499D01*
X202146Y65853D02*
X200025Y67973D01*
X203559Y67266D01*
X201439Y69387D01*
X202146Y70094D02*
X204266Y67973D01*
X205327Y69034D01*
X205327Y69741D01*
X203913Y71154D01*
X203206D01*
X202146Y70094D01*
X209672Y66913D02*
X208965Y66913D01*
X208258Y66206D01*
Y65499D01*
X209672Y64086D01*
X210378D01*
X211085Y64792D01*
X211085Y65499D01*
X210378Y66206D01*
X209672Y65499D01*
X212146Y65853D02*
X210025Y67973D01*
X213559Y67266D01*
X211439Y69387D01*
X212146Y70094D02*
X214266Y67973D01*
X215327Y69034D01*
X215327Y69741D01*
X213913Y71154D01*
X213206D01*
X212146Y70094D01*
X217904Y65853D02*
X219318Y64439D01*
X220732D01*
X220732Y65853D01*
X219318Y67266D01*
X222146Y65853D02*
X222852Y66560D01*
X222499Y66206D01*
X221085Y67620D01*
X220732Y67266D01*
X223913Y67620D02*
X222499Y69034D01*
X223559Y70094D01*
X224266D01*
X225327Y69034D01*
X170025Y63732D02*
X167904Y65853D01*
X168965Y66913D01*
X169672Y66913D01*
X170378Y66206D01*
X170378Y65499D01*
X169318Y64439D01*
X170025Y65146D02*
X171439Y65146D01*
Y69387D02*
X170025Y67973D01*
X172146Y65853D01*
X173559Y67266D01*
X171085Y66913D02*
X171792Y67620D01*
X173913Y71154D02*
X173206D01*
X172499Y70447D01*
Y69741D01*
X172853Y69387D01*
X173559Y69387D01*
X174266Y70094D01*
X174973Y70094D01*
X175327Y69741D01*
X175327Y69034D01*
X174620Y68327D01*
X173913D01*
X175680Y73628D02*
X174266Y72215D01*
X176387Y70094D01*
X177801Y71508D01*
X175327Y71154D02*
X176033Y71861D01*
X176387Y74335D02*
X177801Y75749D01*
X177094Y75042D01*
X179214Y72922D01*
X216004Y233827D02*
X218125Y231706D01*
X219185Y232767D01*
X219185Y233473D01*
X217772Y234887D01*
X217065Y234887D01*
X216004Y233827D01*
X218125Y235947D02*
X219539Y237361D01*
X219892Y237008D01*
Y234180D01*
X220246Y233827D01*
X225004Y231353D02*
X227125Y229232D01*
X228185Y230292D01*
X228185Y230999D01*
X226772Y232413D01*
X226065Y232413D01*
X225004Y231353D01*
X228539Y234887D02*
X228185Y233827D01*
X228185Y232413D01*
X228892Y231706D01*
X229599D01*
X230306Y232413D01*
X230306Y233120D01*
X229953Y233473D01*
X229246Y233473D01*
X228185Y232413D01*
X229599Y235241D02*
Y235947D01*
X230306Y236654D01*
X230306Y237361D01*
X246604Y233646D02*
X248725Y231525D01*
X249785Y232585D01*
X249785Y233292D01*
X248372Y234706D01*
X247665Y234706D01*
X246604Y233646D01*
X251906Y234706D02*
X249785Y236827D01*
X249785Y234706D01*
X251199Y236120D01*
X255004Y231646D02*
X257125Y229525D01*
X258185Y230585D01*
X258185Y231292D01*
X256772Y232706D01*
X256065Y232706D01*
X255004Y231646D01*
X257478Y233413D02*
Y234120D01*
X258185Y234827D01*
X258892Y234827D01*
X259246Y234473D01*
Y233766D01*
X258892Y233413D01*
X259246Y233766D01*
X259952Y233766D01*
X260306Y233413D01*
X260306Y232706D01*
X259599Y231999D01*
X258892D01*
X259599Y235533D02*
Y236240D01*
X260306Y236947D01*
X260306Y237654D01*
X266304Y233846D02*
X268425Y231725D01*
X269485Y232785D01*
X269485Y233492D01*
X268072Y234906D01*
X267365Y234906D01*
X266304Y233846D01*
X271959Y235259D02*
X270546Y233846D01*
Y236673D01*
X270192Y237027D01*
X269485Y237027D01*
X268778Y236320D01*
Y235613D01*
X277004Y234646D02*
X279125Y232525D01*
X280185Y233585D01*
X280185Y234292D01*
X278772Y235706D01*
X278065Y235706D01*
X277004Y234646D01*
X281246D02*
X281953Y235352D01*
X281599Y234999D01*
X279478Y237120D01*
Y236413D01*
X286004Y233827D02*
X288125Y231706D01*
X289185Y232767D01*
X289185Y233473D01*
X287772Y234887D01*
X287065Y234887D01*
X286004Y233827D01*
X288478Y235594D02*
Y236301D01*
X289185Y237008D01*
X289892Y237008D01*
X291306Y235594D01*
X291306Y234887D01*
X290599Y234180D01*
X289892D01*
X288478Y235594D01*
X236004Y231353D02*
X238125Y229232D01*
X239185Y230292D01*
X239185Y230999D01*
X237772Y232413D01*
X237065Y232413D01*
X236004Y231353D01*
X239539Y234887D02*
X238125Y233473D01*
X239185Y232413D01*
X239539Y233473D01*
X239892Y233827D01*
X240599D01*
X241306Y233120D01*
X241306Y232413D01*
X240599Y231706D01*
X239892D01*
X240599Y235241D02*
Y235947D01*
X241306Y236654D01*
X241306Y237361D01*
D17*
X54094Y235600D02*
X60000D01*
X54000Y248400D02*
X59905D01*
D18*
X101556Y163935D02*
Y174835D01*
X61438Y163935D02*
X101556D01*
X61438D02*
Y174835D01*
X101556D01*
D19*
X173772Y86500D02*
Y96465D01*
X150228D02*
X173772D01*
X150228Y86500D02*
Y96465D01*
Y86500D02*
X173772D01*
M02*
