G04*
G04 #@! TF.GenerationSoftware,Altium Limited,Altium Designer,25.8.1 (18)*
G04*
G04 Layer_Color=8388736*
%FSLAX25Y25*%
%MOIN*%
G70*
G04*
G04 #@! TF.SameCoordinates,C2104F37-0586-4E15-A42F-F292DD76917F*
G04*
G04*
G04 #@! TF.FilePolarity,Negative*
G04*
G01*
G75*
%ADD29R,0.05400X0.07300*%
%ADD31C,0.00000*%
%ADD32R,0.05200X0.07900*%
%ADD33R,0.07900X0.05200*%
%ADD34R,0.06696X0.02200*%
%ADD35R,0.02200X0.06696*%
%ADD36R,0.04900X0.03000*%
%ADD37R,0.06706X0.05524*%
%ADD38R,0.04100X0.07493*%
%ADD39O,0.03200X0.09461*%
%ADD40R,0.07887X0.06312*%
%ADD41R,0.13000X0.07493*%
%ADD42C,0.06800*%
%ADD43C,0.07800*%
%ADD44O,0.08674X0.15761*%
%ADD45O,0.13792X0.07887*%
%ADD46C,0.05524*%
%ADD47O,0.10249X0.05524*%
%ADD48C,0.07296*%
%ADD49C,0.07178*%
%ADD50C,0.03600*%
D29*
X206450Y140000D02*
D03*
X194150D02*
D03*
D31*
X160390Y91500D02*
G03*
X160390Y91500I-3390J0D01*
G01*
X170390D02*
G03*
X170390Y91500I-3390J0D01*
G01*
D32*
X72600Y103000D02*
D03*
X84400D02*
D03*
X84900Y123000D02*
D03*
X73100D02*
D03*
X280300Y190000D02*
D03*
X268500D02*
D03*
X86700Y145000D02*
D03*
X114900Y50500D02*
D03*
X110400Y103000D02*
D03*
X110900Y123000D02*
D03*
X25200Y192000D02*
D03*
Y204500D02*
D03*
X194100Y153500D02*
D03*
X282400Y149000D02*
D03*
Y159500D02*
D03*
X194100Y167000D02*
D03*
X252100Y222000D02*
D03*
Y206300D02*
D03*
X270600Y159500D02*
D03*
Y149000D02*
D03*
X290700Y206300D02*
D03*
X278900D02*
D03*
X279000Y221500D02*
D03*
X290800D02*
D03*
X263900Y222000D02*
D03*
Y206300D02*
D03*
X149700Y74700D02*
D03*
X112300Y194500D02*
D03*
X205900Y153500D02*
D03*
Y167000D02*
D03*
X112400Y206500D02*
D03*
X100600D02*
D03*
X100500Y194500D02*
D03*
X37000Y192000D02*
D03*
X98500Y145000D02*
D03*
X37000Y204500D02*
D03*
X103100Y50500D02*
D03*
X99100Y123000D02*
D03*
X98600Y103000D02*
D03*
X137900Y74700D02*
D03*
D33*
X71600Y146400D02*
D03*
Y134600D02*
D03*
X56500Y146400D02*
D03*
Y134600D02*
D03*
X84000Y194100D02*
D03*
Y205900D02*
D03*
X258000Y190900D02*
D03*
Y179100D02*
D03*
X89000Y254900D02*
D03*
Y243100D02*
D03*
X75500D02*
D03*
X79500Y275100D02*
D03*
X289500Y179100D02*
D03*
Y190900D02*
D03*
X79500Y286900D02*
D03*
X66100Y275100D02*
D03*
X46100Y204900D02*
D03*
Y193100D02*
D03*
X75500Y254900D02*
D03*
X66100Y286900D02*
D03*
D34*
X220911Y145908D02*
D03*
Y149008D02*
D03*
Y152208D02*
D03*
Y158508D02*
D03*
Y161608D02*
D03*
Y164808D02*
D03*
X254612Y152208D02*
D03*
Y149008D02*
D03*
Y145908D02*
D03*
Y164808D02*
D03*
Y167908D02*
D03*
X220911D02*
D03*
X254612Y155308D02*
D03*
Y161608D02*
D03*
Y158508D02*
D03*
X220911Y155308D02*
D03*
D35*
X248955Y140058D02*
D03*
X245854D02*
D03*
X236354D02*
D03*
X230054D02*
D03*
X226955D02*
D03*
X233255Y173759D02*
D03*
X236354D02*
D03*
X239555D02*
D03*
X242654D02*
D03*
X245854D02*
D03*
X248955D02*
D03*
X230054D02*
D03*
X226955D02*
D03*
X233255Y140058D02*
D03*
X242654D02*
D03*
X239555D02*
D03*
D36*
X52100Y245700D02*
D03*
Y238300D02*
D03*
X61900D02*
D03*
Y245700D02*
D03*
X52100Y242000D02*
D03*
X61900D02*
D03*
D37*
X51000Y278000D02*
D03*
X25016D02*
D03*
Y289811D02*
D03*
X51000D02*
D03*
D38*
X93400Y87779D02*
D03*
X111600Y86795D02*
D03*
X102500D02*
D03*
D39*
X99000Y181200D02*
D03*
Y157800D02*
D03*
X94000D02*
D03*
X89000D02*
D03*
X84000D02*
D03*
X79000D02*
D03*
X74000D02*
D03*
X69000D02*
D03*
X64000D02*
D03*
Y181200D02*
D03*
X69000D02*
D03*
X74000D02*
D03*
X79000D02*
D03*
X84000D02*
D03*
X89000D02*
D03*
X94000D02*
D03*
D40*
X56903Y203016D02*
D03*
X67297Y195378D02*
D03*
X279500Y171362D02*
D03*
X269106Y179000D02*
D03*
Y171362D02*
D03*
X279500Y179000D02*
D03*
X67297Y203016D02*
D03*
X56903Y195378D02*
D03*
D41*
X102500Y61205D02*
D03*
D42*
X280025Y25025D02*
D03*
X290025D02*
D03*
X260025D02*
D03*
X270025D02*
D03*
X250025D02*
D03*
X240025D02*
D03*
X290025Y55025D02*
D03*
X270025D02*
D03*
X260025D02*
D03*
X250025D02*
D03*
X240025D02*
D03*
X280025D02*
D03*
X204025Y245025D02*
D03*
X194025D02*
D03*
X184025D02*
D03*
X114025D02*
D03*
X134025D02*
D03*
X174025D02*
D03*
X164025D02*
D03*
X124025D02*
D03*
X154025D02*
D03*
X144025D02*
D03*
X150025Y25025D02*
D03*
X160025D02*
D03*
X124025Y275025D02*
D03*
X114025D02*
D03*
X134025D02*
D03*
X154025D02*
D03*
X144025D02*
D03*
X170025Y25025D02*
D03*
X190025D02*
D03*
X180025D02*
D03*
X210025D02*
D03*
X200025D02*
D03*
X220025D02*
D03*
X210025Y55025D02*
D03*
X200025D02*
D03*
X174025Y275025D02*
D03*
X164025D02*
D03*
X194025D02*
D03*
X184025D02*
D03*
X230025D02*
D03*
X220025D02*
D03*
X250025D02*
D03*
X240025D02*
D03*
X204025D02*
D03*
X260025D02*
D03*
X290025D02*
D03*
X270025D02*
D03*
X280025D02*
D03*
X220025Y55025D02*
D03*
X190025D02*
D03*
X160025D02*
D03*
X150025D02*
D03*
X170025D02*
D03*
X180025D02*
D03*
X290025Y245025D02*
D03*
X220025D02*
D03*
X230025D02*
D03*
X240025D02*
D03*
X250025D02*
D03*
X260025D02*
D03*
X270025D02*
D03*
X280025D02*
D03*
D43*
X142500Y213000D02*
D03*
X172500D02*
D03*
X162500D02*
D03*
X152500D02*
D03*
X24100Y103600D02*
D03*
X34100D02*
D03*
X14100D02*
D03*
X44100D02*
D03*
X23900Y168900D02*
D03*
X13900D02*
D03*
X43900D02*
D03*
X33900D02*
D03*
X51500Y21000D02*
D03*
X21500D02*
D03*
X31500D02*
D03*
X41500D02*
D03*
X69500D02*
D03*
X79500D02*
D03*
X89500D02*
D03*
X152500Y153000D02*
D03*
Y123000D02*
D03*
Y183000D02*
D03*
X162500Y123000D02*
D03*
X172500D02*
D03*
X162500Y153000D02*
D03*
X172500D02*
D03*
X264500Y80000D02*
D03*
X244500D02*
D03*
Y110000D02*
D03*
X254500Y80000D02*
D03*
Y110000D02*
D03*
X264500D02*
D03*
X162500Y183000D02*
D03*
X172500D02*
D03*
X189900Y197300D02*
D03*
X209900D02*
D03*
X189900Y207300D02*
D03*
X199900Y197300D02*
D03*
X209900Y207300D02*
D03*
X199900D02*
D03*
X142500Y183000D02*
D03*
X274500Y80000D02*
D03*
Y110000D02*
D03*
X99500Y21000D02*
D03*
X142500Y153000D02*
D03*
Y123000D02*
D03*
D44*
X20000Y70000D02*
D03*
X43622D02*
D03*
D45*
X33779Y51693D02*
D03*
D46*
X25886Y245571D02*
D03*
Y239272D02*
D03*
X30625Y242422D02*
D03*
Y236122D02*
D03*
Y248721D02*
D03*
D47*
X27075Y257146D02*
D03*
X8375D02*
D03*
X27075Y227854D02*
D03*
X8375D02*
D03*
D48*
X38000Y137000D02*
D03*
X28000D02*
D03*
X18000D02*
D03*
D49*
X167000Y91500D02*
D03*
X157000D02*
D03*
D50*
X79400Y149700D02*
D03*
X25000Y184400D02*
D03*
X67500Y189400D02*
D03*
X79800Y144800D02*
D03*
X117100Y87000D02*
D03*
X122100Y50200D02*
D03*
X117200Y102800D02*
D03*
X117500Y122600D02*
D03*
X25000Y212400D02*
D03*
X57000Y210100D02*
D03*
X17000Y290000D02*
D03*
X58400Y290100D02*
D03*
X83800Y212100D02*
D03*
X89300Y236900D02*
D03*
X79700Y269500D02*
D03*
X194000Y146600D02*
D03*
X230400Y158600D02*
D03*
X288900Y149000D02*
D03*
X245900Y161700D02*
D03*
X257700Y173300D02*
D03*
X288500Y159400D02*
D03*
X289400Y171300D02*
D03*
X107700Y178300D02*
D03*
X187600Y167100D02*
D03*
X252000Y198300D02*
D03*
X247200Y155200D02*
D03*
X193600Y178700D02*
D03*
X206400Y131300D02*
D03*
X290025Y41100D02*
D03*
X280025D02*
D03*
X212500Y156800D02*
D03*
X212600Y171900D02*
D03*
M02*
