G04*
G04 #@! TF.GenerationSoftware,Altium Limited,Altium Designer,25.8.1 (18)*
G04*
G04 Layer_Color=8421504*
%FSLAX25Y25*%
%MOIN*%
G70*
G04*
G04 #@! TF.SameCoordinates,C2104F37-0586-4E15-A42F-F292DD76917F*
G04*
G04*
G04 #@! TF.FilePolarity,Positive*
G04*
G01*
G75*
%ADD20R,0.04400X0.07100*%
%ADD21R,0.07100X0.04400*%
%ADD22R,0.06496X0.02000*%
%ADD23R,0.02000X0.06496*%
%ADD24R,0.04300X0.02400*%
%ADD25R,0.05906X0.04724*%
%ADD26R,0.03300X0.06693*%
%ADD27O,0.02400X0.08661*%
%ADD28R,0.07087X0.05512*%
%ADD29R,0.05400X0.07300*%
%ADD30R,0.12200X0.06693*%
D20*
X72600Y103000D02*
D03*
X84400D02*
D03*
X84900Y123000D02*
D03*
X73100D02*
D03*
X280300Y190000D02*
D03*
X268500D02*
D03*
X86700Y145000D02*
D03*
X114900Y50500D02*
D03*
X110400Y103000D02*
D03*
X110900Y123000D02*
D03*
X25200Y192000D02*
D03*
Y204500D02*
D03*
X194100Y153500D02*
D03*
X282400Y149000D02*
D03*
Y159500D02*
D03*
X194100Y167000D02*
D03*
X252100Y222000D02*
D03*
Y206300D02*
D03*
X270600Y159500D02*
D03*
Y149000D02*
D03*
X290700Y206300D02*
D03*
X278900D02*
D03*
X279000Y221500D02*
D03*
X290800D02*
D03*
X263900Y222000D02*
D03*
Y206300D02*
D03*
X149700Y74700D02*
D03*
X112300Y194500D02*
D03*
X205900Y153500D02*
D03*
Y167000D02*
D03*
X112400Y206500D02*
D03*
X100600D02*
D03*
X100500Y194500D02*
D03*
X37000Y192000D02*
D03*
X98500Y145000D02*
D03*
X37000Y204500D02*
D03*
X103100Y50500D02*
D03*
X99100Y123000D02*
D03*
X98600Y103000D02*
D03*
X137900Y74700D02*
D03*
D21*
X71600Y146400D02*
D03*
Y134600D02*
D03*
X56500Y146400D02*
D03*
Y134600D02*
D03*
X84000Y194100D02*
D03*
Y205900D02*
D03*
X258000Y190900D02*
D03*
Y179100D02*
D03*
X89000Y254900D02*
D03*
Y243100D02*
D03*
X75500D02*
D03*
X79500Y275100D02*
D03*
X289500Y179100D02*
D03*
Y190900D02*
D03*
X79500Y286900D02*
D03*
X66100Y275100D02*
D03*
X46100Y204900D02*
D03*
Y193100D02*
D03*
X75500Y254900D02*
D03*
X66100Y286900D02*
D03*
D22*
X220911Y145908D02*
D03*
Y149008D02*
D03*
Y152208D02*
D03*
Y158508D02*
D03*
Y161608D02*
D03*
Y164808D02*
D03*
X254612Y152208D02*
D03*
Y149008D02*
D03*
Y145908D02*
D03*
Y164808D02*
D03*
Y167908D02*
D03*
X220911D02*
D03*
X254612Y155308D02*
D03*
Y161608D02*
D03*
Y158508D02*
D03*
X220911Y155308D02*
D03*
D23*
X248955Y140058D02*
D03*
X245854D02*
D03*
X236354D02*
D03*
X230054D02*
D03*
X226955D02*
D03*
X233255Y173759D02*
D03*
X236354D02*
D03*
X239555D02*
D03*
X242654D02*
D03*
X245854D02*
D03*
X248955D02*
D03*
X230054D02*
D03*
X226955D02*
D03*
X233255Y140058D02*
D03*
X242654D02*
D03*
X239555D02*
D03*
D24*
X52100Y245700D02*
D03*
Y238300D02*
D03*
X61900D02*
D03*
Y245700D02*
D03*
X52100Y242000D02*
D03*
X61900D02*
D03*
D25*
X51000Y278000D02*
D03*
X25016D02*
D03*
Y289811D02*
D03*
X51000D02*
D03*
D26*
X93400Y87779D02*
D03*
X111600Y86795D02*
D03*
X102500D02*
D03*
D27*
X99000Y181200D02*
D03*
Y157800D02*
D03*
X94000D02*
D03*
X89000D02*
D03*
X84000D02*
D03*
X79000D02*
D03*
X74000D02*
D03*
X69000D02*
D03*
X64000D02*
D03*
Y181200D02*
D03*
X69000D02*
D03*
X74000D02*
D03*
X79000D02*
D03*
X84000D02*
D03*
X89000D02*
D03*
X94000D02*
D03*
D28*
X56903Y203016D02*
D03*
X67297Y195378D02*
D03*
X279500Y171362D02*
D03*
X269106Y179000D02*
D03*
Y171362D02*
D03*
X279500Y179000D02*
D03*
X67297Y203016D02*
D03*
X56903Y195378D02*
D03*
D29*
X206450Y140000D02*
D03*
X194150D02*
D03*
D30*
X102500Y61205D02*
D03*
M02*
