G04*
G04 #@! TF.GenerationSoftware,Altium Limited,Altium Designer,25.8.1 (18)*
G04*
G04 Layer_Physical_Order=2*
G04 Layer_Color=16711680*
%FSLAX25Y25*%
%MOIN*%
G70*
G04*
G04 #@! TF.SameCoordinates,6F37A4DD-EB5D-482F-BFD6-522767561105*
G04*
G04*
G04 #@! TF.FilePolarity,Positive*
G04*
G01*
G75*
%ADD39C,0.07000*%
%ADD40O,0.14961X0.07874*%
%ADD41O,0.07087X0.12992*%
%ADD42C,0.06496*%
%ADD43C,0.06378*%
%ADD44C,0.02800*%
G36*
X334917Y191616D02*
X336737Y190862D01*
X338375Y189768D01*
X339768Y188375D01*
X340862Y186737D01*
X341616Y184917D01*
X342000Y182985D01*
Y182000D01*
Y110000D01*
Y109015D01*
X341616Y107083D01*
X340862Y105263D01*
X339768Y103625D01*
X338375Y102233D01*
X336737Y101138D01*
X334917Y100384D01*
X332985Y100000D01*
X246000D01*
X245608Y99981D01*
X244839Y99828D01*
X244114Y99528D01*
X243462Y99092D01*
X242908Y98538D01*
X242472Y97886D01*
X242172Y97161D01*
X242019Y96392D01*
X242000Y96000D01*
Y93306D01*
X241200Y93091D01*
X241101Y93263D01*
X240263Y94101D01*
X239237Y94693D01*
X238500Y94891D01*
Y90500D01*
Y86109D01*
X239237Y86307D01*
X240263Y86899D01*
X241101Y87737D01*
X241200Y87909D01*
X242000Y87694D01*
Y70806D01*
X241200Y70591D01*
X241101Y70763D01*
X240263Y71601D01*
X239237Y72193D01*
X238500Y72391D01*
Y68000D01*
Y63609D01*
X239237Y63807D01*
X240263Y64399D01*
X241101Y65237D01*
X241200Y65409D01*
X242000Y65194D01*
Y48306D01*
X241200Y48091D01*
X241101Y48263D01*
X240263Y49101D01*
X239237Y49693D01*
X238500Y49891D01*
Y45500D01*
Y41109D01*
X239237Y41307D01*
X240263Y41899D01*
X241101Y42737D01*
X241200Y42909D01*
X242000Y42694D01*
Y25806D01*
X241200Y25591D01*
X241101Y25763D01*
X240263Y26601D01*
X239237Y27193D01*
X238500Y27391D01*
Y23000D01*
Y18609D01*
X239237Y18807D01*
X240263Y19399D01*
X241101Y20237D01*
X241200Y20409D01*
X242000Y20194D01*
Y13015D01*
X241616Y11083D01*
X240862Y9263D01*
X239768Y7625D01*
X238375Y6233D01*
X236737Y5138D01*
X234917Y4384D01*
X232985Y4000D01*
X13212D01*
X11666Y4307D01*
X10211Y4910D01*
X8900Y5786D01*
X7786Y6900D01*
X6910Y8211D01*
X6307Y9667D01*
X6000Y11212D01*
Y12000D01*
Y184000D01*
Y184788D01*
X6307Y186334D01*
X6910Y187789D01*
X7786Y189100D01*
X8900Y190214D01*
X10211Y191089D01*
X11666Y191693D01*
X13212Y192000D01*
X332985D01*
X334917Y191616D01*
D02*
G37*
%LPC*%
G36*
X238500Y184891D02*
Y181500D01*
X241891D01*
X241693Y182237D01*
X241101Y183263D01*
X240263Y184101D01*
X239237Y184693D01*
X238500Y184891D01*
D02*
G37*
G36*
X228500D02*
Y181500D01*
X231891D01*
X231693Y182237D01*
X231101Y183263D01*
X230263Y184101D01*
X229237Y184693D01*
X228500Y184891D01*
D02*
G37*
G36*
X218500D02*
Y181500D01*
X221891D01*
X221693Y182237D01*
X221101Y183263D01*
X220263Y184101D01*
X219237Y184693D01*
X218500Y184891D01*
D02*
G37*
G36*
X236500D02*
X235763Y184693D01*
X234737Y184101D01*
X233899Y183263D01*
X233307Y182237D01*
X233109Y181500D01*
X236500D01*
Y184891D01*
D02*
G37*
G36*
X226500D02*
X225763Y184693D01*
X224737Y184101D01*
X223899Y183263D01*
X223307Y182237D01*
X223109Y181500D01*
X226500D01*
Y184891D01*
D02*
G37*
G36*
X216500D02*
X215763Y184693D01*
X214737Y184101D01*
X213899Y183263D01*
X213307Y182237D01*
X213109Y181500D01*
X216500D01*
Y184891D01*
D02*
G37*
G36*
X34552Y186689D02*
X33448D01*
X32383Y186404D01*
X31428Y185852D01*
X30648Y185072D01*
X30097Y184117D01*
X29811Y183052D01*
Y181948D01*
X30097Y180883D01*
X30648Y179928D01*
X31428Y179148D01*
X32383Y178596D01*
X33448Y178311D01*
X34552D01*
X35617Y178596D01*
X36572Y179148D01*
X37352Y179928D01*
X37903Y180883D01*
X38189Y181948D01*
Y183052D01*
X37903Y184117D01*
X37352Y185072D01*
X36572Y185852D01*
X35617Y186404D01*
X34552Y186689D01*
D02*
G37*
G36*
X24552D02*
X23449D01*
X22383Y186404D01*
X21428Y185852D01*
X20648Y185072D01*
X20097Y184117D01*
X19811Y183052D01*
Y181948D01*
X20097Y180883D01*
X20648Y179928D01*
X21428Y179148D01*
X22383Y178596D01*
X23449Y178311D01*
X24552D01*
X25617Y178596D01*
X26572Y179148D01*
X27352Y179928D01*
X27904Y180883D01*
X28189Y181948D01*
Y183052D01*
X27904Y184117D01*
X27352Y185072D01*
X26572Y185852D01*
X25617Y186404D01*
X24552Y186689D01*
D02*
G37*
G36*
X155552Y184689D02*
X154448D01*
X153383Y184404D01*
X152428Y183852D01*
X151648Y183072D01*
X151096Y182117D01*
X150811Y181052D01*
Y179948D01*
X151096Y178883D01*
X151648Y177928D01*
X152428Y177148D01*
X153383Y176596D01*
X154448Y176311D01*
X155552D01*
X156617Y176596D01*
X157572Y177148D01*
X158352Y177928D01*
X158904Y178883D01*
X159189Y179948D01*
Y181052D01*
X158904Y182117D01*
X158352Y183072D01*
X157572Y183852D01*
X156617Y184404D01*
X155552Y184689D01*
D02*
G37*
G36*
X145552D02*
X144448D01*
X143383Y184404D01*
X142428Y183852D01*
X141648Y183072D01*
X141096Y182117D01*
X140811Y181052D01*
Y179948D01*
X141096Y178883D01*
X141648Y177928D01*
X142428Y177148D01*
X143383Y176596D01*
X144448Y176311D01*
X145552D01*
X146617Y176596D01*
X147572Y177148D01*
X148352Y177928D01*
X148904Y178883D01*
X149189Y179948D01*
Y181052D01*
X148904Y182117D01*
X148352Y183072D01*
X147572Y183852D01*
X146617Y184404D01*
X145552Y184689D01*
D02*
G37*
G36*
X241891Y179500D02*
X238500D01*
Y176109D01*
X239237Y176307D01*
X240263Y176899D01*
X241101Y177737D01*
X241693Y178763D01*
X241891Y179500D01*
D02*
G37*
G36*
X231891D02*
X228500D01*
Y176109D01*
X229237Y176307D01*
X230263Y176899D01*
X231101Y177737D01*
X231693Y178763D01*
X231891Y179500D01*
D02*
G37*
G36*
X221891D02*
X218500D01*
Y176109D01*
X219237Y176307D01*
X220263Y176899D01*
X221101Y177737D01*
X221693Y178763D01*
X221891Y179500D01*
D02*
G37*
G36*
X226500D02*
X223109D01*
X223307Y178763D01*
X223899Y177737D01*
X224737Y176899D01*
X225763Y176307D01*
X226500Y176109D01*
Y179500D01*
D02*
G37*
G36*
X216500D02*
X213109D01*
X213307Y178763D01*
X213899Y177737D01*
X214737Y176899D01*
X215763Y176307D01*
X216500Y176109D01*
Y179500D01*
D02*
G37*
G36*
X236500D02*
X233109D01*
X233307Y178763D01*
X233899Y177737D01*
X234737Y176899D01*
X235763Y176307D01*
X236500Y176109D01*
Y179500D01*
D02*
G37*
G36*
X248092Y185000D02*
X246908D01*
X245763Y184693D01*
X244737Y184101D01*
X243899Y183263D01*
X243307Y182237D01*
X243000Y181092D01*
Y179908D01*
X243307Y178763D01*
X243899Y177737D01*
X244737Y176899D01*
X245763Y176307D01*
X246908Y176000D01*
X248092D01*
X249237Y176307D01*
X250263Y176899D01*
X251101Y177737D01*
X251693Y178763D01*
X252000Y179908D01*
Y181092D01*
X251693Y182237D01*
X251101Y183263D01*
X250263Y184101D01*
X249237Y184693D01*
X248092Y185000D01*
D02*
G37*
G36*
X238500Y162391D02*
Y159000D01*
X241891D01*
X241693Y159737D01*
X241101Y160763D01*
X240263Y161601D01*
X239237Y162193D01*
X238500Y162391D01*
D02*
G37*
G36*
X228500D02*
Y159000D01*
X231891D01*
X231693Y159737D01*
X231101Y160763D01*
X230263Y161601D01*
X229237Y162193D01*
X228500Y162391D01*
D02*
G37*
G36*
X218500D02*
Y159000D01*
X221891D01*
X221693Y159737D01*
X221101Y160763D01*
X220263Y161601D01*
X219237Y162193D01*
X218500Y162391D01*
D02*
G37*
G36*
X236500D02*
X235763Y162193D01*
X234737Y161601D01*
X233899Y160763D01*
X233307Y159737D01*
X233109Y159000D01*
X236500D01*
Y162391D01*
D02*
G37*
G36*
X226500D02*
X225763Y162193D01*
X224737Y161601D01*
X223899Y160763D01*
X223307Y159737D01*
X223109Y159000D01*
X226500D01*
Y162391D01*
D02*
G37*
G36*
X216500D02*
X215763Y162193D01*
X214737Y161601D01*
X213899Y160763D01*
X213307Y159737D01*
X213109Y159000D01*
X216500D01*
Y162391D01*
D02*
G37*
G36*
X155552Y162189D02*
X154448D01*
X153383Y161904D01*
X152428Y161352D01*
X151648Y160572D01*
X151096Y159617D01*
X150811Y158552D01*
Y157448D01*
X151096Y156383D01*
X151648Y155428D01*
X152428Y154648D01*
X153383Y154096D01*
X154448Y153811D01*
X155552D01*
X156617Y154096D01*
X157572Y154648D01*
X158352Y155428D01*
X158904Y156383D01*
X159189Y157448D01*
Y158552D01*
X158904Y159617D01*
X158352Y160572D01*
X157572Y161352D01*
X156617Y161904D01*
X155552Y162189D01*
D02*
G37*
G36*
X145552D02*
X144448D01*
X143383Y161904D01*
X142428Y161352D01*
X141648Y160572D01*
X141096Y159617D01*
X140811Y158552D01*
Y157448D01*
X141096Y156383D01*
X141648Y155428D01*
X142428Y154648D01*
X143383Y154096D01*
X144448Y153811D01*
X145552D01*
X146617Y154096D01*
X147572Y154648D01*
X148352Y155428D01*
X148904Y156383D01*
X149189Y157448D01*
Y158552D01*
X148904Y159617D01*
X148352Y160572D01*
X147572Y161352D01*
X146617Y161904D01*
X145552Y162189D01*
D02*
G37*
G36*
X231891Y157000D02*
X228500D01*
Y153609D01*
X229237Y153807D01*
X230263Y154399D01*
X231101Y155237D01*
X231693Y156263D01*
X231891Y157000D01*
D02*
G37*
G36*
X221891D02*
X218500D01*
Y153609D01*
X219237Y153807D01*
X220263Y154399D01*
X221101Y155237D01*
X221693Y156263D01*
X221891Y157000D01*
D02*
G37*
G36*
X241891D02*
X238500D01*
Y153609D01*
X239237Y153807D01*
X240263Y154399D01*
X241101Y155237D01*
X241693Y156263D01*
X241891Y157000D01*
D02*
G37*
G36*
X236500D02*
X233109D01*
X233307Y156263D01*
X233899Y155237D01*
X234737Y154399D01*
X235763Y153807D01*
X236500Y153609D01*
Y157000D01*
D02*
G37*
G36*
X226500D02*
X223109D01*
X223307Y156263D01*
X223899Y155237D01*
X224737Y154399D01*
X225763Y153807D01*
X226500Y153609D01*
Y157000D01*
D02*
G37*
G36*
X216500D02*
X213109D01*
X213307Y156263D01*
X213899Y155237D01*
X214737Y154399D01*
X215763Y153807D01*
X216500Y153609D01*
Y157000D01*
D02*
G37*
G36*
X248092Y162500D02*
X246908D01*
X245763Y162193D01*
X244737Y161601D01*
X243899Y160763D01*
X243307Y159737D01*
X243000Y158592D01*
Y157408D01*
X243307Y156263D01*
X243899Y155237D01*
X244737Y154399D01*
X245763Y153807D01*
X246908Y153500D01*
X248092D01*
X249237Y153807D01*
X250263Y154399D01*
X251101Y155237D01*
X251693Y156263D01*
X252000Y157408D01*
Y158592D01*
X251693Y159737D01*
X251101Y160763D01*
X250263Y161601D01*
X249237Y162193D01*
X248092Y162500D01*
D02*
G37*
G36*
X238500Y139891D02*
Y136500D01*
X241891D01*
X241693Y137237D01*
X241101Y138263D01*
X240263Y139101D01*
X239237Y139693D01*
X238500Y139891D01*
D02*
G37*
G36*
X228500D02*
Y136500D01*
X231891D01*
X231693Y137237D01*
X231101Y138263D01*
X230263Y139101D01*
X229237Y139693D01*
X228500Y139891D01*
D02*
G37*
G36*
X218500D02*
Y136500D01*
X221891D01*
X221693Y137237D01*
X221101Y138263D01*
X220263Y139101D01*
X219237Y139693D01*
X218500Y139891D01*
D02*
G37*
G36*
X236500D02*
X235763Y139693D01*
X234737Y139101D01*
X233899Y138263D01*
X233307Y137237D01*
X233109Y136500D01*
X236500D01*
Y139891D01*
D02*
G37*
G36*
X226500D02*
X225763Y139693D01*
X224737Y139101D01*
X223899Y138263D01*
X223307Y137237D01*
X223109Y136500D01*
X226500D01*
Y139891D01*
D02*
G37*
G36*
X216500D02*
X215763Y139693D01*
X214737Y139101D01*
X213899Y138263D01*
X213307Y137237D01*
X213109Y136500D01*
X216500D01*
Y139891D01*
D02*
G37*
G36*
X145559Y144248D02*
X144441D01*
X143360Y143958D01*
X142392Y143399D01*
X141601Y142608D01*
X141042Y141640D01*
X140752Y140559D01*
Y139441D01*
X141042Y138360D01*
X141601Y137392D01*
X142392Y136601D01*
X143360Y136041D01*
X144441Y135752D01*
X145559D01*
X146640Y136041D01*
X147608Y136601D01*
X148399Y137392D01*
X148959Y138360D01*
X149248Y139441D01*
Y140559D01*
X148959Y141640D01*
X148399Y142608D01*
X147608Y143399D01*
X146640Y143958D01*
X145559Y144248D01*
D02*
G37*
G36*
X115559D02*
X114441D01*
X113360Y143958D01*
X112392Y143399D01*
X111601Y142608D01*
X111041Y141640D01*
X110752Y140559D01*
Y139441D01*
X111041Y138360D01*
X111601Y137392D01*
X112392Y136601D01*
X113360Y136041D01*
X114441Y135752D01*
X115559D01*
X116640Y136041D01*
X117608Y136601D01*
X118399Y137392D01*
X118958Y138360D01*
X119248Y139441D01*
Y140559D01*
X118958Y141640D01*
X118399Y142608D01*
X117608Y143399D01*
X116640Y143958D01*
X115559Y144248D01*
D02*
G37*
G36*
X241891Y134500D02*
X238500D01*
Y131109D01*
X239237Y131307D01*
X240263Y131899D01*
X241101Y132737D01*
X241693Y133763D01*
X241891Y134500D01*
D02*
G37*
G36*
X231891D02*
X228500D01*
Y131109D01*
X229237Y131307D01*
X230263Y131899D01*
X231101Y132737D01*
X231693Y133763D01*
X231891Y134500D01*
D02*
G37*
G36*
X221891D02*
X218500D01*
Y131109D01*
X219237Y131307D01*
X220263Y131899D01*
X221101Y132737D01*
X221693Y133763D01*
X221891Y134500D01*
D02*
G37*
G36*
X226500D02*
X223109D01*
X223307Y133763D01*
X223899Y132737D01*
X224737Y131899D01*
X225763Y131307D01*
X226500Y131109D01*
Y134500D01*
D02*
G37*
G36*
X216500D02*
X213109D01*
X213307Y133763D01*
X213899Y132737D01*
X214737Y131899D01*
X215763Y131307D01*
X216500Y131109D01*
Y134500D01*
D02*
G37*
G36*
X236500D02*
X233109D01*
X233307Y133763D01*
X233899Y132737D01*
X234737Y131899D01*
X235763Y131307D01*
X236500Y131109D01*
Y134500D01*
D02*
G37*
G36*
X248092Y140000D02*
X246908D01*
X245763Y139693D01*
X244737Y139101D01*
X243899Y138263D01*
X243307Y137237D01*
X243000Y136092D01*
Y134908D01*
X243307Y133763D01*
X243899Y132737D01*
X244737Y131899D01*
X245763Y131307D01*
X246908Y131000D01*
X248092D01*
X249237Y131307D01*
X250263Y131899D01*
X251101Y132737D01*
X251693Y133763D01*
X252000Y134908D01*
Y136092D01*
X251693Y137237D01*
X251101Y138263D01*
X250263Y139101D01*
X249237Y139693D01*
X248092Y140000D01*
D02*
G37*
G36*
X145559Y134248D02*
X144441D01*
X143360Y133958D01*
X142392Y133399D01*
X141601Y132608D01*
X141042Y131640D01*
X140752Y130559D01*
Y129441D01*
X141042Y128360D01*
X141601Y127392D01*
X142392Y126601D01*
X143360Y126041D01*
X144441Y125752D01*
X145559D01*
X146640Y126041D01*
X147608Y126601D01*
X148399Y127392D01*
X148959Y128360D01*
X149248Y129441D01*
Y130559D01*
X148959Y131640D01*
X148399Y132608D01*
X147608Y133399D01*
X146640Y133958D01*
X145559Y134248D01*
D02*
G37*
G36*
X115559D02*
X114441D01*
X113360Y133958D01*
X112392Y133399D01*
X111601Y132608D01*
X111041Y131640D01*
X110752Y130559D01*
Y129441D01*
X111041Y128360D01*
X111601Y127392D01*
X112392Y126601D01*
X113360Y126041D01*
X114441Y125752D01*
X115559D01*
X116640Y126041D01*
X117608Y126601D01*
X118399Y127392D01*
X118958Y128360D01*
X119248Y129441D01*
Y130559D01*
X118958Y131640D01*
X118399Y132608D01*
X117608Y133399D01*
X116640Y133958D01*
X115559Y134248D01*
D02*
G37*
G36*
X37000Y125891D02*
Y122500D01*
X40391D01*
X40193Y123237D01*
X39601Y124263D01*
X38763Y125101D01*
X37737Y125693D01*
X37000Y125891D01*
D02*
G37*
G36*
X27000D02*
Y122500D01*
X30391D01*
X30193Y123237D01*
X29601Y124263D01*
X28763Y125101D01*
X27737Y125693D01*
X27000Y125891D01*
D02*
G37*
G36*
X17000D02*
Y122500D01*
X20391D01*
X20193Y123237D01*
X19601Y124263D01*
X18763Y125101D01*
X17737Y125693D01*
X17000Y125891D01*
D02*
G37*
G36*
X15000D02*
X14263Y125693D01*
X13237Y125101D01*
X12399Y124263D01*
X11807Y123237D01*
X11609Y122500D01*
X15000D01*
Y125891D01*
D02*
G37*
G36*
X35000D02*
X34263Y125693D01*
X33237Y125101D01*
X32399Y124263D01*
X31807Y123237D01*
X31609Y122500D01*
X35000D01*
Y125891D01*
D02*
G37*
G36*
X25000D02*
X24263Y125693D01*
X23237Y125101D01*
X22399Y124263D01*
X21807Y123237D01*
X21609Y122500D01*
X25000D01*
Y125891D01*
D02*
G37*
G36*
X40391Y120500D02*
X37000D01*
Y117109D01*
X37737Y117307D01*
X38763Y117899D01*
X39601Y118737D01*
X40193Y119763D01*
X40391Y120500D01*
D02*
G37*
G36*
X30391D02*
X27000D01*
Y117109D01*
X27737Y117307D01*
X28763Y117899D01*
X29601Y118737D01*
X30193Y119763D01*
X30391Y120500D01*
D02*
G37*
G36*
X20391D02*
X17000D01*
Y117109D01*
X17737Y117307D01*
X18763Y117899D01*
X19601Y118737D01*
X20193Y119763D01*
X20391Y120500D01*
D02*
G37*
G36*
X35000D02*
X31609D01*
X31807Y119763D01*
X32399Y118737D01*
X33237Y117899D01*
X34263Y117307D01*
X35000Y117109D01*
Y120500D01*
D02*
G37*
G36*
X25000D02*
X21609D01*
X21807Y119763D01*
X22399Y118737D01*
X23237Y117899D01*
X24263Y117307D01*
X25000Y117109D01*
Y120500D01*
D02*
G37*
G36*
X15000D02*
X11609D01*
X11807Y119763D01*
X12399Y118737D01*
X13237Y117899D01*
X14263Y117307D01*
X15000Y117109D01*
Y120500D01*
D02*
G37*
G36*
X46592Y126000D02*
X45408D01*
X44263Y125693D01*
X43237Y125101D01*
X42399Y124263D01*
X41807Y123237D01*
X41500Y122092D01*
Y120908D01*
X41807Y119763D01*
X42399Y118737D01*
X43237Y117899D01*
X44263Y117307D01*
X45408Y117000D01*
X46592D01*
X47737Y117307D01*
X48763Y117899D01*
X49601Y118737D01*
X50193Y119763D01*
X50500Y120908D01*
Y122092D01*
X50193Y123237D01*
X49601Y124263D01*
X48763Y125101D01*
X47737Y125693D01*
X46592Y126000D01*
D02*
G37*
G36*
X145559Y124248D02*
X144441D01*
X143360Y123959D01*
X142392Y123399D01*
X141601Y122608D01*
X141042Y121640D01*
X140752Y120559D01*
Y119441D01*
X141042Y118360D01*
X141601Y117392D01*
X142392Y116601D01*
X143360Y116042D01*
X144441Y115752D01*
X145559D01*
X146640Y116042D01*
X147608Y116601D01*
X148399Y117392D01*
X148959Y118360D01*
X149248Y119441D01*
Y120559D01*
X148959Y121640D01*
X148399Y122608D01*
X147608Y123399D01*
X146640Y123959D01*
X145559Y124248D01*
D02*
G37*
G36*
X115559D02*
X114441D01*
X113360Y123959D01*
X112392Y123399D01*
X111601Y122608D01*
X111041Y121640D01*
X110752Y120559D01*
Y119441D01*
X111041Y118360D01*
X111601Y117392D01*
X112392Y116601D01*
X113360Y116042D01*
X114441Y115752D01*
X115559D01*
X116640Y116042D01*
X117608Y116601D01*
X118399Y117392D01*
X118958Y118360D01*
X119248Y119441D01*
Y120559D01*
X118958Y121640D01*
X118399Y122608D01*
X117608Y123399D01*
X116640Y123959D01*
X115559Y124248D01*
D02*
G37*
G36*
X238500Y116891D02*
Y113500D01*
X241891D01*
X241693Y114237D01*
X241101Y115263D01*
X240263Y116101D01*
X239237Y116693D01*
X238500Y116891D01*
D02*
G37*
G36*
X228500D02*
Y113500D01*
X231891D01*
X231693Y114237D01*
X231101Y115263D01*
X230263Y116101D01*
X229237Y116693D01*
X228500Y116891D01*
D02*
G37*
G36*
X218500D02*
Y113500D01*
X221891D01*
X221693Y114237D01*
X221101Y115263D01*
X220263Y116101D01*
X219237Y116693D01*
X218500Y116891D01*
D02*
G37*
G36*
X236500D02*
X235763Y116693D01*
X234737Y116101D01*
X233899Y115263D01*
X233307Y114237D01*
X233109Y113500D01*
X236500D01*
Y116891D01*
D02*
G37*
G36*
X226500D02*
X225763Y116693D01*
X224737Y116101D01*
X223899Y115263D01*
X223307Y114237D01*
X223109Y113500D01*
X226500D01*
Y116891D01*
D02*
G37*
G36*
X216500D02*
X215763Y116693D01*
X214737Y116101D01*
X213899Y115263D01*
X213307Y114237D01*
X213109Y113500D01*
X216500D01*
Y116891D01*
D02*
G37*
G36*
X241891Y111500D02*
X238500D01*
Y108109D01*
X239237Y108307D01*
X240263Y108899D01*
X241101Y109737D01*
X241693Y110763D01*
X241891Y111500D01*
D02*
G37*
G36*
X231891D02*
X228500D01*
Y108109D01*
X229237Y108307D01*
X230263Y108899D01*
X231101Y109737D01*
X231693Y110763D01*
X231891Y111500D01*
D02*
G37*
G36*
X221891D02*
X218500D01*
Y108109D01*
X219237Y108307D01*
X220263Y108899D01*
X221101Y109737D01*
X221693Y110763D01*
X221891Y111500D01*
D02*
G37*
G36*
X226500D02*
X223109D01*
X223307Y110763D01*
X223899Y109737D01*
X224737Y108899D01*
X225763Y108307D01*
X226500Y108109D01*
Y111500D01*
D02*
G37*
G36*
X216500D02*
X213109D01*
X213307Y110763D01*
X213899Y109737D01*
X214737Y108899D01*
X215763Y108307D01*
X216500Y108109D01*
Y111500D01*
D02*
G37*
G36*
X236500D02*
X233109D01*
X233307Y110763D01*
X233899Y109737D01*
X234737Y108899D01*
X235763Y108307D01*
X236500Y108109D01*
Y111500D01*
D02*
G37*
G36*
X248092Y117000D02*
X246908D01*
X245763Y116693D01*
X244737Y116101D01*
X243899Y115263D01*
X243307Y114237D01*
X243000Y113092D01*
Y111908D01*
X243307Y110763D01*
X243899Y109737D01*
X244737Y108899D01*
X245763Y108307D01*
X246908Y108000D01*
X248092D01*
X249237Y108307D01*
X250263Y108899D01*
X251101Y109737D01*
X251693Y110763D01*
X252000Y111908D01*
Y113092D01*
X251693Y114237D01*
X251101Y115263D01*
X250263Y116101D01*
X249237Y116693D01*
X248092Y117000D01*
D02*
G37*
G36*
X36500Y97891D02*
Y94500D01*
X39891D01*
X39693Y95237D01*
X39101Y96263D01*
X38263Y97101D01*
X37237Y97693D01*
X36500Y97891D01*
D02*
G37*
G36*
X26500D02*
Y94500D01*
X29891D01*
X29693Y95237D01*
X29101Y96263D01*
X28263Y97101D01*
X27237Y97693D01*
X26500Y97891D01*
D02*
G37*
G36*
X16500D02*
Y94500D01*
X19891D01*
X19693Y95237D01*
X19101Y96263D01*
X18263Y97101D01*
X17237Y97693D01*
X16500Y97891D01*
D02*
G37*
G36*
X34500D02*
X33763Y97693D01*
X32737Y97101D01*
X31899Y96263D01*
X31307Y95237D01*
X31109Y94500D01*
X34500D01*
Y97891D01*
D02*
G37*
G36*
X24500D02*
X23763Y97693D01*
X22737Y97101D01*
X21899Y96263D01*
X21307Y95237D01*
X21109Y94500D01*
X24500D01*
Y97891D01*
D02*
G37*
G36*
X14500D02*
X13763Y97693D01*
X12737Y97101D01*
X11899Y96263D01*
X11307Y95237D01*
X11109Y94500D01*
X14500D01*
Y97891D01*
D02*
G37*
G36*
X228500Y94891D02*
Y91500D01*
X231891D01*
X231693Y92237D01*
X231101Y93263D01*
X230263Y94101D01*
X229237Y94693D01*
X228500Y94891D01*
D02*
G37*
G36*
X218500D02*
Y91500D01*
X221891D01*
X221693Y92237D01*
X221101Y93263D01*
X220263Y94101D01*
X219237Y94693D01*
X218500Y94891D01*
D02*
G37*
G36*
X236500D02*
X235763Y94693D01*
X234737Y94101D01*
X233899Y93263D01*
X233307Y92237D01*
X233109Y91500D01*
X236500D01*
Y94891D01*
D02*
G37*
G36*
X226500D02*
X225763Y94693D01*
X224737Y94101D01*
X223899Y93263D01*
X223307Y92237D01*
X223109Y91500D01*
X226500D01*
Y94891D01*
D02*
G37*
G36*
X216500D02*
X215763Y94693D01*
X214737Y94101D01*
X213899Y93263D01*
X213307Y92237D01*
X213109Y91500D01*
X216500D01*
Y94891D01*
D02*
G37*
G36*
X39891Y92500D02*
X36500D01*
Y89109D01*
X37237Y89307D01*
X38263Y89899D01*
X39101Y90737D01*
X39693Y91763D01*
X39891Y92500D01*
D02*
G37*
G36*
X29891D02*
X26500D01*
Y89109D01*
X27237Y89307D01*
X28263Y89899D01*
X29101Y90737D01*
X29693Y91763D01*
X29891Y92500D01*
D02*
G37*
G36*
X19891D02*
X16500D01*
Y89109D01*
X17237Y89307D01*
X18263Y89899D01*
X19101Y90737D01*
X19693Y91763D01*
X19891Y92500D01*
D02*
G37*
G36*
X34500D02*
X31109D01*
X31307Y91763D01*
X31899Y90737D01*
X32737Y89899D01*
X33763Y89307D01*
X34500Y89109D01*
Y92500D01*
D02*
G37*
G36*
X24500D02*
X21109D01*
X21307Y91763D01*
X21899Y90737D01*
X22737Y89899D01*
X23763Y89307D01*
X24500Y89109D01*
Y92500D01*
D02*
G37*
G36*
X14500D02*
X11109D01*
X11307Y91763D01*
X11899Y90737D01*
X12737Y89899D01*
X13763Y89307D01*
X14500Y89109D01*
Y92500D01*
D02*
G37*
G36*
X46092Y98000D02*
X44908D01*
X43763Y97693D01*
X42737Y97101D01*
X41899Y96263D01*
X41307Y95237D01*
X41000Y94092D01*
Y92908D01*
X41307Y91763D01*
X41899Y90737D01*
X42737Y89899D01*
X43763Y89307D01*
X44908Y89000D01*
X46092D01*
X47237Y89307D01*
X48263Y89899D01*
X49101Y90737D01*
X49693Y91763D01*
X50000Y92908D01*
Y94092D01*
X49693Y95237D01*
X49101Y96263D01*
X48263Y97101D01*
X47237Y97693D01*
X46092Y98000D01*
D02*
G37*
G36*
X231891Y89500D02*
X228500D01*
Y86109D01*
X229237Y86307D01*
X230263Y86899D01*
X231101Y87737D01*
X231693Y88763D01*
X231891Y89500D01*
D02*
G37*
G36*
X221891D02*
X218500D01*
Y86109D01*
X219237Y86307D01*
X220263Y86899D01*
X221101Y87737D01*
X221693Y88763D01*
X221891Y89500D01*
D02*
G37*
G36*
X236500D02*
X233109D01*
X233307Y88763D01*
X233899Y87737D01*
X234737Y86899D01*
X235763Y86307D01*
X236500Y86109D01*
Y89500D01*
D02*
G37*
G36*
X226500D02*
X223109D01*
X223307Y88763D01*
X223899Y87737D01*
X224737Y86899D01*
X225763Y86307D01*
X226500Y86109D01*
Y89500D01*
D02*
G37*
G36*
X216500D02*
X213109D01*
X213307Y88763D01*
X213899Y87737D01*
X214737Y86899D01*
X215763Y86307D01*
X216500Y86109D01*
Y89500D01*
D02*
G37*
G36*
X125551Y84689D02*
X124449D01*
X123383Y84404D01*
X122428Y83852D01*
X121648Y83072D01*
X121097Y82117D01*
X120811Y81051D01*
Y79949D01*
X121097Y78883D01*
X121648Y77928D01*
X122428Y77148D01*
X123383Y76596D01*
X124449Y76311D01*
X125551D01*
X126617Y76596D01*
X127572Y77148D01*
X128352Y77928D01*
X128903Y78883D01*
X129189Y79949D01*
Y81051D01*
X128903Y82117D01*
X128352Y83072D01*
X127572Y83852D01*
X126617Y84404D01*
X125551Y84689D01*
D02*
G37*
G36*
X115551D02*
X114448D01*
X113383Y84404D01*
X112428Y83852D01*
X111648Y83072D01*
X111097Y82117D01*
X110811Y81051D01*
Y79949D01*
X111097Y78883D01*
X111648Y77928D01*
X112428Y77148D01*
X113383Y76596D01*
X114448Y76311D01*
X115551D01*
X116617Y76596D01*
X117572Y77148D01*
X118352Y77928D01*
X118904Y78883D01*
X119189Y79949D01*
Y81051D01*
X118904Y82117D01*
X118352Y83072D01*
X117572Y83852D01*
X116617Y84404D01*
X115551Y84689D01*
D02*
G37*
G36*
X228500Y72391D02*
Y69000D01*
X231891D01*
X231693Y69737D01*
X231101Y70763D01*
X230263Y71601D01*
X229237Y72193D01*
X228500Y72391D01*
D02*
G37*
G36*
X218500D02*
Y69000D01*
X221891D01*
X221693Y69737D01*
X221101Y70763D01*
X220263Y71601D01*
X219237Y72193D01*
X218500Y72391D01*
D02*
G37*
G36*
X236500D02*
X235763Y72193D01*
X234737Y71601D01*
X233899Y70763D01*
X233307Y69737D01*
X233109Y69000D01*
X236500D01*
Y72391D01*
D02*
G37*
G36*
X226500D02*
X225763Y72193D01*
X224737Y71601D01*
X223899Y70763D01*
X223307Y69737D01*
X223109Y69000D01*
X226500D01*
Y72391D01*
D02*
G37*
G36*
X216500D02*
X215763Y72193D01*
X214737Y71601D01*
X213899Y70763D01*
X213307Y69737D01*
X213109Y69000D01*
X216500D01*
Y72391D01*
D02*
G37*
G36*
X231891Y67000D02*
X228500D01*
Y63609D01*
X229237Y63807D01*
X230263Y64399D01*
X231101Y65237D01*
X231693Y66263D01*
X231891Y67000D01*
D02*
G37*
G36*
X221891D02*
X218500D01*
Y63609D01*
X219237Y63807D01*
X220263Y64399D01*
X221101Y65237D01*
X221693Y66263D01*
X221891Y67000D01*
D02*
G37*
G36*
X236500D02*
X233109D01*
X233307Y66263D01*
X233899Y65237D01*
X234737Y64399D01*
X235763Y63807D01*
X236500Y63609D01*
Y67000D01*
D02*
G37*
G36*
X226500D02*
X223109D01*
X223307Y66263D01*
X223899Y65237D01*
X224737Y64399D01*
X225763Y63807D01*
X226500Y63609D01*
Y67000D01*
D02*
G37*
G36*
X216500D02*
X213109D01*
X213307Y66263D01*
X213899Y65237D01*
X214737Y64399D01*
X215763Y63807D01*
X216500Y63609D01*
Y67000D01*
D02*
G37*
G36*
X33043Y66102D02*
X25957D01*
X24668Y65932D01*
X23467Y65434D01*
X22436Y64643D01*
X21644Y63612D01*
X21147Y62411D01*
X20977Y61122D01*
X21147Y59833D01*
X21644Y58632D01*
X22436Y57601D01*
X23467Y56810D01*
X24668Y56312D01*
X25957Y56142D01*
X33043D01*
X34332Y56312D01*
X35533Y56810D01*
X36564Y57601D01*
X37356Y58632D01*
X37853Y59833D01*
X38023Y61122D01*
X37853Y62411D01*
X37356Y63612D01*
X36564Y64643D01*
X35533Y65434D01*
X34332Y65932D01*
X33043Y66102D01*
D02*
G37*
G36*
X48807Y58683D02*
Y52280D01*
X52390D01*
Y54232D01*
X52233Y55418D01*
X51776Y56524D01*
X51047Y57473D01*
X50098Y58201D01*
X48993Y58659D01*
X48807Y58683D01*
D02*
G37*
G36*
X46807D02*
X46621Y58659D01*
X45516Y58201D01*
X44567Y57473D01*
X43839Y56524D01*
X43381Y55418D01*
X43225Y54232D01*
Y52280D01*
X46807D01*
Y58683D01*
D02*
G37*
G36*
X218500Y49891D02*
Y46500D01*
X221891D01*
X221693Y47237D01*
X221101Y48263D01*
X220263Y49101D01*
X219237Y49693D01*
X218500Y49891D01*
D02*
G37*
G36*
X228500D02*
Y46500D01*
X231891D01*
X231693Y47237D01*
X231101Y48263D01*
X230263Y49101D01*
X229237Y49693D01*
X228500Y49891D01*
D02*
G37*
G36*
X216500D02*
X215763Y49693D01*
X214737Y49101D01*
X213899Y48263D01*
X213307Y47237D01*
X213109Y46500D01*
X216500D01*
Y49891D01*
D02*
G37*
G36*
X236500D02*
X235763Y49693D01*
X234737Y49101D01*
X233899Y48263D01*
X233307Y47237D01*
X233109Y46500D01*
X236500D01*
Y49891D01*
D02*
G37*
G36*
X226500D02*
X225763Y49693D01*
X224737Y49101D01*
X223899Y48263D01*
X223307Y47237D01*
X223109Y46500D01*
X226500D01*
Y49891D01*
D02*
G37*
G36*
X52390Y50279D02*
X48807D01*
Y43876D01*
X48993Y43900D01*
X50098Y44358D01*
X51047Y45087D01*
X51776Y46036D01*
X52233Y47141D01*
X52390Y48327D01*
Y50279D01*
D02*
G37*
G36*
X46807D02*
X43225D01*
Y48327D01*
X43381Y47141D01*
X43839Y46036D01*
X44567Y45087D01*
X45516Y44358D01*
X46621Y43900D01*
X46807Y43876D01*
Y50279D01*
D02*
G37*
G36*
X231891Y44500D02*
X228500D01*
Y41109D01*
X229237Y41307D01*
X230263Y41899D01*
X231101Y42737D01*
X231693Y43763D01*
X231891Y44500D01*
D02*
G37*
G36*
X221891D02*
X218500D01*
Y41109D01*
X219237Y41307D01*
X220263Y41899D01*
X221101Y42737D01*
X221693Y43763D01*
X221891Y44500D01*
D02*
G37*
G36*
X226500D02*
X223109D01*
X223307Y43763D01*
X223899Y42737D01*
X224737Y41899D01*
X225763Y41307D01*
X226500Y41109D01*
Y44500D01*
D02*
G37*
G36*
X216500D02*
X213109D01*
X213307Y43763D01*
X213899Y42737D01*
X214737Y41899D01*
X215763Y41307D01*
X216500Y41109D01*
Y44500D01*
D02*
G37*
G36*
X236500D02*
X233109D01*
X233307Y43763D01*
X233899Y42737D01*
X234737Y41899D01*
X235763Y41307D01*
X236500Y41109D01*
Y44500D01*
D02*
G37*
G36*
X180592Y49500D02*
X179408D01*
X178263Y49193D01*
X177237Y48601D01*
X176399Y47763D01*
X175807Y46737D01*
X175500Y45592D01*
Y44408D01*
X175807Y43263D01*
X176399Y42237D01*
X177237Y41399D01*
X178263Y40807D01*
X179408Y40500D01*
X180592D01*
X181737Y40807D01*
X182763Y41399D01*
X183601Y42237D01*
X184193Y43263D01*
X184500Y44408D01*
Y45592D01*
X184193Y46737D01*
X183601Y47763D01*
X182763Y48601D01*
X181737Y49193D01*
X180592Y49500D01*
D02*
G37*
G36*
X33043Y42480D02*
X30500D01*
Y38500D01*
X37891D01*
X37853Y38789D01*
X37356Y39990D01*
X36564Y41021D01*
X35533Y41813D01*
X34332Y42310D01*
X33043Y42480D01*
D02*
G37*
G36*
X28500D02*
X25957D01*
X24668Y42310D01*
X23467Y41813D01*
X22436Y41021D01*
X21644Y39990D01*
X21147Y38789D01*
X21109Y38500D01*
X28500D01*
Y42480D01*
D02*
G37*
G36*
X181000Y39391D02*
Y36000D01*
X184391D01*
X184193Y36737D01*
X183601Y37763D01*
X182763Y38601D01*
X181737Y39193D01*
X181000Y39391D01*
D02*
G37*
G36*
X179000D02*
X178263Y39193D01*
X177237Y38601D01*
X176399Y37763D01*
X175807Y36737D01*
X175609Y36000D01*
X179000D01*
Y39391D01*
D02*
G37*
G36*
X37891Y36500D02*
X30500D01*
Y32520D01*
X33043D01*
X34332Y32690D01*
X35533Y33187D01*
X36564Y33979D01*
X37356Y35010D01*
X37853Y36211D01*
X37891Y36500D01*
D02*
G37*
G36*
X28500D02*
X21109D01*
X21147Y36211D01*
X21644Y35010D01*
X22436Y33979D01*
X23467Y33187D01*
X24668Y32690D01*
X25957Y32520D01*
X28500D01*
Y36500D01*
D02*
G37*
G36*
X184391Y34000D02*
X181000D01*
Y30609D01*
X181737Y30807D01*
X182763Y31399D01*
X183601Y32237D01*
X184193Y33263D01*
X184391Y34000D01*
D02*
G37*
G36*
X179000D02*
X175609D01*
X175807Y33263D01*
X176399Y32237D01*
X177237Y31399D01*
X178263Y30807D01*
X179000Y30609D01*
Y34000D01*
D02*
G37*
G36*
X181000Y29391D02*
Y26000D01*
X184391D01*
X184193Y26737D01*
X183601Y27763D01*
X182763Y28601D01*
X181737Y29193D01*
X181000Y29391D01*
D02*
G37*
G36*
X179000D02*
X178263Y29193D01*
X177237Y28601D01*
X176399Y27763D01*
X175807Y26737D01*
X175609Y26000D01*
X179000D01*
Y29391D01*
D02*
G37*
G36*
X218500Y27391D02*
Y24000D01*
X221891D01*
X221693Y24737D01*
X221101Y25763D01*
X220263Y26601D01*
X219237Y27193D01*
X218500Y27391D01*
D02*
G37*
G36*
X228500D02*
Y24000D01*
X231891D01*
X231693Y24737D01*
X231101Y25763D01*
X230263Y26601D01*
X229237Y27193D01*
X228500Y27391D01*
D02*
G37*
G36*
X216500D02*
X215763Y27193D01*
X214737Y26601D01*
X213899Y25763D01*
X213307Y24737D01*
X213109Y24000D01*
X216500D01*
Y27391D01*
D02*
G37*
G36*
X236500D02*
X235763Y27193D01*
X234737Y26601D01*
X233899Y25763D01*
X233307Y24737D01*
X233109Y24000D01*
X236500D01*
Y27391D01*
D02*
G37*
G36*
X226500D02*
X225763Y27193D01*
X224737Y26601D01*
X223899Y25763D01*
X223307Y24737D01*
X223109Y24000D01*
X226500D01*
Y27391D01*
D02*
G37*
G36*
X184391Y24000D02*
X181000D01*
Y20609D01*
X181737Y20807D01*
X182763Y21399D01*
X183601Y22237D01*
X184193Y23263D01*
X184391Y24000D01*
D02*
G37*
G36*
X179000D02*
X175609D01*
X175807Y23263D01*
X176399Y22237D01*
X177237Y21399D01*
X178263Y20807D01*
X179000Y20609D01*
Y24000D01*
D02*
G37*
G36*
X231891Y22000D02*
X228500D01*
Y18609D01*
X229237Y18807D01*
X230263Y19399D01*
X231101Y20237D01*
X231693Y21263D01*
X231891Y22000D01*
D02*
G37*
G36*
X221891D02*
X218500D01*
Y18609D01*
X219237Y18807D01*
X220263Y19399D01*
X221101Y20237D01*
X221693Y21263D01*
X221891Y22000D01*
D02*
G37*
G36*
X236500D02*
X233109D01*
X233307Y21263D01*
X233899Y20237D01*
X234737Y19399D01*
X235763Y18807D01*
X236500Y18609D01*
Y22000D01*
D02*
G37*
G36*
X226500D02*
X223109D01*
X223307Y21263D01*
X223899Y20237D01*
X224737Y19399D01*
X225763Y18807D01*
X226500Y18609D01*
Y22000D01*
D02*
G37*
G36*
X216500D02*
X213109D01*
X213307Y21263D01*
X213899Y20237D01*
X214737Y19399D01*
X215763Y18807D01*
X216500Y18609D01*
Y22000D01*
D02*
G37*
G36*
X181000Y19391D02*
Y16000D01*
X184391D01*
X184193Y16737D01*
X183601Y17763D01*
X182763Y18601D01*
X181737Y19193D01*
X181000Y19391D01*
D02*
G37*
G36*
X179000D02*
X178263Y19193D01*
X177237Y18601D01*
X176399Y17763D01*
X175807Y16737D01*
X175609Y16000D01*
X179000D01*
Y19391D01*
D02*
G37*
G36*
X184391Y14000D02*
X181000D01*
Y10609D01*
X181737Y10807D01*
X182763Y11399D01*
X183601Y12237D01*
X184193Y13263D01*
X184391Y14000D01*
D02*
G37*
G36*
X179000D02*
X175609D01*
X175807Y13263D01*
X176399Y12237D01*
X177237Y11399D01*
X178263Y10807D01*
X179000Y10609D01*
Y14000D01*
D02*
G37*
%LPD*%
D39*
X180000Y15000D02*
D03*
X217500Y45500D02*
D03*
X227500D02*
D03*
X180000Y25000D02*
D03*
Y35000D02*
D03*
X217500Y23000D02*
D03*
X227500Y90500D02*
D03*
X217500Y68000D02*
D03*
Y90500D02*
D03*
X26000Y121500D02*
D03*
X36000D02*
D03*
X16000D02*
D03*
X217500Y112500D02*
D03*
Y135500D02*
D03*
Y158000D02*
D03*
X227500Y68000D02*
D03*
X237500Y23000D02*
D03*
Y45500D02*
D03*
Y68000D02*
D03*
Y90500D02*
D03*
X227500Y23000D02*
D03*
X237500Y112500D02*
D03*
X227500D02*
D03*
Y135500D02*
D03*
X237500Y158000D02*
D03*
X227500D02*
D03*
X237500Y135500D02*
D03*
X25500Y93500D02*
D03*
X15500D02*
D03*
X35500D02*
D03*
X237500Y180500D02*
D03*
X227500D02*
D03*
X217500D02*
D03*
X247500D02*
D03*
X45500Y93500D02*
D03*
X247500Y112500D02*
D03*
X180000Y45000D02*
D03*
X247500Y158000D02*
D03*
Y135500D02*
D03*
Y68000D02*
D03*
Y23000D02*
D03*
Y45500D02*
D03*
Y90500D02*
D03*
X46000Y121500D02*
D03*
D40*
X29500Y37500D02*
D03*
Y61122D02*
D03*
D41*
X47807Y51279D02*
D03*
D42*
X145000Y120000D02*
D03*
Y130000D02*
D03*
Y140000D02*
D03*
X115000D02*
D03*
Y130000D02*
D03*
Y120000D02*
D03*
D43*
X155000Y158000D02*
D03*
X145000D02*
D03*
X155000Y180500D02*
D03*
X145000D02*
D03*
X24000Y182500D02*
D03*
X34000D02*
D03*
X115000Y80500D02*
D03*
X125000D02*
D03*
D44*
X58500Y60500D02*
D03*
X75000Y182500D02*
D03*
X15000Y140500D02*
D03*
X67000Y112500D02*
D03*
X66500Y38000D02*
D03*
X132000Y34500D02*
D03*
X161500Y14000D02*
D03*
X153500Y78000D02*
D03*
X264500Y170000D02*
D03*
X272400Y137200D02*
D03*
Y122100D02*
D03*
X272300Y106900D02*
D03*
X296800Y184500D02*
D03*
X327100Y153000D02*
D03*
M02*
