G04*
G04 #@! TF.GenerationSoftware,Altium Limited,Altium Designer,25.8.1 (18)*
G04*
G04 Layer_Color=16711935*
%FSLAX25Y25*%
%MOIN*%
G70*
G04*
G04 #@! TF.SameCoordinates,6F37A4DD-EB5D-482F-BFD6-522767561105*
G04*
G04*
G04 #@! TF.FilePolarity,Negative*
G04*
G01*
G75*
%ADD20C,0.00000*%
%ADD27C,0.07800*%
%ADD28O,0.15761X0.08674*%
%ADD29O,0.07887X0.13792*%
%ADD30C,0.07296*%
%ADD31C,0.07178*%
%ADD32C,0.03600*%
D20*
X158390Y158000D02*
G03*
X158390Y158000I-3390J0D01*
G01*
X148390D02*
G03*
X148390Y158000I-3390J0D01*
G01*
X158390Y180500D02*
G03*
X158390Y180500I-3390J0D01*
G01*
X148390D02*
G03*
X148390Y180500I-3390J0D01*
G01*
X27390Y182500D02*
G03*
X27390Y182500I-3390J0D01*
G01*
X37390D02*
G03*
X37390Y182500I-3390J0D01*
G01*
X128390Y80500D02*
G03*
X128390Y80500I-3390J0D01*
G01*
X118390D02*
G03*
X118390Y80500I-3390J0D01*
G01*
D27*
X180000Y15000D02*
D03*
X217500Y45500D02*
D03*
X227500D02*
D03*
X180000Y25000D02*
D03*
Y35000D02*
D03*
X217500Y23000D02*
D03*
X227500Y90500D02*
D03*
X217500Y68000D02*
D03*
Y90500D02*
D03*
X26000Y121500D02*
D03*
X36000D02*
D03*
X16000D02*
D03*
X217500Y112500D02*
D03*
Y135500D02*
D03*
Y158000D02*
D03*
X227500Y68000D02*
D03*
X237500Y23000D02*
D03*
Y45500D02*
D03*
Y68000D02*
D03*
Y90500D02*
D03*
X227500Y23000D02*
D03*
X237500Y112500D02*
D03*
X227500D02*
D03*
Y135500D02*
D03*
X237500Y158000D02*
D03*
X227500D02*
D03*
X237500Y135500D02*
D03*
X25500Y93500D02*
D03*
X15500D02*
D03*
X35500D02*
D03*
X237500Y180500D02*
D03*
X227500D02*
D03*
X217500D02*
D03*
X247500D02*
D03*
X45500Y93500D02*
D03*
X247500Y112500D02*
D03*
X180000Y45000D02*
D03*
X247500Y158000D02*
D03*
Y135500D02*
D03*
Y68000D02*
D03*
Y23000D02*
D03*
Y45500D02*
D03*
Y90500D02*
D03*
X46000Y121500D02*
D03*
D28*
X29500Y37500D02*
D03*
Y61122D02*
D03*
D29*
X47807Y51279D02*
D03*
D30*
X145000Y120000D02*
D03*
Y130000D02*
D03*
Y140000D02*
D03*
X115000D02*
D03*
Y130000D02*
D03*
Y120000D02*
D03*
D31*
X155000Y158000D02*
D03*
X145000D02*
D03*
X155000Y180500D02*
D03*
X145000D02*
D03*
X24000Y182500D02*
D03*
X34000D02*
D03*
X115000Y80500D02*
D03*
X125000D02*
D03*
D32*
X58500Y60500D02*
D03*
X75000Y182500D02*
D03*
X15000Y140500D02*
D03*
X67000Y112500D02*
D03*
X66500Y38000D02*
D03*
X132000Y34500D02*
D03*
X161500Y14000D02*
D03*
X153500Y78000D02*
D03*
X264500Y170000D02*
D03*
X272400Y137200D02*
D03*
Y122100D02*
D03*
X272300Y106900D02*
D03*
X296800Y184500D02*
D03*
X327100Y153000D02*
D03*
M02*
