G04*
G04 #@! TF.GenerationSoftware,Altium Limited,Altium Designer,25.8.1 (18)*
G04*
G04 Layer_Color=65535*
%FSLAX25Y25*%
%MOIN*%
G70*
G04*
G04 #@! TF.SameCoordinates,6F37A4DD-EB5D-482F-BFD6-522767561105*
G04*
G04*
G04 #@! TF.FilePolarity,Positive*
G04*
G01*
G75*
%ADD11C,0.01000*%
D11*
X334998Y18189D02*
Y12000D01*
X325000D01*
Y18189D01*
X330237Y12000D02*
Y15809D01*
X332617Y26997D02*
X333570Y26521D01*
X334522Y25569D01*
X334998Y24616D01*
Y22712D01*
X334522Y21760D01*
X333570Y20808D01*
X332617Y20332D01*
X331189Y19855D01*
X328809D01*
X327380Y20332D01*
X326428Y20808D01*
X325476Y21760D01*
X325000Y22712D01*
Y24616D01*
X325476Y25569D01*
X326428Y26521D01*
X327380Y26997D01*
X334998Y35995D02*
Y29806D01*
X325000D01*
Y35995D01*
X330237Y29806D02*
Y33614D01*
X334998Y37661D02*
X325000D01*
X334998D02*
X325000Y44326D01*
X334998D02*
X325000D01*
X334998Y52801D02*
Y48040D01*
X330713Y47564D01*
X331189Y48040D01*
X331665Y49468D01*
Y50896D01*
X331189Y52325D01*
X330237Y53277D01*
X328809Y53753D01*
X327856D01*
X326428Y53277D01*
X325476Y52325D01*
X325000Y50896D01*
Y49468D01*
X325476Y48040D01*
X325952Y47564D01*
X326904Y47088D01*
X334998Y62656D02*
X325000Y57895D01*
X334998Y55991D02*
Y62656D01*
Y65846D02*
Y71083D01*
X331189Y68226D01*
Y69654D01*
X330713Y70606D01*
X330237Y71083D01*
X328809Y71559D01*
X327856D01*
X326428Y71083D01*
X325476Y70130D01*
X325000Y68702D01*
Y67274D01*
X325476Y65846D01*
X325952Y65369D01*
X326904Y64893D01*
X334998Y76653D02*
X334522Y75225D01*
X333094Y74272D01*
X330713Y73796D01*
X329285D01*
X326904Y74272D01*
X325476Y75225D01*
X325000Y76653D01*
Y77605D01*
X325476Y79033D01*
X326904Y79985D01*
X329285Y80462D01*
X330713D01*
X333094Y79985D01*
X334522Y79033D01*
X334998Y77605D01*
Y76653D01*
Y90555D02*
X325000D01*
X334998Y97220D02*
X325000D01*
X330237Y90555D02*
Y97220D01*
X334998Y106170D02*
Y99981D01*
X325000D01*
Y106170D01*
X330237Y99981D02*
Y103790D01*
X334998Y107837D02*
X325000Y114502D01*
X334998D02*
X325000Y107837D01*
X334998Y124595D02*
X325000D01*
X334998Y126690D02*
X325000D01*
X334998D02*
X325000Y133355D01*
X334998D02*
X325000D01*
X334998Y136116D02*
X325000Y139925D01*
X334998Y143734D02*
X325000Y139925D01*
X334998Y151208D02*
Y145019D01*
X325000D01*
Y151208D01*
X330237Y145019D02*
Y148828D01*
X334998Y152875D02*
X325000D01*
X334998D02*
Y157159D01*
X334522Y158588D01*
X334046Y159064D01*
X333094Y159540D01*
X332141D01*
X331189Y159064D01*
X330713Y158588D01*
X330237Y157159D01*
Y152875D01*
Y156207D02*
X325000Y159540D01*
X334998Y165110D02*
X325000D01*
X334998Y161777D02*
Y168443D01*
Y175822D02*
Y169633D01*
X325000D01*
Y175822D01*
X330237Y169633D02*
Y173442D01*
X334998Y177488D02*
X325000D01*
X334998D02*
Y181773D01*
X334522Y183201D01*
X334046Y183677D01*
X333094Y184154D01*
X332141D01*
X331189Y183677D01*
X330713Y183201D01*
X330237Y181773D01*
Y177488D01*
Y180821D02*
X325000Y184154D01*
X137287Y16617D02*
X137668Y17379D01*
X138429Y18141D01*
X139191Y18522D01*
X140715D01*
X141477Y18141D01*
X142238Y17379D01*
X142619Y16617D01*
X143000Y15475D01*
Y13570D01*
X142619Y12428D01*
X142238Y11666D01*
X141477Y10904D01*
X140715Y10524D01*
X139191D01*
X138429Y10904D01*
X137668Y11666D01*
X137287Y12428D01*
X135040Y18522D02*
Y12809D01*
X134659Y11666D01*
X133897Y10904D01*
X132755Y10524D01*
X131993D01*
X130850Y10904D01*
X130088Y11666D01*
X129708Y12809D01*
Y18522D01*
X126737Y10904D02*
X127118Y10524D01*
X127499Y10904D01*
X127118Y11285D01*
X126737Y10904D01*
Y10143D01*
X127118Y9381D01*
X127499Y9000D01*
X118700Y18522D02*
Y10524D01*
Y18522D02*
X115273D01*
X114130Y18141D01*
X113749Y17760D01*
X113368Y16998D01*
Y16237D01*
X113749Y15475D01*
X114130Y15094D01*
X115273Y14713D01*
X118700D02*
X115273D01*
X114130Y14332D01*
X113749Y13951D01*
X113368Y13190D01*
Y12047D01*
X113749Y11285D01*
X114130Y10904D01*
X115273Y10524D01*
X118700D01*
X109674Y15856D02*
X110435Y15475D01*
X111197Y14713D01*
X111578Y13570D01*
Y12809D01*
X111197Y11666D01*
X110435Y10904D01*
X109674Y10524D01*
X108531D01*
X107770Y10904D01*
X107008Y11666D01*
X106627Y12809D01*
Y13570D01*
X107008Y14713D01*
X107770Y15475D01*
X108531Y15856D01*
X109674D01*
X104875D02*
Y12047D01*
X104494Y10904D01*
X103732Y10524D01*
X102590D01*
X101828Y10904D01*
X100685Y12047D01*
Y15856D02*
Y10524D01*
X98590Y18522D02*
Y10524D01*
X92344Y18522D02*
Y10524D01*
Y14713D02*
X93106Y15475D01*
X93868Y15856D01*
X95010D01*
X95772Y15475D01*
X96534Y14713D01*
X96915Y13570D01*
Y12809D01*
X96534Y11666D01*
X95772Y10904D01*
X95010Y10524D01*
X93868D01*
X93106Y10904D01*
X92344Y11666D01*
X90211Y13570D02*
X85641D01*
Y14332D01*
X86022Y15094D01*
X86403Y15475D01*
X87164Y15856D01*
X88307D01*
X89069Y15475D01*
X89830Y14713D01*
X90211Y13570D01*
Y12809D01*
X89830Y11666D01*
X89069Y10904D01*
X88307Y10524D01*
X87164D01*
X86403Y10904D01*
X85641Y11666D01*
X83927Y15856D02*
Y10524D01*
Y13570D02*
X83546Y14713D01*
X82784Y15475D01*
X82023Y15856D01*
X80880D01*
X79395Y10904D02*
X79775Y10524D01*
X80156Y10904D01*
X79775Y11285D01*
X79395Y10904D01*
Y10143D01*
X79775Y9381D01*
X80156Y9000D01*
X66407Y18522D02*
X71358D01*
Y10524D01*
X66407D01*
X71358Y14713D02*
X68311D01*
X59361Y16617D02*
X59742Y17379D01*
X60503Y18141D01*
X61265Y18522D01*
X62789D01*
X63550Y18141D01*
X64312Y17379D01*
X64693Y16617D01*
X65074Y15475D01*
Y13570D01*
X64693Y12428D01*
X64312Y11666D01*
X63550Y10904D01*
X62789Y10524D01*
X61265D01*
X60503Y10904D01*
X59742Y11666D01*
X59361Y12428D01*
X52162Y18522D02*
X57114D01*
Y10524D01*
X52162D01*
X57114Y14713D02*
X54067D01*
X45878Y18522D02*
X50829D01*
Y10524D01*
X45878D01*
X50829Y14713D02*
X47782D01*
X297998Y17213D02*
Y13500D01*
X292000D01*
Y17213D01*
X295142Y13500D02*
Y15785D01*
X296570Y22498D02*
X297141Y22212D01*
X297713Y21641D01*
X297998Y21070D01*
Y19927D01*
X297713Y19356D01*
X297141Y18785D01*
X296570Y18499D01*
X295713Y18213D01*
X294285D01*
X293428Y18499D01*
X292857Y18785D01*
X292285Y19356D01*
X292000Y19927D01*
Y21070D01*
X292285Y21641D01*
X292857Y22212D01*
X293428Y22498D01*
X297998Y27897D02*
Y24183D01*
X292000D01*
Y27897D01*
X295142Y24183D02*
Y26469D01*
X297998Y28897D02*
X292000D01*
X297998D02*
X292000Y32896D01*
X297998D02*
X292000D01*
X297998Y37980D02*
Y35124D01*
X295427Y34838D01*
X295713Y35124D01*
X295999Y35981D01*
Y36838D01*
X295713Y37695D01*
X295142Y38266D01*
X294285Y38552D01*
X293713D01*
X292857Y38266D01*
X292285Y37695D01*
X292000Y36838D01*
Y35981D01*
X292285Y35124D01*
X292571Y34838D01*
X293142Y34553D01*
X297998Y43894D02*
X292000Y41037D01*
X297998Y39894D02*
Y43894D01*
Y45807D02*
Y48950D01*
X295713Y47236D01*
Y48093D01*
X295427Y48664D01*
X295142Y48950D01*
X294285Y49235D01*
X293713D01*
X292857Y48950D01*
X292285Y48378D01*
X292000Y47521D01*
Y46664D01*
X292285Y45807D01*
X292571Y45522D01*
X293142Y45236D01*
X297998Y52292D02*
X297713Y51435D01*
X296856Y50863D01*
X295427Y50578D01*
X294570D01*
X293142Y50863D01*
X292285Y51435D01*
X292000Y52292D01*
Y52863D01*
X292285Y53720D01*
X293142Y54291D01*
X294570Y54577D01*
X295427D01*
X296856Y54291D01*
X297713Y53720D01*
X297998Y52863D01*
Y52292D01*
X290000Y55919D02*
Y60490D01*
X297998Y61261D02*
X292000D01*
X295142D02*
X295713Y61832D01*
X295999Y62404D01*
Y63261D01*
X295713Y63832D01*
X295142Y64403D01*
X294285Y64689D01*
X293713D01*
X292857Y64403D01*
X292285Y63832D01*
X292000Y63261D01*
Y62404D01*
X292285Y61832D01*
X292857Y61261D01*
X295999Y65974D02*
X292000D01*
X294285D02*
X295142Y66260D01*
X295713Y66831D01*
X295999Y67403D01*
Y68260D01*
X297998Y72230D02*
X292000D01*
X295142D02*
X295713Y71659D01*
X295999Y71088D01*
Y70231D01*
X295713Y69659D01*
X295142Y69088D01*
X294285Y68802D01*
X293713D01*
X292857Y69088D01*
X292285Y69659D01*
X292000Y70231D01*
Y71088D01*
X292285Y71659D01*
X292857Y72230D01*
X296570Y74116D02*
X296856D01*
X297427Y74401D01*
X297713Y74687D01*
X297998Y75258D01*
Y76401D01*
X297713Y76972D01*
X297427Y77258D01*
X296856Y77543D01*
X296284D01*
X295713Y77258D01*
X294856Y76687D01*
X292000Y73830D01*
Y77829D01*
X295999Y82600D02*
X292000D01*
X295142D02*
X295713Y82028D01*
X295999Y81457D01*
Y80600D01*
X295713Y80029D01*
X295142Y79457D01*
X294285Y79172D01*
X293713D01*
X292857Y79457D01*
X292285Y80029D01*
X292000Y80600D01*
Y81457D01*
X292285Y82028D01*
X292857Y82600D01*
X292285Y89484D02*
X292000Y89198D01*
X292285Y88912D01*
X292571Y89198D01*
X292285Y89484D01*
X291714D01*
X291143Y89198D01*
X290857Y88912D01*
X297998Y97225D02*
X297713Y96368D01*
X296856Y95797D01*
X295427Y95511D01*
X294570D01*
X293142Y95797D01*
X292285Y96368D01*
X292000Y97225D01*
Y97796D01*
X292285Y98653D01*
X293142Y99225D01*
X294570Y99510D01*
X295427D01*
X296856Y99225D01*
X297713Y98653D01*
X297998Y97796D01*
Y97225D01*
X295999Y104566D02*
X295142Y104280D01*
X294570Y103709D01*
X294285Y102852D01*
Y102567D01*
X294570Y101710D01*
X295142Y101138D01*
X295999Y100853D01*
X296284D01*
X297141Y101138D01*
X297713Y101710D01*
X297998Y102567D01*
Y102852D01*
X297713Y103709D01*
X297141Y104280D01*
X295999Y104566D01*
X294570D01*
X293142Y104280D01*
X292285Y103709D01*
X292000Y102852D01*
Y102281D01*
X292285Y101424D01*
X292857Y101138D01*
X294570Y106194D02*
Y111336D01*
X296570Y113393D02*
X296856D01*
X297427Y113679D01*
X297713Y113964D01*
X297998Y114535D01*
Y115678D01*
X297713Y116249D01*
X297427Y116535D01*
X296856Y116821D01*
X296284D01*
X295713Y116535D01*
X294856Y115964D01*
X292000Y113107D01*
Y117106D01*
X297998Y119020D02*
Y122162D01*
X295713Y120449D01*
Y121306D01*
X295427Y121877D01*
X295142Y122162D01*
X294285Y122448D01*
X293713D01*
X292857Y122162D01*
X292285Y121591D01*
X292000Y120734D01*
Y119877D01*
X292285Y119020D01*
X292571Y118735D01*
X293142Y118449D01*
X294570Y123791D02*
Y128932D01*
X296570Y130989D02*
X296856D01*
X297427Y131275D01*
X297713Y131560D01*
X297998Y132132D01*
Y133274D01*
X297713Y133846D01*
X297427Y134131D01*
X296856Y134417D01*
X296284D01*
X295713Y134131D01*
X294856Y133560D01*
X292000Y130703D01*
Y134703D01*
X297998Y137759D02*
X297713Y136902D01*
X296856Y136331D01*
X295427Y136045D01*
X294570D01*
X293142Y136331D01*
X292285Y136902D01*
X292000Y137759D01*
Y138330D01*
X292285Y139187D01*
X293142Y139759D01*
X294570Y140044D01*
X295427D01*
X296856Y139759D01*
X297713Y139187D01*
X297998Y138330D01*
Y137759D01*
X296570Y141673D02*
X296856D01*
X297427Y141958D01*
X297713Y142244D01*
X297998Y142815D01*
Y143958D01*
X297713Y144529D01*
X297427Y144815D01*
X296856Y145100D01*
X296284D01*
X295713Y144815D01*
X294856Y144243D01*
X292000Y141387D01*
Y145386D01*
X297998Y150156D02*
Y147300D01*
X295427Y147014D01*
X295713Y147300D01*
X295999Y148157D01*
Y149014D01*
X295713Y149871D01*
X295142Y150442D01*
X294285Y150728D01*
X293713D01*
X292857Y150442D01*
X292285Y149871D01*
X292000Y149014D01*
Y148157D01*
X292285Y147300D01*
X292571Y147014D01*
X293142Y146729D01*
X315141Y13000D02*
X309143D01*
X315141D02*
Y15571D01*
X314856Y16428D01*
X314570Y16714D01*
X313999Y16999D01*
X313427D01*
X312856Y16714D01*
X312571Y16428D01*
X312285Y15571D01*
Y13000D01*
Y15000D02*
X309143Y16999D01*
X313142Y18342D02*
X310285D01*
X309428Y18627D01*
X309143Y19199D01*
Y20056D01*
X309428Y20627D01*
X310285Y21484D01*
X313142D02*
X309143D01*
X315141Y23055D02*
X309143D01*
X312285D02*
X312856Y23626D01*
X313142Y24198D01*
Y25055D01*
X312856Y25626D01*
X312285Y26197D01*
X311428Y26483D01*
X310857D01*
X310000Y26197D01*
X309428Y25626D01*
X309143Y25055D01*
Y24198D01*
X309428Y23626D01*
X310000Y23055D01*
X313142Y31196D02*
X309143D01*
X312285D02*
X312856Y30625D01*
X313142Y30053D01*
Y29197D01*
X312856Y28625D01*
X312285Y28054D01*
X311428Y27768D01*
X310857D01*
X310000Y28054D01*
X309428Y28625D01*
X309143Y29197D01*
Y30053D01*
X309428Y30625D01*
X310000Y31196D01*
X313142Y32796D02*
X309143D01*
X311999D02*
X312856Y33653D01*
X313142Y34224D01*
Y35081D01*
X312856Y35652D01*
X311999Y35938D01*
X309143D01*
X315141Y44508D02*
Y43936D01*
X314856Y43365D01*
X313999Y43079D01*
X309143D01*
X313142Y42222D02*
Y44222D01*
Y46793D02*
X312856Y46221D01*
X312285Y45650D01*
X311428Y45364D01*
X310857D01*
X310000Y45650D01*
X309428Y46221D01*
X309143Y46793D01*
Y47650D01*
X309428Y48221D01*
X310000Y48792D01*
X310857Y49078D01*
X311428D01*
X312285Y48792D01*
X312856Y48221D01*
X313142Y47650D01*
Y46793D01*
Y50392D02*
X309143D01*
X311428D02*
X312285Y50678D01*
X312856Y51249D01*
X313142Y51820D01*
Y52677D01*
X315141Y56648D02*
X309143D01*
X312285D02*
X312856Y56077D01*
X313142Y55505D01*
Y54648D01*
X312856Y54077D01*
X312285Y53506D01*
X311428Y53220D01*
X310857D01*
X310000Y53506D01*
X309428Y54077D01*
X309143Y54648D01*
Y55505D01*
X309428Y56077D01*
X310000Y56648D01*
X309428Y63532D02*
X309143Y63246D01*
X309428Y62961D01*
X309714Y63246D01*
X309428Y63532D01*
X308857D01*
X308286Y63246D01*
X308000Y62961D01*
X315141Y71273D02*
X314856Y70416D01*
X313999Y69845D01*
X312571Y69559D01*
X311714D01*
X310285Y69845D01*
X309428Y70416D01*
X309143Y71273D01*
Y71845D01*
X309428Y72702D01*
X310285Y73273D01*
X311714Y73558D01*
X312571D01*
X313999Y73273D01*
X314856Y72702D01*
X315141Y71845D01*
Y71273D01*
X313142Y78614D02*
X312285Y78329D01*
X311714Y77758D01*
X311428Y76901D01*
Y76615D01*
X311714Y75758D01*
X312285Y75187D01*
X313142Y74901D01*
X313427D01*
X314284Y75187D01*
X314856Y75758D01*
X315141Y76615D01*
Y76901D01*
X314856Y77758D01*
X314284Y78329D01*
X313142Y78614D01*
X311714D01*
X310285Y78329D01*
X309428Y77758D01*
X309143Y76901D01*
Y76329D01*
X309428Y75472D01*
X310000Y75187D01*
X311714Y80243D02*
Y85385D01*
X313713Y87441D02*
X313999D01*
X314570Y87727D01*
X314856Y88012D01*
X315141Y88584D01*
Y89726D01*
X314856Y90298D01*
X314570Y90583D01*
X313999Y90869D01*
X313427D01*
X312856Y90583D01*
X311999Y90012D01*
X309143Y87155D01*
Y91155D01*
X315141Y93069D02*
Y96211D01*
X312856Y94497D01*
Y95354D01*
X312571Y95925D01*
X312285Y96211D01*
X311428Y96496D01*
X310857D01*
X310000Y96211D01*
X309428Y95639D01*
X309143Y94783D01*
Y93925D01*
X309428Y93069D01*
X309714Y92783D01*
X310285Y92497D01*
X311714Y97839D02*
Y102981D01*
X313713Y105037D02*
X313999D01*
X314570Y105323D01*
X314856Y105609D01*
X315141Y106180D01*
Y107323D01*
X314856Y107894D01*
X314570Y108180D01*
X313999Y108465D01*
X313427D01*
X312856Y108180D01*
X311999Y107608D01*
X309143Y104752D01*
Y108751D01*
X315141Y111807D02*
X314856Y110950D01*
X313999Y110379D01*
X312571Y110093D01*
X311714D01*
X310285Y110379D01*
X309428Y110950D01*
X309143Y111807D01*
Y112379D01*
X309428Y113236D01*
X310285Y113807D01*
X311714Y114093D01*
X312571D01*
X313999Y113807D01*
X314856Y113236D01*
X315141Y112379D01*
Y111807D01*
X313713Y115721D02*
X313999D01*
X314570Y116007D01*
X314856Y116292D01*
X315141Y116863D01*
Y118006D01*
X314856Y118577D01*
X314570Y118863D01*
X313999Y119149D01*
X313427D01*
X312856Y118863D01*
X311999Y118292D01*
X309143Y115435D01*
Y119434D01*
X315141Y124205D02*
Y121348D01*
X312571Y121063D01*
X312856Y121348D01*
X313142Y122205D01*
Y123062D01*
X312856Y123919D01*
X312285Y124490D01*
X311428Y124776D01*
X310857D01*
X310000Y124490D01*
X309428Y123919D01*
X309143Y123062D01*
Y122205D01*
X309428Y121348D01*
X309714Y121063D01*
X310285Y120777D01*
M02*
