G04*
G04 #@! TF.GenerationSoftware,Altium Limited,Altium Designer,25.8.1 (18)*
G04*
G04 Layer_Physical_Order=1*
G04 Layer_Color=255*
%FSLAX25Y25*%
%MOIN*%
G70*
G04*
G04 #@! TF.SameCoordinates,6F37A4DD-EB5D-482F-BFD6-522767561105*
G04*
G04*
G04 #@! TF.FilePolarity,Positive*
G04*
G01*
G75*
%ADD10C,0.01500*%
%ADD12C,0.02000*%
%ADD18C,0.00800*%
%ADD33R,0.07100X0.04400*%
%ADD34R,0.13386X0.02362*%
%ADD35R,0.04400X0.07100*%
%ADD36R,0.03300X0.06693*%
%ADD37R,0.02362X0.10433*%
%ADD38R,0.12200X0.06693*%
%ADD39C,0.07000*%
%ADD40O,0.14961X0.07874*%
%ADD41O,0.07087X0.12992*%
%ADD42C,0.06496*%
%ADD43C,0.06378*%
%ADD44C,0.02800*%
D10*
X255900Y100400D02*
X258400Y97900D01*
X242100Y100400D02*
X255900D01*
X237500Y105000D02*
X242100Y100400D01*
X237500Y105000D02*
Y112500D01*
X296900Y76429D02*
Y83165D01*
X296021Y75550D02*
X296900Y76429D01*
X258400Y76300D02*
X268750Y65950D01*
X258400Y76300D02*
Y97900D01*
X290750Y75550D02*
X296021D01*
X268750Y65950D02*
X281150D01*
X290750Y75550D01*
X291900Y83000D02*
Y90300D01*
X294200Y92600D01*
X278400Y83000D02*
X291900D01*
X275900Y80500D02*
X278400Y83000D01*
X58500Y60500D02*
Y66600D01*
X72500Y39500D02*
Y44100D01*
X71000Y38000D02*
X72500Y39500D01*
X66500Y38000D02*
X71000D01*
X169300Y194800D02*
X337200D01*
X344600Y187400D01*
X155000Y180500D02*
X169300Y194800D01*
X187000Y76000D02*
Y110500D01*
X145000Y120000D02*
X177500D01*
X187000Y110500D01*
Y76000D02*
X204600Y58400D01*
X275900D01*
X334200Y93900D02*
X344600Y104300D01*
Y187400D01*
X334200Y93900D02*
X337100Y91000D01*
Y86800D02*
Y91000D01*
X333000Y93900D02*
X334200D01*
X275900Y70200D02*
Y80500D01*
X305200Y92600D02*
X305300Y92500D01*
X302607Y92600D02*
X305200D01*
X301729Y93479D02*
X302607Y92600D01*
X301729Y93479D02*
Y96425D01*
X301554Y96600D02*
X301729Y96425D01*
X298404Y96600D02*
X301554D01*
X298229Y96425D02*
X298404Y96600D01*
X298229Y93479D02*
Y96425D01*
X297350Y92600D02*
X298229Y93479D01*
X296600Y92600D02*
X297350D01*
X305300Y92500D02*
X306900Y90900D01*
X294200Y92600D02*
X296600D01*
X306900Y90900D02*
X309900Y93900D01*
X312900D01*
X306900Y83165D02*
Y90900D01*
X329407Y93900D02*
X333000D01*
X328529Y93021D02*
X329407Y93900D01*
X328529Y90075D02*
Y93021D01*
X328354Y89900D02*
X328529Y90075D01*
X325204Y89900D02*
X328354D01*
X325029Y90075D02*
X325204Y89900D01*
X325029Y90075D02*
Y97725D01*
X324854Y97900D02*
X325029Y97725D01*
X321704Y97900D02*
X324854D01*
X321529Y97725D02*
X321704Y97900D01*
X321529Y90307D02*
Y97725D01*
X321354Y90132D02*
X321529Y90307D01*
X318204Y90132D02*
X321354D01*
X318029Y90307D02*
X318204Y90132D01*
X318029Y90307D02*
Y97725D01*
X317854Y97900D02*
X318029Y97725D01*
X314704Y97900D02*
X317854D01*
X314529Y97725D02*
X314704Y97900D01*
X314529Y94779D02*
Y97725D01*
X313650Y93900D02*
X314529Y94779D01*
X312900Y93900D02*
X313650D01*
D12*
X72500Y55900D02*
Y66700D01*
X66100Y93500D02*
X72500Y87100D01*
Y78500D02*
Y87100D01*
Y78500D02*
X82300D01*
X38500D02*
X72500D01*
X45500Y93500D02*
X66100D01*
X66600Y94000D01*
X321900Y60381D02*
Y60835D01*
Y60381D02*
X322081Y60200D01*
X328900D01*
X331200Y27700D02*
Y57900D01*
X328900Y60200D02*
X331200Y57900D01*
X279300Y7400D02*
Y14900D01*
X277800Y5900D02*
X279300Y7400D01*
X239300Y5900D02*
X277800D01*
X237600Y7600D02*
X239300Y5900D01*
X296850Y175415D02*
X296900Y175365D01*
X296850Y175415D02*
Y184450D01*
X296800Y184500D02*
X296850Y184450D01*
X264500Y170000D02*
Y177200D01*
X321900Y153035D02*
X321935Y153000D01*
X327100D01*
X272400Y122100D02*
X279300D01*
X279200Y137200D02*
X279300Y137100D01*
X272400Y137200D02*
X279200D01*
X279100Y106900D02*
X279300Y107100D01*
X272300Y106900D02*
X279100D01*
X68400Y182500D02*
X75000D01*
X20195Y140500D02*
X20400Y140705D01*
X15000Y140500D02*
X20195D01*
X67000Y112500D02*
Y118100D01*
X153900Y69500D02*
Y77384D01*
X153500Y77784D02*
X153900Y77384D01*
X153500Y77784D02*
Y78000D01*
X131629Y35087D02*
Y41706D01*
Y35087D02*
X132000Y34716D01*
Y34500D02*
Y34716D01*
X155508Y13864D02*
X155644Y14000D01*
X161500D01*
X326600Y23100D02*
X331200Y27700D01*
X280472Y23100D02*
X326600D01*
X279300Y24272D02*
X280472Y23100D01*
X279300Y24272D02*
Y29900D01*
Y44900D01*
X270600Y29900D02*
X279300D01*
X269703Y30797D02*
X270600Y29900D01*
X266300Y34200D02*
X269703Y30797D01*
X237500Y37600D02*
X240900Y34200D01*
X237500Y37600D02*
Y45500D01*
X240900Y34200D02*
X266300D01*
X237600Y7600D02*
Y22900D01*
X237500Y23000D02*
X237600Y22900D01*
X337100Y69600D02*
Y75000D01*
Y69600D02*
X340200Y66500D01*
Y9600D02*
Y66500D01*
X336300Y5700D02*
X340200Y9600D01*
X279300Y7400D02*
X281000Y5700D01*
X336300D01*
X291900Y60835D02*
X292081Y61016D01*
X293253Y68400D02*
X301900D01*
X292081Y67228D02*
X293253Y68400D01*
X292081Y61016D02*
Y67228D01*
X302100Y68400D02*
X311400D01*
X311900Y67900D01*
X276300Y183000D02*
X281500Y188200D01*
X304300D02*
X306900Y185600D01*
X281500Y188200D02*
X304300D01*
X281800Y175200D02*
X291900D01*
X279900Y177100D02*
X281800Y175200D01*
X276400Y177100D02*
X279900D01*
X276300Y177200D02*
X276400Y177100D01*
X276300Y177200D02*
Y183000D01*
X306900Y175365D02*
Y185600D01*
X311900Y60835D02*
Y67900D01*
X316900Y72900D02*
Y83165D01*
X311900Y67900D02*
X316900Y72900D01*
X301900Y60835D02*
Y68400D01*
X285035Y60835D02*
X291900D01*
X282600Y58400D02*
X285035Y60835D01*
X275900Y58400D02*
X282600D01*
X196500Y190000D02*
X269300D01*
X164500Y158000D02*
X196500Y190000D01*
X269300D02*
X276300Y183000D01*
X155000Y158000D02*
X164500D01*
X145000D02*
Y180500D01*
X133500Y158000D02*
X145000D01*
X129500Y154000D02*
X133500Y158000D01*
X129500Y137500D02*
Y154000D01*
X122000Y130000D02*
X129500Y137500D01*
X115000Y130000D02*
X122000D01*
X276300Y162800D02*
Y177200D01*
X275900Y162400D02*
X276300Y162800D01*
X173600Y147900D02*
X261400D01*
X264100Y150600D02*
X275900D01*
X261400Y147900D02*
X264100Y150600D01*
X165700Y140000D02*
X173600Y147900D01*
X145000Y140000D02*
X165700D01*
X311900Y160100D02*
X316900Y165100D01*
Y175365D01*
X311900Y153035D02*
Y160100D01*
X309500Y162500D02*
X311900Y160100D01*
X304000Y162500D02*
X309500D01*
X302100Y160600D02*
X304000Y162500D01*
X301900Y160600D02*
X302100D01*
X301900Y153035D02*
Y160600D01*
X300000Y162500D02*
X301900Y160600D01*
X294000Y162500D02*
X300000D01*
X291900Y160400D02*
X294000Y162500D01*
X291900Y153035D02*
Y160400D01*
X285035Y153035D02*
X291900D01*
X282600Y150600D02*
X285035Y153035D01*
X275900Y150600D02*
X282600D01*
X131500Y126000D02*
X135500Y130000D01*
X131500Y104000D02*
Y126000D01*
X135500Y130000D02*
X145000D01*
X138500Y97000D02*
X156000D01*
X131500Y104000D02*
X138500Y97000D01*
X156000D02*
X165000Y88000D01*
Y53800D02*
Y88000D01*
X162906Y51706D02*
X165000Y53800D01*
X84900Y120000D02*
X115000D01*
X66600Y101700D02*
X84900Y120000D01*
X100000Y140000D02*
X115000D01*
X169613Y45000D02*
X180000D01*
X162906Y51706D02*
X169613Y45000D01*
X67000Y159900D02*
X80100D01*
X100000Y140000D01*
X49600Y159900D02*
X67000D01*
X131629Y51706D02*
X162906D01*
X87500Y63700D02*
X90700Y66900D01*
X87500Y48213D02*
Y63700D01*
X90700Y66900D02*
X119900D01*
X87500Y48213D02*
X94006Y41706D01*
X87808Y35508D02*
X94006Y41706D01*
X87808Y13864D02*
Y35508D01*
X94006Y41706D02*
X110369D01*
X125000Y72000D02*
Y80500D01*
X119900Y66900D02*
X125000Y72000D01*
X131629Y56706D02*
X131649Y56726D01*
X139726D01*
X142100Y59100D01*
Y69500D01*
Y76700D01*
X138300Y80500D02*
X142100Y76700D01*
X125000Y80500D02*
X138300D01*
X84300D02*
X115000D01*
X82300Y78500D02*
X84300Y80500D01*
X66900Y130000D02*
Y148200D01*
Y130000D02*
X67000Y129900D01*
X43205Y166295D02*
X49600Y159900D01*
X29500Y166295D02*
X43205D01*
X49479Y139720D02*
X54900Y134300D01*
Y113400D02*
X66600Y101700D01*
X54900Y113400D02*
Y134300D01*
X66600Y94000D02*
Y101700D01*
X38600Y139720D02*
X49479D01*
X34000Y182500D02*
X56600D01*
X24000Y176300D02*
Y182500D01*
Y176300D02*
X29100Y171200D01*
Y166695D02*
Y171200D01*
Y166695D02*
X29500Y166295D01*
Y140705D02*
Y166295D01*
Y133472D02*
Y140705D01*
Y133472D02*
X30672Y132300D01*
X42200D01*
X46000Y128500D01*
Y121500D02*
Y128500D01*
X29500Y69500D02*
X38500Y78500D01*
X29500Y61122D02*
Y69500D01*
D18*
X291640Y73400D02*
X300700D01*
X265400Y63800D02*
X282041D01*
X263300Y62000D02*
X282786D01*
X282041Y63800D02*
X291640Y73400D01*
X292086Y71300D02*
X310600D01*
X282786Y62000D02*
X292086Y71300D01*
X252800Y76400D02*
X265400Y63800D01*
X257300Y68000D02*
X263300Y62000D01*
X248800Y76400D02*
X252800D01*
X247500Y77700D02*
X248800Y76400D01*
X247500Y77700D02*
Y90500D01*
X266500Y52300D02*
X296000D01*
X247500Y45500D02*
X259700D01*
X266500Y52300D01*
X296000D02*
X296900Y53200D01*
X301900Y74600D02*
Y83165D01*
X300700Y73400D02*
X301900Y74600D01*
X311900Y72600D02*
Y83165D01*
X310600Y71300D02*
X311900Y72600D01*
X290500Y20500D02*
X291100Y19900D01*
X262600Y20500D02*
X290500D01*
X260300Y22800D02*
X262600Y20500D01*
X291100Y14900D02*
Y19900D01*
X247700Y22800D02*
X260300D01*
X291100Y107100D02*
X309300D01*
X247500Y23000D02*
X247700Y22800D01*
X296900Y53200D02*
Y60835D01*
X247500Y68000D02*
X257300D01*
X329500Y107100D02*
X335000Y112600D01*
X321100Y107100D02*
X329500D01*
X335000Y112600D02*
Y157500D01*
X321100Y122100D02*
X325600D01*
X327500Y124000D01*
Y143500D01*
X321900Y73300D02*
X322900Y72300D01*
X328000D02*
X335000Y65300D01*
X322900Y72300D02*
X328000D01*
X321900Y73300D02*
Y83165D01*
X335000Y20400D02*
Y65300D01*
X325500Y53300D02*
X327500Y51300D01*
Y31800D02*
Y51300D01*
X328000Y164500D02*
X335000Y157500D01*
X329500Y14900D02*
X335000Y20400D01*
X318000Y53300D02*
X325500D01*
X321100Y29900D02*
X325600D01*
X327500Y31800D01*
X317000Y54300D02*
Y60735D01*
Y54300D02*
X318000Y53300D01*
X321100Y14900D02*
X329500D01*
X291100D02*
X309300D01*
X291100Y29900D02*
X309300D01*
X306900Y52400D02*
Y60835D01*
Y52400D02*
X308500Y50800D01*
X320000D01*
X321100Y49700D01*
Y44900D02*
Y49700D01*
X291100Y44900D02*
X309300D01*
X252800Y168600D02*
X263900Y157500D01*
X247500Y169900D02*
X248800Y168600D01*
X247500Y169900D02*
Y180500D01*
X248800Y168600D02*
X252800D01*
X290300Y167600D02*
X301400D01*
X301900Y168100D02*
Y175365D01*
X301400Y167600D02*
X301900Y168100D01*
X259500Y158000D02*
X261800Y155700D01*
X281800D01*
X291900Y165800D01*
X263900Y157500D02*
X280200D01*
X290300Y167600D01*
X247500Y158000D02*
X259500D01*
X291900Y165800D02*
X311200D01*
X311900Y166500D01*
Y175365D01*
X322900Y164500D02*
X328000D01*
X321900Y165500D02*
X322900Y164500D01*
X321900Y165500D02*
Y175365D01*
X308500Y143000D02*
X320000D01*
X321100Y137100D02*
Y141900D01*
X320000Y143000D02*
X321100Y141900D01*
X306900Y144600D02*
X308500Y143000D01*
X306900Y144600D02*
Y153035D01*
X318000Y145500D02*
X325500D01*
X327500Y143500D01*
X317000Y146500D02*
X318000Y145500D01*
X317000Y146500D02*
Y152935D01*
X316900Y153035D02*
X317000Y152935D01*
X291100Y137100D02*
X309300D01*
X291100Y122100D02*
X309300D01*
X291100Y107100D02*
Y113900D01*
X290000Y115000D02*
X291100Y113900D01*
X267500Y115000D02*
X290000D01*
X265000Y112500D02*
X267500Y115000D01*
X247500Y112500D02*
X265000D01*
X266500Y144500D02*
X296000D01*
X296900Y145400D01*
Y153035D01*
X257500Y135500D02*
X266500Y144500D01*
X247500Y135500D02*
X257500D01*
X143708Y13864D02*
Y43792D01*
X140794Y46706D02*
X143708Y43792D01*
X131629Y46706D02*
X140794D01*
X124094D02*
X131629D01*
X119094Y51706D02*
X124094Y46706D01*
X110369Y51706D02*
X119094D01*
X115600Y14072D02*
X115808Y13864D01*
X115600Y14072D02*
Y25200D01*
X120400Y30000D01*
Y45200D01*
X118894Y46706D02*
X120400Y45200D01*
X110369Y46706D02*
X118894D01*
X127608Y13864D02*
X143708D01*
X99608D02*
X115808D01*
D33*
X58500Y78400D02*
D03*
Y66600D02*
D03*
X72500Y44100D02*
D03*
X67000Y118100D02*
D03*
X337100Y75000D02*
D03*
X275900Y150600D02*
D03*
Y162400D02*
D03*
X337100Y86800D02*
D03*
X67000Y129900D02*
D03*
X275900Y58400D02*
D03*
Y70200D02*
D03*
X72500Y78500D02*
D03*
X67000Y159900D02*
D03*
X72500Y66700D02*
D03*
X67000Y148100D02*
D03*
X72500Y55900D02*
D03*
D34*
X131629Y41706D02*
D03*
Y51706D02*
D03*
X110369Y41706D02*
D03*
Y46706D02*
D03*
Y51706D02*
D03*
Y56706D02*
D03*
X131629D02*
D03*
Y46706D02*
D03*
D35*
X153900Y69500D02*
D03*
X155508Y13864D02*
D03*
X279300Y107100D02*
D03*
Y29900D02*
D03*
Y44900D02*
D03*
Y14900D02*
D03*
Y122100D02*
D03*
Y137100D02*
D03*
X264500Y177200D02*
D03*
X68400Y182500D02*
D03*
X56600D02*
D03*
X321100Y29900D02*
D03*
Y14900D02*
D03*
X309300D02*
D03*
Y107100D02*
D03*
X291100D02*
D03*
X276300Y177200D02*
D03*
X321100Y107100D02*
D03*
Y137100D02*
D03*
X309300D02*
D03*
X321100Y122100D02*
D03*
X309300D02*
D03*
X291100Y137100D02*
D03*
Y122100D02*
D03*
Y29900D02*
D03*
X309300D02*
D03*
X291100Y44900D02*
D03*
X321100D02*
D03*
X309300D02*
D03*
X291100Y14900D02*
D03*
X143708Y13864D02*
D03*
X142100Y69500D02*
D03*
X99608Y13864D02*
D03*
X87808D02*
D03*
X127608D02*
D03*
X115808D02*
D03*
D36*
X20400Y140705D02*
D03*
X38600Y139720D02*
D03*
X29500Y140705D02*
D03*
D37*
X296900Y83165D02*
D03*
X321900Y60835D02*
D03*
X296900Y175365D02*
D03*
X321900Y153035D02*
D03*
X301900Y175365D02*
D03*
X311900D02*
D03*
X316900D02*
D03*
X321900D02*
D03*
X316900Y153035D02*
D03*
X311900D02*
D03*
X306900D02*
D03*
X301900D02*
D03*
X296900D02*
D03*
X291900D02*
D03*
Y175200D02*
D03*
X306900Y175365D02*
D03*
X291900Y60835D02*
D03*
X296900D02*
D03*
X301900D02*
D03*
X306900D02*
D03*
X311900D02*
D03*
X316900D02*
D03*
X321900Y83165D02*
D03*
X316900D02*
D03*
X311900D02*
D03*
X306900D02*
D03*
X301900D02*
D03*
X291900Y83000D02*
D03*
D38*
X29500Y166295D02*
D03*
D39*
X180000Y15000D02*
D03*
X217500Y45500D02*
D03*
X227500D02*
D03*
X180000Y25000D02*
D03*
Y35000D02*
D03*
X217500Y23000D02*
D03*
X227500Y90500D02*
D03*
X217500Y68000D02*
D03*
Y90500D02*
D03*
X26000Y121500D02*
D03*
X36000D02*
D03*
X16000D02*
D03*
X217500Y112500D02*
D03*
Y135500D02*
D03*
Y158000D02*
D03*
X227500Y68000D02*
D03*
X237500Y23000D02*
D03*
Y45500D02*
D03*
Y68000D02*
D03*
Y90500D02*
D03*
X227500Y23000D02*
D03*
X237500Y112500D02*
D03*
X227500D02*
D03*
Y135500D02*
D03*
X237500Y158000D02*
D03*
X227500D02*
D03*
X237500Y135500D02*
D03*
X25500Y93500D02*
D03*
X15500D02*
D03*
X35500D02*
D03*
X237500Y180500D02*
D03*
X227500D02*
D03*
X217500D02*
D03*
X247500D02*
D03*
X45500Y93500D02*
D03*
X247500Y112500D02*
D03*
X180000Y45000D02*
D03*
X247500Y158000D02*
D03*
Y135500D02*
D03*
Y68000D02*
D03*
Y23000D02*
D03*
Y45500D02*
D03*
Y90500D02*
D03*
X46000Y121500D02*
D03*
D40*
X29500Y37500D02*
D03*
Y61122D02*
D03*
D41*
X47807Y51279D02*
D03*
D42*
X145000Y120000D02*
D03*
Y130000D02*
D03*
Y140000D02*
D03*
X115000D02*
D03*
Y130000D02*
D03*
Y120000D02*
D03*
D43*
X155000Y158000D02*
D03*
X145000D02*
D03*
X155000Y180500D02*
D03*
X145000D02*
D03*
X24000Y182500D02*
D03*
X34000D02*
D03*
X115000Y80500D02*
D03*
X125000D02*
D03*
D44*
X58500Y60500D02*
D03*
X75000Y182500D02*
D03*
X15000Y140500D02*
D03*
X67000Y112500D02*
D03*
X66500Y38000D02*
D03*
X132000Y34500D02*
D03*
X161500Y14000D02*
D03*
X153500Y78000D02*
D03*
X264500Y170000D02*
D03*
X272400Y137200D02*
D03*
Y122100D02*
D03*
X272300Y106900D02*
D03*
X296800Y184500D02*
D03*
X327100Y153000D02*
D03*
M02*
