M48
;Layer_Color=9474304
;FILE_FORMAT=2:5
INCH,LZ
;TYPE=PLATED
T01F00S00C0.01400
T03F00S00C0.04000
T04F00S00C0.04016
T05F00S00C0.04331
%
T01
X00665Y0038
X0132Y00345
X01615Y0014
X02723Y01069
X02724Y01221
Y01372
X02645Y017
X02968Y01845
X03271Y0153
X01535Y0078
X00585Y00605
X0067Y01125
X0075Y01825
X0015Y01405
T03
X018Y0015
Y0025
Y0035
Y0045
X02175Y00455
X02275
X02375
X02475
Y0023
X02375
X02275
X02175
Y0068
X02275
X02375
X02475
Y00905
X02375
X02275
X02175
Y01125
X02275
X02375
X02475
Y01355
X02375
X02275
X02175
Y0158
X02275
X02375
X02475
Y01805
X02375
X02275
X02175
X0046Y01215
X0036
X0026
X0016
X00155Y00935
X00255
X00355
X00455
T04
X0115Y00805
X0125
X0145Y0158
X0155
Y01805
X0145
X0034Y01825
X0024
T05
X0115Y012
Y013
Y014
X0145
Y013
Y012
M30
