G04*
G04 #@! TF.GenerationSoftware,Altium Limited,Altium Designer,25.8.1 (18)*
G04*
G04 Layer_Color=65535*
%FSLAX25Y25*%
%MOIN*%
G70*
G04*
G04 #@! TF.SameCoordinates,6F37A4DD-EB5D-482F-BFD6-522767561105*
G04*
G04*
G04 #@! TF.FilePolarity,Positive*
G04*
G01*
G75*
%ADD10C,0.01500*%
%ADD11C,0.01000*%
%ADD12C,0.02000*%
%ADD13C,0.01575*%
%ADD14C,0.01181*%
%ADD15C,0.00600*%
%ADD16C,0.00500*%
%ADD17C,0.00787*%
%ADD18C,0.00800*%
%ADD19C,0.00787*%
D10*
X287900Y149200D02*
G03*
X287900Y149200I-500J0D01*
G01*
Y57000D02*
G03*
X287900Y57000I-500J0D01*
G01*
X41000Y99000D02*
X51500D01*
Y88000D02*
Y99000D01*
X9500D02*
X11000D01*
X9500Y88000D02*
Y99000D01*
Y88000D02*
X51500D01*
X174500Y40500D02*
Y51000D01*
X185500D01*
X174500Y9000D02*
Y10500D01*
Y9000D02*
X185500D01*
Y51000D01*
X41500Y127000D02*
X52000D01*
Y116000D02*
Y127000D01*
X10000D02*
X11500D01*
X10000Y116000D02*
Y127000D01*
Y116000D02*
X52000D01*
D11*
X149889Y112500D02*
G03*
X149889Y112500I-394J0D01*
G01*
X110898Y147500D02*
G03*
X110898Y147500I-394J0D01*
G01*
X245800Y186000D02*
X253500D01*
X211500Y175000D02*
X253500D01*
X211500D02*
Y186000D01*
X213000D01*
X253500Y175000D02*
Y186000D01*
X217250Y190000D02*
X217977D01*
X216250Y188500D02*
X218750D01*
X217500Y185973D02*
Y187000D01*
X215250D02*
X219750D01*
X140000Y115000D02*
Y146000D01*
X150500D01*
X140000Y115000D02*
X150500D01*
Y146000D01*
X120000Y114000D02*
Y145000D01*
X109500Y114000D02*
X120000D01*
X109500Y145000D02*
X120000D01*
X109500Y114000D02*
Y145000D01*
X33250Y100000D02*
X37750D01*
X35500Y98973D02*
Y100000D01*
X34250Y101500D02*
X36750D01*
X35250Y103000D02*
X35977D01*
X23250Y100000D02*
X27750D01*
X25500Y98973D02*
Y100000D01*
X24250Y101500D02*
X26750D01*
X25250Y103000D02*
X25977D01*
X13250Y100000D02*
X17750D01*
X15500Y98973D02*
Y100000D01*
X14250Y101500D02*
X16750D01*
X15250Y103000D02*
X15977D01*
X29500Y37591D02*
Y37622D01*
X305300Y11900D02*
Y17500D01*
X215250Y119000D02*
X219750D01*
X217500Y117973D02*
Y119000D01*
X216250Y120500D02*
X218750D01*
X217250Y122000D02*
X217977D01*
X246400Y118000D02*
X253500D01*
Y107000D02*
Y118000D01*
X211500D02*
X213000D01*
X211500Y107000D02*
Y118000D01*
Y107000D02*
X253500D01*
X305300Y104100D02*
Y109700D01*
Y134100D02*
Y139700D01*
Y119100D02*
Y124700D01*
X215250Y74500D02*
X219750D01*
X217500Y73473D02*
Y74500D01*
X216250Y76000D02*
X218750D01*
X217250Y77500D02*
X217977D01*
X246500Y73500D02*
X253500D01*
Y62500D02*
Y73500D01*
X211500D02*
X213000D01*
X211500Y62500D02*
Y73500D01*
Y62500D02*
X253500D01*
X215250Y142000D02*
X219750D01*
X217500Y140973D02*
Y142000D01*
X216250Y143500D02*
X218750D01*
X217250Y145000D02*
X217977D01*
X246100Y141000D02*
X253500D01*
Y130000D02*
Y141000D01*
X211500D02*
X213000D01*
X211500Y130000D02*
Y141000D01*
Y130000D02*
X253500D01*
X215250Y29500D02*
X219750D01*
X217500Y28473D02*
Y29500D01*
X216250Y31000D02*
X218750D01*
X217250Y32500D02*
X217977D01*
X247000Y28500D02*
X253500D01*
Y17500D02*
Y28500D01*
X211500D02*
X213000D01*
X211500Y17500D02*
Y28500D01*
Y17500D02*
X253500D01*
X215250Y52000D02*
X219750D01*
X217500Y50973D02*
Y52000D01*
X216250Y53500D02*
X218750D01*
X217250Y55000D02*
X217977D01*
X246600Y51000D02*
X253500D01*
Y40000D02*
Y51000D01*
X211500D02*
X213000D01*
X211500Y40000D02*
Y51000D01*
Y40000D02*
X253500D01*
X215250Y164500D02*
X219750D01*
X217500Y163473D02*
Y164500D01*
X216250Y166000D02*
X218750D01*
X217250Y167500D02*
X217977D01*
X245600Y163500D02*
X253500D01*
Y152500D02*
Y163500D01*
X211500D02*
X213000D01*
X211500Y152500D02*
Y163500D01*
Y152500D02*
X253500D01*
X215250Y97000D02*
X219750D01*
X217500Y95973D02*
Y97000D01*
X216250Y98500D02*
X218750D01*
X217250Y100000D02*
X217977D01*
X246700Y96000D02*
X253500D01*
Y85000D02*
Y96000D01*
X211500D02*
X213000D01*
X211500Y85000D02*
Y96000D01*
Y85000D02*
X253500D01*
X305300Y26900D02*
Y32500D01*
Y41900D02*
Y47500D01*
X173500Y32750D02*
Y37250D01*
Y35000D02*
X174527D01*
X172000Y33750D02*
Y36250D01*
X170500Y34750D02*
Y35477D01*
X173500Y22750D02*
Y27250D01*
Y25000D02*
X174527D01*
X172000Y23750D02*
Y26250D01*
X170500Y24750D02*
Y25477D01*
X173500Y12750D02*
Y17250D01*
Y15000D02*
X174527D01*
X172000Y13750D02*
Y16250D01*
X170500Y14750D02*
Y15477D01*
X69900Y62700D02*
X75500D01*
X64400Y144100D02*
X70000D01*
X33750Y128000D02*
X38250D01*
X36000Y126973D02*
Y128000D01*
X34750Y129500D02*
X37250D01*
X35750Y131000D02*
X36477D01*
X23750Y128000D02*
X28250D01*
X26000Y126973D02*
Y128000D01*
X24750Y129500D02*
X27250D01*
X25750Y131000D02*
X26477D01*
X13750Y128000D02*
X18250D01*
X16000Y126973D02*
Y128000D01*
X14750Y129500D02*
X17250D01*
X15750Y131000D02*
X16477D01*
X144766Y24132D02*
X144099Y24799D01*
X142766D01*
X142100Y24132D01*
Y21466D01*
X142766Y20800D01*
X144099D01*
X144766Y21466D01*
X146099Y24132D02*
X146765Y24799D01*
X148098D01*
X148765Y24132D01*
Y23466D01*
X148098Y22799D01*
X147432D01*
X148098D01*
X148765Y22133D01*
Y21466D01*
X148098Y20800D01*
X146765D01*
X146099Y21466D01*
X118333Y67206D02*
Y63873D01*
X119000Y63207D01*
X120333D01*
X120999Y63873D01*
Y67206D01*
X122332Y63207D02*
X123665D01*
X122998D01*
Y67206D01*
X122332Y66539D01*
X66335Y87999D02*
Y84001D01*
X69001D01*
X73000Y87999D02*
X70334D01*
Y84001D01*
X73000D01*
X70334Y86000D02*
X71667D01*
X74333Y87999D02*
Y84001D01*
X76332D01*
X76999Y84667D01*
Y87333D01*
X76332Y87999D01*
X74333D01*
X78332Y84001D02*
X79664D01*
X78998D01*
Y87999D01*
X78332Y87333D01*
X69868Y29801D02*
Y33799D01*
X71867D01*
X72534Y33133D01*
Y31800D01*
X71867Y31134D01*
X69868D01*
X71201D02*
X72534Y29801D01*
X76532D02*
X73866D01*
X76532Y32466D01*
Y33133D01*
X75866Y33799D01*
X74533D01*
X73866Y33133D01*
X48834Y73833D02*
X48167Y74499D01*
X46834D01*
X46168Y73833D01*
Y71167D01*
X46834Y70501D01*
X48167D01*
X48834Y71167D01*
X52832Y70501D02*
X50166D01*
X52832Y73166D01*
Y73833D01*
X52166Y74499D01*
X50833D01*
X50166Y73833D01*
X279768Y87499D02*
Y84167D01*
X280434Y83501D01*
X281767D01*
X282434Y84167D01*
Y87499D01*
X283767Y86833D02*
X284433Y87499D01*
X285766D01*
X286432Y86833D01*
Y86166D01*
X285766Y85500D01*
X285099D01*
X285766D01*
X286432Y84834D01*
Y84167D01*
X285766Y83501D01*
X284433D01*
X283767Y84167D01*
X327668Y171999D02*
Y168667D01*
X328334Y168001D01*
X329667D01*
X330334Y168667D01*
Y171999D01*
X334332Y168001D02*
X331666D01*
X334332Y170667D01*
Y171333D01*
X333666Y171999D01*
X332333D01*
X331666Y171333D01*
X195769Y25699D02*
X198434D01*
X197102D01*
Y21701D01*
X199767D02*
Y25699D01*
X201767D01*
X202433Y25033D01*
Y23700D01*
X201767Y23033D01*
X199767D01*
X203766Y21701D02*
X205099D01*
X204433D01*
Y25699D01*
X203766Y25033D01*
X207098Y21701D02*
X208431D01*
X207765D01*
Y25699D01*
X207098Y25033D01*
X194802Y70599D02*
X197468D01*
X196135D01*
Y66601D01*
X198801D02*
Y70599D01*
X200800D01*
X201467Y69933D01*
Y68600D01*
X200800Y67934D01*
X198801D01*
X202800Y66601D02*
X204133D01*
X203466D01*
Y70599D01*
X202800Y69933D01*
X206132D02*
X206798Y70599D01*
X208131D01*
X208798Y69933D01*
Y67267D01*
X208131Y66601D01*
X206798D01*
X206132Y67267D01*
Y69933D01*
X197468Y93099D02*
X200134D01*
X198801D01*
Y89101D01*
X201467D02*
Y93099D01*
X203467D01*
X204133Y92433D01*
Y91100D01*
X203467Y90434D01*
X201467D01*
X205466Y89767D02*
X206132Y89101D01*
X207465D01*
X208132Y89767D01*
Y92433D01*
X207465Y93099D01*
X206132D01*
X205466Y92433D01*
Y91766D01*
X206132Y91100D01*
X208132D01*
X196868Y115399D02*
X199534D01*
X198201D01*
Y111401D01*
X200867D02*
Y115399D01*
X202867D01*
X203533Y114733D01*
Y113400D01*
X202867Y112733D01*
X200867D01*
X204866Y114733D02*
X205532Y115399D01*
X206865D01*
X207532Y114733D01*
Y114067D01*
X206865Y113400D01*
X207532Y112733D01*
Y112067D01*
X206865Y111401D01*
X205532D01*
X204866Y112067D01*
Y112733D01*
X205532Y113400D01*
X204866Y114067D01*
Y114733D01*
X205532Y113400D02*
X206865D01*
X197468Y159899D02*
X200134D01*
X198801D01*
Y155901D01*
X201467D02*
Y159899D01*
X203467D01*
X204133Y159233D01*
Y157900D01*
X203467Y157234D01*
X201467D01*
X205466Y159899D02*
X208132D01*
Y159233D01*
X205466Y156567D01*
Y155901D01*
X167634Y159333D02*
X166968Y159999D01*
X165635D01*
X164968Y159333D01*
Y158667D01*
X165635Y158000D01*
X166968D01*
X167634Y157334D01*
Y156667D01*
X166968Y156001D01*
X165635D01*
X164968Y156667D01*
X168967Y159999D02*
Y156001D01*
X170300Y157334D01*
X171633Y156001D01*
Y159999D01*
X175632D02*
X174299Y159333D01*
X172966Y158000D01*
Y156667D01*
X173632Y156001D01*
X174965D01*
X175632Y156667D01*
Y157334D01*
X174965Y158000D01*
X172966D01*
X167834Y182533D02*
X167168Y183199D01*
X165835D01*
X165168Y182533D01*
Y181867D01*
X165835Y181200D01*
X167168D01*
X167834Y180534D01*
Y179867D01*
X167168Y179201D01*
X165835D01*
X165168Y179867D01*
X169167Y183199D02*
Y179201D01*
X170500Y180534D01*
X171833Y179201D01*
Y183199D01*
X175832D02*
X173166D01*
Y181200D01*
X174499Y181867D01*
X175165D01*
X175832Y181200D01*
Y179867D01*
X175165Y179201D01*
X173832D01*
X173166Y179867D01*
X98934Y131833D02*
X98268Y132499D01*
X96935D01*
X96268Y131833D01*
Y131167D01*
X96935Y130500D01*
X98268D01*
X98934Y129833D01*
Y129167D01*
X98268Y128501D01*
X96935D01*
X96268Y129167D01*
X100267Y132499D02*
Y128501D01*
X101600Y129833D01*
X102933Y128501D01*
Y132499D01*
X106265Y128501D02*
Y132499D01*
X104266Y130500D01*
X106932D01*
X6334Y183833D02*
X5668Y184499D01*
X4335D01*
X3668Y183833D01*
Y183167D01*
X4335Y182500D01*
X5668D01*
X6334Y181834D01*
Y181167D01*
X5668Y180501D01*
X4335D01*
X3668Y181167D01*
X7667Y184499D02*
Y180501D01*
X9000Y181834D01*
X10333Y180501D01*
Y184499D01*
X11666Y183833D02*
X12332Y184499D01*
X13665D01*
X14332Y183833D01*
Y183167D01*
X13665Y182500D01*
X12999D01*
X13665D01*
X14332Y181834D01*
Y181167D01*
X13665Y180501D01*
X12332D01*
X11666Y181167D01*
X263602Y12301D02*
Y16299D01*
X265601D01*
X266267Y15633D01*
Y14300D01*
X265601Y13634D01*
X263602D01*
X264934D02*
X266267Y12301D01*
X267600D02*
X268933D01*
X268267D01*
Y16299D01*
X267600Y15633D01*
X273598Y12301D02*
X270933D01*
X273598Y14966D01*
Y15633D01*
X272932Y16299D01*
X271599D01*
X270933Y15633D01*
X260668Y105001D02*
Y108999D01*
X262667D01*
X263334Y108333D01*
Y107000D01*
X262667Y106333D01*
X260668D01*
X262001D02*
X263334Y105001D01*
X264667D02*
X266000D01*
X265333D01*
Y108999D01*
X264667Y108333D01*
X267999Y105001D02*
X269332D01*
X268666D01*
Y108999D01*
X267999Y108333D01*
X263902Y28001D02*
Y31999D01*
X265901D01*
X266567Y31333D01*
Y30000D01*
X265901Y29334D01*
X263902D01*
X265234D02*
X266567Y28001D01*
X267900D02*
X269233D01*
X268567D01*
Y31999D01*
X267900Y31333D01*
X271233D02*
X271899Y31999D01*
X273232D01*
X273898Y31333D01*
Y28667D01*
X273232Y28001D01*
X271899D01*
X271233Y28667D01*
Y31333D01*
X262668Y120001D02*
Y123999D01*
X264667D01*
X265334Y123333D01*
Y122000D01*
X264667Y121334D01*
X262668D01*
X264001D02*
X265334Y120001D01*
X266667Y120667D02*
X267333Y120001D01*
X268666D01*
X269332Y120667D01*
Y123333D01*
X268666Y123999D01*
X267333D01*
X266667Y123333D01*
Y122667D01*
X267333Y122000D01*
X269332D01*
X266068Y43001D02*
Y46999D01*
X268067D01*
X268734Y46333D01*
Y45000D01*
X268067Y44334D01*
X266068D01*
X267401D02*
X268734Y43001D01*
X270066Y46333D02*
X270733Y46999D01*
X272066D01*
X272732Y46333D01*
Y45666D01*
X272066Y45000D01*
X272732Y44334D01*
Y43667D01*
X272066Y43001D01*
X270733D01*
X270066Y43667D01*
Y44334D01*
X270733Y45000D01*
X270066Y45666D01*
Y46333D01*
X270733Y45000D02*
X272066D01*
X4135Y151401D02*
Y155399D01*
X6134D01*
X6801Y154733D01*
Y153400D01*
X6134Y152734D01*
X4135D01*
X10799Y154733D02*
X10133Y155399D01*
X8800D01*
X8134Y154733D01*
Y154067D01*
X8800Y153400D01*
X10133D01*
X10799Y152734D01*
Y152067D01*
X10133Y151401D01*
X8800D01*
X8134Y152067D01*
X12132Y151401D02*
X13465D01*
X12799D01*
Y155399D01*
X12132Y154733D01*
X327669Y17199D02*
Y13201D01*
X330335D01*
X334334Y17199D02*
X331668D01*
Y13201D01*
X334334D01*
X331668Y15200D02*
X333001D01*
X335666Y17199D02*
Y13201D01*
X337666D01*
X338332Y13867D01*
Y16533D01*
X337666Y17199D01*
X335666D01*
X339665Y16533D02*
X340332Y17199D01*
X341665D01*
X342331Y16533D01*
Y15867D01*
X341665Y15200D01*
X342331Y14534D01*
Y13867D01*
X341665Y13201D01*
X340332D01*
X339665Y13867D01*
Y14534D01*
X340332Y15200D01*
X339665Y15867D01*
Y16533D01*
X340332Y15200D02*
X341665D01*
X325669Y109499D02*
Y105501D01*
X328335D01*
X332334Y109499D02*
X329668D01*
Y105501D01*
X332334D01*
X329668Y107500D02*
X331001D01*
X333666Y109499D02*
Y105501D01*
X335666D01*
X336332Y106167D01*
Y108833D01*
X335666Y109499D01*
X333666D01*
X337665D02*
X340331D01*
Y108833D01*
X337665Y106167D01*
Y105501D01*
X327669Y31799D02*
Y27801D01*
X330335D01*
X334334Y31799D02*
X331668D01*
Y27801D01*
X334334D01*
X331668Y29800D02*
X333001D01*
X335666Y31799D02*
Y27801D01*
X337666D01*
X338332Y28467D01*
Y31133D01*
X337666Y31799D01*
X335666D01*
X342331D02*
X340998Y31133D01*
X339665Y29800D01*
Y28467D01*
X340332Y27801D01*
X341665D01*
X342331Y28467D01*
Y29134D01*
X341665Y29800D01*
X339665D01*
X336734Y68533D02*
X336067Y69199D01*
X334734D01*
X334068Y68533D01*
Y65867D01*
X334734Y65201D01*
X336067D01*
X336734Y65867D01*
X340732Y69199D02*
X339399Y68533D01*
X338067Y67200D01*
Y65867D01*
X338733Y65201D01*
X340066D01*
X340732Y65867D01*
Y66534D01*
X340066Y67200D01*
X338067D01*
X265566Y187532D02*
X264899Y188199D01*
X263566D01*
X262900Y187532D01*
Y184866D01*
X263566Y184200D01*
X264899D01*
X265566Y184866D01*
X269565Y188199D02*
X266899D01*
Y186199D01*
X268232Y186866D01*
X268898D01*
X269565Y186199D01*
Y184866D01*
X268898Y184200D01*
X267565D01*
X266899Y184866D01*
X81934Y183733D02*
X81267Y184399D01*
X79934D01*
X79268Y183733D01*
Y181067D01*
X79934Y180401D01*
X81267D01*
X81934Y181067D01*
X85266Y180401D02*
Y184399D01*
X83267Y182400D01*
X85932D01*
X143166Y79732D02*
X142499Y80399D01*
X141166D01*
X140500Y79732D01*
Y77066D01*
X141166Y76400D01*
X142499D01*
X143166Y77066D01*
X144499Y76400D02*
X145832D01*
X145165D01*
Y80399D01*
X144499Y79732D01*
X325369Y124099D02*
Y120101D01*
X328035D01*
X332034Y124099D02*
X329368D01*
Y120101D01*
X332034D01*
X329368Y122100D02*
X330701D01*
X333366Y124099D02*
Y120101D01*
X335366D01*
X336032Y120767D01*
Y123433D01*
X335366Y124099D01*
X333366D01*
X340031D02*
X337365D01*
Y122100D01*
X338698Y122766D01*
X339365D01*
X340031Y122100D01*
Y120767D01*
X339365Y120101D01*
X338032D01*
X337365Y120767D01*
X327169Y46999D02*
Y43001D01*
X329835D01*
X333834Y46999D02*
X331168D01*
Y43001D01*
X333834D01*
X331168Y45000D02*
X332501D01*
X335167Y46999D02*
Y43001D01*
X337166D01*
X337832Y43667D01*
Y46333D01*
X337166Y46999D01*
X335167D01*
X341164Y43001D02*
Y46999D01*
X339165Y45000D01*
X341831D01*
X325669Y138999D02*
Y135001D01*
X328335D01*
X332334Y138999D02*
X329668D01*
Y135001D01*
X332334D01*
X329668Y137000D02*
X331001D01*
X333666Y138999D02*
Y135001D01*
X335666D01*
X336332Y135667D01*
Y138333D01*
X335666Y138999D01*
X333666D01*
X337665Y138333D02*
X338332Y138999D01*
X339665D01*
X340331Y138333D01*
Y137666D01*
X339665Y137000D01*
X338998D01*
X339665D01*
X340331Y136334D01*
Y135667D01*
X339665Y135001D01*
X338332D01*
X337665Y135667D01*
X60469Y170299D02*
Y166301D01*
X63135D01*
X67134Y170299D02*
X64468D01*
Y166301D01*
X67134D01*
X64468Y168300D02*
X65801D01*
X68467Y170299D02*
Y166301D01*
X70466D01*
X71132Y166967D01*
Y169633D01*
X70466Y170299D01*
X68467D01*
X75131Y166301D02*
X72465D01*
X75131Y168966D01*
Y169633D01*
X74464Y170299D01*
X73132D01*
X72465Y169633D01*
X197568Y182799D02*
X200234D01*
X198901D01*
Y178801D01*
X201567D02*
Y182799D01*
X203567D01*
X204233Y182133D01*
Y180800D01*
X203567Y180133D01*
X201567D01*
X208232Y182799D02*
X206899Y182133D01*
X205566Y180800D01*
Y179467D01*
X206232Y178801D01*
X207565D01*
X208232Y179467D01*
Y180133D01*
X207565Y180800D01*
X205566D01*
X198068Y47599D02*
X200734D01*
X199401D01*
Y43601D01*
X202067D02*
Y47599D01*
X204066D01*
X204733Y46933D01*
Y45600D01*
X204066Y44934D01*
X202067D01*
X208732Y47599D02*
X206066D01*
Y45600D01*
X207399Y46266D01*
X208065D01*
X208732Y45600D01*
Y44267D01*
X208065Y43601D01*
X206732D01*
X206066Y44267D01*
X197368Y137799D02*
X200034D01*
X198701D01*
Y133801D01*
X201367D02*
Y137799D01*
X203366D01*
X204033Y137133D01*
Y135800D01*
X203366Y135134D01*
X201367D01*
X207365Y133801D02*
Y137799D01*
X205366Y135800D01*
X208032D01*
X42468Y133899D02*
X45134D01*
X43801D01*
Y129901D01*
X46467D02*
Y133899D01*
X48466D01*
X49133Y133233D01*
Y131900D01*
X48466Y131234D01*
X46467D01*
X50466Y133233D02*
X51132Y133899D01*
X52465D01*
X53132Y133233D01*
Y132566D01*
X52465Y131900D01*
X51799D01*
X52465D01*
X53132Y131234D01*
Y130567D01*
X52465Y129901D01*
X51132D01*
X50466Y130567D01*
X171000Y58799D02*
X173666D01*
X172333D01*
Y54800D01*
X174999D02*
Y58799D01*
X176998D01*
X177664Y58132D01*
Y56799D01*
X176998Y56133D01*
X174999D01*
X181663Y54800D02*
X178997D01*
X181663Y57466D01*
Y58132D01*
X180997Y58799D01*
X179664D01*
X178997Y58132D01*
X42035Y85199D02*
X44701D01*
X43368D01*
Y81201D01*
X46034D02*
Y85199D01*
X48033D01*
X48699Y84533D01*
Y83200D01*
X48033Y82534D01*
X46034D01*
X50032Y81201D02*
X51365D01*
X50699D01*
Y85199D01*
X50032Y84533D01*
X156434Y141033D02*
X155768Y141699D01*
X154435D01*
X153768Y141033D01*
Y140366D01*
X154435Y139700D01*
X155768D01*
X156434Y139033D01*
Y138367D01*
X155768Y137701D01*
X154435D01*
X153768Y138367D01*
X157767Y141699D02*
Y137701D01*
X159100Y139033D01*
X160433Y137701D01*
Y141699D01*
X164432Y137701D02*
X161766D01*
X164432Y140366D01*
Y141033D01*
X163765Y141699D01*
X162432D01*
X161766Y141033D01*
X122001Y92333D02*
X121334Y92999D01*
X120001D01*
X119335Y92333D01*
Y91666D01*
X120001Y91000D01*
X121334D01*
X122001Y90334D01*
Y89667D01*
X121334Y89001D01*
X120001D01*
X119335Y89667D01*
X123334Y92999D02*
Y89001D01*
X124667Y90334D01*
X125999Y89001D01*
Y92999D01*
X127332Y89001D02*
X128665D01*
X127999D01*
Y92999D01*
X127332Y92333D01*
X263168Y135501D02*
Y139499D01*
X265167D01*
X265834Y138833D01*
Y137500D01*
X265167Y136834D01*
X263168D01*
X264501D02*
X265834Y135501D01*
X267166Y139499D02*
X269832D01*
Y138833D01*
X267166Y136167D01*
Y135501D01*
X272100Y75800D02*
Y79799D01*
X274099D01*
X274766Y79132D01*
Y77799D01*
X274099Y77133D01*
X272100D01*
X273433D02*
X274766Y75800D01*
X278765Y79799D02*
X277432Y79132D01*
X276099Y77799D01*
Y76466D01*
X276765Y75800D01*
X278098D01*
X278765Y76466D01*
Y77133D01*
X278098Y77799D01*
X276099D01*
X261968Y154901D02*
Y158899D01*
X263967D01*
X264634Y158233D01*
Y156900D01*
X263967Y156234D01*
X261968D01*
X263301D02*
X264634Y154901D01*
X268632Y158899D02*
X265967D01*
Y156900D01*
X267299Y157566D01*
X267966D01*
X268632Y156900D01*
Y155567D01*
X267966Y154901D01*
X266633D01*
X265967Y155567D01*
X75368Y122501D02*
Y126499D01*
X77367D01*
X78034Y125833D01*
Y124500D01*
X77367Y123834D01*
X75368D01*
X76701D02*
X78034Y122501D01*
X81366D02*
Y126499D01*
X79366Y124500D01*
X82032D01*
X114200Y21700D02*
Y25699D01*
X116199D01*
X116866Y25032D01*
Y23699D01*
X116199Y23033D01*
X114200D01*
X115533D02*
X116866Y21700D01*
X118199Y25032D02*
X118865Y25699D01*
X120198D01*
X120864Y25032D01*
Y24366D01*
X120198Y23699D01*
X119532D01*
X120198D01*
X120864Y23033D01*
Y22366D01*
X120198Y21700D01*
X118865D01*
X118199Y22366D01*
X86200Y21700D02*
Y25699D01*
X88199D01*
X88866Y25032D01*
Y23699D01*
X88199Y23033D01*
X86200D01*
X87533D02*
X88866Y21700D01*
X90199D02*
X91532D01*
X90865D01*
Y25699D01*
X90199Y25032D01*
X12934Y67501D02*
Y71499D01*
X14933D01*
X15600Y70833D01*
Y69500D01*
X14933Y68834D01*
X12934D01*
X16933Y67501D02*
X18266D01*
X17599D01*
Y71499D01*
X16933Y70833D01*
D12*
X134089Y158156D02*
G03*
X134089Y158156I-500J0D01*
G01*
Y180656D02*
G03*
X134089Y180656I-500J0D01*
G01*
X45911Y182344D02*
G03*
X45911Y182344I-500J0D01*
G01*
X132220Y37706D02*
G03*
X132220Y37706I-492J0D01*
G01*
X104089Y80655D02*
G03*
X104089Y80655I-500J0D01*
G01*
D13*
X30387Y71322D02*
G03*
X30387Y71322I-787J0D01*
G01*
D14*
X122993Y41906D02*
G03*
X122993Y41906I-394J0D01*
G01*
D15*
X15707Y143894D02*
G03*
X15707Y143894I-707J0D01*
G01*
X62000Y70600D02*
Y74400D01*
X55000Y70600D02*
Y74400D01*
X280388Y154600D02*
Y158400D01*
X271412Y154600D02*
Y158400D01*
X333600Y79000D02*
Y82800D01*
X340600Y79000D02*
Y82800D01*
X71488Y122100D02*
Y125900D01*
X62512Y122100D02*
Y125900D01*
X60600Y179000D02*
X64400D01*
X60600Y186000D02*
X64400D01*
X280388Y62400D02*
Y66200D01*
X271412Y62400D02*
Y66200D01*
X309500Y20018D02*
X320500D01*
X309600Y9782D02*
X320600D01*
X309500Y112218D02*
X320500D01*
X309600Y101982D02*
X320600D01*
X309500Y142218D02*
X320500D01*
X309600Y131982D02*
X320600D01*
X309500Y127218D02*
X320500D01*
X309600Y116982D02*
X320600D01*
X283300Y141588D02*
X287100D01*
X283300Y132612D02*
X287100D01*
X283300Y126588D02*
X287100D01*
X283300Y117612D02*
X287100D01*
X268500Y180700D02*
X272300D01*
X268500Y173700D02*
X272300D01*
X283300Y111588D02*
X287100D01*
X283300Y102612D02*
X287100D01*
X283300Y34388D02*
X287100D01*
X283300Y25412D02*
X287100D01*
X309500Y35018D02*
X320500D01*
X309600Y24782D02*
X320600D01*
X283300Y49388D02*
X287100D01*
X283300Y40412D02*
X287100D01*
X309500Y50018D02*
X320500D01*
X309600Y39782D02*
X320600D01*
X283300Y19388D02*
X287100D01*
X283300Y10412D02*
X287100D01*
X147708Y17364D02*
X151508D01*
X147708Y10364D02*
X151508D01*
X67382Y66900D02*
Y77900D01*
X77618Y67000D02*
Y78000D01*
X61882Y148300D02*
Y159300D01*
X72118Y148400D02*
Y159400D01*
X16300Y146200D02*
X42700D01*
X16300D02*
Y160800D01*
X42700D01*
Y146200D02*
Y160800D01*
X146100Y73000D02*
X149900D01*
X146100Y66000D02*
X149900D01*
X91808Y18352D02*
X95608D01*
X91808Y9376D02*
X95608D01*
X119808Y18352D02*
X123608D01*
X119808Y9376D02*
X123608D01*
X76988Y48100D02*
Y51900D01*
X68012Y48100D02*
Y51900D01*
D16*
X324341Y156523D02*
Y171877D01*
X289459Y156523D02*
Y171877D01*
Y64323D02*
Y79677D01*
X324341Y64323D02*
Y79677D01*
X47216Y59222D02*
Y63968D01*
X38200D02*
X47216D01*
X11784Y7276D02*
X47216D01*
X11784D02*
Y63968D01*
X20000D01*
X47216Y7276D02*
Y42512D01*
D17*
X138228Y153000D02*
X161772D01*
X138228D02*
Y162965D01*
X161772D01*
Y153000D02*
Y162965D01*
X138228Y175500D02*
X161772D01*
X138228D02*
Y185465D01*
X161772D01*
Y175500D02*
Y185465D01*
X17228Y187500D02*
X40772D01*
Y177535D02*
Y187500D01*
X17228Y177535D02*
X40772D01*
X17228D02*
Y187500D01*
X108228Y75500D02*
X131772D01*
X108228D02*
Y85465D01*
X131772D01*
Y75500D02*
Y85465D01*
D18*
X260400Y99400D02*
X346000Y99500D01*
X90000Y108000D02*
X192000D01*
Y4000D02*
Y196000D01*
X80000Y4000D02*
Y58000D01*
X90000D01*
Y108000D01*
Y196000D01*
X4000Y108000D02*
X90000Y108000D01*
X265700Y96931D02*
Y91933D01*
X268199D01*
X269032Y92766D01*
Y93599D01*
X268199Y94432D01*
X265700D01*
X268199D01*
X269032Y95265D01*
Y96098D01*
X268199Y96931D01*
X265700D01*
X270698Y91933D02*
Y95265D01*
X272364Y96931D01*
X274031Y95265D01*
Y91933D01*
Y94432D01*
X270698D01*
X275697Y96931D02*
Y91933D01*
X278196D01*
X279029Y92766D01*
Y96098D01*
X278196Y96931D01*
X275697D01*
X280695Y91100D02*
X284027D01*
X285694Y96931D02*
Y91933D01*
X289026D01*
X290692D02*
Y95265D01*
X292358Y96931D01*
X294024Y95265D01*
Y91933D01*
Y94432D01*
X290692D01*
X295690Y96931D02*
Y96098D01*
X297356Y94432D01*
X299023Y96098D01*
Y96931D01*
X297356Y94432D02*
Y91933D01*
X303188Y96931D02*
X301522D01*
X300689Y96098D01*
Y92766D01*
X301522Y91933D01*
X303188D01*
X304021Y92766D01*
Y96098D01*
X303188Y96931D01*
X305687D02*
Y92766D01*
X306520Y91933D01*
X308186D01*
X309019Y92766D01*
Y96931D01*
X310685D02*
X314018D01*
X312351D01*
Y91933D01*
X265832Y195398D02*
X264999Y196231D01*
X263333D01*
X262500Y195398D01*
Y192066D01*
X263333Y191233D01*
X264999D01*
X265832Y192066D01*
Y193732D01*
X264166D01*
X269998Y196231D02*
X268331D01*
X267498Y195398D01*
Y192066D01*
X268331Y191233D01*
X269998D01*
X270831Y192066D01*
Y195398D01*
X269998Y196231D01*
X274996D02*
X273330D01*
X272497Y195398D01*
Y192066D01*
X273330Y191233D01*
X274996D01*
X275829Y192066D01*
Y195398D01*
X274996Y196231D01*
X277495D02*
Y191233D01*
X279994D01*
X280827Y192066D01*
Y195398D01*
X279994Y196231D01*
X277495D01*
X282493Y190400D02*
X285826D01*
X287492Y196231D02*
Y191233D01*
X290824D01*
X292490D02*
Y194565D01*
X294156Y196231D01*
X295823Y194565D01*
Y191233D01*
Y193732D01*
X292490D01*
X297489Y196231D02*
Y195398D01*
X299155Y193732D01*
X300821Y195398D01*
Y196231D01*
X299155Y193732D02*
Y191233D01*
X304986Y196231D02*
X303320D01*
X302487Y195398D01*
Y192066D01*
X303320Y191233D01*
X304986D01*
X305819Y192066D01*
Y195398D01*
X304986Y196231D01*
X307485D02*
Y192066D01*
X308318Y191233D01*
X309985D01*
X310818Y192066D01*
Y196231D01*
X312484D02*
X315816D01*
X314150D01*
Y191233D01*
X222800Y36265D02*
Y32266D01*
X224799D01*
X225466Y32933D01*
Y33599D01*
X224799Y34266D01*
X222800D01*
X224799D01*
X225466Y34932D01*
Y35599D01*
X224799Y36265D01*
X222800D01*
X226799Y31600D02*
X229465D01*
X230797Y36265D02*
Y33599D01*
X232130Y32266D01*
X233463Y33599D01*
Y36265D01*
X235463Y32266D02*
X236795D01*
X237462Y32933D01*
Y34266D01*
X236795Y34932D01*
X235463D01*
X234796Y34266D01*
Y32933D01*
X235463Y32266D01*
X238795Y34932D02*
Y32933D01*
X239461Y32266D01*
X241461D01*
Y34932D01*
X243460Y35599D02*
Y34932D01*
X242794D01*
X244127D01*
X243460D01*
Y32933D01*
X244127Y32266D01*
X246126Y31600D02*
X248792D01*
X250125Y32266D02*
Y36265D01*
X252124D01*
X252790Y35599D01*
Y34266D01*
X252124Y33599D01*
X250125D01*
X251457D02*
X252790Y32266D01*
X226300Y59132D02*
Y55133D01*
X228299D01*
X228966Y55799D01*
Y56466D01*
X228299Y57132D01*
X226300D01*
X228299D01*
X228966Y57799D01*
Y58465D01*
X228299Y59132D01*
X226300D01*
X230299Y54466D02*
X232964D01*
X234297Y59132D02*
X236963D01*
X235630D01*
Y55133D01*
X238296Y57799D02*
Y55133D01*
Y56466D01*
X238963Y57132D01*
X239629Y57799D01*
X240296D01*
X242295Y55133D02*
X243628D01*
X242961D01*
Y57799D01*
X242295D01*
X246960Y53800D02*
X247626D01*
X248293Y54466D01*
Y57799D01*
X246294D01*
X245627Y57132D01*
Y55799D01*
X246294Y55133D01*
X248293D01*
X225900Y81265D02*
Y77266D01*
X227899D01*
X228566Y77933D01*
Y78599D01*
X227899Y79266D01*
X225900D01*
X227899D01*
X228566Y79932D01*
Y80599D01*
X227899Y81265D01*
X225900D01*
X229899Y76600D02*
X232564D01*
X236563Y77933D02*
Y80599D01*
X235897Y81265D01*
X234564D01*
X233897Y80599D01*
Y77933D01*
X234564Y77266D01*
X235897D01*
X235230Y78599D02*
X236563Y77266D01*
X235897D02*
X236563Y77933D01*
X237896Y81265D02*
Y77266D01*
X240562D01*
X242561D02*
X243894D01*
X244561Y77933D01*
Y79266D01*
X243894Y79932D01*
X242561D01*
X241895Y79266D01*
Y77933D01*
X242561Y77266D01*
X245894Y79932D02*
Y77933D01*
X246560Y77266D01*
X247227Y77933D01*
X247893Y77266D01*
X248559Y77933D01*
Y79932D01*
X225600Y104132D02*
Y100133D01*
X227599D01*
X228266Y100799D01*
Y101466D01*
X227599Y102132D01*
X225600D01*
X227599D01*
X228266Y102799D01*
Y103465D01*
X227599Y104132D01*
X225600D01*
X229599Y99466D02*
X232264D01*
X236263Y100799D02*
Y103465D01*
X235597Y104132D01*
X234264D01*
X233597Y103465D01*
Y100799D01*
X234264Y100133D01*
X235597D01*
X234930Y101466D02*
X236263Y100133D01*
X235597D02*
X236263Y100799D01*
X237596Y104132D02*
Y100133D01*
Y102132D01*
X240262D01*
Y104132D01*
Y100133D01*
X241595D02*
X242928D01*
X242261D01*
Y102799D01*
X241595D01*
X246260Y98800D02*
X246926D01*
X247593Y99466D01*
Y102799D01*
X245594D01*
X244927Y102132D01*
Y100799D01*
X245594Y100133D01*
X247593D01*
X248926Y104132D02*
Y100133D01*
Y102132D01*
X249592Y102799D01*
X250925D01*
X251592Y102132D01*
Y100133D01*
X226666Y124999D02*
X225999Y125665D01*
X224666D01*
X224000Y124999D01*
Y122333D01*
X224666Y121667D01*
X225999D01*
X226666Y122333D01*
Y123666D01*
X225333D01*
X227999Y121000D02*
X230664D01*
X231997Y125665D02*
Y122999D01*
X233330Y121667D01*
X234663Y122999D01*
Y125665D01*
X236663Y121667D02*
X237996D01*
X238662Y122333D01*
Y123666D01*
X237996Y124332D01*
X236663D01*
X235996Y123666D01*
Y122333D01*
X236663Y121667D01*
X239995Y124332D02*
Y122333D01*
X240661Y121667D01*
X242661D01*
Y124332D01*
X244660Y124999D02*
Y124332D01*
X243994D01*
X245326D01*
X244660D01*
Y122333D01*
X245326Y121667D01*
X247326Y121000D02*
X249992D01*
X251325Y121667D02*
Y125665D01*
X253324D01*
X253990Y124999D01*
Y123666D01*
X253324Y122999D01*
X251325D01*
X252657D02*
X253990Y121667D01*
X228866Y148365D02*
X228199Y149032D01*
X226866D01*
X226200Y148365D01*
Y145699D01*
X226866Y145033D01*
X228199D01*
X228866Y145699D01*
Y147032D01*
X227533D01*
X230199Y144367D02*
X232864D01*
X234197Y149032D02*
X236863D01*
X235530D01*
Y145033D01*
X238196Y147699D02*
Y145033D01*
Y146366D01*
X238863Y147032D01*
X239529Y147699D01*
X240195D01*
X242195Y145033D02*
X243528D01*
X242861D01*
Y147699D01*
X242195D01*
X246860Y143700D02*
X247527D01*
X248193Y144367D01*
Y147699D01*
X246194D01*
X245527Y147032D01*
Y145699D01*
X246194Y145033D01*
X248193D01*
X227766Y170499D02*
X227099Y171165D01*
X225766D01*
X225100Y170499D01*
Y167833D01*
X225766Y167166D01*
X227099D01*
X227766Y167833D01*
Y169166D01*
X226433D01*
X229099Y166500D02*
X231765D01*
X235763Y167833D02*
Y170499D01*
X235097Y171165D01*
X233764D01*
X233097Y170499D01*
Y167833D01*
X233764Y167166D01*
X235097D01*
X234430Y168499D02*
X235763Y167166D01*
X235097D02*
X235763Y167833D01*
X237096Y171165D02*
Y167166D01*
X239762D01*
X241761D02*
X243094D01*
X243761Y167833D01*
Y169166D01*
X243094Y169832D01*
X241761D01*
X241095Y169166D01*
Y167833D01*
X241761Y167166D01*
X245094Y169832D02*
Y167833D01*
X245760Y167166D01*
X246427Y167833D01*
X247093Y167166D01*
X247759Y167833D01*
Y169832D01*
X226966Y193165D02*
X226299Y193832D01*
X224966D01*
X224300Y193165D01*
Y190499D01*
X224966Y189833D01*
X226299D01*
X226966Y190499D01*
Y191832D01*
X225633D01*
X228299Y189166D02*
X230964D01*
X234963Y190499D02*
Y193165D01*
X234297Y193832D01*
X232964D01*
X232297Y193165D01*
Y190499D01*
X232964Y189833D01*
X234297D01*
X233630Y191166D02*
X234963Y189833D01*
X234297D02*
X234963Y190499D01*
X236296Y193832D02*
Y189833D01*
Y191832D01*
X238962D01*
Y193832D01*
Y189833D01*
X240295D02*
X241628D01*
X240961D01*
Y192499D01*
X240295D01*
X244960Y188500D02*
X245626D01*
X246293Y189166D01*
Y192499D01*
X244294D01*
X243627Y191832D01*
Y190499D01*
X244294Y189833D01*
X246293D01*
X247626Y193832D02*
Y189833D01*
Y191832D01*
X248292Y192499D01*
X249625D01*
X250292Y191832D01*
Y189833D01*
X169999Y66832D02*
X168667D01*
X168000Y66165D01*
Y63499D01*
X168667Y62833D01*
X169999D01*
X170666Y63499D01*
Y66165D01*
X169999Y66832D01*
X171999Y65499D02*
Y63499D01*
X172665Y62833D01*
X174664D01*
Y65499D01*
X176664Y66165D02*
Y65499D01*
X175997D01*
X177330D01*
X176664D01*
Y63499D01*
X177330Y62833D01*
X179330Y61500D02*
Y65499D01*
X181329D01*
X181995Y64832D01*
Y63499D01*
X181329Y62833D01*
X179330D01*
X183328Y65499D02*
Y63499D01*
X183995Y62833D01*
X185994D01*
Y65499D01*
X187994Y66165D02*
Y65499D01*
X187327D01*
X188660D01*
X187994D01*
Y63499D01*
X188660Y62833D01*
X167700Y73599D02*
X170366D01*
X169033D01*
Y69600D01*
X171699D02*
X173032D01*
X172365D01*
Y72266D01*
X171699D01*
X175031Y69600D02*
Y72266D01*
X175697D01*
X176364Y71599D01*
Y69600D01*
Y71599D01*
X177030Y72266D01*
X177697Y71599D01*
Y69600D01*
X181029D02*
X179696D01*
X179030Y70266D01*
Y71599D01*
X179696Y72266D01*
X181029D01*
X181695Y71599D01*
Y70933D01*
X179030D01*
X183028Y72266D02*
Y69600D01*
Y70933D01*
X183695Y71599D01*
X184361Y72266D01*
X185028D01*
X101100Y99999D02*
X103766D01*
X102433D01*
Y96000D01*
X105099D02*
X106432D01*
X105765D01*
Y98666D01*
X105099D01*
X108431Y96000D02*
Y98666D01*
X109097D01*
X109764Y97999D01*
Y96000D01*
Y97999D01*
X110430Y98666D01*
X111097Y97999D01*
Y96000D01*
X114429D02*
X113096D01*
X112430Y96666D01*
Y97999D01*
X113096Y98666D01*
X114429D01*
X115095Y97999D01*
Y97333D01*
X112430D01*
X116428Y98666D02*
Y96000D01*
Y97333D01*
X117095Y97999D01*
X117761Y98666D01*
X118428D01*
X125092Y96000D02*
X126425D01*
X127092Y96666D01*
Y97999D01*
X126425Y98666D01*
X125092D01*
X124426Y97999D01*
Y96666D01*
X125092Y96000D01*
X128425D02*
Y98666D01*
X130424D01*
X131090Y97999D01*
Y96000D01*
X132423D02*
X135089Y98666D01*
X137088Y96000D02*
X138421D01*
X139088Y96666D01*
Y97999D01*
X138421Y98666D01*
X137088D01*
X136422Y97999D01*
Y96666D01*
X137088Y96000D01*
X141087D02*
Y99332D01*
Y97999D01*
X140421D01*
X141753D01*
X141087D01*
Y99332D01*
X141753Y99999D01*
X144419Y96000D02*
Y99332D01*
Y97999D01*
X143753D01*
X145086D01*
X144419D01*
Y99332D01*
X145086Y99999D01*
X154633Y121500D02*
X155299D01*
X155966Y122167D01*
Y125499D01*
X153966D01*
X153300Y124832D01*
Y123499D01*
X153966Y122833D01*
X155966D01*
X157965D02*
X159298D01*
X159965Y123499D01*
Y124832D01*
X159298Y125499D01*
X157965D01*
X157299Y124832D01*
Y123499D01*
X157965Y122833D01*
X161964D02*
X163297D01*
X163963Y123499D01*
Y124832D01*
X163297Y125499D01*
X161964D01*
X161297Y124832D01*
Y123499D01*
X161964Y122833D01*
X167962Y126832D02*
Y122833D01*
X165963D01*
X165296Y123499D01*
Y124832D01*
X165963Y125499D01*
X167962D01*
X169295Y122833D02*
X171961Y125499D01*
X173294Y126832D02*
Y122833D01*
X175293D01*
X175959Y123499D01*
Y124166D01*
Y124832D01*
X175293Y125499D01*
X173294D01*
X177959D02*
X179292D01*
X179958Y124832D01*
Y122833D01*
X177959D01*
X177292Y123499D01*
X177959Y124166D01*
X179958D01*
X183957Y126832D02*
Y122833D01*
X181957D01*
X181291Y123499D01*
Y124832D01*
X181957Y125499D01*
X183957D01*
X152500Y133599D02*
X155166D01*
X153833D01*
Y129600D01*
X156499D02*
X157832D01*
X157165D01*
Y132266D01*
X156499D01*
X159831Y129600D02*
Y132266D01*
X160497D01*
X161164Y131599D01*
Y129600D01*
Y131599D01*
X161830Y132266D01*
X162497Y131599D01*
Y129600D01*
X165829D02*
X164496D01*
X163830Y130266D01*
Y131599D01*
X164496Y132266D01*
X165829D01*
X166496Y131599D01*
Y130933D01*
X163830D01*
X167828Y132266D02*
Y129600D01*
Y130933D01*
X168495Y131599D01*
X169161Y132266D01*
X169828D01*
X176492Y129600D02*
X177825D01*
X178492Y130266D01*
Y131599D01*
X177825Y132266D01*
X176492D01*
X175826Y131599D01*
Y130266D01*
X176492Y129600D01*
X179824Y132266D02*
Y130266D01*
X180491Y129600D01*
X182490D01*
Y132266D01*
X184490Y132932D02*
Y132266D01*
X183823D01*
X185156D01*
X184490D01*
Y130266D01*
X185156Y129600D01*
X95700Y151799D02*
X98366D01*
X97033Y153132D02*
Y150467D01*
X99699Y153132D02*
X100365Y153799D01*
X101698D01*
X102365Y153132D01*
Y152466D01*
X101698Y151799D01*
X101032D01*
X101698D01*
X102365Y151133D01*
Y150467D01*
X101698Y149800D01*
X100365D01*
X99699Y150467D01*
X103697Y149800D02*
Y153799D01*
X105697D01*
X106363Y153132D01*
Y151799D01*
X105697Y151133D01*
X103697D01*
X107696Y153132D02*
X108363Y153799D01*
X109695D01*
X110362Y153132D01*
Y152466D01*
X109695Y151799D01*
X109029D01*
X109695D01*
X110362Y151133D01*
Y150467D01*
X109695Y149800D01*
X108363D01*
X107696Y150467D01*
X111695Y153799D02*
Y151133D01*
X113028Y149800D01*
X114361Y151133D01*
Y153799D01*
X115694Y149800D02*
X118359Y152466D01*
X119692Y151799D02*
X122358D01*
X121025Y153132D02*
Y150467D01*
X126357Y153799D02*
X123691D01*
Y151799D01*
X125024Y152466D01*
X125690D01*
X126357Y151799D01*
Y150467D01*
X125690Y149800D01*
X124357D01*
X123691Y150467D01*
X127690Y153799D02*
Y151133D01*
X129023Y149800D01*
X130356Y151133D01*
Y153799D01*
X130166Y169865D02*
X129499Y170532D01*
X128166D01*
X127500Y169865D01*
Y167199D01*
X128166Y166533D01*
X129499D01*
X130166Y167199D01*
Y168532D01*
X128833D01*
X132165Y166533D02*
X133498D01*
X134165Y167199D01*
Y168532D01*
X133498Y169199D01*
X132165D01*
X131499Y168532D01*
Y167199D01*
X132165Y166533D01*
X136164D02*
X137497D01*
X138163Y167199D01*
Y168532D01*
X137497Y169199D01*
X136164D01*
X135497Y168532D01*
Y167199D01*
X136164Y166533D01*
X142162Y170532D02*
Y166533D01*
X140163D01*
X139496Y167199D01*
Y168532D01*
X140163Y169199D01*
X142162D01*
X147494Y170532D02*
Y166533D01*
Y168532D01*
X150159D01*
Y170532D01*
Y166533D01*
X153492D02*
X152159D01*
X151492Y167199D01*
Y168532D01*
X152159Y169199D01*
X153492D01*
X154158Y168532D01*
Y167866D01*
X151492D01*
X155491Y169199D02*
X158157Y166533D01*
X156824Y167866D01*
X158157Y169199D01*
X155491Y166533D01*
X163488Y165200D02*
Y169199D01*
X165488D01*
X166154Y168532D01*
Y167199D01*
X165488Y166533D01*
X163488D01*
X168154D02*
X169486D01*
X170153Y167199D01*
Y168532D01*
X169486Y169199D01*
X168154D01*
X167487Y168532D01*
Y167199D01*
X168154Y166533D01*
X171486Y169199D02*
Y167199D01*
X172152Y166533D01*
X172819Y167199D01*
X173485Y166533D01*
X174152Y167199D01*
Y169199D01*
X177484Y166533D02*
X176151D01*
X175485Y167199D01*
Y168532D01*
X176151Y169199D01*
X177484D01*
X178150Y168532D01*
Y167866D01*
X175485D01*
X179483Y169199D02*
Y166533D01*
Y167866D01*
X180150Y168532D01*
X180816Y169199D01*
X181483D01*
X128200Y192899D02*
Y188900D01*
X130199D01*
X130866Y189567D01*
Y190233D01*
X130199Y190899D01*
X128200D01*
X130199D01*
X130866Y191566D01*
Y192232D01*
X130199Y192899D01*
X128200D01*
X132865Y191566D02*
X134198D01*
X134864Y190899D01*
Y188900D01*
X132865D01*
X132199Y189567D01*
X132865Y190233D01*
X134864D01*
X138863Y192899D02*
Y188900D01*
X136864D01*
X136197Y189567D01*
Y190899D01*
X136864Y191566D01*
X138863D01*
X144195Y192899D02*
Y188900D01*
Y190899D01*
X146861D01*
Y192899D01*
Y188900D01*
X150193D02*
X148860D01*
X148194Y189567D01*
Y190899D01*
X148860Y191566D01*
X150193D01*
X150859Y190899D01*
Y190233D01*
X148194D01*
X152192Y191566D02*
X154858Y188900D01*
X153525Y190233D01*
X154858Y191566D01*
X152192Y188900D01*
X160190D02*
Y192899D01*
X162189D01*
X162856Y192232D01*
Y190899D01*
X162189Y190233D01*
X160190D01*
X164855Y188900D02*
X166188D01*
X166854Y189567D01*
Y190899D01*
X166188Y191566D01*
X164855D01*
X164188Y190899D01*
Y189567D01*
X164855Y188900D01*
X168187Y191566D02*
Y189567D01*
X168853Y188900D01*
X169520Y189567D01*
X170186Y188900D01*
X170853Y189567D01*
Y191566D01*
X174185Y188900D02*
X172852D01*
X172186Y189567D01*
Y190899D01*
X172852Y191566D01*
X174185D01*
X174852Y190899D01*
Y190233D01*
X172186D01*
X176184Y191566D02*
Y188900D01*
Y190233D01*
X176851Y190899D01*
X177517Y191566D01*
X178184D01*
X14566Y85099D02*
X11900D01*
Y83099D01*
X13233Y83766D01*
X13899D01*
X14566Y83099D01*
Y81766D01*
X13899Y81100D01*
X12566D01*
X11900Y81766D01*
X15899Y85099D02*
Y82433D01*
X17232Y81100D01*
X18564Y82433D01*
Y85099D01*
X23896D02*
X26562D01*
X25229D01*
Y81100D01*
X27895D02*
Y85099D01*
X29894D01*
X30561Y84432D01*
Y83099D01*
X29894Y82433D01*
X27895D01*
X16300Y113132D02*
X16966Y113799D01*
X18299D01*
X18966Y113132D01*
Y112466D01*
X18299Y111799D01*
X17633D01*
X18299D01*
X18966Y111133D01*
Y110467D01*
X18299Y109800D01*
X16966D01*
X16300Y110467D01*
X20299Y109800D02*
Y113799D01*
X22298D01*
X22964Y113132D01*
Y111799D01*
X22298Y111133D01*
X20299D01*
X24297Y113132D02*
X24964Y113799D01*
X26297D01*
X26963Y113132D01*
Y112466D01*
X26297Y111799D01*
X25630D01*
X26297D01*
X26963Y111133D01*
Y110467D01*
X26297Y109800D01*
X24964D01*
X24297Y110467D01*
X28296Y113799D02*
Y111133D01*
X29629Y109800D01*
X30962Y111133D01*
Y113799D01*
X36294D02*
X38959D01*
X37626D01*
Y109800D01*
X40292D02*
Y113799D01*
X42292D01*
X42958Y113132D01*
Y111799D01*
X42292Y111133D01*
X40292D01*
X14700Y194132D02*
X15367Y194799D01*
X16699D01*
X17366Y194132D01*
Y193466D01*
X16699Y192799D01*
X16033D01*
X16699D01*
X17366Y192133D01*
Y191466D01*
X16699Y190800D01*
X15367D01*
X14700Y191466D01*
X18699Y190800D02*
Y194799D01*
X20698D01*
X21364Y194132D01*
Y192799D01*
X20698Y192133D01*
X18699D01*
X22697Y194132D02*
X23364Y194799D01*
X24697D01*
X25363Y194132D01*
Y193466D01*
X24697Y192799D01*
X24030D01*
X24697D01*
X25363Y192133D01*
Y191466D01*
X24697Y190800D01*
X23364D01*
X22697Y191466D01*
X26696Y194799D02*
Y192133D01*
X28029Y190800D01*
X29362Y192133D01*
Y194799D01*
X37359Y194132D02*
X36693Y194799D01*
X35360D01*
X34694Y194132D01*
Y191466D01*
X35360Y190800D01*
X36693D01*
X37359Y191466D01*
X38692Y190800D02*
Y193466D01*
X40025Y194799D01*
X41358Y193466D01*
Y190800D01*
Y192799D01*
X38692D01*
X42691Y190800D02*
Y194799D01*
X44690D01*
X45357Y194132D01*
Y192799D01*
X44690Y192133D01*
X42691D01*
D19*
X114699Y38306D02*
X127297D01*
X114701Y60106D02*
X127299D01*
M02*
